<svg id="Layer_1" data-name="Layer 1" xmlns="http://www.w3.org/2000/svg" viewBox="0 0 202 210"><defs><style>.cls-1{fill:#fff;}</style></defs><title>INSTRAGRAM</title><path class="cls-1" d="M141.35,207H58.42A58.49,58.49,0,0,1,0,148.6V65.67A58.49,58.49,0,0,1,58.42,7.25h82.93a58.49,58.49,0,0,1,58.42,58.42V148.6A58.49,58.49,0,0,1,141.35,207ZM58.42,26.1A39.61,39.61,0,0,0,18.85,65.67V148.6a39.62,39.62,0,0,0,39.57,39.58h82.93a39.63,39.63,0,0,0,39.58-39.58V65.67A39.62,39.62,0,0,0,141.35,26.1Z"/><path class="cls-1" d="M99.89,160.54a53.4,53.4,0,1,1,53.39-53.4A53.46,53.46,0,0,1,99.89,160.54Zm0-87.95a34.55,34.55,0,1,0,34.55,34.55A34.59,34.59,0,0,0,99.89,72.59Z"/><circle class="cls-1" cx="153.28" cy="54.68" r="11.31"/></svg>