<svg id="Layer_1" data-name="Layer 1" xmlns="http://www.w3.org/2000/svg" viewBox="0 0 426 502"><defs><style>.cls-1{opacity:0.35;}.cls-2{fill:#1cf445;}.cls-3{fill:none;stroke:#1cf445;stroke-miterlimit:10;stroke-width:3px;}.cls-4{fill:#fff;}.cls-5{fill:#101111;}.cls-6{fill:#2d302e;}</style></defs><title>Inteligencia de negocios</title><g class="cls-1"><path class="cls-2" d="M55,179.09l-1.38-4.72a34.2,34.2,0,0,1-9.43-3.53l-4.3,2.79-10.81-10L31.61,159a34.45,34.45,0,0,1-3.94-8.75l-5.43-1.15-.55-14.74,5.47-1.6a34.4,34.4,0,0,1,3.21-8.56l-3.22-5,10-10.82,5.17,2.84a34.7,34.7,0,0,1,8.12-3.78l1.25-5.88L66.47,101l1.62,5.55a34.33,34.33,0,0,1,8.64,3.06l4.85-3.15,10.81,10-2.59,4.74A34.19,34.19,0,0,1,94,130l5.24,1.11.56,14.74L95,147.2a34.2,34.2,0,0,1-3.37,9.52l2.72,4.19-10,10.81-4.2-2.3a34.41,34.41,0,0,1-9.32,4.33l-1,4.79Zm-10.91-13.2,1.13.68a30.4,30.4,0,0,0,10.42,3.92l1.29.22,1.19,4.06,8.18-.31.88-4.12,1.27-.32a30.29,30.29,0,0,0,10.28-4.78l1.07-.77,3.63,2,5.57-6-2.32-3.58.64-1.12A30,30,0,0,0,91,145.22l.21-1.32,4.19-1.22-.31-8.19-4.5-1-.34-1.23a30.3,30.3,0,0,0-4.67-9.69l-.78-1.08,2.29-4.17-6-5.57-4.2,2.73-1.11-.62a30.07,30.07,0,0,0-9.73-3.44l-1.3-.22-1.43-4.9-8.19.3-1.09,5.15-1.23.34a30.43,30.43,0,0,0-9.18,4.28l-1.07.73L38,113.66l-5.57,6L35.3,124l-.66,1.12A30.16,30.16,0,0,0,31,134.78L30.79,136,26,137.44l.31,8.18,4.76,1,.32,1.28a30.06,30.06,0,0,0,4.39,9.76l.73,1.07-2.2,4,6,5.57Z"/><path class="cls-2" d="M80.34,158.51a26.46,26.46,0,1,1-2.58-38.45h0a26.48,26.48,0,0,1,3.63,37.24C81.05,157.72,80.7,158.12,80.34,158.51ZM43.25,124.05c-.33.36-.65.72-1,1.1a24.17,24.17,0,1,0,34-3.32h0A24.2,24.2,0,0,0,43.25,124.05Z"/><path class="cls-2" d="M375.51,207.12l-1.38-4.72a34.52,34.52,0,0,1-9.43-3.53l-4.3,2.79-10.81-10,2.54-4.64a34.45,34.45,0,0,1-3.94-8.75l-5.43-1.15-.55-14.75,5.47-1.59a34.4,34.4,0,0,1,3.21-8.56l-3.22-4.95,10-10.82,5.18,2.84a34.12,34.12,0,0,1,8.12-3.78l1.25-5.88,14.74-.55,1.62,5.55a34.33,34.33,0,0,1,8.64,3.06l4.85-3.15,10.81,10-2.59,4.74a34.29,34.29,0,0,1,4.17,8.69l5.24,1.12.56,14.74-4.81,1.4a34.31,34.31,0,0,1-3.37,9.52l2.71,4.18-10,10.82-4.2-2.3a34.71,34.71,0,0,1-9.32,4.33l-1,4.79Zm-10.91-13.2,1.13.68a30.18,30.18,0,0,0,10.42,3.91l1.29.23,1.19,4.06,8.18-.31.88-4.12,1.27-.32a30.29,30.29,0,0,0,10.28-4.78l1.07-.77,3.63,2,5.57-6-2.32-3.58.64-1.12a30,30,0,0,0,3.73-10.53l.21-1.32,4.19-1.22-.31-8.19-4.5-1-.34-1.23a30.15,30.15,0,0,0-4.67-9.68l-.78-1.08,2.29-4.17-6-5.58-4.2,2.73-1.11-.62a30.38,30.38,0,0,0-9.73-3.43l-1.3-.22-1.43-4.9-8.19.3-1.09,5.15-1.23.34a30,30,0,0,0-9.18,4.28l-1.07.73-4.55-2.49-5.57,6,2.83,4.36-.66,1.12a30.07,30.07,0,0,0-3.61,9.64l-.24,1.26-4.77,1.39.31,8.19,4.76,1,.32,1.28a30.15,30.15,0,0,0,4.39,9.76l.73,1.07-2.2,4,6,5.57Z"/><path class="cls-2" d="M400.86,186.53a26.46,26.46,0,1,1-2.58-38.44h0a26.48,26.48,0,0,1,3.63,37.24C401.57,185.74,401.22,186.15,400.86,186.53Zm-37.09-34.45c-.33.36-.65.72-1,1.1a24.16,24.16,0,1,0,34-3.32h0A24.19,24.19,0,0,0,363.77,152.08Z"/><path class="cls-2" d="M247.14,124.72,245.76,120a34.52,34.52,0,0,1-9.43-3.53l-4.3,2.79-10.82-10,2.55-4.64a34.45,34.45,0,0,1-3.94-8.75l-5.43-1.16-.55-14.74,5.47-1.59a34,34,0,0,1,3.21-8.56l-3.22-5,10-10.82,5.18,2.84a34.12,34.12,0,0,1,8.12-3.78l1.25-5.88,14.74-.55,1.62,5.55a34,34,0,0,1,8.64,3.06l4.85-3.15,10.81,10-2.6,4.74a34.32,34.32,0,0,1,4.18,8.69l5.24,1.12.55,14.74-4.8,1.4a34,34,0,0,1-3.38,9.52l2.72,4.18-10,10.82-4.2-2.3a34.63,34.63,0,0,1-9.33,4.33l-1,4.79Zm-10.91-13.2,1.13.68a30.18,30.18,0,0,0,10.42,3.91l1.29.23,1.18,4.06,8.19-.31.88-4.12,1.27-.32a30.16,30.16,0,0,0,10.27-4.78l1.08-.77,3.63,2,5.57-6-2.33-3.58.65-1.12a30.15,30.15,0,0,0,3.73-10.53l.21-1.32,4.19-1.22-.31-8.19-4.5-1-.35-1.23a29.92,29.92,0,0,0-4.66-9.68L277,67.17,279.28,63l-6-5.58-4.21,2.73-1.1-.62a30.38,30.38,0,0,0-9.73-3.43l-1.3-.22L255.5,51l-8.19.31-1.09,5.15-1.23.34A30.17,30.17,0,0,0,235.81,61l-1.07.74-4.55-2.49-5.57,6,2.83,4.36-.66,1.12a30,30,0,0,0-3.61,9.64l-.25,1.26-4.76,1.39.3,8.19,4.77,1,.32,1.28A30.15,30.15,0,0,0,228,103.3l.73,1.07-2.2,4,6,5.57Z"/><path class="cls-2" d="M272.49,104.13a26.46,26.46,0,1,1-2.58-38.44h0a26.48,26.48,0,0,1,3.63,37.24Q273,103.55,272.49,104.13ZM235.4,69.68c-.33.36-.65.72-1,1.1a24.16,24.16,0,1,0,34-3.32h0A24.19,24.19,0,0,0,235.4,69.68Z"/><circle class="cls-3" cx="60.73" cy="140.06" r="18.66"/><circle class="cls-3" cx="86.89" cy="81.84" r="18.66"/><circle class="cls-3" cx="170.02" cy="91.61" r="18.66"/><circle class="cls-3" cx="253.03" cy="85.69" r="18.66"/><circle class="cls-3" cx="328.09" cy="74" r="18.66"/><circle class="cls-3" cx="382.19" cy="168.73" r="18.66"/><line class="cls-3" x1="94.54" y1="151.76" x2="223.77" y2="196.47"/><line class="cls-3" x1="100.9" y1="93.53" x2="222.39" y2="194.89"/><line class="cls-3" x1="176.55" y1="109.1" x2="223.77" y2="196.47"/><line class="cls-3" x1="244.08" y1="119.59" x2="223.77" y2="196.47"/><line class="cls-3" x1="317.95" y1="88.69" x2="223.77" y2="196.47"/><line class="cls-3" x1="345.47" y1="176.42" x2="223.77" y2="196.47"/></g><g class="cls-1"><path class="cls-2" d="M387,339.3l1.38,4.72a34,34,0,0,1,9.42,3.54l4.31-2.8,10.81,10-2.54,4.64a34.45,34.45,0,0,1,3.94,8.75l5.42,1.16.56,14.74-5.47,1.59a34.4,34.4,0,0,1-3.21,8.56l3.21,4.95-10,10.82-5.18-2.84a34.23,34.23,0,0,1-8.11,3.78l-1.25,5.88-14.74.55-1.62-5.55a34,34,0,0,1-8.64-3.06l-4.85,3.15-10.81-10,2.59-4.74a34.29,34.29,0,0,1-4.17-8.69l-5.25-1.12-.55-14.74,4.8-1.4a34.66,34.66,0,0,1,3.38-9.52l-2.72-4.18,10-10.82,4.21,2.3a34.71,34.71,0,0,1,9.32-4.33l1-4.79Zm10.91,13.21-1.13-.69a30.15,30.15,0,0,0-10.43-3.91l-1.28-.23-1.19-4.06-8.19.31-.87,4.12-1.27.32a30.2,30.2,0,0,0-10.28,4.78l-1.07.77-3.63-2-5.57,6,2.32,3.58-.65,1.12a30.13,30.13,0,0,0-3.72,10.53l-.21,1.32-4.19,1.22.31,8.19,4.5,1,.34,1.23a30.33,30.33,0,0,0,4.66,9.68l.79,1.08L354.85,401l6,5.57,4.2-2.73,1.11.62a30.29,30.29,0,0,0,9.73,3.43l1.29.22,1.44,4.91,8.18-.31,1.1-5.15,1.23-.34a30.17,30.17,0,0,0,9.18-4.27l1.06-.74,4.56,2.49,5.57-6-2.83-4.36.66-1.12a30.25,30.25,0,0,0,3.61-9.63l.24-1.27L416,381l-.31-8.19-4.76-1-.32-1.28a30.15,30.15,0,0,0-4.39-9.76l-.73-1.07,2.2-4-6-5.58Z"/><path class="cls-2" d="M361.64,359.89a26.46,26.46,0,1,1,2.58,38.44h0a26.49,26.49,0,0,1-3.64-37.24C360.93,360.68,361.28,360.28,361.64,359.89Zm37.09,34.45c.32-.35.64-.72,1-1.1a24.16,24.16,0,1,0-34,3.32h0A24.21,24.21,0,0,0,398.73,394.34Z"/><path class="cls-2" d="M66.47,311.27,67.85,316a34,34,0,0,1,9.42,3.54l4.31-2.8,10.81,10-2.54,4.65a34.29,34.29,0,0,1,3.94,8.75l5.42,1.15.56,14.74-5.47,1.6a34.48,34.48,0,0,1-3.21,8.55l3.22,5L84.27,382l-5.17-2.84A34.92,34.92,0,0,1,71,382.92l-1.25,5.87L55,389.34l-1.62-5.55a34.31,34.31,0,0,1-8.64-3.05l-4.85,3.14-10.81-10,2.59-4.74a34.13,34.13,0,0,1-4.17-8.69l-5.25-1.11-.55-14.74,4.8-1.41a34.66,34.66,0,0,1,3.38-9.52l-2.72-4.18,10-10.82,4.2,2.31a34.11,34.11,0,0,1,9.32-4.33l1-4.8Zm10.91,13.21-1.13-.69a30.15,30.15,0,0,0-10.43-3.91l-1.28-.23-1.19-4-8.19.3L54.29,320l-1.27.32a30.18,30.18,0,0,0-10.28,4.77l-1.07.78-3.63-2-5.57,6,2.32,3.58-.65,1.11a30.13,30.13,0,0,0-3.72,10.53l-.21,1.32L26,347.69l.31,8.18,4.5,1,.34,1.23a30.49,30.49,0,0,0,4.66,9.69l.79,1.07L34.33,373l6,5.57,4.2-2.73,1.11.62a30.06,30.06,0,0,0,9.73,3.43l1.29.22L58.11,385l8.19-.31,1.09-5.14,1.23-.34A30.43,30.43,0,0,0,77.8,375l1.06-.74,4.56,2.5,5.57-6-2.83-4.36.66-1.12a30,30,0,0,0,3.61-9.63l.24-1.27,4.77-1.39-.31-8.19-4.76-1-.32-1.27a30.11,30.11,0,0,0-4.39-9.77l-.73-1.06,2.2-4-6-5.58Z"/><path class="cls-2" d="M41.12,331.86A26.46,26.46,0,1,1,43.7,370.3h0a26.48,26.48,0,0,1-3.63-37.24Q40.58,332.44,41.12,331.86Zm37.09,34.45c.32-.35.64-.72,1-1.1a24.16,24.16,0,1,0-34,3.32h0A24.21,24.21,0,0,0,78.21,366.31Z"/><path class="cls-2" d="M194.84,393.67l1.38,4.72a34.22,34.22,0,0,1,9.43,3.54l4.3-2.8,10.81,10-2.54,4.65a34.29,34.29,0,0,1,3.94,8.75l5.43,1.15.55,14.74-5.47,1.6a34.7,34.7,0,0,1-3.21,8.56l3.22,4.95-10,10.81-5.17-2.84a34.73,34.73,0,0,1-8.12,3.79l-1.25,5.87-14.74.55-1.62-5.55a34.31,34.31,0,0,1-8.64-3.05l-4.85,3.14-10.81-10,2.59-4.74a34.13,34.13,0,0,1-4.17-8.69l-5.24-1.11L150.06,427l4.81-1.41a34.31,34.31,0,0,1,3.37-9.52l-2.72-4.18,10-10.82,4.2,2.31a34.11,34.11,0,0,1,9.32-4.33l1-4.8Zm10.91,13.21-1.13-.69a30.18,30.18,0,0,0-10.42-3.91l-1.29-.23L191.72,398l-8.18.3-.88,4.13-1.27.32a30.27,30.27,0,0,0-10.28,4.77l-1.07.78-3.63-2-5.57,6,2.32,3.58-.64,1.11a30,30,0,0,0-3.73,10.53l-.21,1.32-4.19,1.23.31,8.18,4.5,1,.34,1.23a30.3,30.3,0,0,0,4.67,9.69l.78,1.07-2.29,4.18,6,5.57,4.2-2.73,1.11.62a30.06,30.06,0,0,0,9.73,3.43l1.3.22,1.43,4.91,8.19-.31,1.09-5.14,1.23-.34a30.43,30.43,0,0,0,9.18-4.28l1.07-.74,4.55,2.5,5.57-6-2.83-4.36.66-1.12A30,30,0,0,0,218.8,438l.24-1.27,4.77-1.39-.31-8.19-4.76-1-.32-1.27a30.11,30.11,0,0,0-4.39-9.77L213.3,414l2.2-4-6-5.57Z"/><path class="cls-2" d="M169.49,414.26a26.46,26.46,0,1,1,2.58,38.44h0a26.48,26.48,0,0,1-3.63-37.24Q169,414.85,169.49,414.26Zm37.09,34.45c.33-.35.65-.72,1-1.1a24.16,24.16,0,1,0-34,3.32h0A24.19,24.19,0,0,0,206.58,448.71Z"/><circle class="cls-3" cx="381.25" cy="378.34" r="18.66"/><circle class="cls-3" cx="355.08" cy="436.55" r="18.66"/><circle class="cls-3" cx="271.96" cy="426.78" r="18.66"/><circle class="cls-3" cx="188.94" cy="432.71" r="18.66"/><circle class="cls-3" cx="113.88" cy="444.39" r="18.66"/><circle class="cls-3" cx="59.79" cy="349.66" r="18.66"/><line class="cls-3" x1="347.44" y1="366.64" x2="218.21" y2="321.92"/><line class="cls-3" x1="341.07" y1="424.86" x2="219.59" y2="323.5"/><line class="cls-3" x1="265.43" y1="409.29" x2="218.21" y2="321.92"/><line class="cls-3" x1="197.9" y1="398.8" x2="218.21" y2="321.92"/><line class="cls-3" x1="124.03" y1="429.7" x2="218.21" y2="321.92"/><line class="cls-3" x1="96.51" y1="341.97" x2="218.21" y2="321.92"/></g><path class="cls-4" d="M223.42,108.29c-93.07.46-169,76-165.87,172.28,2.89,87.64,74.56,161.86,169.83,160,89.86-1.77,164.41-75.48,162-170.62C387.15,179.69,313.74,108.58,223.42,108.29Z"/><path class="cls-2" d="M223.42,108.29c90.32.29,163.73,71.4,166,161.65,2.39,95.14-72.16,168.85-162,170.62-95.27,1.87-166.94-72.35-169.83-160C54.38,184.26,130.35,108.75,223.42,108.29ZM382.76,274.82c1.17-87.55-71.9-160.1-159.5-159.9C136,115.12,64.05,186.68,64,274.47c0,88,72.06,158.33,156.94,159.6C310.85,435.41,383.79,361.26,382.76,274.82Z"/><path class="cls-5" d="M382.76,274.82c1,86.44-71.91,160.59-161.81,159.25C136.07,432.8,64,362.45,64,274.47c0-87.79,72-159.35,159.25-159.55C310.86,114.72,383.93,187.27,382.76,274.82ZM173.54,346h61.54c3.81,0,4-.19,4-4,0-5.93,0-11.86,0-17.79,0-3.13-.68-3.74-3.87-3.73H144.55c-8.84,0-17.69,0-26.53,0-3.5,0-3.85-.41-3.78-3.94.07-3.29.28-6.58.26-9.87,0-11.38-.24-22.75-.24-34.13,0-11.65.18-23.31.25-35q.06-7.33,0-14.66c0-2.42,1.15-3.31,3.52-3.23,4.6.15,9.22.2,13.82.18,9.5-.06,19-.2,28.5-.29,1.72,0,3.16-.27,3.64-2.31.8-3.48.06-4.4-3.59-4.4q-14.53,0-29.06,0c-6.2,0-12.41,0-18.62,0-4.35,0-6.26,2.26-6.13,6.5s.06,8.45,0,12.67c0,9.21-.15,18.41-.14,27.62,0,8.92.17,17.84.17,26.77,0,9.29-.19,18.59-.2,27.89,0,8.26.18,16.53.16,24.79,0,5.92.74,6.84,6.5,6.85ZM294,277.05c11.86.43,22.7-2.08,33.14-6.35a23.76,23.76,0,0,0,11.88-10c2.63-4.53.14-11-5-14.93-6.86-5.24-14.85-7.64-23.07-9.2a101.17,101.17,0,0,0-44.73,1.58c-6.49,1.68-12.61,4.23-17.71,8.79-5.9,5.27-6.19,11.79-.78,17.49,3.79,4,8.65,6.31,13.71,8A83.8,83.8,0,0,0,294,277.05ZM243.94,341c-.09,1.07-.25,2-.25,3,0,3.39.21,6.78.08,10.16a12.21,12.21,0,0,0,4.06,9.53c5.1,5,11.41,7.62,18.25,9.39,11.45,3,23,4.85,34.81,3,4.26-.66,8.64-.91,12.76-2.07a93.75,93.75,0,0,0,17.05-6.18c4.33-2.21,8.48-5.47,9.21-11a57.62,57.62,0,0,0,.61-8.69,39.16,39.16,0,0,0-1.17-6.42,4.31,4.31,0,0,0-1,.17,5.71,5.71,0,0,0-.9.65c-7.93,6.94-17.66,9.85-27.66,11.66a97.4,97.4,0,0,1-30.06.74c-8.12-1.06-16.15-2.64-23.55-6.19C252,346.74,248.29,343.79,243.94,341Zm24.18-157c-.5,1.9-.5,4.19-1.59,5.66-7.54,10.19-15.32,20.2-23,30.29a3.51,3.51,0,0,1-3.81,1.64,13.26,13.26,0,0,0-10.49,2.09,3.91,3.91,0,0,1-2.84.57c-11.73-2.9-23.46-5.81-35.12-8.95a8.9,8.9,0,0,1-4.5-3.38,10.94,10.94,0,0,0-9.29-5c-7.77-.13-12.62,7.86-9.46,15.58.66,1.61.71,2.79-.3,4.13-.79,1.05-1.4,2.23-2.19,3.28-8.68,11.46-17.32,22.94-26.14,34.29-.87,1.13-2.73,1.69-4.24,2.07-1.69.43-3.67,0-5.24.58a10.79,10.79,0,0,0-5.8,14.3,10.62,10.62,0,0,0,13.63,5.7c5.65-2.37,8.53-9,5.72-14.49-1.24-2.43-.56-3.78.73-5.49,8.85-11.78,17.73-23.55,26.51-35.4,1.82-2.46,3.8-3.89,7-3.6a8.63,8.63,0,0,0,9.23-5.56c.9-2.11,2.15-2.4,4-1.91,4.35,1.17,8.66,2.51,13,3.58,5.36,1.32,10.73,2.62,16.16,3.6,3.91.71,6.11,2.68,6.62,6.85.71,5.74,7.9,9.79,13.26,7.47,6-2.61,8.44-7.66,6.46-14a4.19,4.19,0,0,1,.86-4.33q11.23-14.62,22.32-29.37c1.29-1.71,2.4-2.38,4.68-1.38a10.45,10.45,0,0,0,11.42-2.57A10.22,10.22,0,0,0,288.13,179a11,11,0,0,0-12.95-6.57C270.45,173.6,267.34,178.27,268.12,184Zm-24,82c-.19,1.5-.38,2.38-.4,3.27-.05,3,.07,6-.07,9-.31,6.87,3,11.59,8.6,15.08,9.09,5.69,19.34,7.9,29.71,8.75,15.17,1.24,30.26.3,44.46-6.09,6.46-2.91,12.59-6.53,13.7-14.39a77.16,77.16,0,0,0,.38-13.77c-.09-2.2-1.63-1.11-2.6-.36-1.94,1.48-3.68,3.27-5.77,4.49-10.37,6.07-21.87,8.46-33.65,9a145.25,145.25,0,0,1-23-1.22c-10-1.17-19.48-4.08-27.53-10.51C246.81,268.28,245.72,267.31,244.12,266Zm.32,25.74a8.43,8.43,0,0,0-.58,2c0,4.42-.35,8.89.19,13.24a11.42,11.42,0,0,0,3.33,6.84,49.3,49.3,0,0,0,11.88,7.78c9.4,4.11,19.55,5.37,29.73,5.72a91.68,91.68,0,0,0,35.91-5.74c5.17-1.95,9.92-4.67,13-9.42,4-6.21,2.66-13.2,2.41-20,0-.11-.28-.21-.77-.56-13.37,11.88-30,14.66-47.06,14.75S258.62,303.62,244.44,291.69ZM340,316.07c-1.16.79-1.9,1.25-2.59,1.76-1.73,1.29-3.35,2.73-5.16,3.87-8,5-17,7.51-26.3,8.4-10.92,1-21.86,1.45-32.81-.79-6.68-1.36-13.21-2.84-19.12-6.24-3.37-1.93-6.48-4.29-10-6.67a27.51,27.51,0,0,0-.31,2.84c0,3.2.25,6.41.05,9.59-.39,6.36,3,10.59,7.87,13.69,8.63,5.53,18.43,8.08,28.49,8.9s20,1.06,30-1c6.59-1.34,13-3,18.91-6.12,5.3-2.77,10.29-6.16,10.94-12.92.37-3.92.45-7.87.57-11.81A22.31,22.31,0,0,0,340,316.07Zm-99.87-50.62c-1.32,1-2.48,1.75-3.54,2.64-2.88,2.4-5.6,5-8.63,7.21a6.35,6.35,0,0,1-4.57,1.05,11.81,11.81,0,0,0-9.44,1.4c-1.65,1.05-2.92.68-4.19-.75-3.61-4.07-7.23-8.14-11-12.05-1.61-1.67-2.17-3.05-1.35-5.42a10.48,10.48,0,0,0-3.53-11.64,11.3,11.3,0,0,0-12.73-.5c-3.36,2.28-5.53,7.45-4.26,11.42.83,2.62,0,4.19-1.7,6-9.27,9.58-18.38,19.3-27.7,28.83-1.16,1.18-3.14,1.67-4.84,2.17-1.5.44-3.28.12-4.67.72a10.55,10.55,0,0,0-5.27,14.22c2.46,5.48,8.45,7.48,14.51,4.86a10.3,10.3,0,0,0,4.87-13.65c-1.29-2.77-.86-4.6,1.21-6.73,8.88-9.17,17.58-18.51,26.47-27.67a6.13,6.13,0,0,1,3.75-1.23,41.74,41.74,0,0,1,7,.2c1.29.14,2.9.44,3.72,1.29,4.44,4.58,8.78,9.27,12.92,14.12a10.15,10.15,0,0,1,2.2,5.18,11.4,11.4,0,0,0,8.17,9.69c4.25,1.09,9.59-.73,11.47-4.57a15.44,15.44,0,0,0,1.38-7.51c-.16-2.56-.12-4.46,2.19-6.09s4.1-3.57,6.18-5.33C241.26,271.15,241.7,269.24,240.16,265.45ZM199.1,367h0c10.24,0,20.47,0,30.71-.06.74,0,2.06-.71,2.08-1.15a3.52,3.52,0,0,0-1.1-2.5c-.64-.57-1.84-.45-2.59-.95a6.15,6.15,0,0,1-2.44-2.44,49.37,49.37,0,0,1-2.07-7.58c-.6-2.95-2.25-3.88-5.18-3.85-13.24.13-26.47.1-39.7.05-2.46,0-3.94,1-4.52,3.34a54.63,54.63,0,0,0-1.26,5.78c-.46,3.18-2,5.07-5.34,5.57-.72.1-1.25,1.49-1.87,2.28.76.5,1.52,1.42,2.29,1.43C178.44,367.06,188.77,367,199.1,367Zm55.73-147.34c1.28.06,2.29.15,3.29.14q10.69-.12,21.39-.3c3.17-.05,4,.75,4.11,3.89a33.69,33.69,0,0,0,.12,4.5,3.08,3.08,0,0,0,1.34,2.17,4.66,4.66,0,0,0,6.23-4.17c.1-2.25,0-4.5,0-6.76-.11-4.68-1.61-6.24-6.32-6.29-7-.08-14.08,0-21.11,0C258.68,212.83,257,214,254.83,219.69ZM197.73,213l-.13.77c6.6,1.68,13.14,3.65,19.82,4.91,4.18.79,8.57.67,12.86.66,2.68,0,5.36-.75,8.05-.8a5.42,5.42,0,0,0,5.48-5.54Z"/><path class="cls-4" d="M173.54,346H113.13c-5.76,0-6.52-.93-6.5-6.85,0-8.26-.17-16.53-.16-24.79,0-9.3.19-18.6.2-27.89,0-8.93-.17-17.85-.17-26.77,0-9.21.1-18.41.14-27.62,0-4.22.1-8.45,0-12.67s1.78-6.45,6.13-6.5c6.21-.06,12.42,0,18.62,0q14.53,0,29.06,0c3.65,0,4.39.92,3.59,4.4-.48,2-1.92,2.29-3.64,2.31-9.5.09-19,.23-28.5.29-4.6,0-9.22,0-13.82-.18-2.37-.08-3.53.81-3.52,3.23q0,7.34,0,14.66c-.07,11.66-.25,23.32-.25,35,0,11.38.19,22.75.24,34.13,0,3.29-.19,6.58-.26,9.87-.07,3.53.28,3.93,3.78,3.94,8.84,0,17.69,0,26.53,0h90.62c3.19,0,3.85.6,3.87,3.73,0,5.93,0,11.86,0,17.79,0,3.78-.15,4-4,4Zm20.94-13.65a4.5,4.5,0,0,0,4.34,4.3,4.06,4.06,0,0,0,4.57-4.19A4.51,4.51,0,0,0,199.2,328,4.89,4.89,0,0,0,194.48,332.3Z"/><path class="cls-4" d="M294,277.05a83.8,83.8,0,0,1-32.54-4.61c-5.06-1.7-9.92-4-13.71-8-5.41-5.7-5.12-12.22.78-17.49,5.1-4.56,11.22-7.11,17.71-8.79A101.17,101.17,0,0,1,311,236.57c8.22,1.56,16.21,4,23.07,9.2,5.12,3.91,7.61,10.4,5,14.93a23.76,23.76,0,0,1-11.88,10C316.69,275,305.85,277.48,294,277.05Z"/><path class="cls-4" d="M243.94,341c4.35,2.81,8.06,5.76,12.22,7.76,7.4,3.55,15.43,5.13,23.55,6.19a97.4,97.4,0,0,0,30.06-.74c10-1.81,19.73-4.72,27.66-11.66a5.71,5.71,0,0,1,.9-.65,4.31,4.31,0,0,1,1-.17,39.16,39.16,0,0,1,1.17,6.42,57.62,57.62,0,0,1-.61,8.69c-.73,5.57-4.88,8.83-9.21,11A93.75,93.75,0,0,1,313.65,374c-4.12,1.16-8.5,1.41-12.76,2.07-11.85,1.83-23.36-.05-34.81-3-6.84-1.77-13.15-4.37-18.25-9.39a12.21,12.21,0,0,1-4.06-9.53c.13-3.38-.07-6.77-.08-10.16C243.69,343,243.85,342.05,243.94,341Z"/><path class="cls-2" d="M268.12,184c-.78-5.71,2.33-10.38,7.06-11.57A11,11,0,0,1,288.13,179a10.22,10.22,0,0,1-2.35,11.23,10.45,10.45,0,0,1-11.42,2.57c-2.28-1-3.39-.33-4.68,1.38q-11.08,14.73-22.32,29.37a4.19,4.19,0,0,0-.86,4.33c2,6.39-.44,11.44-6.46,14-5.36,2.32-12.55-1.73-13.26-7.47-.51-4.17-2.71-6.14-6.62-6.85-5.43-1-10.8-2.28-16.16-3.6-4.38-1.07-8.69-2.41-13-3.58-1.82-.49-3.07-.2-4,1.91a8.63,8.63,0,0,1-9.23,5.56c-3.24-.29-5.22,1.14-7,3.6-8.78,11.85-17.66,23.62-26.51,35.4-1.29,1.71-2,3.06-.73,5.49,2.81,5.48-.07,12.12-5.72,14.49a10.62,10.62,0,0,1-13.63-5.7,10.79,10.79,0,0,1,5.8-14.3c1.57-.62,3.55-.15,5.24-.58,1.51-.38,3.37-.94,4.24-2.07,8.82-11.35,17.46-22.83,26.14-34.29.79-1,1.4-2.23,2.19-3.28,1-1.34,1-2.52.3-4.13-3.16-7.72,1.69-15.71,9.46-15.58a10.94,10.94,0,0,1,9.29,5,8.9,8.9,0,0,0,4.5,3.38c11.66,3.14,23.39,6.05,35.12,8.95a3.91,3.91,0,0,0,2.84-.57,13.26,13.26,0,0,1,10.49-2.09,3.51,3.51,0,0,0,3.81-1.64c7.66-10.09,15.44-20.1,23-30.29C267.62,188.17,267.62,185.88,268.12,184ZM128.67,277.17c0,2.65,2.68,5.37,5.21,5.35s5.39-3.2,5.33-6a5.81,5.81,0,0,0-5.3-5.27C131.16,271.24,128.65,274.08,128.67,277.17Zm144-94.46a5.78,5.78,0,0,0,5.23,5.65c2.48.14,5.42-2.54,5.54-5.06.13-2.7-2.76-6.07-5.23-6.11S272.86,180,272.7,182.71Zm-89.77,34.77a5.59,5.59,0,0,0-5.16-5.31,5.91,5.91,0,0,0-5.62,5.54c0,2.56,2.86,5.23,5.6,5.26A5.32,5.32,0,0,0,182.93,217.48Zm53.77,19.74c2.5.13,5.23-2.47,5.36-5.12s-2.65-5.58-5.5-5.73a5.41,5.41,0,0,0-5.34,5.07A6.12,6.12,0,0,0,236.7,237.22Z"/><path class="cls-4" d="M244.12,266c1.6,1.36,2.69,2.33,3.83,3.24,8.05,6.43,17.55,9.34,27.53,10.51a145.25,145.25,0,0,0,23,1.22c11.78-.5,23.28-2.89,33.65-9,2.09-1.22,3.83-3,5.77-4.49,1-.75,2.51-1.84,2.6.36a77.16,77.16,0,0,1-.38,13.77c-1.11,7.86-7.24,11.48-13.7,14.39-14.2,6.39-29.29,7.33-44.46,6.09-10.37-.85-20.62-3.06-29.71-8.75-5.58-3.49-8.91-8.21-8.6-15.08.14-3,0-6,.07-9C243.74,268.33,243.93,267.45,244.12,266Zm38.49,28.71c1.22,0,2.44-.05,3.66,0a3.09,3.09,0,0,0,3.53-2.84c.33-2.07-1.09-3.05-2.87-3.53a11.55,11.55,0,0,0-2.5-.29c-6.93-.38-13.81-1-20.45-3.22-1.63-.55-3.56-.85-4.26,1.31s.36,3.47,2.42,4.34C268.7,293.19,275.64,294,282.61,294.66ZM314,288.55c-.67-.54-1.73-2-3.05-2.3-2.23-.47-4.69,2.32-4.54,4.66.13,2.19,1.56,3.14,3.52,3.23S314.07,291.74,314,288.55Zm-12.08,2.87a4,4,0,0,0-3.69-3.88,3.78,3.78,0,0,0-3.92,3.87c0,2.34,1.44,3.91,3.52,3.86A4.15,4.15,0,0,0,301.91,291.42Zm23.79-5.75c-.76-.49-1.92-1.79-3.26-2-2-.33-4.34,2.48-4.31,4.71,0,1.93.86,3.31,3,3.29S325.75,288.77,325.7,285.67Z"/><path class="cls-4" d="M244.44,291.69c14.18,11.93,30.84,14.67,48,14.58s33.69-2.87,47.06-14.75c.49.35.76.45.77.56.25,6.8,1.61,13.79-2.41,20-3.07,4.75-7.82,7.47-13,9.42A91.68,91.68,0,0,1,289,327.24c-10.18-.35-20.33-1.61-29.73-5.72a49.3,49.3,0,0,1-11.88-7.78,11.42,11.42,0,0,1-3.33-6.84c-.54-4.35-.21-8.82-.19-13.24A8.43,8.43,0,0,1,244.44,291.69ZM261,308.58c-.32.25-1.83.89-1.83,1.53,0,1.33.4,3.22,1.34,3.87a19.45,19.45,0,0,0,5.92,2.29,62.5,62.5,0,0,0,19.43,2.39c1.89-.09,3.41-1,3.3-2.68a5.11,5.11,0,0,0-2.61-3.35c-1.41-.74-3.25-.72-4.91-.93-4.43-.58-8.88-1.05-13.3-1.67C266.17,309.72,264,309.17,261,308.58Zm44.76,7.47c.84.56,2.07,1.9,3.53,2.23,1.85.42,4.52-2.68,4.35-4.69a3.36,3.36,0,0,0-3.58-3.25C307.92,310.25,305.71,312.74,305.8,316.05Zm17-8.2c-3.14,0-5.84,2.76-5.59,4.87.22,1.87,1.22,3.14,3.33,3.06s4.83-2.76,4.39-5C324.69,309.54,323.32,308.51,322.8,307.85ZM302,315.92l-.06-1.29c-1.49-1-2.86-2.5-4.51-3-1.49-.45-4,2.54-3.93,4.15s2.52,4.25,4,3.63C299.12,318.68,300.46,317.12,302,315.92Z"/><path class="cls-4" d="M340,316.07a22.31,22.31,0,0,1,.51,3.51c-.12,3.94-.2,7.89-.57,11.81-.65,6.76-5.64,10.15-10.94,12.92-5.91,3.1-12.32,4.78-18.91,6.12-10,2.05-20,1.81-30,1s-19.86-3.37-28.49-8.9c-4.85-3.1-8.26-7.33-7.87-13.69.2-3.18-.06-6.39-.05-9.59a27.51,27.51,0,0,1,.31-2.84c3.56,2.38,6.67,4.74,10,6.67,5.91,3.4,12.44,4.88,19.12,6.24,10.95,2.24,21.89,1.84,32.81.79,9.27-.89,18.26-3.36,26.3-8.4,1.81-1.14,3.43-2.58,5.16-3.87C338.13,317.32,338.87,316.86,340,316.07Zm-58.76,27.32.14-.69c1.59,0,3.29.34,4.75-.1,1.22-.37,2.95-1.6,3-2.54s-1.31-2.46-2.4-3.24c-.81-.58-2.17-.38-3.28-.55-6.64-1-13.28-2-19.91-3.09-1.83-.3-3.6-.91-4.56,1.29-.71,1.65.81,4.33,2.87,4.8C268.33,340.72,274.81,342,281.27,343.39Zm17.34-7.64c-3.14,0-5.2,2-5.21,4.11a4.35,4.35,0,0,0,3.7,3.95c1.68.06,5-2.89,4.4-4.31C300.84,337.9,299.33,336.64,298.61,335.75Zm10.29,6.78c2.44-.09,5-2.76,4.79-4.74s-1.75-3.06-3.74-3.08a4.24,4.24,0,0,0-4.13,4.45C306,341.18,307.1,342.43,308.9,342.53Zm15.92-7.39c-.22-1.68-.78-3.18-3-3.11s-4.69,2.75-4.55,4.94,1.54,2.92,3.46,2.89C322.81,339.82,324.87,337.46,324.82,335.14Z"/><path class="cls-2" d="M240.16,265.45c1.54,3.79,1.1,5.7-1.42,7.83-2.08,1.76-4,3.77-6.18,5.33s-2.35,3.53-2.19,6.09a15.44,15.44,0,0,1-1.38,7.51c-1.88,3.84-7.22,5.66-11.47,4.57a11.4,11.4,0,0,1-8.17-9.69,10.15,10.15,0,0,0-2.2-5.18c-4.14-4.85-8.48-9.54-12.92-14.12-.82-.85-2.43-1.15-3.72-1.29a41.74,41.74,0,0,0-7-.2,6.13,6.13,0,0,0-3.75,1.23c-8.89,9.16-17.59,18.5-26.47,27.67-2.07,2.13-2.5,4-1.21,6.73a10.3,10.3,0,0,1-4.87,13.65c-6.06,2.62-12,.62-14.51-4.86A10.55,10.55,0,0,1,138,296.5c1.39-.6,3.17-.28,4.67-.72,1.7-.5,3.68-1,4.84-2.17,9.32-9.53,18.43-19.25,27.7-28.83,1.72-1.78,2.53-3.35,1.7-6-1.27-4,.9-9.14,4.26-11.42a11.3,11.3,0,0,1,12.73.5,10.48,10.48,0,0,1,3.53,11.64c-.82,2.37-.26,3.75,1.35,5.42,3.79,3.91,7.41,8,11,12.05,1.27,1.43,2.54,1.8,4.19.75a11.81,11.81,0,0,1,9.44-1.4A6.35,6.35,0,0,0,228,275.3c3-2.19,5.75-4.81,8.63-7.21C237.68,267.2,238.84,266.43,240.16,265.45Zm-47.32-9.38c.07-2.23-3-5.27-5.32-5.37-2.63-.11-5.63,2.61-5.73,5.19a6,6,0,0,0,5.65,5.8C189.82,261.7,192.77,258.63,192.84,256.07Zm32.89,30.32a5.33,5.33,0,0,0-5.17-5.18,5.27,5.27,0,1,0-.74,10.52C222.61,291.74,225.69,289,225.73,286.39Zm-83,24.88a5.15,5.15,0,0,0,5.2-5c-.08-2.67-3.06-5.41-5.85-5.39a5.74,5.74,0,0,0-5.23,5.29C136.74,308.8,139.59,311.3,142.7,311.27Z"/><path class="cls-4" d="M199.1,367c-10.33,0-20.66,0-31-.07-.77,0-1.53-.93-2.29-1.43.62-.79,1.15-2.18,1.87-2.28,3.34-.5,4.88-2.39,5.34-5.57a54.63,54.63,0,0,1,1.26-5.78c.58-2.31,2.06-3.35,4.52-3.34,13.23.05,26.46.08,39.7-.05,2.93,0,4.58.9,5.18,3.85a49.37,49.37,0,0,0,2.07,7.58,6.15,6.15,0,0,0,2.44,2.44c.75.5,2,.38,2.59.95a3.52,3.52,0,0,1,1.1,2.5c0,.44-1.34,1.15-2.08,1.15-10.24.08-20.47.06-30.71.06Z"/><path class="cls-4" d="M254.83,219.69c2.14-5.65,3.85-6.86,9-6.85,7,0,14.07-.05,21.11,0,4.71,0,6.21,1.61,6.32,6.29.06,2.26.12,4.51,0,6.76a4.66,4.66,0,0,1-6.23,4.17,3.08,3.08,0,0,1-1.34-2.17,33.69,33.69,0,0,1-.12-4.5c-.07-3.14-.94-3.94-4.11-3.89q-10.69.18-21.39.3C257.12,219.84,256.11,219.75,254.83,219.69Z"/><path class="cls-4" d="M197.73,213h46.08a5.42,5.42,0,0,1-5.48,5.54c-2.69.05-5.37.8-8.05.8-4.29,0-8.68.13-12.86-.66-6.68-1.26-13.22-3.23-19.82-4.91Z"/><path class="cls-6" d="M194.48,332.3A4.89,4.89,0,0,1,199.2,328a4.51,4.51,0,0,1,4.19,4.45,4.06,4.06,0,0,1-4.57,4.19A4.5,4.5,0,0,1,194.48,332.3Z"/><path class="cls-6" d="M128.67,277.17c0-3.09,2.49-5.93,5.24-5.9a5.81,5.81,0,0,1,5.3,5.27c.06,2.78-2.77,5.95-5.33,6S128.69,279.82,128.67,277.17Z"/><path class="cls-6" d="M272.7,182.71c.16-2.68,3.05-5.56,5.54-5.52s5.36,3.41,5.23,6.11c-.12,2.52-3.06,5.2-5.54,5.06A5.78,5.78,0,0,1,272.7,182.71Z"/><path class="cls-6" d="M182.93,217.48a5.32,5.32,0,0,1-5.18,5.49c-2.74,0-5.59-2.7-5.6-5.26a5.91,5.91,0,0,1,5.62-5.54A5.59,5.59,0,0,1,182.93,217.48Z"/><path class="cls-6" d="M236.7,237.22a6.12,6.12,0,0,1-5.48-5.78,5.41,5.41,0,0,1,5.34-5.07c2.85.15,5.64,3.06,5.5,5.73S239.2,237.35,236.7,237.22Z"/><path class="cls-6" d="M282.61,294.66c-7-.69-13.91-1.47-20.47-4.22-2.06-.87-3.09-2.26-2.42-4.34s2.63-1.86,4.26-1.31c6.64,2.26,13.52,2.84,20.45,3.22a11.55,11.55,0,0,1,2.5.29c1.78.48,3.2,1.46,2.87,3.53a3.09,3.09,0,0,1-3.53,2.84C285.05,294.61,283.83,294.66,282.61,294.66Z"/><path class="cls-6" d="M314,288.55c.08,3.19-2,5.68-4.07,5.59s-3.39-1-3.52-3.23c-.15-2.34,2.31-5.13,4.54-4.66C312.26,286.54,313.32,288,314,288.55Z"/><path class="cls-6" d="M301.91,291.42a4.15,4.15,0,0,1-4.09,3.85c-2.08.05-3.52-1.52-3.52-3.86a3.78,3.78,0,0,1,3.92-3.87A4,4,0,0,1,301.91,291.42Z"/><path class="cls-6" d="M325.7,285.67c.05,3.1-2.52,6-4.59,6s-3-1.36-3-3.29c0-2.23,2.32-5,4.31-4.71C323.78,283.88,324.94,285.18,325.7,285.67Z"/><path class="cls-6" d="M261,308.58c2.95.59,5.13,1.14,7.34,1.45,4.42.62,8.87,1.09,13.3,1.67,1.66.21,3.5.19,4.91.93A5.11,5.11,0,0,1,289.2,316c.11,1.65-1.41,2.59-3.3,2.68a62.5,62.5,0,0,1-19.43-2.39,19.45,19.45,0,0,1-5.92-2.29c-.94-.65-1.35-2.54-1.34-3.87C259.21,309.47,260.72,308.83,261,308.58Z"/><path class="cls-6" d="M305.8,316.05c-.09-3.31,2.12-5.8,4.3-5.71a3.36,3.36,0,0,1,3.58,3.25c.17,2-2.5,5.11-4.35,4.69C307.87,318,306.64,316.61,305.8,316.05Z"/><path class="cls-6" d="M322.8,307.85c.52.66,1.89,1.69,2.13,2.93.44,2.24-2.2,4.93-4.39,5s-3.11-1.19-3.33-3.06C317,310.61,319.66,307.9,322.8,307.85Z"/><path class="cls-6" d="M302,315.92c-1.5,1.2-2.84,2.76-4.53,3.5-1.45.62-3.92-1.93-4-3.63s2.44-4.6,3.93-4.15c1.65.49,3,1.95,4.51,3Z"/><path class="cls-6" d="M281.27,343.39c-6.46-1.36-12.94-2.67-19.38-4.12-2.06-.47-3.58-3.15-2.87-4.8,1-2.2,2.73-1.59,4.56-1.29,6.63,1.12,13.27,2.08,19.91,3.09,1.11.17,2.47,0,3.28.55,1.09.78,2.46,2.18,2.4,3.24s-1.79,2.17-3,2.54c-1.46.44-3.16.1-4.75.1Z"/><path class="cls-6" d="M298.61,335.75c.72.89,2.23,2.15,2.89,3.75.58,1.42-2.72,4.37-4.4,4.31a4.35,4.35,0,0,1-3.7-3.95C293.41,337.76,295.47,335.73,298.61,335.75Z"/><path class="cls-6" d="M308.9,342.53c-1.8-.1-2.9-1.35-3.08-3.37a4.24,4.24,0,0,1,4.13-4.45c2,0,3.48,1,3.74,3.08S311.34,342.44,308.9,342.53Z"/><path class="cls-6" d="M324.82,335.14c.05,2.32-2,4.68-4.13,4.72-1.92,0-3.33-.82-3.46-2.89s2.42-4.86,4.55-4.94S324.6,333.46,324.82,335.14Z"/><path class="cls-6" d="M192.84,256.07c-.07,2.56-3,5.63-5.4,5.62a6,6,0,0,1-5.65-5.8c.1-2.58,3.1-5.3,5.73-5.19C189.89,250.8,192.91,253.84,192.84,256.07Z"/><path class="cls-6" d="M225.73,286.39c0,2.57-3.12,5.35-5.91,5.34a5.28,5.28,0,1,1,5.91-5.34Z"/><path class="cls-6" d="M142.7,311.27c-3.11,0-6-2.47-5.88-5.15a5.74,5.74,0,0,1,5.23-5.29c2.79,0,5.77,2.72,5.85,5.39A5.15,5.15,0,0,1,142.7,311.27Z"/></svg>