<svg id="Layer_1" data-name="Layer 1" xmlns="http://www.w3.org/2000/svg" viewBox="0 0 216 214"><defs><style>.cls-1{fill:#fff;}</style></defs><title>WHATSAPP</title><path class="cls-1" d="M29.36,175.43l3.26-9.63L34,161.66c.82-2.38,1.61-4.68,2.37-7a92.24,92.24,0,0,1-14.13-39c-3.34-28,4.09-53,22.06-74.27,14.61-17.3,33-28.14,54.7-32.24a108.53,108.53,0,0,1,20.19-2c23.14,0,44.2,8,62.61,23.75a91.94,91.94,0,0,1,31.41,53.91c5.27,27.89-.6,53.4-17.43,75.83-15.84,21.1-37.2,33.78-63.48,37.7a101,101,0,0,1-14.73,1.1,94.78,94.78,0,0,1-47.69-13c-6.22,2-12.49,4-18.58,5.89l-5.9,1.87c-.54.17-1.09.32-1.82.53l-1.06.29-22,6.28Z"/><path d="M201.45,87.06A80.12,80.12,0,0,0,174,40c-21.13-18.1-45.63-24.27-72.77-19.13C82.1,24.53,66.1,34.19,53.49,49.1,37.57,68,31.27,89.84,34.17,114.23a81.15,81.15,0,0,0,14.5,37.25,4,4,0,0,1,.39,3c-1.6,5.08-3.38,10.1-5.09,15.14l-4.71,13.91c1.22-.34,1.89-.52,2.56-.73,9.14-2.89,18.3-5.76,27.43-8.71a4.42,4.42,0,0,1,4.1.48c17.63,10.85,36.78,15,57.22,11.91,23-3.42,41.7-14.45,55.65-33C201.09,133.67,206,111.3,201.45,87.06ZM170,129.36c-.27,11.56-6.95,17.39-18.34,20.75-5.12,1.52-10.13.78-15.1-.78-13-4.07-25.52-8.92-36-18a129.06,129.06,0,0,1-21.1-23.61c-4.13-5.89-8-11.88-9.75-18.94-2.79-11.2-.26-20.94,8.2-29a9.62,9.62,0,0,1,7.48-2.69,19,19,0,0,0,3.34.25c3-.37,4.76,1.19,5.84,3.74q4.09,9.69,8.13,19.38c1.2,2.92-.43,5.18-2,7.33A49.36,49.36,0,0,1,96.36,93a3.84,3.84,0,0,0-.63,5.28c7.48,12.43,17.64,21.86,31.05,27.6,5.65,2.41,5.69,2.36,9.65-2.39,1.75-2.11,3.44-4.26,5.14-6.4,2.07-2.61,3-3,6.12-1.68,6,2.62,11.83,5.46,17.73,8.22.5.23,1,.56,1.5.75C169.38,125.28,170.42,127,170,129.36Z"/><path class="cls-1" d="M166.92,124.35c-.52-.19-1-.52-1.5-.75-5.9-2.76-11.77-5.6-17.73-8.22-3.1-1.36-4.05-.93-6.12,1.68-1.7,2.14-3.39,4.29-5.14,6.4-4,4.75-4,4.8-9.65,2.39-13.41-5.74-23.57-15.17-31-27.6A3.84,3.84,0,0,1,96.36,93a49.36,49.36,0,0,0,4.34-5.14c1.57-2.15,3.2-4.41,2-7.33q-4-9.7-8.13-19.38c-1.08-2.55-2.79-4.11-5.84-3.74a19,19,0,0,1-3.34-.25,9.62,9.62,0,0,0-7.48,2.69c-8.46,8-11,17.77-8.2,29,1.76,7.06,5.62,13,9.75,18.94a129.06,129.06,0,0,0,21.1,23.61c10.49,9.07,23,13.92,36,18,5,1.56,10,2.3,15.1.78,11.39-3.36,18.07-9.19,18.34-20.75C170.42,127,169.38,125.28,166.92,124.35Z"/></svg>