<svg id="Layer_1" data-name="Layer 1" xmlns="http://www.w3.org/2000/svg" viewBox="0 0 1255 608"><defs><style>.cls-1,.cls-2,.cls-5,.cls-6{fill:none;stroke-miterlimit:10;}.cls-1,.cls-2{stroke:#000;}.cls-1,.cls-2,.cls-6{stroke-width:5px;}.cls-2{stroke-dasharray:21 19.83;}.cls-3{fill:#fff;}.cls-4,.cls-7{fill:#101111;}.cls-5,.cls-6{stroke:#101111;}.cls-5{stroke-width:2px;}.cls-7{font-size:25.78px;font-family:Roboto-Regular, Roboto;}.cls-8{letter-spacing:-0.01em;}.cls-9{letter-spacing:-0.01em;}</style></defs><title>Business intelligence (nuestro enfoque)</title><line class="cls-1" x1="426.51" y1="418.72" x2="432.48" y2="418.72"/><line class="cls-2" x1="444.32" y1="418.72" x2="769.8" y2="418.72"/><line class="cls-1" x1="775.72" y1="418.72" x2="781.69" y2="418.72"/><rect class="cls-3" x="492.46" y="127.64" width="220.36" height="135.52"/><path class="cls-4" d="M714.61,265.45H490.67V125.34H714.61Zm-220.36-4.6H711V129.94H494.25Z"/><rect class="cls-4" x="523.14" y="151.61" width="4.59" height="34.41"/><rect class="cls-4" x="532.69" y="167.03" width="4.59" height="18.99"/><rect class="cls-4" x="566.24" y="150.86" width="5.08" height="118.05" transform="translate(778.66 -358.9) rotate(90)"/><rect class="cls-4" x="539.79" y="187.89" width="5.08" height="65.15" transform="translate(762.79 -321.87) rotate(90)"/><rect class="cls-4" x="566.24" y="172.02" width="5.08" height="118.05" transform="translate(799.82 -337.74) rotate(90)"/><polygon class="cls-4" points="610.72 239.08 610.72 244.16 509.75 244.93 509.75 239.84 610.72 239.08"/><rect class="cls-4" x="542.24" y="157.8" width="4.59" height="28.22"/><rect class="cls-4" x="513.59" y="162.05" width="4.59" height="23.97"/><rect class="cls-4" x="561.82" y="151.61" width="4.59" height="34.41"/><rect class="cls-4" x="571.37" y="167.03" width="4.59" height="18.99"/><rect class="cls-4" x="659.89" y="151.61" width="4.59" height="34.41"/><rect class="cls-4" x="667.18" y="167.03" width="4.59" height="18.99"/><rect class="cls-4" x="679.65" y="151.61" width="4.59" height="34.41"/><rect class="cls-4" x="686.94" y="167.03" width="4.59" height="18.99"/><rect class="cls-4" x="552.27" y="162.05" width="4.59" height="23.97"/><path class="cls-3" d="M974,471h142.19a0,0,0,0,1,0,0v18.77a4.84,4.84,0,0,1-4.84,4.84H978.83a4.84,4.84,0,0,1-4.84-4.84V471A0,0,0,0,1,974,471Z"/><path class="cls-4" d="M1111.34,496.48H978.83a6.73,6.73,0,0,1-6.72-6.72V469.11h145.95v20.65A6.73,6.73,0,0,1,1111.34,496.48ZM975.87,472.87v16.89a3,3,0,0,0,3,3h132.51a3,3,0,0,0,3-3V472.87Z"/><path class="cls-3" d="M979.37,393H1110.8a5.38,5.38,0,0,1,5.38,5.38V471a0,0,0,0,1,0,0H974a0,0,0,0,1,0,0V398.42A5.38,5.38,0,0,1,979.37,393Z"/><path class="cls-4" d="M1118.06,472.87H972.11V398.42a7.27,7.27,0,0,1,7.26-7.27H1110.8a7.27,7.27,0,0,1,7.26,7.27Zm-142.19-3.76H1114.3V398.42a3.5,3.5,0,0,0-3.5-3.5H979.37a3.5,3.5,0,0,0-3.5,3.5Z"/><rect class="cls-4" x="1059.39" y="412.76" width="6.44" height="38.71"/><rect class="cls-4" x="1072.8" y="430.11" width="6.44" height="21.36"/><rect class="cls-4" x="1086.2" y="419.72" width="6.44" height="31.75"/><rect class="cls-4" x="1045.98" y="424.5" width="6.44" height="26.97"/><path class="cls-4" d="M1016.5,416a16.31,16.31,0,1,0,16.3,16.3h-16.3Z"/><path class="cls-4" d="M1109.34,462.27H982.67V402.32h126.67ZM984.93,460h122.15V404.58H984.93Z"/><rect class="cls-5" x="1032.84" y="478.1" width="24" height="8.5"/><path class="cls-3" d="M1138.73,399.06h71.83a2.26,2.26,0,0,1,2.26,2.26V513.58a0,0,0,0,1,0,0h-76.35a0,0,0,0,1,0,0V401.31A2.26,2.26,0,0,1,1138.73,399.06Z"/><path class="cls-4" d="M1215.08,515.83h-80.87V401.31a4.52,4.52,0,0,1,4.52-4.51h71.83a4.52,4.52,0,0,1,4.52,4.51Zm-76.35-4.51h71.83v-110h-71.83Z"/><path class="cls-3" d="M1136.47,513.58h76.35a0,0,0,0,1,0,0v14a3,3,0,0,1-3,3h-70.33a3,3,0,0,1-3-3v-14A0,0,0,0,1,1136.47,513.58Z"/><path class="cls-4" d="M1209.81,532.85h-70.33a5.28,5.28,0,0,1-5.27-5.27V511.32h80.87v16.26A5.28,5.28,0,0,1,1209.81,532.85Zm-71.08-17v11.75a.74.74,0,0,0,.75.75h70.33a.75.75,0,0,0,.75-.75V515.83Z"/><rect class="cls-4" x="1165.88" y="421.12" width="5.78" height="74.84"/><rect class="cls-4" x="1177.92" y="454.66" width="5.78" height="41.3"/><rect class="cls-4" x="1189.96" y="434.58" width="5.78" height="61.39"/><rect class="cls-4" x="1153.83" y="443.82" width="5.78" height="52.15"/><rect class="cls-4" x="1168.34" y="518.85" width="12.61" height="6.47"/><path class="cls-4" d="M702.08,254.24H648.69V197.52h53.39Zm-51-3.07h48.61V200.59H651.08Z"/><path class="cls-4" d="M702.08,194.84H648.69V138.11h53.39Zm-51-3.07h48.61V141.18H651.08Z"/><path class="cls-4" d="M585.56,194.84H503V138.11h82.6Zm-80.22-3.07h77.83V141.18H505.34Z"/><path class="cls-4" d="M617.87,151.71a15.21,15.21,0,1,0,15.21,15.21H617.87Z"/><path class="cls-4" d="M644,195.22H590.57V138.5H644Zm-51-3.07h48.62V141.57H593Z"/><path class="cls-4" d="M643.92,254.24H502.55V197.52H643.92Zm-139-3.07h136.6V200.59H504.93Z"/><path class="cls-3" d="M49.07,382.77H213.75a10.51,10.51,0,0,1,10.51,10.51v90a0,0,0,0,1,0,0H38.56a0,0,0,0,1,0,0v-90A10.51,10.51,0,0,1,49.07,382.77Z"/><path class="cls-4" d="M227,486H35.84v-92.7A13.25,13.25,0,0,1,49.07,380H213.75A13.26,13.26,0,0,1,227,393.28ZM41.28,480.53H221.54V393.28a7.79,7.79,0,0,0-7.79-7.79H49.07a7.8,7.8,0,0,0-7.79,7.79Z"/><path class="cls-4" d="M210.24,475.18H52.58V393.9H210.24Zm-154-3.63h150.4v-74H56.21Z"/><polygon class="cls-3" points="168.98 530.12 93.84 530.12 102.48 503.46 160.35 503.46 168.98 530.12"/><path class="cls-4" d="M172.73,532.84H90.09l10.41-32.1h61.83Zm-75.14-5.45h67.65l-6.87-21.2H104.46Z"/><path class="cls-3" d="M38.56,483.26h185.7a0,0,0,0,1,0,0v10.86a9.34,9.34,0,0,1-9.34,9.34H47.9a9.34,9.34,0,0,1-9.34-9.34V483.26A0,0,0,0,1,38.56,483.26Z"/><path class="cls-4" d="M214.92,506.19H47.9a12.08,12.08,0,0,1-12.06-12.07V480.53H227v13.59A12.08,12.08,0,0,1,214.92,506.19ZM41.28,486v8.14a6.63,6.63,0,0,0,6.62,6.62h167a6.63,6.63,0,0,0,6.62-6.62V486Z"/><rect class="cls-3" x="82.04" y="530.12" width="98.74" height="10.1"/><path class="cls-4" d="M183.51,542.94H79.32V527.39H183.51Zm-98.75-5.45h93.3v-4.65H84.76Z"/><rect class="cls-4" x="106.77" y="421.11" width="14.34" height="52.25"/><rect class="cls-4" x="166.44" y="409.66" width="14.34" height="63.71"/><rect class="cls-4" x="76.93" y="409.66" width="14.34" height="63.71"/><rect class="cls-4" x="136.6" y="428.98" width="14.34" height="44.39"/><rect class="cls-3" x="1038.9" y="240.58" width="153.86" height="93.4" rx="4.78" ry="4.78"/><path class="cls-4" d="M1188,336.24h-144.3a7.05,7.05,0,0,1-7-7V245.36a7.05,7.05,0,0,1,7-7H1188a7.05,7.05,0,0,1,7,7V329.2A7.05,7.05,0,0,1,1188,336.24Zm-144.3-93.4a2.52,2.52,0,0,0-2.52,2.52V329.2a2.52,2.52,0,0,0,2.52,2.52H1188a2.52,2.52,0,0,0,2.52-2.52V245.36a2.52,2.52,0,0,0-2.52-2.52Z"/><path class="cls-3" d="M1221.36,373.13H1010.29c-2.08,0-1.69-1.66.77-3.61l28.08-22.38a9,9,0,0,1,4.83-1.8h143.72a9,9,0,0,1,4.82,1.8l28.09,22.38C1223.06,371.47,1223.45,373.13,1221.36,373.13Z"/><path class="cls-4" d="M1221.37,375.38H1010.29a3.27,3.27,0,0,1-3.43-2.09c-.42-1.18-.27-3.1,2.79-5.54l28.09-22.38a11.24,11.24,0,0,1,6.23-2.29h143.72a11.24,11.24,0,0,1,6.23,2.29L1222,367.75c3.06,2.44,3.2,4.36,2.79,5.54A3.27,3.27,0,0,1,1221.37,375.38ZM1013,370.87h205.7l-27.57-22a7,7,0,0,0-3.42-1.31H1044a7,7,0,0,0-3.42,1.31Z"/><path class="cls-4" d="M1181.15,326.29H1050.51V251.11h130.64Zm-127.63-3h124.62V254.12H1053.52Z"/><rect class="cls-4" x="1096.92" y="282.49" width="11.89" height="43.29"/><rect class="cls-4" x="1146.36" y="273" width="11.89" height="52.78"/><rect class="cls-4" x="1072.2" y="273" width="11.89" height="52.78"/><rect class="cls-4" x="1121.64" y="289.01" width="11.89" height="36.78"/><rect class="cls-3" x="1058.73" y="333.98" width="23.85" height="10.89"/><path class="cls-4" d="M1084.83,347.13h-28.36V331.72h28.36ZM1061,342.61h19.34v-6.37H1061Z"/><rect class="cls-3" x="1150.79" y="333.98" width="23.85" height="10.89"/><path class="cls-4" d="M1176.9,347.13h-28.36V331.72h28.36Zm-23.85-4.52h19.34v-6.37h-19.34Z"/><path class="cls-4" d="M1145.36,368.8H1086.3l7.92-11.35h43.22Zm-53.29-3h47.51l-3.71-5.33h-40.08Z"/><rect class="cls-3" x="621.88" y="530.88" width="76.03" height="20.09"/><path class="cls-4" d="M699.69,552.76H620.08V529.09h79.61Zm-76-3.58h72.44V532.67H623.67Z"/><line class="cls-6" x1="638.03" y1="540.93" x2="688.05" y2="540.93"/><rect class="cls-3" x="621.88" y="550.97" width="76.03" height="20.09"/><path class="cls-4" d="M699.69,572.85H620.08V549.18h79.61Zm-76-3.58h72.44V552.76H623.67Z"/><line class="cls-6" x1="638.03" y1="561.02" x2="688.05" y2="561.02"/><rect class="cls-3" x="621.88" y="571.06" width="76.03" height="20.09"/><path class="cls-4" d="M699.69,592.94H620.08V569.27h79.61Zm-76-3.58h72.44V572.85H623.67Z"/><line class="cls-6" x1="638.03" y1="581.11" x2="688.05" y2="581.11"/><path d="M757.69,548c2.49,2.34,4.88,4.59,7.8,7.32L746,556.74V537.12l7.7,7.11c21.56-25.49,32.66-54.61,31.67-87.89s-13.6-61.87-35.89-86.64l3.69-3.46C794,407.89,810,486.67,757.69,548Z"/><path d="M450.24,563.55l-3.95,3.66C423.09,541.38,410,511.58,409,476.9s10.65-65,33-91.61l-7.82-7.35,19.45-1.46V396L446,389c-21.5,25.46-32.61,54.53-31.63,87.83S428,538.72,450.24,563.55Z"/><path d="M858,333v-5.95h4.06q57.52,0,115.06.07c3.23,0,4.19-.78,3.92-3.48s-.05-5.2-.05-8.58l18.51,15L981,345c0-3.42-.19-6.09.05-8.73s-.75-3.34-3.78-3.33q-57.52.12-115.06,0Z"/><path d="M254.81,454.15V448.2h4.09q57.87,0,115.74.07c3.26,0,4.22-.79,3.95-3.49s-.06-5.2-.06-8.58l18.63,15-18.63,15c0-3.42-.19-6.09.05-8.72s-.75-3.35-3.8-3.34q-57.87.12-115.74.06Z"/><path d="M213.32,194.74v-6h4.08q57.89,0,115.75.07c3.25,0,4.21-.79,3.94-3.48s0-5.2,0-8.58l18.62,15-18.62,15c0-3.42-.19-6.08,0-8.72s-.76-3.35-3.8-3.34q-57.87.13-115.75.06Z"/><text class="cls-7" transform="translate(497.81 377.15)"><tspan class="cls-8">P</tspan><tspan x="16.22" y="0">ower BI Gatew</tspan><tspan class="cls-9" x="182.71" y="0">a</tspan><tspan x="196.69" y="0">y</tspan></text><text class="cls-7" transform="translate(214.82 176.94)">Connect</text><text class="cls-7" transform="translate(859.62 315.09)">Access</text><text class="cls-7" transform="translate(254.02 436)">Publish</text><path d="M772.42,156.45c16.74,4.4,32.16,6.11,45.4,12.41,29.79,14.17,43.95,46.87,36.27,78.07-8,32.5-35.56,54.43-69.34,54.49q-130.28.22-260.56,0c-21.72,0-43.44.37-65.14-.08-36.71-.76-64.27-17.47-79.88-50.68-15.41-32.8-11.07-64.74,11.41-93,13.86-17.46,32.19-29,55.3-30.62,5.51-.4,8.24-1.82,9.15-8.32,5.74-41.16,35.63-75.31,75.63-84.68,42.59-10,78.88,1.9,106.83,36.08,4.91,6,8.4,8.19,16.6,5.82,55.19-16,110.86,21.38,118,78.54C772.3,156.06,772.61,157.61,772.42,156.45ZM462,136.3c-3.38.21-6.29.41-9.19.57-35.6,1.94-64.42,25.21-72.4,58.48C368.26,246,405,291.77,458.28,291.87q133.28.25,266.57.05c20.81,0,41.62.31,62.43-.09,25.31-.48,44.62-11.68,55.46-34.85,10.48-22.41,7.58-44.13-8.22-63.06-16.34-19.57-37.67-25.66-62.45-19.41-2.48.63-5,1-8.51,1.59,1.88-33.52-9.3-60.63-36.9-79.18S669.75,78.23,640,92.69c-23.65-39.62-57.49-59.81-103-50C488.37,53.24,465.36,87.46,462,136.3Z"/><path d="M104.51,207.83c3.71,1,7.13,1.35,10.07,2.75a15,15,0,0,1,8,17.3A15.59,15.59,0,0,1,107.25,240c-19.25,0-38.5,0-57.76,0-4.81,0-9.62.08-14.43,0-8.14-.17-14.25-3.87-17.71-11.23s-2.45-14.35,2.53-20.62a16.91,16.91,0,0,1,12.26-6.79c1.22-.08,1.83-.4,2-1.84A22.32,22.32,0,0,1,50.93,180.7c9.44-2.21,17.48.42,23.68,8,1.09,1.33,1.86,1.81,3.68,1.29a20.6,20.6,0,0,1,26.15,17.41A2.67,2.67,0,1,1,104.51,207.83Zm-68.15-4.34-2,.13a16.73,16.73,0,0,0-15.74,12.71c-2.65,11,5.34,21,16.92,21,19.31,0,38.63,0,57.94,0,4.53,0,9.05.07,13.57,0,5.51-.1,9.7-2.54,12.06-7.58a12.11,12.11,0,0,0-1.79-13.7c-3.55-4.26-8.19-5.58-13.57-4.22-.54.13-1.09.2-1.85.34.41-7.28-2-13.18-8-17.21s-12.37-4.06-18.84-.92c-5.14-8.61-12.5-13-22.4-10.86C42.09,185.44,37.09,192.88,36.36,203.49Z"/><path class="cls-3" d="M147.77,175.24a31.38,31.38,0,0,1-10-1.73,11.39,11.39,0,0,1-4.86-2.83,4.1,4.1,0,0,1-1.29-2.94,4.15,4.15,0,0,1,1.55-2.85,14.64,14.64,0,0,1,6.33-3.13,37.54,37.54,0,0,1,9.42-1.23,37,37,0,0,1,6.86.65,19.41,19.41,0,0,1,8.3,3.31c1.77,1.35,2.53,3.5,1.72,4.9a8.26,8.26,0,0,1-4.15,3.48,28.83,28.83,0,0,1-11.08,2.33l-.94,0h-.05C149,175.22,148.37,175.24,147.77,175.24Z"/><path d="M148.91,160.07V161a36,36,0,0,1,6.77.64,18.83,18.83,0,0,1,8.11,3.21c1.59,1.22,2.29,3.11,1.6,4.3a7.82,7.82,0,0,1-3.93,3.3,28.39,28.39,0,0,1-10.9,2.28h-1c-.58,0-1.18.06-1.77.06a31,31,0,0,1-9.86-1.71,11,11,0,0,1-4.68-2.71,3.2,3.2,0,0,1,.24-5.12,14.22,14.22,0,0,1,6.14-3,37,37,0,0,1,9.3-1.2v-.93m0,0a37.83,37.83,0,0,0-9.53,1.24,15.28,15.28,0,0,0-6.53,3.24c-2.17,1.94-2.28,4.34-.29,6.44a12,12,0,0,0,5.06,2.95,31.64,31.64,0,0,0,10.15,1.76q.91,0,1.83-.06l1,0a29.27,29.27,0,0,0,11.25-2.36,8.77,8.77,0,0,0,4.38-3.68c1-1.67.05-4.06-1.84-5.5a19.49,19.49,0,0,0-8.5-3.39,37.07,37.07,0,0,0-6.94-.66Z"/><path class="cls-3" d="M149.21,182.28c-1.28,0-2.58-.06-4-.19a21.56,21.56,0,0,1-10.74-3.49,6.14,6.14,0,0,1-2.95-5.68c0-.75,0-1.51,0-2.25,0-.47,0-1,0-1.45,0-.1,0-.21,0-.34.28.27.53.5.78.72A18.77,18.77,0,0,0,142.73,174a53.36,53.36,0,0,0,7,.54c.52,0,1,0,1.54,0a24.64,24.64,0,0,0,12.61-3.72,9.9,9.9,0,0,0,1.45-1.21c.24-.22.48-.45.72-.65l.22-.18a36.12,36.12,0,0,1-.14,5.46c-.39,3-2.67,4.41-4.78,5.46A26.66,26.66,0,0,1,149.21,182.28Z"/><path d="M165.84,169.76a27.87,27.87,0,0,1-.16,4.36c-.32,2.51-2,3.8-4.51,5.07a26.35,26.35,0,0,1-12,2.58c-1.26,0-2.56-.06-4-.19a21.15,21.15,0,0,1-10.53-3.41,5.66,5.66,0,0,1-2.74-5.23c0-.76,0-1.53,0-2.27,0-.24,0-.48,0-.72l.06.05a19.18,19.18,0,0,0,10.61,4.5,54.3,54.3,0,0,0,7.07.54c.53,0,1,0,1.55,0a25.14,25.14,0,0,0,12.83-3.78,11.12,11.12,0,0,0,1.52-1.27l.2-.19m-34.61-1.87c-.07.61-.14,1-.15,1.33,0,1.22,0,2.45,0,3.67a6.7,6.7,0,0,0,3.17,6.15,22.3,22.3,0,0,0,10.94,3.56c1.35.12,2.69.19,4,.19a27.25,27.25,0,0,0,12.34-2.67c2.38-1.19,4.64-2.66,5-5.86a36.17,36.17,0,0,0,.14-5.61c0-.4-.14-.53-.3-.53a1.33,1.33,0,0,0-.66.38,21.29,21.29,0,0,1-2.13,1.83A24.36,24.36,0,0,1,151.26,174c-.51,0-1,0-1.52,0a54.21,54.21,0,0,1-7-.53,18.43,18.43,0,0,1-10.14-4.29c-.42-.37-.82-.76-1.41-1.31Z"/><path class="cls-3" d="M147.77,167.5a31.4,31.4,0,0,1-10-1.74,11.29,11.29,0,0,1-4.86-2.83,4.07,4.07,0,0,1-1.29-2.94,4.13,4.13,0,0,1,1.55-2.84,14.65,14.65,0,0,1,6.33-3.14,37.53,37.53,0,0,1,9.42-1.22,37,37,0,0,1,6.86.65,19.38,19.38,0,0,1,8.3,3.3c1.77,1.36,2.53,3.51,1.72,4.9a8.23,8.23,0,0,1-4.15,3.49,29,29,0,0,1-11.08,2.32c-.31,0-.63,0-.94,0h-.05C149,167.48,148.37,167.5,147.77,167.5Z"/><path d="M148.91,152.33v.92a36.86,36.86,0,0,1,6.77.64,19,19,0,0,1,8.11,3.22c1.59,1.21,2.29,3.1,1.6,4.3a7.76,7.76,0,0,1-3.93,3.29,28.41,28.41,0,0,1-10.9,2.29l-.92,0h-.1c-.58,0-1.18.07-1.77.07a30.76,30.76,0,0,1-9.86-1.72,10.86,10.86,0,0,1-4.68-2.71,3.2,3.2,0,0,1,.24-5.12,14.32,14.32,0,0,1,6.14-3,37,37,0,0,1,9.3-1.21v-.92m0,0a37.38,37.38,0,0,0-9.53,1.24,15.37,15.37,0,0,0-6.53,3.23c-2.17,1.94-2.28,4.35-.29,6.45a12,12,0,0,0,5.06,2.95A31.64,31.64,0,0,0,147.77,168q.91,0,1.83-.06h1a29.45,29.45,0,0,0,11.25-2.35,8.84,8.84,0,0,0,4.38-3.69c1-1.66.05-4.05-1.84-5.5a19.62,19.62,0,0,0-8.5-3.39,37.91,37.91,0,0,0-6.94-.65Z"/><path class="cls-3" d="M149.21,174.54c-1.28,0-2.58-.07-4-.19a21.66,21.66,0,0,1-10.74-3.49,6.15,6.15,0,0,1-2.95-5.69c0-.75,0-1.51,0-2.24,0-.48,0-1,0-1.45,0-.11,0-.22,0-.34.28.26.53.5.78.72a18.77,18.77,0,0,0,10.38,4.39,53.14,53.14,0,0,0,7,.53c.52,0,1,0,1.54,0A24.74,24.74,0,0,0,163.89,163a10.57,10.57,0,0,0,1.45-1.21l.72-.66.22-.17a36,36,0,0,1-.14,5.45c-.39,3.05-2.67,4.42-4.78,5.47A26.66,26.66,0,0,1,149.21,174.54Z"/><path d="M165.84,162a27.74,27.74,0,0,1-.16,4.35c-.32,2.52-2,3.81-4.51,5.07a26.22,26.22,0,0,1-12,2.59c-1.26,0-2.56-.07-4-.19a21.25,21.25,0,0,1-10.53-3.41A5.67,5.67,0,0,1,132,165.2c0-.77,0-1.53,0-2.27,0-.24,0-.48,0-.72l.06,0a19.25,19.25,0,0,0,10.61,4.5,54.08,54.08,0,0,0,7.07.53c.53,0,1,0,1.55,0a25.14,25.14,0,0,0,12.83-3.79,11.06,11.06,0,0,0,1.52-1.26l.2-.19m-34.61-1.88c-.07.61-.14,1-.15,1.33,0,1.23,0,2.46,0,3.68a6.67,6.67,0,0,0,3.17,6.14,22.1,22.1,0,0,0,10.94,3.56c1.35.13,2.69.2,4,.2a27.25,27.25,0,0,0,12.34-2.67c2.38-1.19,4.64-2.66,5-5.86a36.23,36.23,0,0,0,.14-5.61c0-.4-.14-.53-.3-.53a1.33,1.33,0,0,0-.66.38,24.26,24.26,0,0,1-2.13,1.83,24.36,24.36,0,0,1-12.39,3.65c-.51,0-1,0-1.52,0a54.21,54.21,0,0,1-7-.53,18.34,18.34,0,0,1-10.14-4.28c-.42-.37-.82-.76-1.41-1.32Z"/><path class="cls-3" d="M147.77,159.75a31.38,31.38,0,0,1-10-1.73,11.39,11.39,0,0,1-4.86-2.83,4.08,4.08,0,0,1-1.29-2.94,4.15,4.15,0,0,1,1.55-2.85,14.64,14.64,0,0,1,6.33-3.13,37.53,37.53,0,0,1,9.42-1.22,37,37,0,0,1,6.86.64,19.41,19.41,0,0,1,8.3,3.31c1.77,1.35,2.53,3.5,1.72,4.9a8.27,8.27,0,0,1-4.15,3.49,29,29,0,0,1-11.08,2.32l-.94,0h-.05C149,159.73,148.37,159.75,147.77,159.75Z"/><path d="M148.91,144.58v.93a36,36,0,0,1,6.77.64,19,19,0,0,1,8.11,3.22c1.59,1.21,2.29,3.1,1.6,4.3a7.85,7.85,0,0,1-3.93,3.29,28.41,28.41,0,0,1-10.9,2.29l-.92,0h-.1c-.58,0-1.18.06-1.77.06a30.74,30.74,0,0,1-9.86-1.71,10.86,10.86,0,0,1-4.68-2.71,3.2,3.2,0,0,1,.24-5.12,14.21,14.21,0,0,1,6.14-3,37,37,0,0,1,9.3-1.21v-.93m0,0a37.83,37.83,0,0,0-9.53,1.24,15.28,15.28,0,0,0-6.53,3.24c-2.17,1.94-2.28,4.34-.29,6.45a12.06,12.06,0,0,0,5.06,3,31.92,31.92,0,0,0,10.15,1.76c.61,0,1.22,0,1.83-.07l1,0a29.45,29.45,0,0,0,11.25-2.35,8.84,8.84,0,0,0,4.38-3.69c1-1.67.05-4.06-1.84-5.5a19.49,19.49,0,0,0-8.5-3.39,37.07,37.07,0,0,0-6.94-.66Z"/><path class="cls-3" d="M149.21,166.79c-1.28,0-2.58-.06-4-.19a21.56,21.56,0,0,1-10.74-3.48,6.15,6.15,0,0,1-2.95-5.69c0-.75,0-1.51,0-2.24,0-.48,0-1,0-1.45,0-.11,0-.22,0-.35l.78.73a18.84,18.84,0,0,0,10.38,4.39,54.92,54.92,0,0,0,7,.53c.52,0,1,0,1.54,0a24.73,24.73,0,0,0,12.61-3.71,10.64,10.64,0,0,0,1.45-1.22l.72-.65a1.91,1.91,0,0,1,.22-.17,36,36,0,0,1-.14,5.45c-.39,3-2.67,4.42-4.78,5.47A26.78,26.78,0,0,1,149.21,166.79Z"/><path d="M165.84,154.27a27.87,27.87,0,0,1-.16,4.36c-.32,2.51-2,3.8-4.51,5.07a26.22,26.22,0,0,1-12,2.58c-1.26,0-2.56-.06-4-.19a21.15,21.15,0,0,1-10.53-3.41,5.65,5.65,0,0,1-2.74-5.23c0-.76,0-1.53,0-2.27,0-.24,0-.48,0-.72l.06.06A19.17,19.17,0,0,0,142.67,159a54.3,54.3,0,0,0,7.07.54c.53,0,1,0,1.55,0a25.14,25.14,0,0,0,12.83-3.78,11.12,11.12,0,0,0,1.52-1.27l.2-.19m-34.61-1.87c-.07.61-.14,1-.15,1.33,0,1.22,0,2.45,0,3.68a6.68,6.68,0,0,0,3.17,6.14,22.2,22.2,0,0,0,10.94,3.56c1.35.12,2.69.19,4,.19a27.12,27.12,0,0,0,12.34-2.67c2.38-1.18,4.64-2.66,5-5.86a36.17,36.17,0,0,0,.14-5.61c0-.39-.14-.53-.3-.53s-.46.22-.66.39a24.26,24.26,0,0,1-2.13,1.83,24.35,24.35,0,0,1-12.39,3.64c-.51,0-1,0-1.52,0a54.21,54.21,0,0,1-7-.53,18.41,18.41,0,0,1-10.14-4.28c-.42-.37-.82-.77-1.41-1.32Z"/><path class="cls-3" d="M147.77,151.74a31.38,31.38,0,0,1-10-1.73,11.39,11.39,0,0,1-4.86-2.83,4.1,4.1,0,0,1-1.29-2.94,4.15,4.15,0,0,1,1.55-2.85,14.64,14.64,0,0,1,6.33-3.13,37.54,37.54,0,0,1,9.42-1.23,37,37,0,0,1,6.86.65,19.41,19.41,0,0,1,8.3,3.31c1.77,1.35,2.53,3.5,1.72,4.9a8.27,8.27,0,0,1-4.15,3.49,29,29,0,0,1-11.08,2.32l-.94,0h-.05C149,151.72,148.37,151.74,147.77,151.74Z"/><path d="M148.91,136.57v.93a36,36,0,0,1,6.77.64,18.83,18.83,0,0,1,8.11,3.21c1.59,1.22,2.29,3.11,1.6,4.3a7.82,7.82,0,0,1-3.93,3.3,28.39,28.39,0,0,1-10.9,2.28h-1c-.58,0-1.18.06-1.77.06a31,31,0,0,1-9.86-1.71,11,11,0,0,1-4.68-2.71,3.2,3.2,0,0,1,.24-5.12,14.22,14.22,0,0,1,6.14-3,37,37,0,0,1,9.3-1.2v-.93m0,0a37.83,37.83,0,0,0-9.53,1.24,15.28,15.28,0,0,0-6.53,3.24c-2.17,1.94-2.28,4.34-.29,6.44a12,12,0,0,0,5.06,2.95,31.64,31.64,0,0,0,10.15,1.76q.91,0,1.83-.06l1,0a29.27,29.27,0,0,0,11.25-2.36,8.77,8.77,0,0,0,4.38-3.68c1-1.67.05-4.06-1.84-5.5a19.49,19.49,0,0,0-8.5-3.39,37.07,37.07,0,0,0-6.94-.66Z"/><path class="cls-3" d="M149.21,158.78c-1.28,0-2.58-.06-4-.19a21.56,21.56,0,0,1-10.74-3.49,6.14,6.14,0,0,1-2.95-5.68c0-.75,0-1.51,0-2.25,0-.47,0-1,0-1.44,0-.11,0-.22,0-.35.28.27.53.5.78.72a18.77,18.77,0,0,0,10.38,4.39,53.36,53.36,0,0,0,7,.54c.52,0,1,0,1.54,0a24.73,24.73,0,0,0,12.61-3.71,10.64,10.64,0,0,0,1.45-1.22c.24-.22.48-.45.72-.65a1.91,1.91,0,0,1,.22-.17,36,36,0,0,1-.14,5.45c-.39,3-2.67,4.41-4.78,5.46A26.66,26.66,0,0,1,149.21,158.78Z"/><path d="M165.84,146.26a27.87,27.87,0,0,1-.16,4.36c-.32,2.51-2,3.8-4.51,5.07a26.35,26.35,0,0,1-12,2.58c-1.26,0-2.56-.06-4-.19a21.15,21.15,0,0,1-10.53-3.41,5.66,5.66,0,0,1-2.74-5.23c0-.76,0-1.53,0-2.27,0-.24,0-.48,0-.72l.06.05a19.11,19.11,0,0,0,10.61,4.5,54.3,54.3,0,0,0,7.07.54c.53,0,1,0,1.55,0a25.14,25.14,0,0,0,12.83-3.78,11.12,11.12,0,0,0,1.52-1.27l.2-.19m-34.61-1.87c-.07.61-.14,1-.15,1.33,0,1.22,0,2.45,0,3.67a6.7,6.7,0,0,0,3.17,6.15,22.3,22.3,0,0,0,10.94,3.56c1.35.12,2.69.19,4,.19a27.25,27.25,0,0,0,12.34-2.67c2.38-1.19,4.64-2.66,5-5.86a36.17,36.17,0,0,0,.14-5.61c0-.39-.14-.53-.3-.53a1.33,1.33,0,0,0-.66.38,21.29,21.29,0,0,1-2.13,1.83,24.36,24.36,0,0,1-12.39,3.65c-.51,0-1,0-1.52,0a54.21,54.21,0,0,1-7-.53,18.43,18.43,0,0,1-10.14-4.29c-.42-.37-.82-.76-1.41-1.31Z"/><polygon class="cls-3" points="102.57 180.35 102.57 138.91 137.33 132.38 137.33 186.88 102.57 180.35"/><path d="M136.9,132.9v53.46L103,180V139.27l33.9-6.37m.87-1.05-35.64,6.7v42.16l35.64,6.69V131.85Z"/><path d="M121.39,168.51l-7.1-1.19-1.24,5.29-3.44-1,5.85-25.21,4.49-1.32,9.6,32.4-6.37-1.88Zm-6.15-5.25,4.94.37-2.54-10.13h-.09Z"/><path class="cls-3" d="M161.3,211.85c-15.77,0-25.45-4-25.45-6.92S145.53,198,161.3,198s25.46,4,25.46,6.91S177.07,211.85,161.3,211.85Z"/><path d="M161.3,199.31a65.58,65.58,0,0,1,18,2.22c5,1.51,6.18,3.09,6.21,3.4s-1.21,1.89-6.21,3.4a65.55,65.55,0,0,1-18,2.23,65.47,65.47,0,0,1-18-2.23c-5-1.51-6.19-3.09-6.21-3.4s1.2-1.89,6.21-3.4a65.5,65.5,0,0,1,18-2.22m0-2.59c-14.77,0-26.74,3.68-26.74,8.21s12,8.21,26.74,8.21,26.75-3.68,26.75-8.21-12-8.21-26.75-8.21Z"/><path class="cls-3" d="M161.3,261c-16.63,0-26.84-4.28-26.84-7.35V212.75c4.92,3.71,16.14,5.67,26.84,5.67s21.92-2,26.85-5.67V253.6C188.15,256.67,177.93,261,161.3,261Z"/><path d="M186.86,215.09V253.6c0,.33-1.15,2-6.42,3.64a68,68,0,0,1-19.14,2.42,68.07,68.07,0,0,1-19.14-2.42c-5.27-1.62-6.41-3.31-6.41-3.64V215.09c5.89,3.14,16,4.62,25.55,4.62s19.66-1.48,25.56-4.62m2.58-6.6c0,4.77-12.6,8.63-28.14,8.63s-28.13-3.86-28.13-8.63V253.6c0,4.77,12.59,8.64,28.13,8.64s28.14-3.87,28.14-8.64h0V208.49Z"/><path d="M150.6,239a1.77,1.77,0,0,0-.6-1.39,6,6,0,0,0-2.11-1,11.85,11.85,0,0,1-3.92-1.84,3.44,3.44,0,0,1-1.34-2.88,3.6,3.6,0,0,1,1.51-3A7,7,0,0,1,152,229a3.94,3.94,0,0,1,1.47,3.29l0,.06h-2.91a2.18,2.18,0,0,0-.68-1.72A2.75,2.75,0,0,0,148,230a2.55,2.55,0,0,0-1.72.53,1.75,1.75,0,0,0-.6,1.37,1.5,1.5,0,0,0,.65,1.25,9.38,9.38,0,0,0,2.27,1,9.69,9.69,0,0,1,3.76,1.82,3.74,3.74,0,0,1,1.29,3,3.57,3.57,0,0,1-1.5,3,6.5,6.5,0,0,1-4,1.11,7.14,7.14,0,0,1-4.14-1.2,4,4,0,0,1-1.68-3.59l0-.06h2.9a2.33,2.33,0,0,0,.79,2,3.24,3.24,0,0,0,2.11.63,2.91,2.91,0,0,0,1.83-.5A1.65,1.65,0,0,0,150.6,239Z"/><path d="M167.9,236.79a7,7,0,0,1-.32,2.13,6.1,6.1,0,0,1-.88,1.79l2.22,2.23-2,1.6-2.18-2.15a6.56,6.56,0,0,1-1.48.56,7.31,7.31,0,0,1-1.65.19,6,6,0,0,1-4.5-1.8,6.3,6.3,0,0,1-1.72-4.55V234.1a6.31,6.31,0,0,1,1.72-4.54,5.9,5.9,0,0,1,4.47-1.8,6,6,0,0,1,4.53,1.8,6.29,6.29,0,0,1,1.75,4.54Zm-3-2.71a4.53,4.53,0,0,0-.87-2.86,2.89,2.89,0,0,0-2.42-1.12,2.77,2.77,0,0,0-2.36,1.12,4.65,4.65,0,0,0-.85,2.86v2.71a4.71,4.71,0,0,0,.85,2.9,2.86,2.86,0,0,0,2.39,1.12,2.89,2.89,0,0,0,2.4-1.12,4.65,4.65,0,0,0,.86-2.9Z"/><path d="M173.59,240.62h6.7v2.3H170.6V228h3Z"/><path class="cls-3" d="M608.67,430.48H595.43c-3,0-4.47-1.5-4.48-4.46,0-1.38,0-2.76,0-4.13,0-2.77,0-5.63,0-8.44a4.18,4.18,0,0,1,2.41-4.16.74.74,0,0,0,.08-.22c0-.65,0-1.3,0-2,0-.46,0-.92,0-1.37a8.47,8.47,0,0,1,8.91-8.75H604c.45,0,.9,0,1.34,0a8.36,8.36,0,0,1,8.2,7.73c.09,1.18.08,2.37.06,3.52v.66c0,.37,0,.38.25.48a3.7,3.7,0,0,1,2.37,3.77c0,2.16,0,4.32,0,6.48s0,4.55,0,6.82a3.77,3.77,0,0,1-4,4Zm-5-6.69h.1c.45-.05.46-.05.41-.93a5.21,5.21,0,0,1,0-.55,4.2,4.2,0,0,1,1.44-3.72,1.35,1.35,0,0,0,.46-1,2.37,2.37,0,0,0-.74-1.76,2.31,2.31,0,0,0-1.56-.59,2.26,2.26,0,0,0-1.68.72,2.35,2.35,0,0,0-.57,1.75,1.49,1.49,0,0,0,.57,1.1A3.23,3.23,0,0,1,603.5,422v.38a4.38,4.38,0,0,0,.14,1.43ZM609.34,409c0-.25,0-.49,0-.73,0-1.11,0-2.15,0-3.18a4.19,4.19,0,0,0-4.12-3.87c-.58,0-1.15,0-1.73,0s-1.06,0-1.6,0a4.06,4.06,0,0,0-4.05,3.43,21.31,21.31,0,0,0-.07,3.5c0,.28,0,.57,0,.85Z"/><path d="M604,397.81l1.32,0a7.48,7.48,0,0,1,7.37,6.93c.1,1.37.05,2.74,0,4.11a1.15,1.15,0,0,0,.79,1.28,2.89,2.89,0,0,1,1.83,3c0,4.43,0,8.87,0,13.3a2.93,2.93,0,0,1-3.18,3.17l-3.44,0H595.43c-2.5,0-3.61-1.1-3.61-3.6,0-4.2,0-8.39,0-12.58a3.35,3.35,0,0,1,2-3.41,1.2,1.2,0,0,0,.5-.91c.06-1.13,0-2.26,0-3.39.09-4.77,3.27-7.89,8-7.9H604m-7,12h13.28c0-1.7.09-3.27,0-4.83a5,5,0,0,0-5-4.67c-.58,0-1.16,0-1.75,0l-1.62,0a4.94,4.94,0,0,0-4.89,4.18,42.77,42.77,0,0,0,0,5.32m6.76,14.84h.18c1.56-.15,1.16-1.4,1.16-2.33,0-1.17,0-2.16,1.12-3.05s.94-3-.24-4.1a3.2,3.2,0,0,0-4.46.18,2.89,2.89,0,0,0,.12,4.12,2.37,2.37,0,0,1,1.09,2.45v.45c0,1.68.24,2.29,1,2.29m.28-28.56h-1.58c-5.73,0-9.66,3.86-9.77,9.59,0,.47,0,.94,0,1.39s0,1.1,0,1.63a5,5,0,0,0-2.51,4.74c0,2.8,0,5.66,0,8.43,0,1.38,0,2.75,0,4.13,0,3.43,1.9,5.32,5.34,5.33h13.24l3.47,0a4.62,4.62,0,0,0,4.87-4.88c0-2.27,0-4.57,0-6.8s0-4.34,0-6.5a4.63,4.63,0,0,0-2.62-4.46v-.45c0-1.17,0-2.38-.06-3.6a9.23,9.23,0,0,0-9-8.53Zm-5.35,12v0a21.84,21.84,0,0,1,.06-3.36,3.22,3.22,0,0,1,3.23-2.68c.51,0,1,0,1.57,0l1.71,0a3.34,3.34,0,0,1,3.28,3.07c.07.95,0,1.94,0,3Zm5.22,11.31a4.89,4.89,0,0,0-1.24-1.32.71.71,0,0,1-.23-.49,1.52,1.52,0,0,1,.36-1.09,1.45,1.45,0,0,1,2-.07,1.49,1.49,0,0,1,.47,1.09.48.48,0,0,1-.15.4,4.66,4.66,0,0,0-1.22,1.48Z"/><path class="cls-3" d="M544.21,576.35a87.64,87.64,0,0,1-28-4.85c-6.21-2.1-10.41-4.54-13.61-7.92-2.48-2.62-3.72-5.46-3.61-8.22s1.62-5.52,4.34-8c4.49-4,10.12-6.79,17.72-8.77a105.17,105.17,0,0,1,26.35-3.41A102.47,102.47,0,0,1,566.57,537c6.9,1.3,15.78,3.54,23.24,9.24,5,3.78,7.06,9.8,4.79,13.7A23,23,0,0,1,583,569.73a80.8,80.8,0,0,1-31,6.49c-.88,0-1.76,0-2.64-.05h-.13C547.59,576.29,545.89,576.35,544.21,576.35Z"/><path d="M547.41,533.92v2.59a101.6,101.6,0,0,1,18.92,1.79c6.76,1.28,15.45,3.46,22.69,9,4.45,3.4,6.41,8.68,4.46,12a21.74,21.74,0,0,1-11,9.21,79.44,79.44,0,0,1-30.48,6.4c-.86,0-1.73,0-2.59,0h-.27c-1.63.11-3.3.17-4.95.17a86.16,86.16,0,0,1-27.57-4.79c-6-2-10.05-4.36-13.09-7.58-2.23-2.36-3.36-4.87-3.26-7.27s1.46-4.86,3.91-7c4.34-3.87,9.79-6.57,17.18-8.48a103.16,103.16,0,0,1,26-3.38v-2.59m0,0a106.06,106.06,0,0,0-26.68,3.46c-6.68,1.74-13,4.37-18.25,9.06-6.08,5.43-6.37,12.15-.81,18,3.92,4.13,8.92,6.49,14.14,8.25a89,89,0,0,0,28.4,4.92c1.71,0,3.42-.06,5.13-.17.9,0,1.79,0,2.68,0a82.16,82.16,0,0,0,31.46-6.58,24.62,24.62,0,0,0,12.24-10.31c2.71-4.67.14-11.35-5.13-15.38-7.07-5.4-15.3-7.88-23.77-9.48a103.94,103.94,0,0,0-19.41-1.84Z"/><path class="cls-3" d="M548.22,596c-3.56,0-7.21-.18-11.18-.54-12.51-1.13-22.06-4.23-30-9.75-5.91-4.09-8.53-9.14-8.25-15.9.08-2.1.07-4.22.07-6.28,0-1.33,0-2.7,0-4.05,0-.3,0-.61.07-1,.78.74,1.48,1.39,2.19,2,7.61,6.72,17.1,10.73,29,12.28a149.88,149.88,0,0,0,19.62,1.49c1.46,0,2.9,0,4.28-.1,13.91-.64,25.45-4,35.27-10.39a29.09,29.09,0,0,0,4.08-3.4c.65-.61,1.32-1.25,2-1.82.25-.22.45-.37.61-.49a96.11,96.11,0,0,1-.39,15.25c-1.08,8.51-7.47,12.35-13.37,15.29C572.28,593.63,561.16,596,548.22,596Zm5.4-17.1a5,5,0,0,0-3.75,1.67,6.15,6.15,0,0,0-1.51,4.17c0,3.43,2,5.82,4.83,5.82h.12a5.87,5.87,0,0,0,5.48-5.81c0-3-2.41-5.81-5.08-5.85ZM540,589.88c.52,0,1,0,1.36,0h.35c2.5,0,4.23-1.67,4.63-4.45.23-1.6,0-4.46-3.89-5.63a11.37,11.37,0,0,0-2.67-.37h-.18c-6.72-.4-13.86-1-20.72-3.58a7,7,0,0,0-2.48-.54,3.62,3.62,0,0,0-3.56,2.95c-.84,2.9.33,5.34,3.22,6.68,6.67,3.1,13.38,4,21.47,4.92h1.32Zm26.32-12.47a5,5,0,0,0-3.68,2,7.26,7.26,0,0,0-1.77,4.92c.17,3,2,4.88,4.87,5h.17a4.52,4.52,0,0,0,3.32-1.69,9,9,0,0,0,2.05-6.14v-.67l-.47-.42a6.43,6.43,0,0,1-.54-.57,6.69,6.69,0,0,0-3.15-2.32A3.55,3.55,0,0,0,566.27,577.41Zm12-2.92a4.68,4.68,0,0,0-3.36,1.78,7.86,7.86,0,0,0-2,5.06c0,3.23,1.65,5.15,4.32,5.15h.06a5.19,5.19,0,0,0,3.68-2,9.46,9.46,0,0,0,2.32-6.26v-.76l-.57-.41c-.15-.11-.38-.32-.62-.54a6.94,6.94,0,0,0-3.23-2A3.31,3.31,0,0,0,578.31,574.49Z"/><path d="M594.76,561a82.06,82.06,0,0,1-.46,12.18c-.9,7-5.49,10.64-12.62,14.19-9.76,4.85-20.7,7.22-33.46,7.22-3.52,0-7.14-.18-11.07-.53-12.31-1.12-21.66-4.15-29.45-9.54-5.47-3.79-7.91-8.44-7.65-14.63.09-2.13.08-4.27.07-6.35,0-.66,0-1.34,0-2l.17.15c7.8,6.88,17.51,11,29.68,12.58a150.41,150.41,0,0,0,19.77,1.5c1.47,0,2.93,0,4.34-.1,14.12-.65,25.85-4.12,35.87-10.59a31.39,31.39,0,0,0,4.26-3.54l.56-.53m-22.93,18.5-.28-.24-.42-.46a7.76,7.76,0,0,0-3.8-2.71,4.16,4.16,0,0,0-1.06-.13,6.18,6.18,0,0,0-4.62,2.41,9.22,9.22,0,0,0-2,4,6.77,6.77,0,0,0-6-4.87h-.1A6.21,6.21,0,0,0,549,579.6a7.22,7.22,0,0,0-1.61,3,6.48,6.48,0,0,0-4.62-4.13,13.43,13.43,0,0,0-2.93-.42h-.18c-6.63-.39-13.67-1-20.37-3.51a8.33,8.33,0,0,0-2.9-.61c-2.32,0-4.06,1.44-4.79,3.94-1.06,3.64.42,6.8,3.95,8.44,7.38,3.43,15.4,4.31,21.84,5l.13,0h.13l1.2,0H540c.5,0,.91,0,1.29,0h.42a5.72,5.72,0,0,0,5.65-4.44c.72,3.06,3,5.11,5.88,5.11h.15a7.18,7.18,0,0,0,6.55-5.63,6,6,0,0,0,5.75,4.34h.21a5.74,5.74,0,0,0,4.26-2.12,9.75,9.75,0,0,0,2.09-4.13,5.2,5.2,0,0,0,5,3.42h.07a6.38,6.38,0,0,0,4.59-2.43,11.09,11.09,0,0,0,2.7-7.29l0-1.51-1.14-.83a6.52,6.52,0,0,1-.5-.44,8.09,8.09,0,0,0-3.85-2.28,3.84,3.84,0,0,0-.76-.07,5.89,5.89,0,0,0-4.28,2.2,9.83,9.83,0,0,0-2.2,4.26M498,555.78c-.2,1.71-.39,2.71-.41,3.72-.05,3.43.07,6.86-.07,10.28-.33,7.83,3.11,13.21,8.86,17.18,9.36,6.48,19.92,9,30.61,10,3.77.34,7.53.53,11.28.53,11.8,0,23.43-2,34.52-7.47,6.66-3.31,13-7.43,14.12-16.39a96.47,96.47,0,0,0,.39-15.68c0-1.11-.37-1.49-.82-1.49a3.82,3.82,0,0,0-1.86,1.07c-2,1.7-3.79,3.74-5.94,5.12-10.69,6.91-22.53,9.64-34.67,10.21q-2.12.09-4.23.09a151.34,151.34,0,0,1-19.47-1.48c-10.28-1.33-20.07-4.65-28.36-12-1.18-1-2.3-2.14-3.95-3.68Zm79.28,29.28c-2.15,0-3-1.57-3-3.75,0-2.4,2.14-5.39,4.11-5.39a2,2,0,0,1,.34,0c1.38.25,2.57,1.73,3.35,2.29,0,3.53-2.59,6.79-4.72,6.82Zm-39.62,3.42c-7.18-.79-14.34-1.67-21.1-4.81-2.12-1-3.17-2.57-2.49-4.94a2.3,2.3,0,0,1,2.33-2,6.13,6.13,0,0,1,2.06.46c6.84,2.57,13.94,3.23,21.07,3.66a11.69,11.69,0,0,1,2.58.33c1.83.55,3.3,1.67,3,4-.3,2-1.41,3.25-3.36,3.25h-.28c-.48,0-1,0-1.43,0l-2.34,0Zm28.24-.6h-.1a3.52,3.52,0,0,1-3.64-3.68c-.14-2.46,2-5.36,4.16-5.36a2.31,2.31,0,0,1,.52.06c1.36.32,2.46,2,3.15,2.61.08,3.57-2,6.37-4.09,6.37Zm-12.66,1.29c-2.1,0-3.54-1.78-3.54-4.4a4.1,4.1,0,0,1,4-4.4h.07c2,0,3.82,2.19,3.8,4.41a4.49,4.49,0,0,1-4.21,4.39Z"/><path class="cls-3" d="M544.21,555.68a87.64,87.64,0,0,1-28-4.85c-6.21-2.1-10.41-4.54-13.61-7.92-2.48-2.62-3.72-5.46-3.61-8.21s1.62-5.53,4.34-8c4.49-4,10.12-6.8,17.72-8.77a104.72,104.72,0,0,1,26.35-3.42,103.32,103.32,0,0,1,19.16,1.81c6.9,1.31,15.78,3.54,23.24,9.24,5,3.78,7.06,9.8,4.79,13.7A23,23,0,0,1,583,549.06a80.8,80.8,0,0,1-31,6.49c-.88,0-1.76,0-2.64,0h-.13C547.59,555.62,545.89,555.68,544.21,555.68Z"/><path d="M547.41,513.25v2.59a101.6,101.6,0,0,1,18.92,1.79c6.76,1.28,15.45,3.46,22.69,9,4.45,3.39,6.41,8.68,4.46,12a21.81,21.81,0,0,1-11,9.22A79.61,79.61,0,0,1,552,554.26c-.86,0-1.73,0-2.59,0h-.27c-1.63.11-3.3.17-4.95.17a86.16,86.16,0,0,1-27.57-4.79c-6-2-10.05-4.36-13.09-7.58-2.23-2.36-3.36-4.87-3.26-7.27s1.46-4.86,3.91-7c4.34-3.87,9.79-6.56,17.18-8.48a103.62,103.62,0,0,1,26-3.38v-2.59m0,0a106.06,106.06,0,0,0-26.68,3.46c-6.68,1.74-13,4.37-18.25,9.06-6.08,5.43-6.37,12.15-.81,18,3.92,4.14,8.92,6.49,14.14,8.25a89,89,0,0,0,28.4,4.92c1.71,0,3.42-.05,5.13-.17.9,0,1.79.05,2.68.05a82.17,82.17,0,0,0,31.46-6.59A24.52,24.52,0,0,0,595.72,540c2.71-4.66.14-11.35-5.13-15.38-7.07-5.4-15.3-7.88-23.77-9.48a103.94,103.94,0,0,0-19.41-1.84Z"/><path class="cls-3" d="M548.22,575.37c-3.56,0-7.21-.18-11.18-.54-12.51-1.13-22.06-4.23-30-9.75-5.91-4.09-8.53-9.14-8.25-15.9.08-2.1.07-4.22.07-6.27,0-1.34,0-2.71,0-4.06,0-.3,0-.61.07-1,.78.74,1.48,1.4,2.19,2,7.61,6.72,17.1,10.73,29,12.28a149.88,149.88,0,0,0,19.62,1.49c1.46,0,2.9,0,4.28-.09,13.91-.65,25.45-4.05,35.27-10.4a29.09,29.09,0,0,0,4.08-3.4c.65-.61,1.32-1.25,2-1.82.25-.22.45-.37.61-.49a96.11,96.11,0,0,1-.39,15.25c-1.08,8.51-7.47,12.36-13.37,15.29C572.28,573,561.16,575.37,548.22,575.37Zm5.4-17.1a5,5,0,0,0-3.75,1.67,6.19,6.19,0,0,0-1.51,4.17c0,3.43,2,5.82,4.83,5.82h.12a5.86,5.86,0,0,0,5.48-5.8c0-3-2.41-5.82-5.08-5.86Zm-13.67,11c.52,0,1,0,1.36,0h.35c2.5,0,4.23-1.66,4.63-4.45.23-1.6,0-4.46-3.89-5.63a11.91,11.91,0,0,0-2.67-.37h-.18c-6.72-.4-13.86-1-20.72-3.58a7,7,0,0,0-2.48-.54,3.62,3.62,0,0,0-3.56,3c-.84,2.9.33,5.34,3.22,6.68,6.67,3.1,13.38,4,21.47,4.92H540Zm26.32-12.48a5,5,0,0,0-3.68,2,7.27,7.27,0,0,0-1.77,4.92c.17,3,2,4.88,4.87,5h.17a4.52,4.52,0,0,0,3.32-1.69,9,9,0,0,0,2.05-6.14v-.67l-.47-.41c-.13-.12-.33-.34-.54-.57a6.56,6.56,0,0,0-3.15-2.32A3.06,3.06,0,0,0,566.27,556.74Zm12-2.92A4.68,4.68,0,0,0,575,555.6a7.86,7.86,0,0,0-2,5.06c0,3.23,1.65,5.16,4.32,5.16h.06a5.24,5.24,0,0,0,3.68-2,9.46,9.46,0,0,0,2.32-6.26v-.76l-.57-.41c-.15-.11-.38-.32-.62-.54a7,7,0,0,0-3.23-2A3.31,3.31,0,0,0,578.31,553.82Z"/><path d="M594.76,540.35a82.06,82.06,0,0,1-.46,12.18c-.9,7-5.49,10.64-12.62,14.19-9.76,4.86-20.7,7.22-33.46,7.22-3.52,0-7.14-.18-11.07-.53-12.31-1.12-21.66-4.15-29.45-9.54-5.47-3.79-7.91-8.43-7.65-14.63.09-2.13.08-4.27.07-6.34,0-.67,0-1.34,0-2l.17.15c7.8,6.89,17.51,11,29.68,12.58a150.41,150.41,0,0,0,19.77,1.5c1.47,0,2.93,0,4.34-.1,14.12-.65,25.85-4.12,35.87-10.59a30.67,30.67,0,0,0,4.26-3.54l.56-.53m-22.93,18.5-.28-.24-.42-.46a7.76,7.76,0,0,0-3.8-2.71,4.16,4.16,0,0,0-1.06-.13,6.18,6.18,0,0,0-4.62,2.41,9.22,9.22,0,0,0-2,4,6.8,6.8,0,0,0-6-4.87h-.1a6.21,6.21,0,0,0-4.66,2.09,7.22,7.22,0,0,0-1.61,3,6.5,6.5,0,0,0-4.62-4.13,12.8,12.8,0,0,0-2.93-.41h-.18c-6.63-.4-13.67-1-20.37-3.52a8.33,8.33,0,0,0-2.9-.61c-2.32,0-4.06,1.44-4.79,3.94-1.06,3.64.42,6.8,3.95,8.44,7.38,3.43,15.4,4.31,21.84,5l.13,0h1.33l1.14,0c.5,0,.91,0,1.29,0h.42a5.72,5.72,0,0,0,5.65-4.44c.72,3.06,3,5.11,5.88,5.11h.15a7.18,7.18,0,0,0,6.55-5.63,6,6,0,0,0,5.75,4.34h.21a5.74,5.74,0,0,0,4.26-2.12,9.75,9.75,0,0,0,2.09-4.13,5.2,5.2,0,0,0,5,3.43h.07a6.43,6.43,0,0,0,4.59-2.44,11.08,11.08,0,0,0,2.7-7.28l0-1.51-1.14-.84a4.87,4.87,0,0,1-.5-.44,8.17,8.17,0,0,0-3.85-2.28,4.77,4.77,0,0,0-.76-.07,5.93,5.93,0,0,0-4.28,2.2,9.89,9.89,0,0,0-2.2,4.26M498,535.11c-.2,1.71-.39,2.71-.41,3.72-.05,3.43.07,6.86-.07,10.28-.33,7.83,3.11,13.21,8.86,17.18,9.36,6.48,19.92,9,30.61,10,3.77.34,7.53.54,11.28.54,11.8,0,23.43-1.95,34.52-7.48,6.66-3.31,13-7.43,14.12-16.39a96.47,96.47,0,0,0,.39-15.68c0-1.11-.37-1.48-.82-1.48a3.74,3.74,0,0,0-1.86,1.07c-2,1.69-3.79,3.73-5.94,5.12-10.69,6.9-22.53,9.63-34.67,10.2q-2.12.09-4.23.09a151.34,151.34,0,0,1-19.47-1.48c-10.28-1.33-20.07-4.65-28.36-12-1.18-1-2.3-2.14-3.95-3.69Zm79.28,29.28c-2.15,0-3-1.56-3-3.75,0-2.4,2.14-5.39,4.11-5.39a2,2,0,0,1,.34,0c1.38.25,2.57,1.73,3.35,2.29,0,3.53-2.59,6.8-4.72,6.82Zm-39.62,3.42c-7.18-.79-14.34-1.67-21.1-4.81-2.12-1-3.17-2.57-2.49-4.94a2.3,2.3,0,0,1,2.33-1.95,6.13,6.13,0,0,1,2.06.46c6.84,2.57,13.94,3.24,21.07,3.66a11.69,11.69,0,0,1,2.58.33c1.83.55,3.3,1.67,3,4-.3,2-1.41,3.25-3.36,3.25h-.28l-1.43,0-2.34,0Zm28.24-.6h-.1a3.51,3.51,0,0,1-3.64-3.68c-.14-2.45,2-5.36,4.16-5.36a2.31,2.31,0,0,1,.52.06c1.36.32,2.46,2,3.15,2.61.08,3.58-2,6.37-4.09,6.37Zm-12.66,1.29c-2.1,0-3.54-1.78-3.54-4.39a4.11,4.11,0,0,1,4-4.41h.07c2,0,3.82,2.19,3.8,4.42a4.49,4.49,0,0,1-4.21,4.38Z"/><path class="cls-3" d="M544.21,535a87.64,87.64,0,0,1-28-4.85c-6.21-2.1-10.41-4.54-13.61-7.92-2.48-2.62-3.72-5.46-3.61-8.21s1.62-5.53,4.34-8c4.49-4,10.12-6.8,17.72-8.77a104.72,104.72,0,0,1,26.35-3.42,103.32,103.32,0,0,1,19.16,1.81c6.9,1.31,15.78,3.54,23.24,9.24,5,3.79,7.06,9.8,4.79,13.7A23,23,0,0,1,583,528.39a80.82,80.82,0,0,1-31,6.5c-.88,0-1.76,0-2.64,0h-.13C547.59,535,545.89,535,544.21,535Z"/><path d="M547.41,492.59v2.58A101.6,101.6,0,0,1,566.33,497c6.76,1.28,15.45,3.46,22.69,9,4.45,3.39,6.41,8.68,4.46,12a21.81,21.81,0,0,1-11,9.22A79.61,79.61,0,0,1,552,533.59c-.86,0-1.73,0-2.59,0h-.27c-1.63.11-3.3.17-4.95.17a86.41,86.41,0,0,1-27.57-4.78c-6-2-10.05-4.37-13.09-7.59-2.23-2.36-3.36-4.87-3.26-7.27s1.46-4.85,3.91-7.05c4.34-3.87,9.79-6.56,17.18-8.48a103.62,103.62,0,0,1,26-3.38v-2.58m0,0a105.61,105.61,0,0,0-26.68,3.46c-6.68,1.73-13,4.36-18.25,9.05-6.08,5.43-6.37,12.15-.81,18,3.92,4.14,8.92,6.49,14.14,8.26a89,89,0,0,0,28.4,4.92q2.56,0,5.13-.18c.9,0,1.79,0,2.68,0a82.17,82.17,0,0,0,31.46-6.59,24.52,24.52,0,0,0,12.24-10.31c2.71-4.66.14-11.35-5.13-15.38-7.07-5.4-15.3-7.87-23.77-9.48a103.93,103.93,0,0,0-19.41-1.83Z"/><path class="cls-3" d="M548.22,554.7c-3.56,0-7.21-.18-11.18-.54-12.51-1.13-22.06-4.23-30-9.75-5.91-4.09-8.53-9.14-8.25-15.9.08-2.1.07-4.22.07-6.27,0-1.33,0-2.71,0-4.06,0-.3,0-.61.07-1,.78.74,1.48,1.4,2.19,2,7.61,6.72,17.1,10.74,29,12.29A151.42,151.42,0,0,0,549.73,533c1.46,0,2.9,0,4.28-.09,13.91-.65,25.45-4,35.27-10.4a28.41,28.41,0,0,0,4.08-3.4c.65-.61,1.32-1.25,2-1.82.25-.21.45-.37.61-.48a96.16,96.16,0,0,1-.39,15.25c-1.08,8.5-7.47,12.35-13.37,15.28C572.28,552.3,561.16,554.7,548.22,554.7Zm5.4-17.1a5,5,0,0,0-3.75,1.67,6.19,6.19,0,0,0-1.51,4.17c0,3.43,2,5.82,4.83,5.82h.12a5.85,5.85,0,0,0,5.48-5.8c0-3-2.41-5.81-5.08-5.86ZM540,548.55c.52,0,1,0,1.36,0h.35c2.5,0,4.23-1.66,4.63-4.45.23-1.6,0-4.45-3.89-5.62a11.37,11.37,0,0,0-2.67-.37l-.18,0c-6.72-.4-13.86-1-20.72-3.58a7,7,0,0,0-2.48-.54,3.62,3.62,0,0,0-3.56,3c-.84,2.91.33,5.34,3.22,6.69,6.67,3.09,13.38,4,21.47,4.91H540Zm26.32-12.48a5,5,0,0,0-3.68,2,7.23,7.23,0,0,0-1.77,4.91c.17,3,2,4.89,4.87,5h.17a4.52,4.52,0,0,0,3.32-1.69,9,9,0,0,0,2.05-6.14v-.67l-.47-.41c-.13-.11-.33-.34-.54-.57a6.56,6.56,0,0,0-3.15-2.32A3.56,3.56,0,0,0,566.27,536.07Zm12-2.92a4.72,4.72,0,0,0-3.36,1.78,7.9,7.9,0,0,0-2,5.06c0,3.23,1.65,5.16,4.32,5.16h.06a5.2,5.2,0,0,0,3.68-2,9.44,9.44,0,0,0,2.32-6.26v-.75l-.57-.42c-.15-.11-.38-.32-.62-.53a7,7,0,0,0-3.23-2A3.31,3.31,0,0,0,578.31,533.15Z"/><path d="M594.76,519.68a82.19,82.19,0,0,1-.46,12.19c-.9,7-5.49,10.63-12.62,14.18-9.76,4.86-20.7,7.22-33.46,7.22-3.52,0-7.14-.17-11.07-.53-12.31-1.12-21.66-4.15-29.45-9.54-5.47-3.78-7.91-8.43-7.65-14.62.09-2.14.08-4.28.07-6.35,0-.67,0-1.34,0-2l.17.15c7.8,6.89,17.51,11,29.68,12.58a150.41,150.41,0,0,0,19.77,1.5c1.47,0,2.93,0,4.34-.1,14.12-.65,25.85-4.11,35.87-10.59a30,30,0,0,0,4.26-3.54l.56-.53m-22.93,18.5-.28-.24-.42-.45a7.71,7.71,0,0,0-3.8-2.72,4.66,4.66,0,0,0-1.06-.13,6.16,6.16,0,0,0-4.62,2.42,9.11,9.11,0,0,0-2,4,6.79,6.79,0,0,0-6-4.88h-.1a6.22,6.22,0,0,0-4.66,2.1,7.13,7.13,0,0,0-1.61,3,6.47,6.47,0,0,0-4.62-4.12,12.32,12.32,0,0,0-2.93-.42h-.18c-6.63-.4-13.67-1-20.37-3.51a8.15,8.15,0,0,0-2.9-.62c-2.32,0-4.06,1.44-4.79,3.94-1.06,3.65.42,6.8,3.95,8.44,7.38,3.43,15.4,4.31,21.84,5H540c.5,0,.91,0,1.29,0h.42a5.72,5.72,0,0,0,5.65-4.44c.72,3.06,3,5.11,5.88,5.11h.15a7.18,7.18,0,0,0,6.55-5.62,6,6,0,0,0,5.75,4.33h.21a5.74,5.74,0,0,0,4.26-2.12,9.77,9.77,0,0,0,2.09-4.12,5.21,5.21,0,0,0,5,3.42h.07a6.4,6.4,0,0,0,4.59-2.44,11.06,11.06,0,0,0,2.7-7.28l0-1.51-1.14-.83c-.1-.07-.32-.28-.5-.45a8.17,8.17,0,0,0-3.85-2.28,4.77,4.77,0,0,0-.76-.06,5.89,5.89,0,0,0-4.28,2.2,9.85,9.85,0,0,0-2.2,4.25M498,514.45c-.2,1.7-.39,2.71-.41,3.71-.05,3.43.07,6.86-.07,10.29-.33,7.82,3.11,13.2,8.86,17.18,9.36,6.48,19.92,9,30.61,10,3.77.34,7.53.54,11.28.54,11.8,0,23.43-2,34.52-7.47,6.66-3.32,13-7.44,14.12-16.39a96.62,96.62,0,0,0,.39-15.69c0-1.11-.37-1.48-.82-1.48a3.74,3.74,0,0,0-1.86,1.07c-2,1.69-3.79,3.73-5.94,5.12-10.69,6.91-22.53,9.64-34.67,10.2q-2.12.09-4.23.09a153.14,153.14,0,0,1-19.47-1.47c-10.28-1.34-20.07-4.66-28.36-12-1.18-1-2.3-2.14-3.95-3.68Zm79.28,29.27c-2.15,0-3-1.56-3-3.74,0-2.4,2.14-5.4,4.11-5.4a2,2,0,0,1,.34,0c1.38.25,2.57,1.73,3.35,2.3,0,3.53-2.59,6.79-4.72,6.81Zm-39.62,3.42c-7.18-.79-14.34-1.67-21.1-4.81-2.12-1-3.17-2.57-2.49-4.93a2.3,2.3,0,0,1,2.33-2,6.13,6.13,0,0,1,2.06.46c6.84,2.57,13.94,3.24,21.07,3.66a11.13,11.13,0,0,1,2.58.34c1.83.54,3.3,1.66,3,4-.3,2-1.41,3.24-3.36,3.24h-.28l-1.43,0-2.34,0Zm28.24-.59h-.1a3.51,3.51,0,0,1-3.64-3.68c-.14-2.45,2-5.36,4.16-5.36a2.31,2.31,0,0,1,.52.06c1.36.33,2.46,2,3.15,2.62.08,3.57-2,6.37-4.09,6.37Zm-12.66,1.28c-2.1,0-3.54-1.77-3.54-4.39a4.11,4.11,0,0,1,4-4.41h.07c2,0,3.82,2.19,3.8,4.42a4.49,4.49,0,0,1-4.21,4.38Z"/><path class="cls-4" d="M689.34,214.53c-.17-1.61.52-2.92,1.56-3.25a2.34,2.34,0,0,1,2.83,1.87,3.49,3.49,0,0,1-.53,3.15,1.93,1.93,0,0,1-2.5.71c-.5-.28-.74-.09-1,.39q-2.45,4.13-4.91,8.24a1.43,1.43,0,0,0-.2,1.22c.43,1.8-.1,3.22-1.42,3.94s-2.75-.5-2.9-2.12c-.11-1.17-.59-1.73-1.44-1.93-1.19-.28-2.37-.65-3.54-1-1-.31-1.9-.69-2.85-1-.4-.14-.67-.06-.87.54-.37,1.09-1.09,1.67-2,1.55-.71-.08-1.14.32-1.55,1-1.93,3.32-3.88,6.62-5.83,9.93a1.49,1.49,0,0,0-.17,1.54,3.37,3.37,0,0,1-1.26,4.08c-1.13.6-2.49-.14-3-1.63a3.38,3.38,0,0,1,1.28-4c.34-.18.78,0,1.15-.16a1.63,1.63,0,0,0,.93-.58c1.94-3.18,3.84-6.4,5.75-9.62.18-.29.31-.62.49-.92a1.31,1.31,0,0,0,.07-1.16c-.69-2.18.38-4.42,2.08-4.37a2.3,2.3,0,0,1,2,1.4,2.11,2.11,0,0,0,1,1c2.56.9,5.12,1.73,7.69,2.56a.69.69,0,0,0,.62-.16,2.4,2.4,0,0,1,2.3-.57c.39.09.61-.09.84-.46,1.68-2.83,3.4-5.64,5.06-8.5A5.72,5.72,0,0,0,689.34,214.53ZM658.71,240.6c0,.74.59,1.51,1.14,1.51s1.18-.89,1.17-1.68-.58-1.48-1.15-1.49S658.71,239.73,658.71,240.6Zm31.63-26.42a1.53,1.53,0,0,0,1.14,1.59c.55,0,1.19-.7,1.22-1.41s-.6-1.71-1.14-1.73S690.38,213.42,690.34,214.18Zm-19.69,9.68c0-.77-.55-1.5-1.12-1.5a1.55,1.55,0,0,0,0,3C670.13,225.41,670.66,224.71,670.65,223.86Zm11.76,5.62c.55,0,1.15-.69,1.18-1.44a1.61,1.61,0,0,0-1.2-1.62c-.58,0-1.16.66-1.17,1.43A1.6,1.6,0,0,0,682.41,229.48Z"/><path d="M1201.66,410.09V502h-54.3V410.09h54.3m2-2h-58.3V504h58.3V408.09Z"/></svg>