<svg id="Layer_1" data-name="Layer 1" xmlns="http://www.w3.org/2000/svg" viewBox="0 0 403 528"><defs><style>.cls-1,.cls-3,.cls-5{fill:#2d302e;}.cls-2{fill:#1cf445;}.cls-3{stroke:#1cf445;stroke-width:3px;}.cls-3,.cls-5{stroke-miterlimit:10;}.cls-4{fill:#fff;}.cls-5{stroke:#fff;stroke-width:6px;}.cls-6{fill:#101111;}</style></defs><title>Ejecución de proyectos</title><path class="cls-1" d="M136,147.1l-2-8.21-2.18-.43a58.53,58.53,0,0,1-20-8.1L110,129.2l-7.12,4.2L91.21,121.64l4.15-6.85L94.15,113a58.53,58.53,0,0,1-8.36-20.26l-.44-2.14-7.9-2L77.56,72l7.94-2L86,67.91A58.34,58.34,0,0,1,94.42,48.1l1.22-1.83-4.39-7.44L103,27.21l7.57,4.59,1.82-1.14A58.63,58.63,0,0,1,131.64,23l2.15-.44,2.35-9.12,16.53.11L155,22.89l2.09.49a58.51,58.51,0,0,1,18.31,7.8l1.81,1.17,8.66-5.1L197.44,39l-5.2,8.58,1.15,1.83a58.86,58.86,0,0,1,7.49,18.09l.47,2.08,9.85,2.54-.1,16.53L201.51,91l-.46,2.14a58.64,58.64,0,0,1-7.46,18.5l-1.12,1.8,4.93,8.36-11.76,11.61-7.87-4.76-1.85,1.22a58.43,58.43,0,0,1-19.11,8.19l-2.07.48-2.23,8.63Z"/><path class="cls-2" d="M138.85,17l11.07.07,1.13,4.6,1,4.16,4.17,1a54.78,54.78,0,0,1,17.22,7.33l3.63,2.34,3.72-2.19,4.44-2.62L193,39.53l-2.68,4.41-2.23,3.69,2.29,3.66a54.84,54.84,0,0,1,7,17l.95,4.15,4.13,1.07,5.14,1.33-.07,11.08-4.81,1.18-4.25,1-.92,4.28a54.79,54.79,0,0,1-7,17.4l-2.22,3.59,2.14,3.65,2.47,4.18L185.12,129l-3.64-2.21-3.79-2.29L174,127a55,55,0,0,1-18,7.7l-4.14,1-1.06,4.11-1,3.94-11.07-.07-.83-3.4-1.06-4.32-4.36-.88a54.82,54.82,0,0,1-18.83-7.6L110,125.1l-3.71,2.18L103.4,129l-7.78-7.88,1.59-2.63,2.29-3.77L97.08,111a55,55,0,0,1-7.86-19l-.88-4.27-4.22-1.09L81,85.81,81,74.73,84.22,74l4.23-1,.94-4.24A54.7,54.7,0,0,1,97.33,50l2.44-3.66L97.54,42.6l-1.89-3.2,7.88-7.78,3.4,2.06,3.67,2.22,3.65-2.26a55,55,0,0,1,18.09-7.2l4.29-.88,1.09-4.23L138.85,17m-5.41-7-2.5,9.64a62,62,0,0,0-20.38,8.11L102.5,22.8,86.85,38.25l4.66,7.9a62,62,0,0,0-9,21l-8.49,2.08-.14,22,8.44,2.18a62.36,62.36,0,0,0,8.85,21.47l-4.42,7.29,15.45,15.64,7.62-4.49a62.07,62.07,0,0,0,21.23,8.58l2.13,8.69,22,.14,2.38-9.22a62.07,62.07,0,0,0,20.25-8.68l8.31,5L201.8,122.4l-5.24-8.89a61.83,61.83,0,0,0,7.91-19.61l10.11-2.48.14-22-10.43-2.7a62.16,62.16,0,0,0-7.94-19.17l5.5-9.07L186.4,22.85l-9.14,5.39A62,62,0,0,0,157.85,20l-2.43-9.91-22-.13Z"/><path class="cls-1" d="M107.36,116.34a50.71,50.71,0,1,1,73.82-1.73h0a50.76,50.76,0,0,1-71.6,3.84C108.81,117.76,108.07,117.06,107.36,116.34Zm69.08-68.13c-.66-.66-1.33-1.31-2-1.93a46.31,46.31,0,1,0,3.51,65.4h0A46.37,46.37,0,0,0,176.44,48.21Z"/><path class="cls-2" d="M143.49,30a50.69,50.69,0,0,0-36.13,86.3c.71.72,1.45,1.42,2.22,2.11a50.75,50.75,0,0,0,71.6-3.84h0A50.68,50.68,0,0,0,143.49,30Zm-.05,97a46.29,46.29,0,1,1,31-80.74c.7.62,1.37,1.27,2,1.93a46.37,46.37,0,0,1,1.47,63.47h0A46.24,46.24,0,0,1,143.44,127Z"/><path class="cls-1" d="M143.46,101.89a21.17,21.17,0,1,1,21.16-21.16A21.18,21.18,0,0,1,143.46,101.89Z"/><path class="cls-2" d="M143.46,63.06A17.67,17.67,0,1,1,125.8,80.73a17.69,17.69,0,0,1,17.66-17.67m0-7a24.67,24.67,0,1,0,24.66,24.67,24.67,24.67,0,0,0-24.66-24.67Z"/><path class="cls-1" d="M270.23,169.19l-1.82-7.44-2.18-.44A53,53,0,0,1,248.07,154l-1.81-1.16-6.45,3.8-10.26-10.38,3.76-6.2-1.21-1.85a53,53,0,0,1-7.57-18.37l-.45-2.13-7.15-1.85.09-14.59,7.2-1.77.47-2.12a52.76,52.76,0,0,1,7.66-18l1.21-1.82-4-6.75L240,60.56l6.86,4.15,1.82-1.13a53,53,0,0,1,17.45-6.94l2.14-.44,2.13-8.27L285,48,287,56.49l2.09.49a52.89,52.89,0,0,1,16.6,7.07l1.81,1.17,7.85-4.63L325.65,71l-4.72,7.78,1.14,1.83A52.64,52.64,0,0,1,328.86,97l.48,2.07,8.93,2.31L338.18,116l-8.7,2.14-.46,2.14A53,53,0,0,1,322.26,137l-1.12,1.8,4.47,7.58-10.39,10.25-7.13-4.32-1.85,1.22A53,53,0,0,1,288.91,161l-2.07.48-2,7.82Z"/><path class="cls-2" d="M273.08,51.45l9.14.06.91,3.73,1,4.16,4.17,1A49.42,49.42,0,0,1,303.83,67l3.63,2.34,3.72-2.19L314.82,65l6.42,6.5-2.19,3.6-2.24,3.7,2.3,3.65a49.45,49.45,0,0,1,6.34,15.33l.95,4.15,4.12,1.06,4.23,1.1-.05,9.13-3.93,1-4.25,1-.92,4.28a49.36,49.36,0,0,1-6.32,15.67l-2.22,3.6,2.14,3.64,2,3.4-6.5,6.43-2.91-1.77L308,148.19l-3.7,2.44a49.41,49.41,0,0,1-16.19,6.94l-4.13,1-1.06,4.11-.81,3.13L273,165.7l-.65-2.63-1.05-4.32-4.36-.87A49.31,49.31,0,0,1,250,151l-3.62-2.32-3.71,2.19-2.25,1.32-6.42-6.5,1.2-2,2.29-3.77L235,136.27A49.64,49.64,0,0,1,228,119.11l-.88-4.27-4.22-1.09-2.41-.63.06-9.13,2.44-.6,4.22-1,1-4.25a49.22,49.22,0,0,1,7.15-16.77l2.43-3.66-2.23-3.78L234,71.39l6.5-6.43,2.69,1.63,3.67,2.23,3.65-2.27a49.61,49.61,0,0,1,16.3-6.48l4.28-.88L272.17,55l.91-3.51m-5.41-7-2.27,8.79a56.54,56.54,0,0,0-18.59,7.4l-7.36-4.46L225.19,70.24l4.24,7.2a56.76,56.76,0,0,0-8.16,19.15l-7.73,1.9-.13,20.05,7.69,2a56.62,56.62,0,0,0,8.08,19.58l-4,6.65L239.23,161l7-4.1a56.56,56.56,0,0,0,19.36,7.82l1.94,7.93,20,.12,2.17-8.4a56.69,56.69,0,0,0,18.47-7.92l7.57,4.59L330,147l-4.78-8.1A56.59,56.59,0,0,0,332.44,121l9.22-2.26.13-20-9.51-2.45A56.66,56.66,0,0,0,325,78.73l5-8.27L316,56.19l-8.33,4.92a56.59,56.59,0,0,0-17.7-7.54l-2.21-9-20.05-.12Z"/><path class="cls-1" d="M243.89,141.44a46.24,46.24,0,1,1,67.32-1.57h0a46.3,46.3,0,0,1-65.3,3.5C245.21,142.74,244.54,142.1,243.89,141.44Zm63-62.13c-.6-.6-1.21-1.18-1.85-1.76a42.23,42.23,0,1,0,3.2,59.64h0A42.29,42.29,0,0,0,306.88,79.31Z"/><path class="cls-2" d="M276.83,62.75a46.22,46.22,0,0,0-32.94,78.69c.65.66,1.32,1.3,2,1.93a46.29,46.29,0,0,0,65.3-3.5h0a46.22,46.22,0,0,0-34.38-77.12Zm0,88.43A42.21,42.21,0,1,1,305,77.55c.64.58,1.25,1.16,1.85,1.76a42.29,42.29,0,0,1,1.35,57.88h0a42.14,42.14,0,0,1-31.44,14Z"/><path class="cls-1" d="M276.81,128a19,19,0,1,1,19-19A19,19,0,0,1,276.81,128Z"/><path class="cls-2" d="M276.81,93.48A15.49,15.49,0,1,1,261.32,109a15.51,15.51,0,0,1,15.49-15.49m0-7A22.49,22.49,0,1,0,299.3,109a22.49,22.49,0,0,0-22.49-22.49Z"/><path class="cls-1" d="M181.9,218.5l.35-4.35-1.09-.64a31.73,31.73,0,0,1-9-7.85l-.77-1-4.36.93-3.95-8,3.41-2.9-.3-1.2a31.83,31.83,0,0,1-.72-11.74l.15-1.25-4-2.56,2.88-8.45,4.81.39.64-1.05a32,32,0,0,1,7.53-8.44l1-.77-1.08-5,8-3.94,3.4,4,1.19-.29a32,32,0,0,1,7.36-.86,31.41,31.41,0,0,1,3.49.2l1.23.13,3-4.61,8.45,2.88-.44,5.46,1.05.64a32,32,0,0,1,8.08,7l.78.94L228.4,165l3.94,8-4.11,3.49.32,1.22a31.79,31.79,0,0,1,.87,10.86l-.1,1.2,4.44,2.88-2.87,8.45-5-.4-.63,1.09a32.08,32.08,0,0,1-7.33,8.68l-.94.77,1,4.76-8,4-3-3.52-1.23.33a31.89,31.89,0,0,1-11.76.94l-1.22-.12-2.45,3.79Z"/><path class="cls-2" d="M205.88,151.64l5.5,1.87-.22,2.68-.2,2.46,2.11,1.28a30,30,0,0,1,7.58,6.57l1.55,1.88,2.37-.51,2.72-.58,2.57,5.21-2,1.67L226,175.79l.63,2.43a29.83,29.83,0,0,1,.82,10.18l-.22,2.41,2,1.31,2.13,1.37L229.5,199l-2.19-.18-2.53-.2-1.26,2.19a30,30,0,0,1-6.88,8.14l-1.87,1.54.51,2.37.44,2.06-5.21,2.56-1.15-1.36-1.65-1.93-2.45.66a29.91,29.91,0,0,1-7.87,1,30.4,30.4,0,0,1-3.16-.16l-2.44-.26-1.34,2.06-.94,1.45L184,217.11l.12-1.55.21-2.51-2.18-1.27a29.85,29.85,0,0,1-8.47-7.36l-1.55-2-2.43.53-1.62.34-2.56-5.21,1.27-1.08,1.89-1.61-.6-2.41a29.81,29.81,0,0,1-.68-11l.31-2.49-2.1-1.36-1.6-1,1.87-5.5,2,.16,2.44.2,1.29-2.09a30,30,0,0,1,7.05-7.92l2-1.54-.52-2.44-.49-2.29,5.21-2.56,1.59,1.88,1.59,1.86,2.38-.56a29.85,29.85,0,0,1,10.18-.63l2.45.27,1.34-2.07,1.46-2.26m-1.66-4.79-3.16,4.88a33.13,33.13,0,0,0-3.72-.21,34,34,0,0,0-7.81.92l-3.62-4.26-10.8,5.32,1.15,5.34a33.9,33.9,0,0,0-8,9l-5.15-.42-3.87,11.4,4.21,2.73a33.84,33.84,0,0,0,.77,12.48l-3.65,3.09,5.32,10.81,4.67-1a34,34,0,0,0,9.6,8.34l-.38,4.66,11.4,3.87,2.63-4.07a33.3,33.3,0,0,0,3.58.19,34.08,34.08,0,0,0,8.92-1.19l3.17,3.74,10.81-5.32-1.1-5.1a34.24,34.24,0,0,0,7.8-9.22l5.29.43,3.88-11.4-4.74-3.07a34,34,0,0,0-.94-11.54l4.35-3.69-5.32-10.81L223.74,164a34.18,34.18,0,0,0-8.59-7.45l.47-5.79-11.4-3.87Z"/><path class="cls-1" d="M188.42,212a27.77,27.77,0,1,1,35.73-18.94h0A27.81,27.81,0,0,1,190,212.5C189.48,212.35,189,212.18,188.42,212Zm17.13-50.3c-.48-.17-1-.32-1.46-.45a25.36,25.36,0,1,0,17.74,31.17h0A25.39,25.39,0,0,0,205.55,161.71Z"/><path class="cls-2" d="M197.38,157.94a27.78,27.78,0,0,0-9,54.07c.53.17,1.06.34,1.6.49a27.77,27.77,0,0,0,34.13-19.43h0a27.8,27.8,0,0,0-19.43-34.13,27.38,27.38,0,0,0-7.34-1Zm0,53.14a25.37,25.37,0,1,1,6.72-49.82c.49.14,1,.28,1.46.45a25.39,25.39,0,0,1,16.28,30.72h0a25.4,25.4,0,0,1-24.46,18.65Z"/><path class="cls-1" d="M197.38,195.73a10,10,0,0,1-4.49-19,9.83,9.83,0,0,1,4.47-1.06,10,10,0,0,1,0,20Z"/><path class="cls-2" d="M197.36,179.21a6.51,6.51,0,0,1,2.92,12.33,6.38,6.38,0,0,1-2.9.69,6.51,6.51,0,0,1-2.92-12.33,6.41,6.41,0,0,1,2.9-.69m0-7a13.51,13.51,0,1,0,12.09,7.46,13.45,13.45,0,0,0-12.09-7.46Z"/><path class="cls-3" d="M360.86,476.64S358,490.05,350.35,491s-3.9,10.49-3.9,10.49H377.1V476.64Z"/><path class="cls-4" d="M272.13,125.75c-2.06-1.87-5.11.52-8,3.94-3.75-8.85-12.44-15-17.83-13.48-5.21,1.46-4.45,10-3.72,14.26-.85,7,5.89,24.77,11.91,26.36l14.91.25a132.51,132.51,0,0,1-2.8-13.76C271.12,138.12,275.65,129,272.13,125.75Z"/><path class="cls-4" d="M296.33,133.71c.31-2.06,3.2-2.12,6.47-1.49-2-6.89.12-14.55,3.95-16.21s7.28,3.66,8.88,6.49c3.79,3.64,8.28,17.11,5.55,20.87l-8.5,7.18a99.14,99.14,0,0,0-4.87-9.28C302.75,140.38,295.8,137.22,296.33,133.71Z"/><path class="cls-5" d="M368.35,201c.45,4.23-9.4,26.69-16.07,26S339,205,328.17,188.36s-19.38-37.63-19.28-43,8.44-4.56,14.28-4.11,15,30,22.5,34S367.67,194.68,368.35,201Z"/><path class="cls-3" d="M295.4,476.64s-2.86,13.41-10.51,14.34S281,501.47,281,501.47h30.64V476.64Z"/><path class="cls-2" d="M345.47,339.4s7,56,17.82,79.94,17,57.3,17,57.3H352.45S318.39,360.71,319.94,339.4,345.47,339.4,345.47,339.4Z"/><path class="cls-2" d="M324.56,341.84s-14.65,42.46-14.65,75.77a270.61,270.61,0,0,0,7.32,61.29s-20.65,6.66-27.31,0c0,0-10.66-142.57,0-147.9S324.56,341.84,324.56,341.84Z"/><path class="cls-6" d="M351.51,168.55c-3.31,15.94-16.26,26.72-28.91,24.09s-22.24-22.35-18.93-38.28,18.25-22,30.91-19.42S354.81,152.62,351.51,168.55Z"/><path class="cls-4" d="M305.64,148.38s-1.14.76-2,6a7.88,7.88,0,0,1-6.83,6.86s5.4,7.33,5.65,13.12,7.32,12.88,12.17,14.59c2.7.95,11.42.11,11-6.14-.35-5-10.07-14.95-7.55-19.09C320.76,159.32,306.6,148.74,305.64,148.38Z"/><path class="cls-5" d="M354.24,342.87c-2.68-16.75-4-34.61-.68-100.35S347.2,180,342.32,180.64c-14,1.88-25.09,2.25-33.19,17.17a26.06,26.06,0,0,1-9.38-2.74c-10.05-5.34-22.33-44.91-30.15-45.5s-19-1.64-19.12,5.51,11.3,35.28,25.82,57.57c10.73,16.48,16.58,21.43,22.51,23.29-.37,2.63-.73,5.39-1.06,8.29-5.89,50.77-29.05,86.36-17.88,111.28S356.91,359.62,354.24,342.87Z"/><path class="cls-6" d="M308.05,149.14s2.12,8.48,2.12,12v6.32l2,2.26s-.69-12.82,7.08-12.68S308.05,149.14,308.05,149.14Z"/><path class="cls-3" d="M33.39,476.64s3.13,13.41,11.5,14.34,4.26,10.49,4.26,10.49H15.61V476.64Z"/><path class="cls-4" d="M130.49,125.75c2.25-1.87,5.59.52,8.73,3.94,4.1-8.85,13.62-15,19.52-13.48,5.69,1.46,4.86,10,4.06,14.26.93,7-6.45,24.77-13,26.36l-16.32.25a123.1,123.1,0,0,0,3.07-13.76C131.59,138.12,126.63,129,130.49,125.75Z"/><path class="cls-4" d="M104,133.71c-.33-2.06-3.5-2.12-7.08-1.49,2.2-6.89-.13-14.55-4.33-16.21-4-1.61-8,3.66-9.71,6.49-4.15,3.64-9.06,17.11-6.07,20.87l9.3,7.18a96.48,96.48,0,0,1,5.33-9.28C97,140.38,104.58,137.22,104,133.71Z"/><path class="cls-5" d="M25.19,201c-.5,4.23,10.28,26.69,17.58,26S57.3,205,69.16,188.36s21.21-37.63,21.09-43-9.24-4.56-15.62-4.11-16.42,30-24.63,34S25.93,194.68,25.19,201Z"/><path class="cls-3" d="M105,476.64s3.13,13.41,11.5,14.34,4.26,10.49,4.26,10.49H87.24V476.64Z"/><path class="cls-2" d="M50.23,339.4s-7.65,56-19.51,79.94-18.63,57.3-18.63,57.3H42.58S79.86,360.71,78.16,339.4,50.23,339.4,50.23,339.4Z"/><path class="cls-2" d="M73.1,341.84s16,42.46,16,75.77a248.48,248.48,0,0,1-8,61.29s22.61,6.66,29.9,0c0,0,11.66-142.57,0-147.9S73.1,341.84,73.1,341.84Z"/><path class="cls-6" d="M43.62,168.55c3.62,15.94,17.78,26.72,31.64,24.09S99.59,170.29,96,154.36s-20-22-33.83-19.42S40,152.62,43.62,168.55Z"/><path class="cls-4" d="M93.81,148.38s1.25.76,2.16,6c1.12,6.37,7.47,6.86,7.47,6.86s-5.9,7.33-6.18,13.12-8,12.88-13.32,14.59c-3,.95-12.5.11-12-6.14.38-5,11-14.95,8.26-19.09C77.27,159.32,92.76,148.74,93.81,148.38Z"/><path class="cls-5" d="M125.92,212.65c15.89-22.29,28.42-50.42,28.26-57.57s-12.37-6.11-20.93-5.51-22,40.16-33,45.5A30.61,30.61,0,0,1,90,197.81c-8.87-14.92-21-15.29-36.32-17.17-5.35-.66-16-3.87-12.31,61.88s2.19,83.6-.74,100.35,69.16,37.56,81.38,12.64S108.89,295,102.45,244.23q-.56-4.35-1.16-8.29C107.78,234.08,114.18,229.13,125.92,212.65Z"/><path class="cls-6" d="M91.18,149.14s-2.32,8.48-2.32,12v6.32l-2.2,2.26s.77-12.82-7.74-12.68S91.18,149.14,91.18,149.14Z"/></svg>