<svg id="Layer_1" data-name="Layer 1" xmlns="http://www.w3.org/2000/svg" viewBox="0 0 438 541"><defs><style>.cls-1,.cls-3{fill:#101111;stroke:#1cf445;stroke-miterlimit:10;}.cls-1{stroke-width:6px;}.cls-2{fill:#1cf445;}.cls-3{stroke-width:3px;}</style></defs><title>Ensamblaje Estratégico</title><path class="cls-1" d="M218.15,380.75l27-26.73-9-15.37a107.26,107.26,0,0,0,13.67-33.91l17.49-4.29.23-38-18-4.66a107.31,107.31,0,0,0-13.72-33.16l9.51-15.69-26.72-27.06-15.82,9.32a107,107,0,0,0-33.56-14.3L165,159.75l-38-.24-4.31,16.67a107.49,107.49,0,0,0-35.26,14l-13.94-8.46L46.39,208.49l8,13.66A107.24,107.24,0,0,0,39,258.46l-14.67,3.6-.24,38,14.58,3.77A107.57,107.57,0,0,0,54,341L46.31,353.6,73,380.66l13.18-7.77a107,107,0,0,0,36.71,14.84l3.68,15,38,.24,4.12-15.95a107.52,107.52,0,0,0,35-15Z"/><path class="cls-2" d="M81.86,343.53a87.7,87.7,0,1,1,127.69-3h0A87.8,87.8,0,0,1,85.7,347.19Q83.71,345.41,81.86,343.53ZM201.33,225.7q-1.68-1.71-3.5-3.34a80.1,80.1,0,1,0,6.06,113.11h0A80.21,80.21,0,0,0,201.33,225.7Z"/><path class="cls-1" d="M279.9,170.74,294,156.83l-4.71-8a55.8,55.8,0,0,0,7.12-17.65l9.1-2.23.12-19.79-9.39-2.42a56,56,0,0,0-7.14-17.26L294,81.32,280.12,67.24l-8.22,4.84a55.67,55.67,0,0,0-17.47-7.43l-2.19-8.92-19.78-.12-2.25,8.68a55.9,55.9,0,0,0-18.35,7.3l-7.25-4.4L190.53,81.1l4.19,7.11a55.86,55.86,0,0,0-8.06,18.89L179,109l-.13,19.79,7.59,2a56.17,56.17,0,0,0,8,19.32l-4,6.56,13.91,14.08,6.86-4a55.74,55.74,0,0,0,19.1,7.72l1.92,7.82,19.79.13,2.14-8.3a55.94,55.94,0,0,0,18.23-7.81Z"/><path class="cls-2" d="M209,151.37a45.64,45.64,0,1,1,66.44-1.55h0A45.69,45.69,0,0,1,211,153.27C210.29,152.66,209.63,152,209,151.37Zm62.17-61.32c-.59-.59-1.2-1.17-1.83-1.73a41.68,41.68,0,1,0,3.16,58.86h0A41.75,41.75,0,0,0,271.16,90.05Z"/><path class="cls-1" d="M395.2,399.81l18.68-18.44-6.26-10.61a73.78,73.78,0,0,0,9.44-23.41l12.07-3,.17-26.25-12.45-3.22A74.23,74.23,0,0,0,407.37,292l6.56-10.83-18.44-18.68L384.57,269a73.93,73.93,0,0,0-23.16-9.86l-2.9-11.82-26.25-.17-3,11.51a74.21,74.21,0,0,0-24.34,9.69l-9.62-5.84-18.68,18.45,5.56,9.43a73.82,73.82,0,0,0-10.68,25.07l-10.13,2.48-.17,26.25,10.07,2.6a74.09,74.09,0,0,0,10.57,25.63l-5.28,8.71L295,399.76l9.1-5.37a73.85,73.85,0,0,0,25.34,10.24L332,415l26.25.17,2.85-11a74.33,74.33,0,0,0,24.18-10.36Z"/><path class="cls-2" d="M301.13,374.13a60.54,60.54,0,1,1,88.13-2.06h0a60.6,60.6,0,0,1-85.49,4.58Q302.41,375.42,301.13,374.13Zm82.46-81.34c-.77-.79-1.58-1.56-2.41-2.3a55.29,55.29,0,1,0,4.18,78.07h0A55.36,55.36,0,0,0,383.59,292.79Z"/><circle class="cls-2" cx="144.3" cy="281.95" r="42.66"/><circle class="cls-2" cx="344.15" cy="331.62" r="22.69"/><path class="cls-3" d="M303.85,254.15l10.27-6.21-1.65-5.39a33.72,33.72,0,0,0,6.69-9.4l5.68,0,2.87-11.65-5.2-2.76a33.86,33.86,0,0,0-1.77-11.18l4.07-4.12-6.21-10.26-5.54,1.69a34,34,0,0,0-9.24-6.85l0-5.56-11.66-2.87-2.54,4.8a33.94,33.94,0,0,0-11.86,1.71l-3.65-3.62-10.27,6.22,1.47,4.78a33.74,33.74,0,0,0-7.42,10l-4.77,0-2.87,11.65,4.2,2.23a34,34,0,0,0,2,12.52l-3.27,3.31,6.21,10.27,4.61-1.42a33.78,33.78,0,0,0,10.18,7.25l0,4.89L285.8,257l2.43-4.59a34,34,0,0,0,11.86-2Z"/><path class="cls-2" d="M264.77,232.71a27.67,27.67,0,1,1,39.4,8.47h0a27.69,27.69,0,0,1-38.49-7.06C265.36,233.65,265.05,233.19,264.77,232.71Zm45.32-27.37c-.26-.44-.54-.86-.83-1.29a25.27,25.27,0,1,0-6.45,35.16h0A25.31,25.31,0,0,0,310.09,205.34Z"/><circle class="cls-2" cx="288.42" cy="218.4" r="10.37"/><path class="cls-1" d="M261.71,499.51l16-9.66-2.56-8.37a52.54,52.54,0,0,0,10.39-14.62l8.84,0,4.46-18.12-8.08-4.29A52.55,52.55,0,0,0,288,427l6.34-6.39-9.66-16L276,407.3a52.46,52.46,0,0,0-14.38-10.65l0-8.65-18.11-4.46-4,7.46a52.91,52.91,0,0,0-18.43,2.66L215.41,388l-16,9.65,2.28,7.44a52.59,52.59,0,0,0-11.53,15.56l-7.42,0-4.46,18.12,6.53,3.46a52.87,52.87,0,0,0,3.07,19.47l-5.09,5.14,9.65,16,7.18-2.2A52.53,52.53,0,0,0,215.48,492l0,7.6L233.63,504l3.79-7.14a52.6,52.6,0,0,0,18.43-3.16Z"/><path class="cls-2" d="M200.94,466.18a43,43,0,1,1,61.26,13.17h0a43.08,43.08,0,0,1-59.85-11C201.86,467.64,201.39,466.91,200.94,466.18Zm70.47-42.57c-.41-.67-.84-1.33-1.29-2a39.3,39.3,0,1,0-10,54.66h0A39.36,39.36,0,0,0,271.41,423.61Z"/><circle class="cls-2" cx="237.72" cy="443.92" r="16.13"/><circle class="cls-2" cx="241.48" cy="118.96" r="19.74"/></svg>