<svg id="Layer_1" data-name="Layer 1" xmlns="http://www.w3.org/2000/svg" viewBox="0 0 265 238"><defs><style>.cls-1{fill:#fff;}.cls-2{fill:#0d2038;}.cls-3{fill:#ffd8ae;}</style></defs><title>FAQ</title><path class="cls-1" d="M167.87,108.52q2.63-12.13,8.21-17.37t18.62-10.8a29,29,0,0,0,11.14-7.16,23.74,23.74,0,0,0,6-11.81q1.53-7.35-1.48-12.55c-2-3.46-5.44-5.71-10.28-6.72a14.33,14.33,0,0,0-10.56,1.53q-4.68,2.76-6.35,9.81l-28.79-6-.06-.56q3.56-18.26,17.33-24.92t33.2-2.57q20.84,4.37,30.57,17.38t6,30.85a34.75,34.75,0,0,1-10.74,18.76,47.32,47.32,0,0,1-19.61,11c-4.25,1.66-7.33,3.78-9.23,6.33s-3.37,6.25-4.39,11.09Zm21.84,42.59-29.4-6.17,5-23.62,29.4,6.17Z"/><path class="cls-2" d="M193,156.09l-37.62-7.9L162,116.34l37.63,7.9Zm-27.67-14.4,21.17,4.45,3.24-15.4-21.18-4.45Zm35.4-22-37.83-7.94.9-4.14c2-9,5.05-15.42,9.45-19.54,4.11-3.86,10.6-7.65,19.84-11.6l.2-.08a25,25,0,0,0,9.55-6.12,19.38,19.38,0,0,0,4.92-9.77c.82-3.88.49-7-1-9.58-1.41-2.41-3.86-3.95-7.52-4.72a10.21,10.21,0,0,0-7.56,1c-2.11,1.24-3.55,3.59-4.39,7.15l-.94,4-35.77-7.51-.48-4.21.13-.64c2.62-13.48,9.23-22.87,19.63-27.89,10-4.83,22.06-5.81,35.89-2.9,14.85,3.11,26,9.5,33.06,19,7.22,9.64,9.49,21.15,6.74,34.23a39,39,0,0,1-12,21,51.5,51.5,0,0,1-21.11,11.86c-3.4,1.36-5.82,3-7.22,4.86-1.53,2-2.75,5.23-3.64,9.45ZM173,105.31l21.34,4.48a27.65,27.65,0,0,1,4.11-8.67c2.37-3.17,6.09-5.77,11.06-7.72l.4-.13a43.58,43.58,0,0,0,17.9-10,30.42,30.42,0,0,0,9.48-16.54c2.26-10.76.54-19.75-5.24-27.48S216.78,26.15,204,23.47c-12-2.51-22.23-1.76-30.51,2.25-7.1,3.43-11.78,9.47-14.22,18.42l21.06,4.42A17,17,0,0,1,187.39,40a18.5,18.5,0,0,1,13.55-2c6,1.27,10.43,4.21,13.05,8.73s3.2,9.6,2,15.53a28,28,0,0,1-7.07,13.84,33.37,33.37,0,0,1-12.62,8.17c-8.16,3.49-14,6.84-17.31,10C176.5,96.51,174.51,100.24,173,105.31Z"/><path class="cls-1" d="M43.63,104.8Q41.52,94.7,44,88.86T54.41,74.38a24.14,24.14,0,0,0,6-9.2,19.68,19.68,0,0,0,.54-11q-1.32-6.09-5.37-9T45.52,43.59a11.91,11.91,0,0,0-7.47,4.74Q35.44,52,36.56,57.91L12.72,63.08l-.24-.4q-3.5-15,4.69-24.74T41.44,24.75q17.25-3.75,29,2.81t15,21.33a28.88,28.88,0,0,1-1.79,17.85A39.3,39.3,0,0,1,72.53,81.68q-4,4-4.84,7.92a23.48,23.48,0,0,0,.43,9.88Zm31,24.85-24.36,5.28L46,115.36l24.36-5.28Z"/><path class="cls-2" d="M78.74,132.32l-31.16,6.76L41.85,112.7,73,105.93Zm-25.83-1.53L70.45,127l-2.77-12.76L50.14,118Zm19.36-28.64L40.94,109l-.72-3.44c-1.58-7.5-1.4-13.39.53-18,1.81-4.31,5.44-9.38,11.1-15.5l.12-.13A20.62,20.62,0,0,0,57.13,64,16.06,16.06,0,0,0,57.55,55c-.7-3.22-2-5.48-4-6.92s-4.26-1.69-7.29-1a8.47,8.47,0,0,0-5.37,3.35c-1.18,1.66-1.48,3.92-.91,6.9l.64,3.34L11,67,9.21,64l-.13-.52C6.51,52.37,8.33,43,14.5,35.7c5.93-7,14.75-11.87,26.2-14.36,12.3-2.67,22.88-1.6,31.46,3.17,8.73,4.85,14.35,12.81,16.7,23.64a32.37,32.37,0,0,1-2,19.95,42.84,42.84,0,0,1-12,16.14,13.61,13.61,0,0,0-3.81,6.12,20.21,20.21,0,0,0,.44,8.38Zm-25.83-1.53,17.67-3.83a22.86,22.86,0,0,1,.18-8,20.4,20.4,0,0,1,5.76-9.6L70.3,79A36,36,0,0,0,80.47,65.37a25.18,25.18,0,0,0,1.58-15.74c-1.93-8.91-6.28-15.14-13.28-19s-16-4.74-26.6-2.45c-9.91,2.16-17.42,6.2-22.34,12-4.21,5-5.71,11.16-4.53,18.77l17.45-3.79a14,14,0,0,1,2.46-8.86,15.33,15.33,0,0,1,9.58-6.12c5-1.09,9.31-.35,12.83,2.19s5.68,6.18,6.74,11.09a23.13,23.13,0,0,1-.66,12.88,27.62,27.62,0,0,1-6.79,10.46c-5,5.4-8.27,9.91-9.73,13.4C46.1,92.78,45.85,96.27,46.44,100.62Z"/><path class="cls-2" d="M72.49,102.14c3.83-3.28,26.62,6.21,29.56,2.54s7.39-8.38,7.39-8.38c2,6.47,22.57,6.14,24.54-.32,0,0,4.14,6.16,7.12,9.88s26.42-6.59,30.25-3.31c0,0-5,28.85-7.7,39-2.57,9.79-6.44,20.82-6.43,29.64,0,6.56-2.88,21.65-4.56,37.4-2.33,21.7-2.75,25.87-2.75,25.87H93.51s-3-5-3.44-26c-.34-15.83-3.9-30.66-3.88-37.22,0-8.82-3.86-19.85-6.43-29.64C77.1,131.4,72.49,102.14,72.49,102.14Z"/><path class="cls-3" d="M89.65,198.42s4.91,7.5,5.07,9.2-.28,7.13-.32,8.09-4.37-.07-4.85-3.32S85.38,200,85.38,200Z"/><path class="cls-3" d="M85.38,195.65s8.84,4.71,5.86,16.39a10.92,10.92,0,0,0,0,4.67c.28,1.71,1.72,4.75,2.33,6.4a56.36,56.36,0,0,1,2,6.4c.41,1.42-7.13.69-8.7-1.34s-6.2-7.93-6.75-12S78,198.36,78,198.36Z"/><path class="cls-3" d="M225.8,115.22s7.38-4.28,9.1-4.3,7.11.91,8.07,1-.43,4.36-3.73,4.55-12.78,3.07-12.78,3.07Z"/><path class="cls-3" d="M226.46,119.57s4.9-8.45,16.35-4.45a11.29,11.29,0,0,0,4.67.46c1.73-.14,4.9-1.3,6.59-1.77a54.53,54.53,0,0,1,6.57-1.46c1.46-.29.11,7.17-2.05,8.56s-8.45,5.49-12.6,5.68-17.44.62-17.44.62Z"/><path class="cls-2" d="M151,142.12s19.85,36.1,26.82,37.8,49.33-47.1,51.57-52.76c-2-.46-2.79-10.12-3.61-11.94-13,8.46-29.12,20-42.12,28.5a60,60,0,0,0-1.33-8.4c-2.47-11.12-11-32.77-11-32.77S156,124,151,142.12Z"/><path class="cls-2" d="M72.49,102.14s-44.56,47-45.64,54S72.2,201.24,78,203c.28-2,9.82-3.59,11.57-4.56C80,186.24,72.94,171.19,63.38,159a60.1,60.1,0,0,0,8.25-2c10.84-3.36,25.82-13.6,25.82-13.6S91,105.57,72.49,102.14Z"/><path class="cls-3" d="M109.47,97.09c-.51-5.31,5.07-12.24,12.24-12.24s12.75,7,12.23,12.24c-.27,2.75-2.17,4.74-4.92,7.6-2.44,2.54-4.51,4.7-7.31,4.64-2.28,0-3.85-1.52-6.23-3.74C112.23,102.56,109.77,100.27,109.47,97.09Z"/><path class="cls-2" d="M101.28,44.71s3,24.61,2.53,27.51-15.66-22.47-8-33S102,40.44,101.28,44.71Z"/><path class="cls-3" d="M121.48,35.79h0a20.9,20.9,0,0,1,20.9,20.9v28a15.49,15.49,0,0,1-15.49,15.49H116.08a15.49,15.49,0,0,1-15.49-15.49v-28a20.9,20.9,0,0,1,20.9-20.9Z" transform="translate(242.97 135.94) rotate(-180)"/><path class="cls-2" d="M106.32,50.35a6.91,6.91,0,0,1-4.64-.19c-3.42-1.37-9-5.68-8.86-11.7.14-8.7,11.33-14,35.6-12.21s22.81,18.07,21.63,23.61-7.37,18.56-7.66,19.94,1.19-19.31-3.81-19.66C133.75,49.8,124.75,44.63,106.32,50.35Z"/></svg>