<svg id="Layer_1" data-name="Layer 1" xmlns="http://www.w3.org/2000/svg" viewBox="0 0 1384 424"><defs><style>.cls-1{fill:#1cf445;}</style></defs><title>HERVANA LOGO</title><path class="cls-1" d="M1349.22,155.38a15.84,15.84,0,0,0-28.9,12.86l-35.78,18.46,19-59.67,25.54-13.18a10.22,10.22,0,0,0,3.49,2.25,8.77,8.77,0,0,0,4.82.22l3.53-.7a10.29,10.29,0,1,0-14.85-7.62l-19.7,10.17,14.84-46.48,15.69-8.1a6.84,6.84,0,0,0,2.73,1.66,7,7,0,0,0,5.38-.45h0a7.05,7.05,0,0,0-6.47-12.53,7,7,0,0,0-3.71,7.31l-11.68,6,15-47-8-2.56-15,47-6.66-12.9a6.93,6.93,0,1,0-4.12,1.84l8.84,17.13-14.68,46-10.85-21a10.24,10.24,0,1,0-10,2.23,10.41,10.41,0,0,0,4,.45l14,27.2-19,59.64L1258.26,148a15.88,15.88,0,1,0-24-5.1,15.73,15.73,0,0,0,16.28,8.4L1273.05,195l-10.23,32.06a12.93,12.93,0,0,1-12.31,9h-27.73v37.14a58.07,58.07,0,0,0-22.93-28.74q-16.15-10.66-38.76-10.66t-40.69,11q-18.11,11-28.26,31.81T1082,325.51q0,28.11,10.18,48.94t28.26,31.81q18.07,11,40.69,11t38.76-10.81a59,59,0,0,0,22.93-28.91V415H1268V238.5L1280.92,198l44.41-22.92a15.74,15.74,0,0,0,5.27,2.77,7.08,7.08,0,0,0,3,.13l8.75-1.25a15.87,15.87,0,0,0,6.83-21.39Zm-14.68-52.2a3.7,3.7,0,0,1,5,1.6,3.7,3.7,0,0,1-1.59,5h0a3.71,3.71,0,0,1-5-1.59A3.71,3.71,0,0,1,1334.54,103.18Zm6.11-46.9a2.54,2.54,0,0,1,3.42,1.09A2.53,2.53,0,0,1,1343,60.8h0a2.54,2.54,0,0,1-2.33-4.52Zm-39.14-10.1a2.55,2.55,0,0,1,3-3.59,2.54,2.54,0,1,1-3,3.59Zm-24,42.09a3.71,3.71,0,0,1,4.42-5.24,3.71,3.71,0,0,1,.57,6.83,3.7,3.7,0,0,1-5-1.59Zm-34.26,50a5.73,5.73,0,0,1,2.47-7.71,5.72,5.72,0,0,1,7.71,2.46,5.73,5.73,0,0,1-10.18,5.25Zm-33.85,224.91Q1196,377.2,1175.31,377.2q-21.33,0-34.24-13.73t-12.92-38q0-24.21,12.92-38.1t34.24-13.9q20.65,0,34.07,14.06t13.4,37.94Q1222.78,349.11,1209.38,363.14ZM1340.57,164.4a5.73,5.73,0,0,1-2.83,3.35h0a5.74,5.74,0,0,1-7.71-2.46,5.73,5.73,0,1,1,10.55-.89Z"/><path class="cls-1" d="M107.39,237.49q-32.64,0-53.59,22.65V154.82H9V415H53.8V291.07q20.79-17.4,42.6-17.41,29.23,0,29.24,29.42V415h44.8V303.08Q170.44,237.49,107.39,237.49Z"/><path class="cls-1" d="M279.9,237.49q-83.34,0-83.34,86.72,0,90.77,96.52,90.77,33.65,0,57.14-5.07v-35.5a289.46,289.46,0,0,1-53.76,5.07q-55.11,0-55.1-37.52H359.18a159.21,159.21,0,0,0,1.52-22Q360.7,237.5,279.9,237.49Zm37.19,73.36H241.36q3-38.19,38.54-38.2,37.19,0,37.19,36.85Z"/><path class="cls-1" d="M423,237.49H388.31V415h44.8V294.46q19.78-20.81,44.8-20.8V237.49q-26,0-49.36,22.65Z"/><polygon class="cls-1" points="578.04 361.57 534.94 237.49 487.61 237.49 555.39 414.98 597.99 414.98 670.17 237.49 622.84 237.49 578.04 361.57"/><path class="cls-1" d="M812.13,273.19a58.07,58.07,0,0,0-22.93-28.74Q773,233.79,750.44,233.79t-40.7,11q-18.09,11-28.26,31.81t-10.17,48.93q0,28.11,10.17,48.94t28.26,31.81q18.09,11,40.7,11t38.76-10.81a59,59,0,0,0,22.93-28.91V415h45.22V236.05H812.13Zm-13.4,89.95q-13.41,14.06-34.08,14.06-21.31,0-34.24-13.73t-12.91-38q0-24.21,12.91-38.1t34.24-13.9q20.67,0,34.08,14.06t13.4,37.94Q812.13,349.11,798.73,363.14Z"/><path class="cls-1" d="M991.59,237.49q-32.64,0-58.16,26l-5.57-26H893.2V415H938V291.07q20.79-17.4,42.6-17.41,29.25,0,29.24,29.42V415h44.8V303.08Q1054.64,237.49,991.59,237.49Z"/></svg>