<svg id="Layer_1" data-name="Layer 1" xmlns="http://www.w3.org/2000/svg" viewBox="0 0 435 327"><defs><style>.cls-1{opacity:0.3;}.cls-2{fill:#1cf445;}.cls-3{fill:#2d302e;}.cls-4{fill:#fff;}</style></defs><title>Industria de cannabis</title><g class="cls-1"><path class="cls-2" d="M200.85,291.92,197,278.64a96.41,96.41,0,0,1-26.52-9.95l-12.11,7.87-30.42-28.23,7.15-13.06A97,97,0,0,1,124,210.65l-15.27-3.24-1.55-41.48,15.39-4.49a96.29,96.29,0,0,1,9-24.08l-9.06-13.93L150.76,93l14.57,8a97.18,97.18,0,0,1,22.84-10.64l3.51-16.53,41.47-1.56,4.57,15.62A96.83,96.83,0,0,1,262,96.47l13.63-8.85,30.43,28.23-7.3,13.32a97.1,97.1,0,0,1,11.74,24.46l14.75,3.14,1.56,41.47-13.51,3.95A96.59,96.59,0,0,1,303.82,229l7.65,11.78-28.22,30.42-11.83-6.47a97,97,0,0,1-26.23,12.18l-2.87,13.49Zm-30.69-37.16,3.18,1.92a84.84,84.84,0,0,0,29.33,11l3.62.64,3.33,11.41,23-.87,2.46-11.59,3.58-.91A85,85,0,0,0,267.61,253l3-2.18,10.2,5.59,15.68-16.9L290,229.39l1.82-3.15a84.85,84.85,0,0,0,10.49-29.62l.58-3.71,11.79-3.44-.86-23-12.68-2.69-1-3.46A85,85,0,0,0,287.05,133l-2.2-3,6.43-11.74-16.9-15.68-11.83,7.68-3.12-1.74a85,85,0,0,0-27.37-9.67l-3.65-.62-4-13.79-23,.86-3.07,14.48-3.47,1a85,85,0,0,0-25.82,12l-3,2.07-12.82-7-15.68,16.9,8,12.26-1.85,3.15a84.9,84.9,0,0,0-10.17,27.11l-.68,3.56-13.41,3.92.86,23,13.41,2.84.89,3.59a85,85,0,0,0,12.36,27.47l2,3-6.18,11.28,16.9,15.68Z"/><path class="cls-2" d="M272.18,234a74.44,74.44,0,1,1-7.26-108.16h0A74.52,74.52,0,0,1,275.14,230.6C274.18,231.77,273.2,232.9,272.18,234ZM167.83,137.06q-1.4,1.49-2.7,3.09a68,68,0,1,0,95.69-9.34h0A68.07,68.07,0,0,0,167.83,137.06Z"/></g><g class="cls-1"><path class="cls-2" d="M386.72,267.13l-5.1-4.05a45.36,45.36,0,0,1-12.89,3.38l-2.51,6.31-19.35-2.58-.8-7a46,46,0,0,1-10.94-6.45l-6.74,2.9-11.86-15.51,4.69-5.91a45.38,45.38,0,0,1-3.07-11.7l-7.25-2.89,2.58-19.35,7.76-.89a45.71,45.71,0,0,1,5.89-10.29l-3.14-7.3L339.5,174l6,4.76a45.59,45.59,0,0,1,11.67-3.29l2.84-7.1,19.35,2.58.81,7.1a45.38,45.38,0,0,1,11.15,6.21l6.52-2.8L409.68,197l-4.12,5.18A45.15,45.15,0,0,1,409.18,215l6.14,2.45-2.58,19.35-6.3.72a45.88,45.88,0,0,1-6.77,11.8l2.56,6Zm-21.88-5.94,1.74-.12a40,40,0,0,0,14.26-3.74l1.57-.73,4.37,3.47,8.62-6.58-2.2-5.12,1.12-1.32a40,40,0,0,0,7.46-13l.58-1.66,5.43-.62L409.23,221,404,218.92l-.15-1.71a40,40,0,0,0-4-14.22l-.78-1.58,3.59-4.53L396,188.27l-5.6,2.4-1.31-1.07a40,40,0,0,0-12.44-6.9l-1.67-.57-.71-6.26-10.75-1.43-2.46,6.16-1.67.18a40.19,40.19,0,0,0-13.14,3.71l-1.57.76L339.43,181l-8.61,6.59,2.74,6.39-1.07,1.31A40.18,40.18,0,0,0,325.84,207l-.59,1.62-6.83.78L317,220.11l6.38,2.54.15,1.71A39.84,39.84,0,0,0,327,237.54l.71,1.55-4.09,5.14,6.59,8.62,5.92-2.55,1.31,1.14a40.25,40.25,0,0,0,12.21,7.2l1.6.59.69,6,10.74,1.44Z"/><path class="cls-2" d="M398.39,225.52a35,35,0,1,1-32.15-39.58h0a35.05,35.05,0,0,1,32.37,37.47C398.56,224.12,398.49,224.82,398.39,225.52ZM332,216.61c-.08.63-.15,1.27-.19,1.92A32,32,0,1,0,366,189h0A32,32,0,0,0,332,216.61Z"/></g><g class="cls-1"><path class="cls-2" d="M88.4,259.66l-5.1-4.05A45,45,0,0,1,70.42,259l-2.52,6.31-19.35-2.58-.8-7a45.4,45.4,0,0,1-10.93-6.45l-6.75,2.9L18.21,236.69l4.69-5.9a45.07,45.07,0,0,1-3.06-11.7l-7.26-2.9,2.58-19.35,7.76-.88a45.28,45.28,0,0,1,5.89-10.29l-3.14-7.31,15.51-11.85,6,4.76A45.61,45.61,0,0,1,58.84,168l2.84-7.1L81,163.45l.81,7.11A45.67,45.67,0,0,1,93,176.76l6.52-2.8,11.85,15.51-4.12,5.18a45.49,45.49,0,0,1,3.63,12.87L117,210l-2.58,19.35-6.3.72a45.72,45.72,0,0,1-6.77,11.8l2.56,6Zm-21.88-6,1.75-.12a40,40,0,0,0,14.25-3.73l1.57-.74,4.38,3.48L97.08,246l-2.2-5.12L96,239.57a39.94,39.94,0,0,0,7.46-13l.58-1.65,5.43-.63,1.44-10.75-5.25-2.09-.15-1.7a40,40,0,0,0-4-14.23l-.78-1.58,3.6-4.53-6.59-8.61-5.6,2.41-1.31-1.07a40.05,40.05,0,0,0-12.44-6.91l-1.66-.57L76,168.4,65.24,167l-2.46,6.17-1.67.17A40,40,0,0,0,48,177l-1.57.75-5.29-4.2-8.61,6.58,2.74,6.4-1.07,1.3a40.23,40.23,0,0,0-6.65,11.64l-.59,1.61-6.83.78-1.43,10.75,6.38,2.55.15,1.71a40.09,40.09,0,0,0,3.45,13.17l.71,1.55-4.09,5.15,6.59,8.61,5.92-2.54L39.1,244a39.68,39.68,0,0,0,12.2,7.2l1.6.6.69,6,10.75,1.43Z"/><path class="cls-2" d="M100.07,218a35,35,0,1,1-32.15-39.58h0a35.05,35.05,0,0,1,32.37,37.48C100.24,216.64,100.17,217.35,100.07,218Zm-66.39-8.91c-.09.64-.15,1.28-.2,1.92A32,32,0,1,0,67.7,181.49h0A32,32,0,0,0,33.68,209.13Z"/></g><path class="cls-3" d="M210,272.94l3.12-57.8c-4.43,4.49-11.59,10.21-22.87,15.83-5.74,2.87-19.42,7-27.77,7a13,13,0,0,1-5.12-.84l-2.31-1,.59-2.44c1.16-4.86,8.56-11.52,15.16-16.41-1.42,0-2.85-.1-4.29-.17-10.06-.53-37.68-6.8-43.66-14.74l-1.52-2,1.72-1.84c6.22-6.68,30.89-10.17,42.38-10.17.92,0,1.79,0,2.58.06q3,.15,5.94.42a209.78,209.78,0,0,1-22.88-19.3c-10.43-10.07-34.42-42.93-33.31-57.11L118,110l2.46-.28a14.7,14.7,0,0,1,1.52-.08c14,0,45.58,20.65,56.71,31.4a205.2,205.2,0,0,1,21.66,24.3,250.2,250.2,0,0,1-3.16-41.25c0-16.24,6.91-61.11,17.8-71.22l2-1.9,2,1.9c10.9,10.11,17.81,55,17.81,71.22a251.21,251.21,0,0,1-3.14,41.14A205.35,205.35,0,0,1,255.32,141c11.13-10.75,42.72-31.4,56.71-31.4a14.7,14.7,0,0,1,1.52.08L316,110l.19,2.47c1.11,14.18-22.88,47-33.31,57.11A207.91,207.91,0,0,1,260,188.86c1.95-.18,3.94-.32,5.95-.42.78,0,1.65-.06,2.58-.06,11.48,0,36.15,3.49,42.38,10.17l1.71,1.84-1.51,2c-6,7.94-33.61,14.21-43.67,14.74-1.43.07-2.87.13-4.29.17,6.61,4.89,14,11.55,15.17,16.41l.58,2.44-2.31,1a13,13,0,0,1-5.12.84c-8.35,0-22-4.17-27.77-7-11.21-5.59-18.37-11.3-22.8-15.77L224,272.94Z"/><path class="cls-4" d="M217,55.05c9.25,8.58,16.85,50.86,16.85,69,0,24.49-2.89,42.68-6.28,55.6,6-10,15.31-22.49,29.8-36.49,11.24-10.86,41.89-30.56,54.63-30.56a11.09,11.09,0,0,1,1.18.06c.94,11.95-20.8,43.51-32.4,54.73a186.6,186.6,0,0,1-33.38,26.16,144.92,144.92,0,0,1,18.68-2.14c.75,0,1.56-.05,2.43-.05,12,0,35,3.66,40.18,9.22-4.9,6.5-30.37,13-41.42,13.54q-4.32.23-8.22.22-3.15,0-6-.13c7.29,3.92,21.07,14.75,22.37,20.18a10.14,10.14,0,0,1-3.93.6c-7.47,0-20.65-3.83-26.43-6.72-19.54-9.75-26.12-19.6-27.64-22.29l3.45,63.94h-7.65l3.46-64.07c-1.37,2.48-7.85,12.5-27.72,22.42-5.78,2.89-19,6.72-26.43,6.72a10.08,10.08,0,0,1-3.92-.6c1.29-5.43,15.08-16.26,22.37-20.18-1.93.09-3.94.13-6.05.13-2.6,0-5.33-.07-8.21-.22-11.06-.57-36.53-7-41.43-13.54,5.18-5.56,28.15-9.22,40.19-9.22.86,0,1.68,0,2.42.05a145.09,145.09,0,0,1,18.69,2.14c-9.47-5.67-20.77-14-33.38-26.16-11.61-11.22-33.34-42.78-32.41-54.73a11.28,11.28,0,0,1,1.19-.06c12.73,0,43.38,19.7,54.62,30.56,14.59,14.09,23.93,26.61,29.92,36.68-3.41-12.93-6.33-31.18-6.33-55.79,0-18.16,7.6-60.44,16.84-69m0-8.19L213,50.65c-11.67,10.84-18.76,56.31-18.76,73.42a272.54,272.54,0,0,0,1.66,30.82,220,220,0,0,0-15.08-16c-6.09-5.88-17-13.81-27.87-20.2-9.32-5.49-22.25-12-30.92-12a15.94,15.94,0,0,0-1.86.1l-4.92.56-.39,4.93c-1.2,15.3,23.18,48.84,34.22,59.51q7.71,7.46,15.46,13.67c-9.71.18-36.05,3-43.6,11.12l-3.43,3.68,3,4c6.22,8.26,30.28,14.15,42.44,15.61-4.87,4.25-9.18,9.05-10.17,13.2l-1.17,4.89,4.61,2a15.86,15.86,0,0,0,6.32,1.09c8.92,0,23-4.28,29.11-7.35a98.72,98.72,0,0,0,18.15-11.45l-2.56,47.41-.34,6.32h20.31l-.34-6.32L224.3,222.3a99.17,99.17,0,0,0,18.07,11.36c6.15,3.07,20.2,7.35,29.11,7.35a15.86,15.86,0,0,0,6.32-1.09l4.61-2L281.24,233c-1-4.15-5.29-9-10.16-13.2,12.15-1.46,36.21-7.35,42.43-15.61l3-4-3.43-3.68c-7.54-8.1-33.89-10.94-43.59-11.12,5.15-4.14,10.32-8.7,15.46-13.67,11-10.67,35.41-44.21,34.21-59.51l-.39-4.93-4.92-.56a15.77,15.77,0,0,0-1.85-.1c-8.68,0-21.6,6.54-30.92,12-10.84,6.39-21.78,14.32-27.88,20.2q-8.21,7.94-15,15.94a270.91,270.91,0,0,0,1.66-30.73c0-17.11-7.09-62.58-18.76-73.42L217,46.86Z"/><path class="cls-3" d="M63.86,272.94l1.57-29.14a51.91,51.91,0,0,1-10.1,6.45c-3.28,1.63-10.79,3.92-15.54,3.92a8.13,8.13,0,0,1-3.31-.57l-2.3-1,.58-2.45c.55-2.29,3-5,5.77-7.31-6.3-.66-19.75-3.84-23.14-8.35l-1.52-2,1.72-1.84c4.15-4.46,19.1-5.91,23.78-5.91h.11c-2.93-2.32-5.87-4.9-8.79-7.72-5.9-5.71-18.95-23.64-18.31-31.8l.19-2.46,2.46-.28a7.74,7.74,0,0,1,1-.05c8,0,25.15,11.19,31.43,17.26A118,118,0,0,1,58,208.84a144.36,144.36,0,0,1-1-17.27c0-9.16,3.78-33.5,10-39.29l2-1.89,2,1.89c6.23,5.79,10,30.13,10,39.29a143.63,143.63,0,0,1-1,17.22,118.81,118.81,0,0,1,8.53-9.11c6.28-6.07,23.46-17.26,31.43-17.26a7.74,7.74,0,0,1,1,.05l2.46.28.19,2.46c.64,8.16-12.41,26.09-18.31,31.8-2.92,2.82-5.86,5.4-8.79,7.72h.11c4.68,0,19.63,1.45,23.78,5.91l1.72,1.84-1.52,2c-3.39,4.51-16.83,7.69-23.14,8.35,2.74,2.34,5.22,5,5.77,7.31l.58,2.45-2.3,1a8.13,8.13,0,0,1-3.31.57c-4.76,0-12.26-2.29-15.54-3.92a52.66,52.66,0,0,1-10.06-6.4l1.57,29.09Z"/><path class="cls-4" d="M69.08,154.48c5,4.62,9,27.33,9,37.09,0,13.15-1.56,22.93-3.38,29.87a96.45,96.45,0,0,1,16-19.61c6-5.83,22.5-16.42,29.34-16.42a6.28,6.28,0,0,1,.64,0c.5,6.42-11.17,23.38-17.41,29.4a100.12,100.12,0,0,1-17.93,14.06,76.49,76.49,0,0,1,10-1.15c.4,0,.83,0,1.3,0,6.47,0,18.81,2,21.59,5-2.64,3.5-16.32,7-22.26,7.28q-2.33.12-4.41.12c-1.13,0-2.21,0-3.25-.07,3.92,2.1,11.32,7.92,12,10.84a5.57,5.57,0,0,1-2.11.32c-4,0-11.1-2.06-14.2-3.61-10.5-5.24-14-10.53-14.85-12l1.85,34.35H67l1.86-34.43c-.74,1.34-4.21,6.72-14.89,12.05-3.11,1.55-10.19,3.61-14.2,3.61a5.57,5.57,0,0,1-2.11-.32c.7-2.92,8.1-8.74,12-10.84-1,0-2.12.07-3.25.07q-2.09,0-4.41-.12c-5.94-.31-19.62-3.78-22.26-7.28,2.78-3,15.12-5,21.59-5,.47,0,.9,0,1.3,0a76.49,76.49,0,0,1,10,1.15,100.12,100.12,0,0,1-17.93-14.06c-6.24-6-17.91-23-17.41-29.4a6.28,6.28,0,0,1,.64,0c6.84,0,23.3,10.59,29.34,16.42a96,96,0,0,1,16.08,19.71c-1.83-6.95-3.4-16.75-3.4-30,0-9.76,4.08-32.47,9-37.09m0-8.19L65,150.09c-7.66,7.12-11,33.93-11,41.48,0,3,.07,5.86.23,8.67-.89-.91-1.8-1.82-2.74-2.72-5.6-5.41-23.76-18.1-33.51-18.11a11.11,11.11,0,0,0-1.31.08l-4.92.55L11.39,185c-.8,10.15,14.31,29.44,19.22,34.19,1.11,1.07,2.22,2.1,3.33,3.11-6.32.73-14.93,2.42-18.55,6.31L12,232.28l3,4c3.3,4.38,12.45,7.16,19.33,8.57a12.25,12.25,0,0,0-2.48,4.6l-1.17,4.89,4.62,2a11.28,11.28,0,0,0,4.5.81c5.4,0,13.41-2.51,16.88-4.24,2-1,3.82-2,5.43-3L61,269.62l-.34,6.32H77.46l-.34-6.32-1.06-19.7c1.6,1,3.39,2,5.39,3,3.47,1.73,11.48,4.24,16.88,4.24a11.28,11.28,0,0,0,4.5-.81l4.62-2-1.17-4.89a12.25,12.25,0,0,0-2.48-4.6c6.88-1.41,16-4.19,19.33-8.57l3-4-3.43-3.69c-3.63-3.89-12.23-5.58-18.55-6.31,1.11-1,2.22-2,3.33-3.11,4.91-4.75,20-24,19.22-34.19l-.39-4.94-4.92-.55a11.11,11.11,0,0,0-1.31-.08c-9.75,0-27.91,12.69-33.51,18.11-.93.89-1.82,1.78-2.7,2.68q.22-4.2.23-8.63c0-7.55-3.3-34.36-11-41.48l-4.08-3.8Z"/><path class="cls-3" d="M359,272.94l1.57-29.14a52.39,52.39,0,0,1-10.1,6.45c-3.29,1.63-10.79,3.92-15.54,3.92a8.13,8.13,0,0,1-3.31-.57l-2.3-1,.58-2.45c.55-2.29,3-5,5.77-7.31-6.31-.66-19.75-3.84-23.15-8.35l-1.51-2,1.71-1.84c4.15-4.46,19.1-5.91,23.79-5.91h.11c-2.93-2.32-5.87-4.9-8.79-7.72-5.91-5.71-18.95-23.64-18.31-31.8l.19-2.46,2.46-.28a7.58,7.58,0,0,1,1-.05c8,0,25.16,11.19,31.44,17.26a120,120,0,0,1,8.57,9.16,142.31,142.31,0,0,1-1-17.27c0-9.16,3.78-33.5,10-39.29l2.05-1.89,2,1.89c6.22,5.79,10,30.13,10,39.29a143.7,143.7,0,0,1-1,17.22,118.81,118.81,0,0,1,8.53-9.11c6.27-6.07,23.46-17.26,31.43-17.26a7.74,7.74,0,0,1,1,.05l2.45.28.2,2.46c.64,8.16-12.41,26.09-18.32,31.8q-4.38,4.23-8.78,7.72h.11c4.68,0,19.63,1.45,23.78,5.91l1.72,1.84-1.52,2c-3.39,4.51-16.84,7.69-23.14,8.35,2.74,2.34,5.22,5,5.77,7.31l.58,2.45-2.31,1a8.08,8.08,0,0,1-3.3.57c-4.76,0-12.26-2.29-15.54-3.92a52.66,52.66,0,0,1-10.06-6.4l1.57,29.09Z"/><path class="cls-4" d="M364.17,154.48c5,4.62,9,27.33,9,37.09,0,13.15-1.55,22.93-3.37,29.87a96.69,96.69,0,0,1,16-19.61c6-5.83,22.51-16.42,29.35-16.42a6.28,6.28,0,0,1,.64,0c.5,6.42-11.17,23.38-17.41,29.4a100.13,100.13,0,0,1-17.94,14.06,76.9,76.9,0,0,1,10-1.15c.4,0,.84,0,1.31,0,6.47,0,18.81,2,21.59,5-2.64,3.5-16.32,7-22.26,7.28-1.55.08-3,.12-4.42.12-1.12,0-2.2,0-3.24-.07,3.92,2.1,11.32,7.92,12,10.84a5.57,5.57,0,0,1-2.11.32c-4,0-11.1-2.06-14.2-3.61-10.5-5.24-14-10.53-14.85-12l1.85,34.35h-4.11L364,235.51c-.74,1.34-4.22,6.72-14.89,12.05-3.11,1.55-10.19,3.61-14.2,3.61a5.57,5.57,0,0,1-2.11-.32c.7-2.92,8.1-8.74,12-10.84-1,0-2.12.07-3.25.07q-2.1,0-4.41-.12c-5.94-.31-19.63-3.78-22.26-7.28,2.78-3,15.12-5,21.59-5,.47,0,.9,0,1.3,0a76.49,76.49,0,0,1,10,1.15,100.12,100.12,0,0,1-17.93-14.06c-6.24-6-17.92-23-17.41-29.4a6.26,6.26,0,0,1,.63,0c6.85,0,23.31,10.59,29.35,16.42a95.6,95.6,0,0,1,16.07,19.71c-1.83-6.95-3.39-16.75-3.39-30,0-9.76,4.08-32.47,9.05-37.09m0-8.19-4.09,3.8c-7.66,7.12-11,33.93-11,41.48q0,4.45.22,8.67c-.88-.91-1.79-1.82-2.73-2.72-5.6-5.41-23.76-18.1-33.52-18.11a11.38,11.38,0,0,0-1.31.08l-4.91.55-.39,4.94c-.8,10.15,14.31,29.44,19.22,34.19,1.11,1.07,2.22,2.1,3.33,3.11-6.32.73-14.93,2.42-18.55,6.31l-3.43,3.69,3,4c3.29,4.38,12.44,7.16,19.33,8.57a12.25,12.25,0,0,0-2.48,4.6l-1.17,4.89,4.62,2a11.28,11.28,0,0,0,4.5.81c5.4,0,13.41-2.51,16.88-4.24,2-1,3.82-2,5.42-3l-1.06,19.72-.34,6.32h16.77l-.34-6.32-1.06-19.7c1.6,1,3.38,2,5.39,3,3.47,1.73,11.48,4.24,16.88,4.24a11.31,11.31,0,0,0,4.5-.81l4.61-2-1.17-4.89a12.08,12.08,0,0,0-2.47-4.6c6.88-1.41,16-4.19,19.33-8.57l3-4-3.43-3.69c-3.63-3.89-12.23-5.58-18.55-6.31,1.11-1,2.22-2,3.33-3.11,4.91-4.75,20-24,19.22-34.19l-.39-4.94-4.92-.55a11.11,11.11,0,0,0-1.31-.08c-9.75,0-27.91,12.69-33.51,18.11-.93.89-1.83,1.78-2.7,2.68q.22-4.2.22-8.63c0-7.55-3.29-34.36-11-41.48l-4.08-3.8Z"/><path class="cls-3" d="M50.58,292.05a14.45,14.45,0,1,1,0-28.9H383.42a14.45,14.45,0,0,1,0,28.9Z"/><path class="cls-4" d="M383.42,266.15a11.45,11.45,0,0,1,0,22.9H50.58a11.45,11.45,0,1,1,0-22.9H383.42m0-6H50.58a17.45,17.45,0,1,0,0,34.9H383.42a17.45,17.45,0,0,0,0-34.9Z"/></svg>