<svg id="Layer_1" data-name="Layer 1" xmlns="http://www.w3.org/2000/svg" viewBox="0 0 426 502"><defs><style>.cls-1{opacity:0.35;}.cls-2{fill:#1cf445;}.cls-3{fill:none;stroke:#1cf445;stroke-miterlimit:10;stroke-width:3px;}.cls-4{fill:#fff;}.cls-5{fill:#2d302e;}</style></defs><title>Inteligencia de negocios</title><g class="cls-1"><path class="cls-2" d="M47,165.09l-1.38-4.72a34.2,34.2,0,0,1-9.43-3.53l-4.3,2.79-10.81-10L23.61,145a34.45,34.45,0,0,1-3.94-8.75l-5.43-1.15-.55-14.74,5.47-1.6a34.4,34.4,0,0,1,3.21-8.56l-3.22-5,10-10.82,5.17,2.84a34.7,34.7,0,0,1,8.12-3.78l1.25-5.88L58.47,87l1.62,5.55a34.33,34.33,0,0,1,8.64,3.06l4.85-3.15,10.81,10-2.59,4.74A34.19,34.19,0,0,1,86,116l5.24,1.11.56,14.74L87,133.2a34.2,34.2,0,0,1-3.37,9.52l2.72,4.19-10,10.81-4.2-2.3a34.41,34.41,0,0,1-9.32,4.33l-1,4.79Zm-10.91-13.2,1.13.68a30.4,30.4,0,0,0,10.42,3.92l1.29.22,1.19,4.06,8.18-.31.88-4.12,1.27-.32a30.29,30.29,0,0,0,10.28-4.78l1.07-.77,3.63,2,5.57-6-2.32-3.58.64-1.12A30,30,0,0,0,83,131.22l.21-1.32,4.19-1.22-.31-8.19-4.5-.95-.34-1.23a30.3,30.3,0,0,0-4.67-9.69l-.78-1.08,2.29-4.17-6-5.57-4.2,2.73-1.11-.62a30.07,30.07,0,0,0-9.73-3.44l-1.3-.22-1.43-4.9-8.19.3L46.07,96.8l-1.23.34a30.43,30.43,0,0,0-9.18,4.28l-1.07.73L30,99.66l-5.57,6L27.3,110l-.66,1.12A30.16,30.16,0,0,0,23,120.78L22.79,122,18,123.44l.31,8.18,4.76,1,.32,1.28a30.06,30.06,0,0,0,4.39,9.76l.73,1.07-2.2,4,6,5.57Z"/><path class="cls-2" d="M72.34,144.51a26.46,26.46,0,1,1-2.58-38.45h0a26.48,26.48,0,0,1,3.63,37.24C73.05,143.72,72.7,144.12,72.34,144.51ZM35.25,110.05c-.33.36-.65.72-1,1.1a24.17,24.17,0,1,0,34-3.32h0A24.2,24.2,0,0,0,35.25,110.05Z"/><path class="cls-2" d="M367.51,193.12l-1.38-4.72a34.52,34.52,0,0,1-9.43-3.53l-4.3,2.79-10.81-10,2.54-4.64a34.45,34.45,0,0,1-3.94-8.75l-5.43-1.15-.55-14.75,5.47-1.59a34.4,34.4,0,0,1,3.21-8.56l-3.22-4.95,10-10.82,5.18,2.84a34.12,34.12,0,0,1,8.12-3.78l1.25-5.88,14.74-.55,1.62,5.55a34.33,34.33,0,0,1,8.64,3.06l4.85-3.15,10.81,10-2.59,4.74a34.29,34.29,0,0,1,4.17,8.69l5.24,1.12.56,14.74-4.81,1.4a34.31,34.31,0,0,1-3.37,9.52l2.71,4.18-10,10.82-4.2-2.3a34.71,34.71,0,0,1-9.32,4.33l-1,4.79Zm-10.91-13.2,1.13.68a30.18,30.18,0,0,0,10.42,3.91l1.29.23,1.19,4.06,8.18-.31.88-4.12,1.27-.32a30.29,30.29,0,0,0,10.28-4.78l1.07-.77,3.63,2,5.57-6-2.32-3.58.64-1.12a30,30,0,0,0,3.73-10.53l.21-1.32,4.19-1.22-.31-8.19-4.5-1-.34-1.23a30.15,30.15,0,0,0-4.67-9.68l-.78-1.08,2.29-4.17-6-5.58-4.2,2.73-1.11-.62a30.38,30.38,0,0,0-9.73-3.43l-1.3-.22-1.43-4.9-8.19.3-1.09,5.15-1.23.34a30,30,0,0,0-9.18,4.28l-1.07.73-4.55-2.49-5.57,6,2.83,4.36-.66,1.12a30.07,30.07,0,0,0-3.61,9.64l-.24,1.26-4.77,1.39.31,8.19,4.76,1,.32,1.28a30.15,30.15,0,0,0,4.39,9.76l.73,1.07-2.2,4,6,5.57Z"/><path class="cls-2" d="M392.86,172.53a26.46,26.46,0,1,1-2.58-38.44h0a26.48,26.48,0,0,1,3.63,37.24C393.57,171.74,393.22,172.15,392.86,172.53Zm-37.09-34.45c-.33.36-.65.72-1,1.1a24.16,24.16,0,1,0,34-3.32h0A24.19,24.19,0,0,0,355.77,138.08Z"/><path class="cls-2" d="M239.14,110.72,237.76,106a34.52,34.52,0,0,1-9.43-3.53l-4.3,2.79-10.82-10,2.55-4.64a34.45,34.45,0,0,1-3.94-8.75l-5.43-1.16-.55-14.74,5.47-1.59a34,34,0,0,1,3.21-8.56l-3.22-4.95,10-10.82,5.18,2.84a34.12,34.12,0,0,1,8.12-3.78l1.25-5.88,14.74-.55,1.62,5.55a34,34,0,0,1,8.64,3.06l4.85-3.15,10.81,10-2.6,4.74a34.32,34.32,0,0,1,4.18,8.69l5.24,1.12.55,14.74-4.8,1.4a34,34,0,0,1-3.38,9.52l2.72,4.18-10,10.82-4.2-2.3a34.63,34.63,0,0,1-9.33,4.33l-1,4.79Zm-10.91-13.2,1.13.68a30.18,30.18,0,0,0,10.42,3.91l1.29.23,1.18,4.06,8.19-.31.88-4.12,1.27-.32a30.16,30.16,0,0,0,10.27-4.78l1.08-.77,3.63,2,5.57-6-2.33-3.58.65-1.12a30.15,30.15,0,0,0,3.73-10.53l.21-1.32,4.19-1.22-.31-8.19-4.5-1-.35-1.23a29.92,29.92,0,0,0-4.66-9.68L269,53.17,271.28,49l-6-5.58-4.21,2.73-1.1-.62a30.38,30.38,0,0,0-9.73-3.43l-1.3-.22L247.5,37l-8.19.31-1.09,5.15-1.23.34A30.17,30.17,0,0,0,227.81,47l-1.07.74-4.55-2.49-5.57,6,2.83,4.36-.66,1.12a30,30,0,0,0-3.61,9.64l-.25,1.26-4.76,1.39.3,8.19,4.77,1,.32,1.28A30.15,30.15,0,0,0,220,89.3l.73,1.07-2.2,4,6,5.57Z"/><path class="cls-2" d="M264.49,90.13a26.46,26.46,0,1,1-2.58-38.44h0a26.48,26.48,0,0,1,3.63,37.24Q265,89.55,264.49,90.13ZM227.4,55.68c-.33.36-.65.72-1,1.1a24.16,24.16,0,1,0,34-3.32h0A24.19,24.19,0,0,0,227.4,55.68Z"/><circle class="cls-3" cx="52.73" cy="126.06" r="18.66"/><circle class="cls-3" cx="78.89" cy="67.84" r="18.66"/><circle class="cls-3" cx="162.02" cy="77.61" r="18.66"/><circle class="cls-3" cx="245.03" cy="71.69" r="18.66"/><circle class="cls-3" cx="320.09" cy="60" r="18.66"/><circle class="cls-3" cx="374.19" cy="154.73" r="18.66"/><line class="cls-3" x1="86.54" y1="137.76" x2="215.77" y2="182.47"/><line class="cls-3" x1="92.9" y1="79.53" x2="214.39" y2="180.89"/><line class="cls-3" x1="168.55" y1="95.1" x2="215.77" y2="182.47"/><line class="cls-3" x1="236.08" y1="105.59" x2="215.77" y2="182.47"/><line class="cls-3" x1="309.95" y1="74.69" x2="215.77" y2="182.47"/><line class="cls-3" x1="337.47" y1="162.42" x2="215.77" y2="182.47"/></g><g class="cls-1"><path class="cls-2" d="M379,325.3l1.38,4.72a34,34,0,0,1,9.42,3.54l4.31-2.8,10.81,10-2.54,4.64a34.45,34.45,0,0,1,3.94,8.75l5.42,1.16.56,14.74-5.47,1.59a34.4,34.4,0,0,1-3.21,8.56l3.21,4.95-10,10.82-5.18-2.84a34.23,34.23,0,0,1-8.11,3.78l-1.25,5.88-14.74.55-1.62-5.55a34,34,0,0,1-8.64-3.06l-4.85,3.15-10.81-10,2.59-4.74a34.29,34.29,0,0,1-4.17-8.69l-5.25-1.12-.55-14.74,4.8-1.4a34.66,34.66,0,0,1,3.38-9.52l-2.72-4.18,10-10.82,4.21,2.3a34.71,34.71,0,0,1,9.32-4.33l1-4.79Zm10.91,13.21-1.13-.69a30.15,30.15,0,0,0-10.43-3.91l-1.28-.23-1.19-4.06-8.19.31-.87,4.12-1.27.32a30.2,30.2,0,0,0-10.28,4.78l-1.07.77-3.63-2-5.57,6,2.32,3.58-.65,1.12a30.13,30.13,0,0,0-3.72,10.53l-.21,1.32-4.19,1.22.31,8.19,4.5,1,.34,1.23a30.33,30.33,0,0,0,4.66,9.68l.79,1.08L346.85,387l6,5.57,4.2-2.73,1.11.62a30.29,30.29,0,0,0,9.73,3.43l1.29.22,1.44,4.91,8.18-.31,1.1-5.15,1.23-.34a30.17,30.17,0,0,0,9.18-4.27l1.06-.74,4.56,2.49,5.57-6-2.83-4.36.66-1.12a30.25,30.25,0,0,0,3.61-9.63l.24-1.27L408,367l-.31-8.19-4.76-1-.32-1.28a30.15,30.15,0,0,0-4.39-9.76l-.73-1.07,2.2-4-6-5.58Z"/><path class="cls-2" d="M353.64,345.89a26.46,26.46,0,1,1,2.58,38.44h0a26.49,26.49,0,0,1-3.64-37.24C352.93,346.68,353.28,346.28,353.64,345.89Zm37.09,34.45c.32-.35.64-.72,1-1.1a24.16,24.16,0,1,0-34,3.32h0A24.21,24.21,0,0,0,390.73,380.34Z"/><path class="cls-2" d="M58.47,297.27,59.85,302a34,34,0,0,1,9.42,3.54l4.31-2.8,10.81,10-2.54,4.65a34.29,34.29,0,0,1,3.94,8.75l5.42,1.15.56,14.74-5.47,1.6a34.48,34.48,0,0,1-3.21,8.55l3.22,5L76.27,368l-5.17-2.84A34.92,34.92,0,0,1,63,368.92l-1.25,5.87L47,375.34l-1.62-5.55a34.31,34.31,0,0,1-8.64-3.05l-4.85,3.14-10.81-10,2.59-4.74a34.13,34.13,0,0,1-4.17-8.69l-5.25-1.11-.55-14.74,4.8-1.41a34.66,34.66,0,0,1,3.38-9.52l-2.72-4.18,10-10.82,4.2,2.31a34.11,34.11,0,0,1,9.32-4.33l1-4.8Zm10.91,13.21-1.13-.69a30.15,30.15,0,0,0-10.43-3.91l-1.28-.23-1.19-4-8.19.3L46.29,306l-1.27.32a30.18,30.18,0,0,0-10.28,4.77l-1.07.78-3.63-2-5.57,6,2.32,3.58-.65,1.11a30.13,30.13,0,0,0-3.72,10.53l-.21,1.32L18,333.69l.31,8.18,4.5,1,.34,1.23a30.49,30.49,0,0,0,4.66,9.69l.79,1.07L26.33,359l6,5.57,4.2-2.73,1.11.62a30.06,30.06,0,0,0,9.73,3.43l1.29.22L50.11,371l8.19-.31,1.09-5.14,1.23-.34A30.43,30.43,0,0,0,69.8,361l1.06-.74,4.56,2.5,5.57-6-2.83-4.36.66-1.12a30,30,0,0,0,3.61-9.63l.24-1.27,4.77-1.39-.31-8.19-4.76-1-.32-1.27a30.11,30.11,0,0,0-4.39-9.77l-.73-1.06,2.2-4-6-5.58Z"/><path class="cls-2" d="M33.12,317.86A26.46,26.46,0,1,1,35.7,356.3h0a26.48,26.48,0,0,1-3.63-37.24Q32.58,318.44,33.12,317.86Zm37.09,34.45c.32-.35.64-.72,1-1.1a24.16,24.16,0,1,0-34,3.32h0A24.21,24.21,0,0,0,70.21,352.31Z"/><path class="cls-2" d="M186.84,379.67l1.38,4.72a34.22,34.22,0,0,1,9.43,3.54l4.3-2.8,10.81,10-2.54,4.65a34.29,34.29,0,0,1,3.94,8.75l5.43,1.15.55,14.74-5.47,1.6a34.7,34.7,0,0,1-3.21,8.56l3.22,4.95-10,10.81-5.17-2.84a34.73,34.73,0,0,1-8.12,3.79l-1.25,5.87-14.74.55-1.62-5.55a34.31,34.31,0,0,1-8.64-3.05l-4.85,3.14-10.81-10,2.59-4.74a34.13,34.13,0,0,1-4.17-8.69l-5.24-1.11L142.06,413l4.81-1.41a34.31,34.31,0,0,1,3.37-9.52l-2.72-4.18,10-10.82,4.2,2.31a34.11,34.11,0,0,1,9.32-4.33l1-4.8Zm10.91,13.21-1.13-.69a30.18,30.18,0,0,0-10.42-3.91l-1.29-.23L183.72,384l-8.18.3-.88,4.13-1.27.32a30.27,30.27,0,0,0-10.28,4.77l-1.07.78-3.63-2-5.57,6,2.32,3.58-.64,1.11a30,30,0,0,0-3.73,10.53l-.21,1.32-4.19,1.23.31,8.18,4.5,1,.34,1.23a30.3,30.3,0,0,0,4.67,9.69l.78,1.07-2.29,4.18,6,5.57,4.2-2.73,1.11.62a30.06,30.06,0,0,0,9.73,3.43l1.3.22,1.43,4.91,8.19-.31,1.09-5.14,1.23-.34a30.43,30.43,0,0,0,9.18-4.28l1.07-.74,4.55,2.5,5.57-6-2.83-4.36.66-1.12A30,30,0,0,0,210.8,424l.24-1.27,4.77-1.39-.31-8.19-4.76-1-.32-1.27a30.11,30.11,0,0,0-4.39-9.77L205.3,400l2.2-4-6-5.57Z"/><path class="cls-2" d="M161.49,400.26a26.46,26.46,0,1,1,2.58,38.44h0a26.48,26.48,0,0,1-3.63-37.24Q161,400.85,161.49,400.26Zm37.09,34.45c.33-.35.65-.72,1-1.1a24.16,24.16,0,1,0-34,3.32h0A24.19,24.19,0,0,0,198.58,434.71Z"/><circle class="cls-3" cx="373.25" cy="364.34" r="18.66"/><circle class="cls-3" cx="347.08" cy="422.55" r="18.66"/><circle class="cls-3" cx="263.96" cy="412.78" r="18.66"/><circle class="cls-3" cx="180.94" cy="418.71" r="18.66"/><circle class="cls-3" cx="105.88" cy="430.39" r="18.66"/><circle class="cls-3" cx="51.79" cy="335.66" r="18.66"/><line class="cls-3" x1="339.44" y1="352.64" x2="210.21" y2="307.92"/><line class="cls-3" x1="333.07" y1="410.86" x2="211.59" y2="309.5"/><line class="cls-3" x1="257.43" y1="395.29" x2="210.21" y2="307.92"/><line class="cls-3" x1="189.9" y1="384.8" x2="210.21" y2="307.92"/><line class="cls-3" x1="116.03" y1="415.7" x2="210.21" y2="307.92"/><line class="cls-3" x1="88.51" y1="327.97" x2="210.21" y2="307.92"/></g><path class="cls-4" d="M215.42,94.29c-93.07.46-169,76-165.87,172.28,2.89,87.64,74.56,161.86,169.83,160,89.86-1.77,164.41-75.48,162-170.62C379.15,165.69,305.74,94.58,215.42,94.29Z"/><path class="cls-2" d="M215.42,94.29c90.32.29,163.73,71.4,166,161.65,2.39,95.14-72.16,168.85-162,170.62-95.27,1.87-166.94-72.35-169.83-160C46.38,170.26,122.35,94.75,215.42,94.29ZM374.76,260.82c1.17-87.55-71.9-160.1-159.5-159.9C128,101.12,56.05,172.68,56,260.47c0,88,72.06,158.33,156.94,159.6C302.85,421.41,375.79,347.26,374.76,260.82Z"/><path class="cls-5" d="M374.76,260.82c1,86.44-71.91,160.59-161.81,159.25C128.07,418.8,56,348.45,56,260.47c0-87.79,72-159.35,159.25-159.55C302.86,100.72,375.93,173.27,374.76,260.82ZM165.54,332h61.54c3.81,0,4-.19,4-4,0-5.93,0-11.86,0-17.79,0-3.13-.68-3.74-3.87-3.73H136.55c-8.84,0-17.69,0-26.53,0-3.5,0-3.85-.41-3.78-3.94.07-3.29.28-6.58.26-9.87,0-11.38-.24-22.75-.24-34.13,0-11.65.18-23.31.25-35q.06-7.33,0-14.66c0-2.42,1.15-3.31,3.52-3.23,4.6.15,9.22.2,13.82.18,9.5-.06,19-.2,28.5-.29,1.72,0,3.16-.27,3.64-2.31.8-3.48.06-4.4-3.59-4.4q-14.53,0-29.06,0c-6.2,0-12.41,0-18.62,0-4.35,0-6.26,2.26-6.13,6.5s.06,8.45,0,12.67c0,9.21-.15,18.41-.14,27.62,0,8.92.17,17.84.17,26.77,0,9.29-.19,18.59-.2,27.89,0,8.26.18,16.53.16,24.79,0,5.92.74,6.84,6.5,6.85ZM286,263.05c11.86.43,22.7-2.08,33.14-6.35a23.76,23.76,0,0,0,11.88-10c2.63-4.53.14-11-5-14.93-6.86-5.24-14.85-7.64-23.07-9.2a101.17,101.17,0,0,0-44.73,1.58c-6.49,1.68-12.61,4.23-17.71,8.79-5.9,5.27-6.19,11.79-.78,17.49,3.79,4,8.65,6.31,13.71,8A83.8,83.8,0,0,0,286,263.05ZM235.94,327c-.09,1.07-.25,2-.25,3,0,3.39.21,6.78.08,10.16a12.21,12.21,0,0,0,4.06,9.53c5.1,5,11.41,7.62,18.25,9.39,11.45,3,23,4.85,34.81,3,4.26-.66,8.64-.91,12.76-2.07a93.75,93.75,0,0,0,17.05-6.18c4.33-2.21,8.48-5.47,9.21-11a57.62,57.62,0,0,0,.61-8.69,39.16,39.16,0,0,0-1.17-6.42,4.31,4.31,0,0,0-1,.17,5.71,5.71,0,0,0-.9.65c-7.93,6.94-17.66,9.85-27.66,11.66a97.4,97.4,0,0,1-30.06.74c-8.12-1.06-16.15-2.64-23.55-6.19C244,332.74,240.29,329.79,235.94,327Zm24.18-157c-.5,1.9-.5,4.19-1.59,5.66-7.54,10.19-15.32,20.2-23,30.29a3.51,3.51,0,0,1-3.81,1.64,13.26,13.26,0,0,0-10.49,2.09,3.91,3.91,0,0,1-2.84.57c-11.73-2.9-23.46-5.81-35.12-8.95a8.9,8.9,0,0,1-4.5-3.38,10.94,10.94,0,0,0-9.29-5c-7.77-.13-12.62,7.86-9.46,15.58.66,1.61.71,2.79-.3,4.13-.79,1.05-1.4,2.23-2.19,3.28-8.68,11.46-17.32,22.94-26.14,34.29-.87,1.13-2.73,1.69-4.24,2.07-1.69.43-3.67,0-5.24.58a10.79,10.79,0,0,0-5.8,14.3,10.62,10.62,0,0,0,13.63,5.7c5.65-2.37,8.53-9,5.72-14.49-1.24-2.43-.56-3.78.73-5.49,8.85-11.78,17.73-23.55,26.51-35.4,1.82-2.46,3.8-3.89,7-3.6a8.63,8.63,0,0,0,9.23-5.56c.9-2.11,2.15-2.4,4-1.91,4.35,1.17,8.66,2.51,13,3.58,5.36,1.32,10.73,2.62,16.16,3.6,3.91.71,6.11,2.68,6.62,6.85.71,5.74,7.9,9.79,13.26,7.47,6-2.61,8.44-7.66,6.46-14a4.19,4.19,0,0,1,.86-4.33q11.23-14.62,22.32-29.37c1.29-1.71,2.4-2.38,4.68-1.38a10.45,10.45,0,0,0,11.42-2.57A10.22,10.22,0,0,0,280.13,165a11,11,0,0,0-12.95-6.57C262.45,159.6,259.34,164.27,260.12,170Zm-24,82c-.19,1.5-.38,2.38-.4,3.27-.05,3,.07,6-.07,9-.31,6.87,3,11.59,8.6,15.08,9.09,5.69,19.34,7.9,29.71,8.75,15.17,1.24,30.26.3,44.46-6.09,6.46-2.91,12.59-6.53,13.7-14.39a77.16,77.16,0,0,0,.38-13.77c-.09-2.2-1.63-1.11-2.6-.36-1.94,1.48-3.68,3.27-5.77,4.49-10.37,6.07-21.87,8.46-33.65,9a145.25,145.25,0,0,1-23-1.22c-10-1.17-19.48-4.08-27.53-10.51C238.81,254.28,237.72,253.31,236.12,252Zm.32,25.74a8.43,8.43,0,0,0-.58,2c0,4.42-.35,8.89.19,13.24a11.42,11.42,0,0,0,3.33,6.84,49.3,49.3,0,0,0,11.88,7.78c9.4,4.11,19.55,5.37,29.73,5.72a91.68,91.68,0,0,0,35.91-5.74c5.17-1.95,9.92-4.67,13-9.42,4-6.21,2.66-13.2,2.41-20,0-.11-.28-.21-.77-.56-13.37,11.88-30,14.66-47.06,14.75S250.62,289.62,236.44,277.69ZM332,302.07c-1.16.79-1.9,1.25-2.59,1.76-1.73,1.29-3.35,2.73-5.16,3.87-8,5-17,7.51-26.3,8.4-10.92,1-21.86,1.45-32.81-.79-6.68-1.36-13.21-2.84-19.12-6.24-3.37-1.93-6.48-4.29-10-6.67a27.51,27.51,0,0,0-.31,2.84c0,3.2.25,6.41.05,9.59-.39,6.36,3,10.59,7.87,13.69,8.63,5.53,18.43,8.08,28.49,8.9s20,1.06,30-1c6.59-1.34,13-3,18.91-6.12,5.3-2.77,10.29-6.16,10.94-12.92.37-3.92.45-7.87.57-11.81A22.31,22.31,0,0,0,332,302.07Zm-99.87-50.62c-1.32,1-2.48,1.75-3.54,2.64-2.88,2.4-5.6,5-8.63,7.21a6.35,6.35,0,0,1-4.57,1.05,11.81,11.81,0,0,0-9.44,1.4c-1.65,1.05-2.92.68-4.19-.75-3.61-4.07-7.23-8.14-11-12.05-1.61-1.67-2.17-3-1.35-5.42a10.48,10.48,0,0,0-3.53-11.64,11.3,11.3,0,0,0-12.73-.5c-3.36,2.28-5.53,7.45-4.26,11.42.83,2.62,0,4.19-1.7,6-9.27,9.58-18.38,19.3-27.7,28.83-1.16,1.18-3.14,1.67-4.84,2.17-1.5.44-3.28.12-4.67.72a10.55,10.55,0,0,0-5.27,14.22c2.46,5.48,8.45,7.48,14.51,4.86a10.3,10.3,0,0,0,4.87-13.65c-1.29-2.77-.86-4.6,1.21-6.73,8.88-9.17,17.58-18.51,26.47-27.67a6.13,6.13,0,0,1,3.75-1.23,41.74,41.74,0,0,1,7,.2c1.29.14,2.9.44,3.72,1.29,4.44,4.58,8.78,9.27,12.92,14.12a10.15,10.15,0,0,1,2.2,5.18,11.4,11.4,0,0,0,8.17,9.69c4.25,1.09,9.59-.73,11.47-4.57a15.44,15.44,0,0,0,1.38-7.51c-.16-2.56-.12-4.46,2.19-6.09s4.1-3.57,6.18-5.33C233.26,257.15,233.7,255.24,232.16,251.45ZM191.1,353h0c10.24,0,20.47,0,30.71-.06.74,0,2.06-.71,2.08-1.15a3.52,3.52,0,0,0-1.1-2.5c-.64-.57-1.84-.45-2.59-.95a6.15,6.15,0,0,1-2.44-2.44,49.37,49.37,0,0,1-2.07-7.58c-.6-2.95-2.25-3.88-5.18-3.85-13.24.13-26.47.1-39.7.05-2.46,0-3.94,1-4.52,3.34a54.63,54.63,0,0,0-1.26,5.78c-.46,3.18-2,5.07-5.34,5.57-.72.1-1.25,1.49-1.87,2.28.76.5,1.52,1.42,2.29,1.43C170.44,353.06,180.77,353,191.1,353Zm55.73-147.34c1.28.06,2.29.15,3.29.14q10.69-.12,21.39-.3c3.17-.05,4,.75,4.11,3.89a33.69,33.69,0,0,0,.12,4.5,3.08,3.08,0,0,0,1.34,2.17,4.66,4.66,0,0,0,6.23-4.17c.1-2.25,0-4.5,0-6.76-.11-4.68-1.61-6.24-6.32-6.29-7-.08-14.08,0-21.11,0C250.68,198.83,249,200,246.83,205.69ZM189.73,199l-.13.77c6.6,1.68,13.14,3.65,19.82,4.91,4.18.79,8.57.67,12.86.66,2.68,0,5.36-.75,8.05-.8a5.42,5.42,0,0,0,5.48-5.54Z"/><path class="cls-4" d="M165.54,332H105.13c-5.76,0-6.52-.93-6.5-6.85,0-8.26-.17-16.53-.16-24.79,0-9.3.19-18.6.2-27.89,0-8.93-.17-17.85-.17-26.77,0-9.21.1-18.41.14-27.62,0-4.22.1-8.45,0-12.67s1.78-6.45,6.13-6.5c6.21-.06,12.42,0,18.62,0q14.53,0,29.06,0c3.65,0,4.39.92,3.59,4.4-.48,2-1.92,2.29-3.64,2.31-9.5.09-19,.23-28.5.29-4.6,0-9.22,0-13.82-.18-2.37-.08-3.53.81-3.52,3.23q0,7.34,0,14.66c-.07,11.66-.25,23.32-.25,35,0,11.38.19,22.75.24,34.13,0,3.29-.19,6.58-.26,9.87-.07,3.53.28,3.93,3.78,3.94,8.84,0,17.69,0,26.53,0h90.62c3.19,0,3.85.6,3.87,3.73,0,5.93,0,11.86,0,17.79,0,3.78-.15,4-4,4Zm20.94-13.65a4.5,4.5,0,0,0,4.34,4.3,4.06,4.06,0,0,0,4.57-4.19A4.51,4.51,0,0,0,191.2,314,4.89,4.89,0,0,0,186.48,318.3Z"/><path class="cls-4" d="M286,263.05a83.8,83.8,0,0,1-32.54-4.61c-5.06-1.7-9.92-4-13.71-8-5.41-5.7-5.12-12.22.78-17.49,5.1-4.56,11.22-7.11,17.71-8.79A101.17,101.17,0,0,1,303,222.57c8.22,1.56,16.21,4,23.07,9.2,5.12,3.91,7.61,10.4,5,14.93a23.76,23.76,0,0,1-11.88,10C308.69,261,297.85,263.48,286,263.05Z"/><path class="cls-4" d="M235.94,327c4.35,2.81,8.06,5.76,12.22,7.76,7.4,3.55,15.43,5.13,23.55,6.19a97.4,97.4,0,0,0,30.06-.74c10-1.81,19.73-4.72,27.66-11.66a5.71,5.71,0,0,1,.9-.65,4.31,4.31,0,0,1,1-.17,39.16,39.16,0,0,1,1.17,6.42,57.62,57.62,0,0,1-.61,8.69c-.73,5.57-4.88,8.83-9.21,11A93.75,93.75,0,0,1,305.65,360c-4.12,1.16-8.5,1.41-12.76,2.07-11.85,1.83-23.36-.05-34.81-3-6.84-1.77-13.15-4.37-18.25-9.39a12.21,12.21,0,0,1-4.06-9.53c.13-3.38-.07-6.77-.08-10.16C235.69,329,235.85,328.05,235.94,327Z"/><path class="cls-2" d="M260.12,170c-.78-5.71,2.33-10.38,7.06-11.57A11,11,0,0,1,280.13,165a10.22,10.22,0,0,1-2.35,11.23,10.45,10.45,0,0,1-11.42,2.57c-2.28-1-3.39-.33-4.68,1.38q-11.09,14.73-22.32,29.37a4.19,4.19,0,0,0-.86,4.33c2,6.39-.44,11.44-6.46,14-5.36,2.32-12.55-1.73-13.26-7.47-.51-4.17-2.71-6.14-6.62-6.85-5.43-1-10.8-2.28-16.16-3.6-4.38-1.07-8.69-2.41-13-3.58-1.82-.49-3.07-.2-4,1.91a8.63,8.63,0,0,1-9.23,5.56c-3.24-.29-5.22,1.14-7,3.6-8.78,11.85-17.66,23.62-26.51,35.4-1.29,1.71-2,3.06-.73,5.49,2.81,5.48-.07,12.12-5.72,14.49a10.62,10.62,0,0,1-13.63-5.7,10.79,10.79,0,0,1,5.8-14.3c1.57-.62,3.55-.15,5.24-.58,1.51-.38,3.37-.94,4.24-2.07,8.82-11.35,17.46-22.83,26.14-34.29.79-1,1.4-2.23,2.19-3.28,1-1.34,1-2.52.3-4.13-3.16-7.72,1.69-15.71,9.46-15.58a10.94,10.94,0,0,1,9.29,5,8.9,8.9,0,0,0,4.5,3.38c11.66,3.14,23.39,6.05,35.12,8.95a3.91,3.91,0,0,0,2.84-.57,13.26,13.26,0,0,1,10.49-2.09,3.51,3.51,0,0,0,3.81-1.64c7.66-10.09,15.44-20.1,23-30.29C259.62,174.17,259.62,171.88,260.12,170ZM120.67,263.17c0,2.65,2.68,5.37,5.21,5.35s5.39-3.2,5.33-6a5.81,5.81,0,0,0-5.3-5.27C123.16,257.24,120.65,260.08,120.67,263.17Zm144-94.46a5.78,5.78,0,0,0,5.23,5.65c2.48.14,5.42-2.54,5.54-5.06.13-2.7-2.76-6.07-5.23-6.11S264.86,166,264.7,168.71Zm-89.77,34.77a5.59,5.59,0,0,0-5.16-5.31,5.91,5.91,0,0,0-5.62,5.54c0,2.56,2.86,5.23,5.6,5.26A5.32,5.32,0,0,0,174.93,203.48Zm53.77,19.74c2.5.13,5.23-2.47,5.36-5.12s-2.65-5.58-5.5-5.73a5.41,5.41,0,0,0-5.34,5.07A6.12,6.12,0,0,0,228.7,223.22Z"/><path class="cls-4" d="M236.12,252c1.6,1.36,2.69,2.33,3.83,3.24,8.05,6.43,17.55,9.34,27.53,10.51a145.25,145.25,0,0,0,23,1.22c11.78-.5,23.28-2.89,33.65-9,2.09-1.22,3.83-3,5.77-4.49,1-.75,2.51-1.84,2.6.36a77.16,77.16,0,0,1-.38,13.77c-1.11,7.86-7.24,11.48-13.7,14.39-14.2,6.39-29.29,7.33-44.46,6.09-10.37-.85-20.62-3.06-29.71-8.75-5.58-3.49-8.91-8.21-8.6-15.08.14-3,0-6,.07-9C235.74,254.33,235.93,253.45,236.12,252Zm38.49,28.71c1.22,0,2.44-.05,3.66,0a3.09,3.09,0,0,0,3.53-2.84c.33-2.07-1.09-3.05-2.87-3.53a11.55,11.55,0,0,0-2.5-.29c-6.93-.38-13.81-1-20.45-3.22-1.63-.55-3.56-.85-4.26,1.31s.36,3.47,2.42,4.34C260.7,279.19,267.64,280,274.61,280.66ZM306,274.55c-.67-.54-1.73-2-3.05-2.3-2.23-.47-4.69,2.32-4.54,4.66.13,2.19,1.56,3.14,3.52,3.23S306.07,277.74,306,274.55Zm-12.08,2.87a4,4,0,0,0-3.69-3.88,3.78,3.78,0,0,0-3.92,3.87c0,2.34,1.44,3.91,3.52,3.86A4.15,4.15,0,0,0,293.91,277.42Zm23.79-5.75c-.76-.49-1.92-1.79-3.26-2-2-.33-4.34,2.48-4.31,4.71,0,1.93.86,3.31,3,3.29S317.75,274.77,317.7,271.67Z"/><path class="cls-4" d="M236.44,277.69c14.18,11.93,30.84,14.67,48,14.58s33.69-2.87,47.06-14.75c.49.35.76.45.77.56.25,6.8,1.61,13.79-2.41,20-3.07,4.75-7.82,7.47-13,9.42A91.68,91.68,0,0,1,281,313.24c-10.18-.35-20.33-1.61-29.73-5.72a49.3,49.3,0,0,1-11.88-7.78,11.42,11.42,0,0,1-3.33-6.84c-.54-4.35-.21-8.82-.19-13.24A8.43,8.43,0,0,1,236.44,277.69ZM253,294.58c-.32.25-1.83.89-1.83,1.53,0,1.33.4,3.22,1.34,3.87a19.45,19.45,0,0,0,5.92,2.29,62.5,62.5,0,0,0,19.43,2.39c1.89-.09,3.41-1,3.3-2.68a5.11,5.11,0,0,0-2.61-3.35c-1.41-.74-3.25-.72-4.91-.93-4.43-.58-8.88-1.05-13.3-1.67C258.17,295.72,256,295.17,253,294.58Zm44.76,7.47c.84.56,2.07,1.9,3.53,2.23,1.85.42,4.52-2.68,4.35-4.69a3.36,3.36,0,0,0-3.58-3.25C299.92,296.25,297.71,298.74,297.8,302.05Zm17-8.2c-3.14,0-5.84,2.76-5.59,4.87.22,1.87,1.22,3.14,3.33,3.06s4.83-2.76,4.39-5C316.69,295.54,315.32,294.51,314.8,293.85ZM294,301.92l-.06-1.29c-1.49-1-2.86-2.5-4.51-3-1.49-.45-4,2.54-3.93,4.15s2.52,4.25,4,3.63C291.12,304.68,292.46,303.12,294,301.92Z"/><path class="cls-4" d="M332,302.07a22.31,22.31,0,0,1,.51,3.51c-.12,3.94-.2,7.89-.57,11.81-.65,6.76-5.64,10.15-10.94,12.92-5.91,3.1-12.32,4.78-18.91,6.12-10,2.05-20,1.81-30,1s-19.86-3.37-28.49-8.9c-4.85-3.1-8.26-7.33-7.87-13.69.2-3.18-.06-6.39-.05-9.59a27.51,27.51,0,0,1,.31-2.84c3.56,2.38,6.67,4.74,10,6.67,5.91,3.4,12.44,4.88,19.12,6.24,10.95,2.24,21.89,1.84,32.81.79,9.27-.89,18.26-3.36,26.3-8.4,1.81-1.14,3.43-2.58,5.16-3.87C330.13,303.32,330.87,302.86,332,302.07Zm-58.76,27.32.14-.69c1.59,0,3.29.34,4.75-.1,1.22-.37,2.95-1.6,3-2.54s-1.31-2.46-2.4-3.24c-.81-.58-2.17-.38-3.28-.55-6.64-1-13.28-2-19.91-3.09-1.83-.3-3.6-.91-4.56,1.29-.71,1.65.81,4.33,2.87,4.8C260.33,326.72,266.81,328,273.27,329.39Zm17.34-7.64c-3.14,0-5.2,2-5.21,4.11a4.35,4.35,0,0,0,3.7,3.95c1.68.06,5-2.89,4.4-4.31C292.84,323.9,291.33,322.64,290.61,321.75Zm10.29,6.78c2.44-.09,5-2.76,4.79-4.74s-1.75-3.06-3.74-3.08a4.24,4.24,0,0,0-4.13,4.45C298,327.18,299.1,328.43,300.9,328.53Zm15.92-7.39c-.22-1.68-.78-3.18-3-3.11s-4.69,2.75-4.55,4.94,1.54,2.92,3.46,2.89C314.81,325.82,316.87,323.46,316.82,321.14Z"/><path class="cls-2" d="M232.16,251.45c1.54,3.79,1.1,5.7-1.42,7.83-2.08,1.76-4,3.77-6.18,5.33s-2.35,3.53-2.19,6.09a15.44,15.44,0,0,1-1.38,7.51c-1.88,3.84-7.22,5.66-11.47,4.57a11.4,11.4,0,0,1-8.17-9.69,10.15,10.15,0,0,0-2.2-5.18c-4.14-4.85-8.48-9.54-12.92-14.12-.82-.85-2.43-1.15-3.72-1.29a41.74,41.74,0,0,0-7-.2,6.13,6.13,0,0,0-3.75,1.23c-8.89,9.16-17.59,18.5-26.47,27.67-2.07,2.13-2.5,4-1.21,6.73a10.3,10.3,0,0,1-4.87,13.65c-6.06,2.62-12,.62-14.51-4.86A10.55,10.55,0,0,1,130,282.5c1.39-.6,3.17-.28,4.67-.72,1.7-.5,3.68-1,4.84-2.17,9.32-9.53,18.43-19.25,27.7-28.83,1.72-1.78,2.53-3.35,1.7-6-1.27-4,.9-9.14,4.26-11.42a11.3,11.3,0,0,1,12.73.5,10.48,10.48,0,0,1,3.53,11.64c-.82,2.37-.26,3.75,1.35,5.42,3.79,3.91,7.41,8,11,12.05,1.27,1.43,2.54,1.8,4.19.75a11.81,11.81,0,0,1,9.44-1.4A6.35,6.35,0,0,0,220,261.3c3-2.19,5.75-4.81,8.63-7.21C229.68,253.2,230.84,252.43,232.16,251.45Zm-47.32-9.38c.07-2.23-3-5.27-5.32-5.37-2.63-.11-5.63,2.61-5.73,5.19a6,6,0,0,0,5.65,5.8C181.82,247.7,184.77,244.63,184.84,242.07Zm32.89,30.32a5.33,5.33,0,0,0-5.17-5.18,5.27,5.27,0,1,0-.74,10.52C214.61,277.74,217.69,275,217.73,272.39Zm-83,24.88a5.15,5.15,0,0,0,5.2-5c-.08-2.67-3.06-5.41-5.85-5.39a5.74,5.74,0,0,0-5.23,5.29C128.74,294.8,131.59,297.3,134.7,297.27Z"/><path class="cls-4" d="M191.1,353c-10.33,0-20.66,0-31-.07-.77,0-1.53-.93-2.29-1.43.62-.79,1.15-2.18,1.87-2.28,3.34-.5,4.88-2.39,5.34-5.57a54.63,54.63,0,0,1,1.26-5.78c.58-2.31,2.06-3.35,4.52-3.34,13.23.05,26.46.08,39.7-.05,2.93,0,4.58.9,5.18,3.85a49.37,49.37,0,0,0,2.07,7.58,6.15,6.15,0,0,0,2.44,2.44c.75.5,2,.38,2.59.95a3.52,3.52,0,0,1,1.1,2.5c0,.44-1.34,1.15-2.08,1.15-10.24.08-20.47.06-30.71.06Z"/><path class="cls-4" d="M246.83,205.69c2.14-5.65,3.85-6.86,9-6.85,7,0,14.07-.05,21.11,0,4.71,0,6.21,1.61,6.32,6.29.06,2.26.12,4.51,0,6.76a4.66,4.66,0,0,1-6.23,4.17,3.08,3.08,0,0,1-1.34-2.17,33.69,33.69,0,0,1-.12-4.5c-.07-3.14-.94-3.94-4.11-3.89q-10.69.18-21.39.3C249.12,205.84,248.11,205.75,246.83,205.69Z"/><path class="cls-4" d="M189.73,199h46.08a5.42,5.42,0,0,1-5.48,5.54c-2.69.05-5.37.8-8.05.8-4.29,0-8.68.13-12.86-.66-6.68-1.26-13.22-3.23-19.82-4.91Z"/><path class="cls-5" d="M186.48,318.3A4.89,4.89,0,0,1,191.2,314a4.51,4.51,0,0,1,4.19,4.45,4.06,4.06,0,0,1-4.57,4.19A4.5,4.5,0,0,1,186.48,318.3Z"/><path class="cls-5" d="M120.67,263.17c0-3.09,2.49-5.93,5.24-5.9a5.81,5.81,0,0,1,5.3,5.27c.06,2.78-2.77,5.95-5.33,6S120.69,265.82,120.67,263.17Z"/><path class="cls-5" d="M264.7,168.71c.16-2.68,3.05-5.56,5.54-5.52s5.36,3.41,5.23,6.11c-.12,2.52-3.06,5.2-5.54,5.06A5.78,5.78,0,0,1,264.7,168.71Z"/><path class="cls-5" d="M174.93,203.48a5.32,5.32,0,0,1-5.18,5.49c-2.74,0-5.59-2.7-5.6-5.26a5.91,5.91,0,0,1,5.62-5.54A5.59,5.59,0,0,1,174.93,203.48Z"/><path class="cls-5" d="M228.7,223.22a6.12,6.12,0,0,1-5.48-5.78,5.41,5.41,0,0,1,5.34-5.07c2.85.15,5.64,3.06,5.5,5.73S231.2,223.35,228.7,223.22Z"/><path class="cls-5" d="M274.61,280.66c-7-.69-13.91-1.47-20.47-4.22-2.06-.87-3.09-2.26-2.42-4.34s2.63-1.86,4.26-1.31c6.64,2.26,13.52,2.84,20.45,3.22a11.55,11.55,0,0,1,2.5.29c1.78.48,3.2,1.46,2.87,3.53a3.09,3.09,0,0,1-3.53,2.84C277.05,280.61,275.83,280.66,274.61,280.66Z"/><path class="cls-5" d="M306,274.55c.08,3.19-2,5.68-4.07,5.59s-3.39-1-3.52-3.23c-.15-2.34,2.31-5.13,4.54-4.66C304.26,272.54,305.32,274,306,274.55Z"/><path class="cls-5" d="M293.91,277.42a4.15,4.15,0,0,1-4.09,3.85c-2.08.05-3.52-1.52-3.52-3.86a3.78,3.78,0,0,1,3.92-3.87A4,4,0,0,1,293.91,277.42Z"/><path class="cls-5" d="M317.7,271.67c.05,3.1-2.52,6-4.59,6s-3-1.36-3-3.29c0-2.23,2.32-5,4.31-4.71C315.78,269.88,316.94,271.18,317.7,271.67Z"/><path class="cls-5" d="M253,294.58c3,.59,5.13,1.14,7.34,1.45,4.42.62,8.87,1.09,13.3,1.67,1.66.21,3.5.19,4.91.93A5.11,5.11,0,0,1,281.2,302c.11,1.65-1.41,2.59-3.3,2.68a62.5,62.5,0,0,1-19.43-2.39,19.45,19.45,0,0,1-5.92-2.29c-.94-.65-1.35-2.54-1.34-3.87C251.21,295.47,252.72,294.83,253,294.58Z"/><path class="cls-5" d="M297.8,302.05c-.09-3.31,2.12-5.8,4.3-5.71a3.36,3.36,0,0,1,3.58,3.25c.17,2-2.5,5.11-4.35,4.69C299.87,304,298.64,302.61,297.8,302.05Z"/><path class="cls-5" d="M314.8,293.85c.52.66,1.89,1.69,2.13,2.93.44,2.24-2.2,4.93-4.39,5s-3.11-1.19-3.33-3.06C309,296.61,311.66,293.9,314.8,293.85Z"/><path class="cls-5" d="M294,301.92c-1.5,1.2-2.84,2.76-4.53,3.5-1.45.62-3.92-1.93-4-3.63s2.44-4.6,3.93-4.15c1.65.49,3,1.95,4.51,3Z"/><path class="cls-5" d="M273.27,329.39c-6.46-1.36-12.94-2.67-19.38-4.12-2.06-.47-3.58-3.15-2.87-4.8,1-2.2,2.73-1.59,4.56-1.29,6.63,1.12,13.27,2.08,19.91,3.09,1.11.17,2.47,0,3.28.55,1.09.78,2.46,2.18,2.4,3.24s-1.79,2.17-3,2.54c-1.46.44-3.16.1-4.75.1Z"/><path class="cls-5" d="M290.61,321.75c.72.89,2.23,2.15,2.89,3.75.58,1.42-2.72,4.37-4.4,4.31a4.35,4.35,0,0,1-3.7-3.95C285.41,323.76,287.47,321.73,290.61,321.75Z"/><path class="cls-5" d="M300.9,328.53c-1.8-.1-2.9-1.35-3.08-3.37a4.24,4.24,0,0,1,4.13-4.45c2,0,3.48,1,3.74,3.08S303.34,328.44,300.9,328.53Z"/><path class="cls-5" d="M316.82,321.14c.05,2.32-2,4.68-4.13,4.72-1.92,0-3.33-.82-3.46-2.89s2.42-4.86,4.55-4.94S316.6,319.46,316.82,321.14Z"/><path class="cls-5" d="M184.84,242.07c-.07,2.56-3,5.63-5.4,5.62a6,6,0,0,1-5.65-5.8c.1-2.58,3.1-5.3,5.73-5.19C181.89,236.8,184.91,239.84,184.84,242.07Z"/><path class="cls-5" d="M217.73,272.39c0,2.57-3.12,5.35-5.91,5.34a5.28,5.28,0,1,1,5.91-5.34Z"/><path class="cls-5" d="M134.7,297.27c-3.11,0-6-2.47-5.88-5.15a5.74,5.74,0,0,1,5.23-5.29c2.79,0,5.77,2.72,5.85,5.39A5.15,5.15,0,0,1,134.7,297.27Z"/></svg>