<svg id="Layer_1" data-name="Layer 1" xmlns="http://www.w3.org/2000/svg" viewBox="0 0 397 549"><defs><style>.cls-1{opacity:0.5;}.cls-2{fill:#1cf445;}.cls-3{fill:#1dc5f2;}.cls-4{fill:#fff;}.cls-5{fill:#2d302e;}</style></defs><title>Inteligencia de cultivos</title><g class="cls-1"><path class="cls-2" d="M312.65,263l-2.25-7.71a55.56,55.56,0,0,1-14.66-5.5l-7,4.56-18.11-16.8,4.15-7.58a56.21,56.21,0,0,1-6.11-13.58l-8.85-1.88-.93-24.69,8.92-2.61a55.7,55.7,0,0,1,5-13.26l-5.25-8.07,16.81-18.12,8.44,4.63a55.32,55.32,0,0,1,12.57-5.85l2-9.59,24.69-.92,2.64,9a56.33,56.33,0,0,1,13.39,4.74l7.91-5.13,18.11,16.8-4.23,7.72a56.23,56.23,0,0,1,6.48,13.51l8.56,1.81.93,24.69L378,211.54a56.06,56.06,0,0,1-5.25,14.82l4.44,6.83-16.8,18.12-6.87-3.76A56,56,0,0,1,339,254.29l-1.66,7.83Zm-17.12-22.62,2.15,1.3a47.82,47.82,0,0,0,16.57,6.22l2.45.44,1.88,6.43,12.23-.45,1.39-6.55,2.42-.61A48.14,48.14,0,0,0,351,239.61l2-1.47,5.76,3.15,8.32-9-3.69-5.68,1.24-2.12a47.94,47.94,0,0,0,5.92-16.74l.39-2.51,6.67-2-.46-12.23L370,189.58l-.65-2.34a48.08,48.08,0,0,0-7.41-15.41l-1.49-2,3.64-6.64-9-8.33-6.68,4.34L346.33,158a48.13,48.13,0,0,0-15.46-5.46l-2.47-.42-2.28-7.8-12.23.45-1.74,8.19-2.34.64a48.14,48.14,0,0,0-14.59,6.8l-2,1.41-7.25-4-8.32,9,4.5,6.93-1.25,2.13a48.14,48.14,0,0,0-5.74,15.32l-.46,2.4-7.58,2.22.46,12.23,7.58,1.61.6,2.42a48.08,48.08,0,0,0,7,15.52l1.39,2L280.61,236l9,8.32Z"/><path class="cls-2" d="M353.93,229.26a42.6,42.6,0,1,1-4.16-61.9h0a42.64,42.64,0,0,1,5.85,60C355.08,228,354.51,228.63,353.93,229.26Zm-59.72-55.47c-.53.57-1,1.16-1.54,1.77a38.9,38.9,0,1,0,54.76-5.35h0A39,39,0,0,0,294.21,173.79Z"/></g><g class="cls-1"><path class="cls-2" d="M315.79,365.62l-1.52-5.22a37.71,37.71,0,0,1-9.92-3.72l-4.75,3.09L287.34,348.4l2.81-5.13a37.78,37.78,0,0,1-4.13-9.19l-6-1.27-.63-16.7,6-1.77a37.64,37.64,0,0,1,3.36-9l-3.55-5.46,11.37-12.25,5.71,3.13a37.58,37.58,0,0,1,8.5-4l1.38-6.48,16.7-.63,1.79,6.12a37.47,37.47,0,0,1,9.06,3.21l5.35-3.48,12.25,11.37-2.86,5.22a37.72,37.72,0,0,1,4.38,9.14l5.79,1.23.63,16.7-5.3,1.55a37.54,37.54,0,0,1-3.56,10l3,4.62-11.37,12.26-4.64-2.55a37.52,37.52,0,0,1-9.82,4.56l-1.13,5.3Zm-11.58-15.31,1.45.88a32.48,32.48,0,0,0,11.21,4.21l1.66.29,1.27,4.36,8.27-.31.94-4.43,1.64-.41a32.46,32.46,0,0,0,11.05-5.14l1.39-1L347,350.9l5.63-6.06L350.12,341l.83-1.44a32.55,32.55,0,0,0,4-11.32l.26-1.7,4.51-1.31-.31-8.28-4.83-1-.44-1.58a32.34,32.34,0,0,0-5-10.42l-1-1.39,2.46-4.49-6.07-5.63L340,295.34l-1.43-.8a32.73,32.73,0,0,0-10.46-3.69l-1.67-.28-1.54-5.28-8.27.31-1.18,5.53-1.59.44a32.59,32.59,0,0,0-9.87,4.6l-1.37.95-4.9-2.69-5.63,6.07,3.05,4.69-.85,1.44A32.48,32.48,0,0,0,290.41,317l-.31,1.63-5.13,1.5.31,8.27,5.12,1.09.41,1.64a32.53,32.53,0,0,0,4.73,10.5l.93,1.37-2.35,4.31,6.06,5.63Z"/><path class="cls-2" d="M343.71,342.76a28.81,28.81,0,1,1-2.81-41.87h0a28.84,28.84,0,0,1,4,40.56C344.49,341.9,344.11,342.34,343.71,342.76Zm-40.4-37.53c-.35.39-.7.79-1,1.2a26.32,26.32,0,1,0,37.05-3.61h0A26.37,26.37,0,0,0,303.31,305.23Z"/></g><g class="cls-1"><path class="cls-2" d="M75.11,337.45l-2.62-9a65.15,65.15,0,0,1-17.93-6.73l-8.18,5.32L25.81,308l4.84-8.83a65.39,65.39,0,0,1-7.49-16.64l-10.32-2.19-1.05-28,10.4-3A65.4,65.4,0,0,1,28.29,233l-6.12-9.42L41.25,203l9.85,5.4a65.4,65.4,0,0,1,15.44-7.19L68.92,190l28-1L100,199.52a65.43,65.43,0,0,1,16.44,5.81l9.21-6,20.57,19.09-4.94,9A65.34,65.34,0,0,1,149.25,244l10,2.12,1.05,28-9.13,2.67a65.41,65.41,0,0,1-6.42,18.11l5.17,8-19.08,20.57-8-4.38a65.46,65.46,0,0,1-17.74,8.24l-1.93,9.11ZM54.37,312.33l2.14,1.3a57.48,57.48,0,0,0,19.83,7.44l2.45.43L81,329.22l15.58-.59,1.66-7.84,2.42-.61a57.32,57.32,0,0,0,19.54-9.08l2.05-1.47,6.89,3.78L139.78,302l-4.42-6.8,1.23-2.13a57.36,57.36,0,0,0,7.09-20l.39-2.51,8-2.33-.59-15.57-8.57-1.82-.65-2.34A57.31,57.31,0,0,0,133.38,230l-1.49-2,4.35-7.94-11.43-10.6-8,5.2-2.11-1.19a57.71,57.71,0,0,0-18.5-6.53l-2.47-.42L91,197.19l-15.57.58-2.08,9.79L71,208.2a57.74,57.74,0,0,0-17.45,8.14l-2,1.4L42.88,213l-10.6,11.42,5.38,8.29-1.25,2.12a57.53,57.53,0,0,0-6.87,18.33l-.46,2.41L20,258.21l.58,15.58,9.06,1.92.61,2.42a57.36,57.36,0,0,0,8.35,18.58l1.38,2-4.18,7.63L47.25,317Z"/><path class="cls-2" d="M123.33,298.29a50.32,50.32,0,1,1-4.91-73.12h0A50.39,50.39,0,0,1,125.33,296C124.68,296.79,124,297.55,123.33,298.29ZM52.79,232.76c-.62.68-1.23,1.37-1.82,2.09a46,46,0,1,0,64.68-6.31h0A46,46,0,0,0,52.79,232.76Z"/></g><g class="cls-1"><path class="cls-2" d="M176.07,252.06l-2.39-9.41a67.62,67.62,0,0,1-18.54-7.71l-8.68,5.22-20.52-20.42,5.34-9A68,68,0,0,1,124.05,193l-10.63-2.65-.07-28.94,10.9-2.77a67.91,67.91,0,0,1,7-16.85l-6-10,20.42-20.51,10,6a68.23,68.23,0,0,1,16.46-7L175,98.8l29-.07,2.81,11.07a68,68,0,0,1,17,6.7l9.78-5.87,20.51,20.42-5.45,9.16a67.66,67.66,0,0,1,7.71,17.63l10.27,2.56.06,28.94-9.57,2.43a67.64,67.64,0,0,1-7.39,18.74l5.07,8.44-20.42,20.51-8.13-4.83a67.62,67.62,0,0,1-18.88,8L205,252Zm-20.79-26.53,2.1,1.37a59.76,59.76,0,0,0,20.4,8.49l2.44.52,2.06,8.13,16.48,0,2-8.12,2.44-.52a59.91,59.91,0,0,0,20.71-8.76l2.1-1.4,7.06,4.2,11.62-11.68-4.37-7.26,1.31-2.08a59.91,59.91,0,0,0,8.13-20.63l.48-2.49,8.4-2.14,0-16.47-8.87-2.21-.57-2.36a60,60,0,0,0-8.57-19.54l-1.42-2.11,4.83-8.11L232.34,120.7l-8.53,5.12-2.07-1.25a59.8,59.8,0,0,0-19.05-7.49l-2.45-.51-2.5-9.82-16.47,0-2.53,10.13-2.37.56a60.07,60.07,0,0,0-18.5,7.85l-2.08,1.33-8.85-5.27-11.62,11.68,5.31,8.83L139.3,144a60.06,60.06,0,0,0-7.84,18.86l-.54,2.39-9.55,2.43,0,16.47,9.37,2.34.52,2.44a60,60,0,0,0,8,19.68l1.31,2.07-4.63,7.8,11.67,11.62Z"/><path class="cls-2" d="M227.53,213.25A52.37,52.37,0,1,1,225.09,137h0a52.42,52.42,0,0,1,4.6,73.91Q228.64,212.14,227.53,213.25Zm-71-70.73c-.67.68-1.33,1.38-2,2.11a47.83,47.83,0,1,0,67.51-4.2h0A47.9,47.9,0,0,0,156.55,142.52Z"/></g><rect class="cls-3" x="84.74" y="153.38" width="228.93" height="162.63"/><path class="cls-4" d="M318.27,320.61H80.15V148.78H318.27ZM89.34,311.42H309.08V158H89.34Z"/><polygon class="cls-4" points="334.54 327.67 63.87 327.67 16.94 351.2 381.47 351.2 334.54 327.67"/><path class="cls-2" d="M137.16,456.69a8.92,8.92,0,0,0-12.94,0,9.78,9.78,0,0,0-.69,12.61l-16.37,17V448.84l11.68-12.13a5.76,5.76,0,0,0,6.82-1.16h0a6.33,6.33,0,0,0,0-8.7,5.78,5.78,0,0,0-8.38,0,6.31,6.31,0,0,0-1.11,7.07l-9,9.36V414.11l7.19-7.47a3.8,3.8,0,0,0,1.79.45,4,4,0,0,0,2.87-1.23h0a4.33,4.33,0,0,0,0-6,3.94,3.94,0,0,0-5.74,0,4.34,4.34,0,0,0-.76,4.84l-5.35,5.55V380.81h-4.85v29.51l-5.9-6.13a4.35,4.35,0,0,0-.63-5.08,4,4,0,0,0-5.74,0,4.33,4.33,0,0,0,0,6,3.93,3.93,0,0,0,2.87,1.24,3.8,3.8,0,0,0,1.56-.33l7.84,8.15V443L92.7,433a6.35,6.35,0,0,0-.94-7.42,5.78,5.78,0,0,0-8.38,0,6.33,6.33,0,0,0,0,8.7,5.79,5.79,0,0,0,4.19,1.8,5.67,5.67,0,0,0,2.28-.47l12.46,12.94V486L86,469a9.77,9.77,0,0,0-1.15-12,8.91,8.91,0,0,0-12.93,0,9.75,9.75,0,0,0,0,13.43,8.93,8.93,0,0,0,6.46,2.78,8.81,8.81,0,0,0,4-.94l20,20.78v47.32h4.85v-47l20.33-21.12a8.85,8.85,0,0,0,9.67-2.17h0a9.78,9.78,0,0,0,0-13.43ZM120,429.63a2.08,2.08,0,0,1,3,0,2.27,2.27,0,0,1,0,3.14h0a2.08,2.08,0,0,1-3,0A2.29,2.29,0,0,1,120,429.63ZM115.1,401.8a1.47,1.47,0,0,1,1-.44,1.43,1.43,0,0,1,1,.44,1.54,1.54,0,0,1,.43,1.08,1.51,1.51,0,0,1-.43,1.07h0a1.4,1.4,0,0,1-1,.45,1.44,1.44,0,0,1-1-.45A1.57,1.57,0,0,1,115.1,401.8Zm-23.23,1.37a1.56,1.56,0,0,1,0-2.15,1.42,1.42,0,0,1,2.07,0,1.57,1.57,0,0,1,0,2.15,1.44,1.44,0,0,1-2.07,0Zm-5.81,28.34a2.3,2.3,0,0,1,0-3.14,2.08,2.08,0,0,1,3,0,2.29,2.29,0,0,1,0,3.14,2.08,2.08,0,0,1-3,0ZM76,466.19a3.45,3.45,0,0,1-1-2.42,3.49,3.49,0,0,1,1-2.42,3.21,3.21,0,0,1,4.66,0,3.52,3.52,0,0,1,0,4.84,3.2,3.2,0,0,1-4.67,0Zm57-.37h0a3.19,3.19,0,0,1-4.66,0,3.51,3.51,0,0,1,0-4.84,3.21,3.21,0,0,1,4.66,0,3.5,3.5,0,0,1,1,2.42A3.46,3.46,0,0,1,133,465.82Z"/><path class="cls-2" d="M231.84,456.69a8.91,8.91,0,0,0-12.93,0,9.79,9.79,0,0,0-.7,12.61l-16.36,17V448.84l11.68-12.13a5.76,5.76,0,0,0,6.82-1.16h0a6.33,6.33,0,0,0,0-8.7,5.78,5.78,0,0,0-8.38,0,6.33,6.33,0,0,0-1.12,7.07l-9,9.36V414.11l7.18-7.47a3.86,3.86,0,0,0,1.79.45,3.92,3.92,0,0,0,2.87-1.23h0a4.33,4.33,0,0,0,0-6,3.94,3.94,0,0,0-5.74,0,4.32,4.32,0,0,0-.75,4.84l-5.35,5.55V380.81H197v29.51l-5.9-6.13a4.33,4.33,0,0,0-.64-5.08,4,4,0,0,0-5.74,0,4.33,4.33,0,0,0,0,6,4,4,0,0,0,2.87,1.24,3.73,3.73,0,0,0,1.56-.33l7.85,8.15V443l-9.62-10a6.33,6.33,0,0,0-.93-7.42,5.78,5.78,0,0,0-8.38,0,6.33,6.33,0,0,0,0,8.7,5.79,5.79,0,0,0,4.19,1.8,5.71,5.71,0,0,0,2.28-.47L197,448.56V486l-16.34-17a9.78,9.78,0,0,0-1.15-12,8.92,8.92,0,0,0-12.94,0,9.78,9.78,0,0,0,0,13.43,9,9,0,0,0,6.47,2.78,8.8,8.8,0,0,0,4-.94l20,20.78v47.32h4.85v-47l20.33-21.12a8.84,8.84,0,0,0,9.66-2.17h0a9.75,9.75,0,0,0,0-13.43Zm-17.19-27.06a2.08,2.08,0,0,1,3,0,2.3,2.3,0,0,1,0,3.14h0a2.08,2.08,0,0,1-3,0A2.29,2.29,0,0,1,214.65,429.63Zm-4.86-27.83a1.44,1.44,0,0,1,2.07,0,1.54,1.54,0,0,1,.43,1.08,1.51,1.51,0,0,1-.43,1.07h0a1.42,1.42,0,0,1-2.07,0A1.57,1.57,0,0,1,209.79,401.8Zm-23.23,1.37a1.56,1.56,0,0,1,0-2.15,1.4,1.4,0,0,1,1-.45,1.44,1.44,0,0,1,1,.45,1.57,1.57,0,0,1,0,2.15,1.47,1.47,0,0,1-1,.44A1.43,1.43,0,0,1,186.56,403.17Zm-5.81,28.34a2.27,2.27,0,0,1,0-3.14,2.08,2.08,0,0,1,3,0,2.29,2.29,0,0,1,0,3.14,2.08,2.08,0,0,1-3,0Zm-10,34.68a3.46,3.46,0,0,1-1-2.42,3.5,3.5,0,0,1,1-2.42,3.21,3.21,0,0,1,4.66,0,3.51,3.51,0,0,1,0,4.84,3.19,3.19,0,0,1-4.66,0Zm57-.37h0a3.19,3.19,0,0,1-4.66,0,3.51,3.51,0,0,1,0-4.84,3.21,3.21,0,0,1,4.66,0,3.49,3.49,0,0,1,1,2.42A3.45,3.45,0,0,1,227.71,465.82Z"/><path class="cls-2" d="M326.53,456.69a8.91,8.91,0,0,0-12.93,0,9.77,9.77,0,0,0-.7,12.61l-16.37,17V448.84l11.69-12.13a5.74,5.74,0,0,0,6.81-1.16h0a6.31,6.31,0,0,0,0-8.7,5.77,5.77,0,0,0-8.37,0,6.33,6.33,0,0,0-1.12,7.07l-9,9.36V414.11l7.19-7.47a3.83,3.83,0,0,0,1.79.45,3.93,3.93,0,0,0,2.87-1.23h0a4.33,4.33,0,0,0,0-6,3.94,3.94,0,0,0-5.74,0,4.32,4.32,0,0,0-.75,4.84l-5.36,5.55V380.81h-4.84v29.51l-5.91-6.13a4.35,4.35,0,0,0-.63-5.08,4,4,0,0,0-5.74,0,4.33,4.33,0,0,0,0,6,3.93,3.93,0,0,0,2.87,1.24,3.8,3.8,0,0,0,1.56-.33l7.85,8.15V443l-9.62-10a6.34,6.34,0,0,0-.94-7.42,5.77,5.77,0,0,0-8.37,0,6.31,6.31,0,0,0,0,8.7,5.75,5.75,0,0,0,4.18,1.8,5.67,5.67,0,0,0,2.28-.47l12.47,12.94V486l-16.34-17a9.78,9.78,0,0,0-1.16-12,8.91,8.91,0,0,0-12.93,0,9.75,9.75,0,0,0,0,13.43,8.93,8.93,0,0,0,6.47,2.78,8.8,8.8,0,0,0,3.95-.94l20,20.78v47.32h4.84v-47l20.34-21.12a8.82,8.82,0,0,0,3.19.61,9,9,0,0,0,6.47-2.78h0a9.75,9.75,0,0,0,0-13.43Zm-17.2-27.06a2.08,2.08,0,0,1,3,0,2.27,2.27,0,0,1,0,3.14h0a2.08,2.08,0,0,1-3,0A2.29,2.29,0,0,1,309.33,429.63Zm-4.85-27.83a1.43,1.43,0,0,1,1-.44,1.47,1.47,0,0,1,1,.44,1.57,1.57,0,0,1,.42,1.08,1.55,1.55,0,0,1-.42,1.07h0a1.44,1.44,0,0,1-1,.45,1.4,1.4,0,0,1-1-.45A1.57,1.57,0,0,1,304.48,401.8Zm-23.24,1.37a1.56,1.56,0,0,1,0-2.15,1.44,1.44,0,0,1,1-.45,1.4,1.4,0,0,1,1,.45,1.57,1.57,0,0,1,0,2.15,1.43,1.43,0,0,1-1,.44A1.47,1.47,0,0,1,281.24,403.17Zm-5.81,28.34a2.3,2.3,0,0,1,0-3.14,2.08,2.08,0,0,1,3,0,2.27,2.27,0,0,1,0,3.14,2.08,2.08,0,0,1-3,0Zm-10,34.68a3.42,3.42,0,0,1-1-2.42,3.45,3.45,0,0,1,1-2.42,3.21,3.21,0,0,1,4.66,0,3.53,3.53,0,0,1,0,4.84,3.19,3.19,0,0,1-4.66,0Zm57-.37h0a3.19,3.19,0,0,1-4.66,0,3.53,3.53,0,0,1,0-4.84,3.21,3.21,0,0,1,4.66,0,3.45,3.45,0,0,1,1,2.42A3.42,3.42,0,0,1,322.39,465.82Z"/><path class="cls-4" d="M232.67,43.26a52.75,52.75,0,0,0-31.28-10.69,21.42,21.42,0,0,0-9,2.23,21.71,21.71,0,0,1-5.68,1.83c-16.19,2.35-27.5,12.11-27.5,23.74,0,13.74,3.8,15.54,10,17.32a28.06,28.06,0,0,1,6.53,2.56,5.74,5.74,0,0,1,2.37,2.43c1.63,2.67,3.52,4.68,13.09,6.34a7.45,7.45,0,0,0,7-2.4l.46-.42c.86,2,3,2.8,5.18,3.66.65.26,1.34.53,2.07.85q.51.23,1,.51s0,0,.09.1c2.27,3.66,6.74,8.13,8.56,9.89a3.5,3.5,0,0,0,2.43,1h7.51l-4.57-3A4.12,4.12,0,0,1,219,97a.41.41,0,0,1,.34-.15h0a20.12,20.12,0,0,0,19.13-14.67,8,8,0,0,0,.11-3.83s.08-.19.24-.23c4.87-1.22,7.34-4.26,7.34-9C246.11,62.62,239,47.94,232.67,43.26Zm-45.5-3.41a24.37,24.37,0,0,0,6.49-2.06,18.49,18.49,0,0,1,7.73-2c13,0,23.12,5.47,29.36,10.06l.15.13a5.53,5.53,0,0,1-.66,3.94c-.74,1-2.07,1.5-4,1.5a51.85,51.85,0,0,1-6.83-.57c-.33-2.38-1.66-8.79-6.76-10.31a41.23,41.23,0,0,1-9.42-4.24l-1.18,1.81a42.11,42.11,0,0,0,10,4.51c3.51,1,4.74,5.63,5.13,7.93-4.52-.6-8.78-1.06-12.1.33-.49-2.08-1.75-5.74-4.75-7.3a9,9,0,0,0-8.22,0l1.08,1.88a6.82,6.82,0,0,1,6.14,0c2.54,1.33,3.49,5,3.77,6.51-5.06,3.57-11,11.36-11.31,11.7l1.72,1.32c.07-.09,6.5-8.47,11.36-11.61,3-1.94,7.83-1.29,12.94-.59a65.34,65.34,0,0,0,8.45.76c2.63,0,4.56-.8,5.73-2.39a6.26,6.26,0,0,0,1.12-3.09,51.81,51.81,0,0,1,8.63,15.63,9.09,9.09,0,0,1-4.33-.4c-2.17-.74-4.33.53-6.83,2s-5.65,3.36-9.39,3.26c-2.69,0-4.17-3.79-4.72-5.57,7.86-2.62,15.75-4.72,15.88-4.75l-.55-2.1c-.66.18-12.54,3.34-21.71,6.8a14,14,0,0,1-2.15-7.16h-2.16A16,16,0,0,0,208,63.8a47.39,47.39,0,0,0-5.66,2.64c-7.06,4-15.09,4.21-17.55.36-1.55-2.43,4.08-9.34,8.57-13.46l-1.47-1.6a53,53,0,0,0-6.09,6.63c-.62-.34-1.68-.91-2.94-1.55,1.87-1.43,4.78-4,5-6.57a3.47,3.47,0,0,0-1.23-2.94,42.86,42.86,0,0,1-5.47-6.14A44,44,0,0,1,187.17,39.85Zm11.15,42.88a5,5,0,0,0-2.39,1.52c-1.06,1-2.06,1.93-4.17,1.57-7.52-1.31-9.36-2.66-10.37-4.07a39.71,39.71,0,0,0,11.71-3.17,51.62,51.62,0,0,1,14-3.61,15.76,15.76,0,0,1,.14,2.31l2.17,0a22.32,22.32,0,0,0-1.52-8l-2,.84a19.63,19.63,0,0,1,.83,2.7,53.16,53.16,0,0,0-14.48,3.77A37.33,37.33,0,0,1,180,79.69a8.87,8.87,0,0,0-2.67-2.27,25.57,25.57,0,0,0-4.42-2c.16-4,.9-9.12,2.32-10.17L174,63.53c-2.38,1.76-3,7.85-3.17,11.24l-.69-.2c-5.09-1.47-7.65-2.21-7.65-14.2,0-8,6.5-14.94,16.52-18.5a46,46,0,0,0,6.21,7.06,1.3,1.3,0,0,1,.51,1.15c-.13,1.73-2.95,4.23-5,5.64a52.66,52.66,0,0,0-5.19-2.26,4.07,4.07,0,0,0-3.19.19c-2.68,1.31-4.06,5.21-4.2,5.65l2.05.69c.32-1,1.51-3.61,3.1-4.39a1.86,1.86,0,0,1,1.53-.09,87,87,0,0,1,9.77,4.64C182.76,63,181.68,65.9,183,68l0,0c-2.1,1.61-5.31,4.46-5,6.56l2.15-.29c-.06-.69,1.94-2.8,4.34-4.65a11.3,11.3,0,0,0,7.16,2.13,24.38,24.38,0,0,0,11.82-3.41,71.79,71.79,0,0,1,11-4.56c.7,2.26,2.64,7,6.75,7h.21a14.65,14.65,0,0,0,4.55-.75,3.71,3.71,0,0,1-.07,2.59c-.1.16-.4.64-1.68.67-4.83.13-9.25,3.13-10,6.54-6.52,0-10.65,1.23-12.9,2.21l-1.83.42C199.07,82.57,198.69,82.66,198.32,82.73Zm37-1.38c-1.19,4.72-6.58,12.21-16,12.21h0A3.66,3.66,0,0,0,216.33,95a3.48,3.48,0,0,0-.66,1.72,49.41,49.41,0,0,1-5.94-7.16,3.5,3.5,0,0,0-1.28-1.23c-.43-.24-.86-.45-1.28-.64-.77-.34-1.51-.63-2.19-.89-2.61-1-3.39-1.45-3.5-2.48,2.07-1,7.55-3,17.61-2.1,8.75.8,13.75-.78,16.37-2.18A7,7,0,0,1,235.27,81.35ZM238,74.93a3.54,3.54,0,0,0-2.63,2.68c-1.75,1.2-6.37,3.38-16.07,2.49-1-.1-2-.15-2.88-.19.76-2.11,4-4.33,7.82-4.43a3.88,3.88,0,0,0,3.46-1.69,5.89,5.89,0,0,0,.26-4.55,39.92,39.92,0,0,0,3.72-2c2.05-1.2,3.81-2.24,5-1.82a11.23,11.23,0,0,0,5.65.45,13.65,13.65,0,0,1,.5,3.18C242.86,72.32,241.4,74.08,238,74.93Z"/><path class="cls-4" d="M190.87,156.38a3.35,3.35,0,0,1-3-1.75c-10.89-20-21.7-19.23-36.67-18.1a119.73,119.73,0,0,1-13.32.49c-6-.21-9-3.2-10.55-5.67-5.78-9.48,1-28.37,4.41-36.38l-11-3.61a5.19,5.19,0,0,1-1.61-9L143,63.43a.28.28,0,0,0,.12-.23c-2.28-15.06,2.57-35.12,38.62-45.24C218,7.79,246,20.36,260.58,53.34c20.34,46-26.86,72.11-33,75.24a1.85,1.85,0,0,0-.27,1.1c0,4.72,7.9,14.26,13.51,19.54a3.36,3.36,0,1,1-4.6,4.9c-1.6-1.5-15.62-15-15.63-24.43a8.42,8.42,0,0,1,2.62-6.28l.39-.36.48-.23c2-1,49.26-23.87,30.31-66.76C237.7,18.18,206.67,18,183.59,24.43c-25.15,7.06-36.53,19.76-33.8,37.76a7,7,0,0,1-2.59,6.51L125.54,85.85,141,90.92l-1.61,3.44c-4.5,9.56-10.19,27.11-6.29,33.49.61,1,1.79,2.34,5,2.46a110.67,110.67,0,0,0,12.58-.48c14.79-1.12,30.11-2.28,43.07,21.59a3.36,3.36,0,0,1-1.34,4.56A3.42,3.42,0,0,1,190.87,156.38Z"/><polygon class="cls-2" points="21.04 298.24 58.88 267.92 74.37 286.83 154.94 227.74 202.88 240.96 265.89 193.13 321.87 209.39 380.23 175.14 373.47 163.61 320.07 194.95 263.16 178.42 200.06 226.32 152.25 213.13 76.68 268.56 60.85 249.22 11.53 288.74 21.04 298.24"/><rect class="cls-5" x="89.34" y="157.97" width="219.74" height="153.44"/><rect class="cls-2" x="130.4" y="252.56" width="25.25" height="51.26"/><rect class="cls-2" x="166.16" y="218.11" width="25.25" height="85.71"/><rect class="cls-2" x="201.22" y="241.64" width="25.25" height="62.17"/><rect class="cls-2" x="236.42" y="187.75" width="25.25" height="116.06"/><path class="cls-4" d="M249,177a8.23,8.23,0,0,0-6,13.88l-29.17,45.17a8.59,8.59,0,0,0-2.11.29L187.7,218.52a8,8,0,0,0,.32-2.26,8.24,8.24,0,1,0-15.52,3.85l-26.37,25a8.15,8.15,0,0,0-4-.77,8.24,8.24,0,1,0,8.72,7.73,8,8,0,0,0-.59-2.6L177.08,224a8.32,8.32,0,0,0,2.7.46,8.12,8.12,0,0,0,4.28-1.21l22.74,16.87a8.24,8.24,0,1,0,12.76-1.84l29-44.84.52,0A8.24,8.24,0,1,0,249,177Z"/></svg>