<svg id="Layer_1" data-name="Layer 1" xmlns="http://www.w3.org/2000/svg" viewBox="0 0 216 225"><defs><style>.cls-1{fill:#fff;}</style></defs><title>LINKEDLIN</title><path class="cls-1" d="M7.32,13.25V215.14H209.17V13.25Zm59.21,124v46.13c0,2.64,0,2.65-2.62,2.65-8.35,0-16.69,0-25,0-1.88,0-2.5-.55-2.49-2.46q.07-46.23,0-92.45c0-1.92.59-2.43,2.47-2.41,8.41.09,16.82.11,25.23,0,2.08,0,2.49.68,2.49,2.58C66.5,106.62,66.53,121.93,66.53,137.24ZM51.63,74.72A17.55,17.55,0,1,1,69,57.35,17.18,17.18,0,0,1,51.63,74.72ZM177.28,186c-8.28,0-16.56,0-24.84,0-1.9,0-2.47-.6-2.47-2.49q.09-24.43,0-48.89a35.12,35.12,0,0,0-.82-7.79c-2.84-12-13-16.74-24.25-12.16-6.92,2.81-10.61,8.34-11.74,15.6a41.12,41.12,0,0,0-.41,6.47c0,15.57-.06,31.14,0,46.72,0,2-.61,2.57-2.57,2.54-8.41-.09-16.82-.07-25.24,0-1.62,0-2.12-.5-2.12-2.14q.07-46.62,0-93.25c0-.51.05-1,.1-1.88h25.37c2.74,0,2.74,0,2.75,2.84v10.21c5.78-7.73,13.31-11.88,22-14C146,84.8,157.89,86.93,168,96c6.13,5.5,9.57,12.63,10.94,20.66a81,81,0,0,1,1.14,13.11c.12,17.8.05,35.61.05,53.42C180.12,186,180.11,186,177.28,186Z"/></svg>