<svg id="Layer_1" data-name="Layer 1" xmlns="http://www.w3.org/2000/svg" viewBox="0 0 417 396"><defs><style>.cls-1{fill:#1cf445;}.cls-2{fill:#fff;}.cls-3{fill:#2d302e;stroke:#2d302e;stroke-miterlimit:10;stroke-width:0.75px;}</style></defs><title>Logo en círculo</title><ellipse class="cls-1" cx="208.23" cy="198.79" rx="203.33" ry="188.25"/><path class="cls-2" d="M208.23,392C93.38,392-.06,305.32-.06,198.79S93.38,5.58,208.23,5.58,416.52,92.25,416.52,198.79,323.08,392,208.23,392Zm0-376.5C98.85,15.5,9.86,97.72,9.86,198.79s89,183.29,198.37,183.29S406.6,299.86,406.6,198.79,317.61,15.5,208.23,15.5Z"/><path class="cls-3" d="M280.1,189.5a19.63,19.63,0,0,0-28.48,0,21.54,21.54,0,0,0-1.54,27.77l-36,37.42V172.22l25.72-26.72a12.57,12.57,0,0,0,5.79,1.41,12.71,12.71,0,0,0,9.22-4h0a13.91,13.91,0,0,0,0-19.15,12.7,12.7,0,0,0-18.45,0,14,14,0,0,0-2.45,15.58L214.05,160V95.73L229.87,79.3a8.57,8.57,0,0,0,10.26-1.73h0a9.54,9.54,0,0,0,0-13.13,8.7,8.7,0,0,0-12.64,0,9.56,9.56,0,0,0-1.66,10.66L214.05,87.34V22.4H203.37v65l-13-13.51A9.54,9.54,0,0,0,189,62.71a8.7,8.7,0,0,0-12.64,0,9.54,9.54,0,0,0,0,13.13,8.7,8.7,0,0,0,9.76,2l17.28,17.94v63.56l-21.18-22A13.94,13.94,0,0,0,180.13,121a12.7,12.7,0,0,0-18.45,0,13.91,13.91,0,0,0,0,19.15,12.73,12.73,0,0,0,9.23,4,12.6,12.6,0,0,0,5-1l27.44,28.5V254l-36-37.37a21.58,21.58,0,0,0-2.54-26.35,19.63,19.63,0,0,0-28.48,0,21.49,21.49,0,0,0,0,29.58,19.52,19.52,0,0,0,22.94,4.05l44.06,45.76V373.91h10.68V270.36l44.77-46.49a19.49,19.49,0,0,0,21.27-4.8h0a21.5,21.5,0,0,0,0-29.57Zm-37.87-59.59a4.58,4.58,0,0,1,6.65,0,5,5,0,0,1,0,6.91h0a4.58,4.58,0,0,1-6.65,0A5,5,0,0,1,242.23,129.91Zm-10.7-61.27a3.14,3.14,0,0,1,4.56,0,3.42,3.42,0,0,1,0,4.73h0a3.14,3.14,0,0,1-4.56,0A3.45,3.45,0,0,1,231.53,68.64Zm-51.16,3a3.45,3.45,0,0,1,0-4.73,3.14,3.14,0,0,1,4.56,0,3.43,3.43,0,0,1,0,4.73,3.14,3.14,0,0,1-4.56,0Zm-12.79,62.41a5,5,0,0,1,0-6.91,4.58,4.58,0,0,1,6.65,0,5,5,0,0,1,0,6.91,4.58,4.58,0,0,1-6.65,0Zm-22.11,76.38a7.75,7.75,0,0,1,0-10.66,7.06,7.06,0,0,1,10.26,0,7.75,7.75,0,0,1,0,10.66,7.07,7.07,0,0,1-10.27,0ZM271,209.62h0a7.07,7.07,0,0,1-10.27,0,7.77,7.77,0,0,1,0-10.67A7.08,7.08,0,0,1,271,199a7.73,7.73,0,0,1,0,10.66Z"/></svg>