<svg id="Layer_1" data-name="Layer 1" xmlns="http://www.w3.org/2000/svg" viewBox="0 0 495 352"><defs><style>.cls-1{fill:#1dc5f2;}.cls-2,.cls-3,.cls-4,.cls-5,.cls-6,.cls-7,.cls-8,.cls-9{fill:#1d4478;}.cls-3{opacity:0.48;}.cls-4{opacity:0.34;}.cls-5{opacity:0.72;}.cls-6{opacity:0.58;}.cls-7{opacity:0.26;}.cls-8{opacity:0.36;}.cls-9{opacity:0.61;}.cls-10{fill:#fff;}.cls-11{fill:#101111;}.cls-12,.cls-16,.cls-18{fill:none;stroke-miterlimit:10;}.cls-12{stroke:#fff;stroke-width:4px;}.cls-13{fill:#fecf39;}.cls-14{fill:#9e9e9e;}.cls-15{fill:#0d2038;}.cls-16{stroke:#c62020;stroke-width:3px;}.cls-17{fill:#1cf445;}.cls-18{stroke:#000;stroke-width:6px;}.cls-19{fill:#fd434e;}</style></defs><title>Paso 2</title><rect class="cls-1" x="80.99" y="54.32" width="21.72" height="21.72"/><rect class="cls-2" x="124.43" y="54.32" width="21.72" height="21.72"/><rect class="cls-2" x="198.23" y="254.78" width="21.72" height="21.72"/><rect class="cls-2" x="219.95" y="276.5" width="21.72" height="21.72"/><rect class="cls-3" x="405.2" y="43.46" width="21.72" height="21.72"/><rect class="cls-4" x="263.39" y="319.94" width="21.72" height="21.72"/><rect class="cls-5" x="241.67" y="298.22" width="21.72" height="21.72"/><rect class="cls-2" x="263.39" y="276.5" width="21.72" height="21.72"/><rect class="cls-2" x="42.18" y="215.28" width="21.72" height="21.72"/><rect class="cls-6" x="20.46" y="193.56" width="21.72" height="21.72"/><rect class="cls-2" x="42.18" y="171.84" width="21.72" height="21.72"/><rect class="cls-6" x="20.46" y="150.12" width="21.72" height="21.72"/><rect class="cls-3" x="426.92" y="65.18" width="21.72" height="21.72"/><rect class="cls-7" x="124.43" y="10.88" width="21.72" height="21.72"/><rect class="cls-2" x="167.87" y="54.32" width="21.72" height="21.72"/><rect class="cls-6" x="145.72" y="32.6" width="21.72" height="21.72"/><rect class="cls-8" x="459.5" y="160.98" width="21.72" height="21.72"/><rect class="cls-2" x="416.06" y="160.98" width="21.72" height="21.72"/><rect class="cls-9" x="437.78" y="182.7" width="21.72" height="21.72"/><rect class="cls-2" x="416.06" y="204.42" width="21.72" height="21.72"/><rect class="cls-10" x="63.69" y="70.99" width="354.72" height="213.87" rx="16.91" ry="16.91"/><path d="M401.51,73.49A14.43,14.43,0,0,1,415.92,87.9V268a14.43,14.43,0,0,1-14.41,14.41H80.6A14.43,14.43,0,0,1,66.19,268V87.9A14.43,14.43,0,0,1,80.6,73.49H401.51m0-5H80.6A19.41,19.41,0,0,0,61.19,87.9V268A19.41,19.41,0,0,0,80.6,287.36H401.51A19.41,19.41,0,0,0,420.92,268V87.9a19.41,19.41,0,0,0-19.41-19.41Z"/><rect class="cls-11" x="90.52" y="86.32" width="301.08" height="183.19"/><circle class="cls-1" cx="162.06" cy="208.65" r="46.08"/><line class="cls-12" x1="241.05" y1="106.75" x2="372.62" y2="106.75"/><line class="cls-12" x1="241.05" y1="125.36" x2="372.62" y2="125.36"/><line class="cls-12" x1="241.05" y1="143.96" x2="372.62" y2="143.96"/><line class="cls-12" x1="241.05" y1="162.57" x2="372.62" y2="162.57"/><path class="cls-13" d="M150.77,88.1a47.72,47.72,0,1,0-73.68,40.05,13.54,13.54,0,0,1,5,5.74l5.79,12.64h30.43l5.78-12.64a13.4,13.4,0,0,1,4.89-5.7A47.67,47.67,0,0,0,150.77,88.1Z"/><rect class="cls-14" x="84.04" y="150.72" width="37.23" height="10.23"/><rect class="cls-14" x="88.9" y="162.89" width="27.5" height="10.23"/><path class="cls-15" d="M105.06,146.62l-4-.07c-.07-11.73-2-40-9.5-53.09-8.79-.77-16.11-2.45-17.28-4.93-.6-1.25-.38-3,4-4.51a12.08,12.08,0,0,1,10.13.74,16.82,16.82,0,0,1,5.6,5.5,122.78,122.78,0,0,0,15.11.26c1.41-3.34,2.61-4,3.35-4.4,6.38-3.49,12.9-3.86,15.81-2.42a2.81,2.81,0,0,1,1.85,2.75c-.21,2-2.87,3.82-8.12,5.49a48.51,48.51,0,0,1-9.9,1.66C109,103.22,106.22,125.63,105.06,146.62ZM96,93.77c3.71,7.42,5.89,17.74,7.19,27.29l.3-2.66c1.47-12.4,3-19.93,4.42-24.55C104.08,94,100,94,96,93.77Zm28.08-7.53a20.25,20.25,0,0,0-9.42,2.66,3.25,3.25,0,0,0-1.14,1.28,36.43,36.43,0,0,0,7-1.36c3.39-1.07,4.75-2,5.27-2.41A7.4,7.4,0,0,0,124.09,86.24ZM78.5,87.61C80,88.4,84,89.19,88.91,89.77a11.24,11.24,0,0,0-2.76-2.25,7.45,7.45,0,0,0-6.39-.41A9.3,9.3,0,0,0,78.5,87.61Z"/><path class="cls-13" d="M218.45,205.51a56.53,56.53,0,0,0-56.39-52.68v52.68Z"/><polyline class="cls-16" points="189.59 182.7 241.06 182.7 241.06 226.14 273.83 226.14"/><rect class="cls-17" x="273.83" y="193.56" width="98.79" height="54.32" rx="16.47" ry="16.47"/><polyline class="cls-18" points="292.86 220.72 306.83 237 349.24 205.51"/><path class="cls-19" d="M123,184.27l39.1,21.24V162.57A46,46,0,0,0,123,184.27Z"/></svg>