<svg id="Layer_1" data-name="Layer 1" xmlns="http://www.w3.org/2000/svg" viewBox="0 0 356 471"><defs><style>.cls-1{fill:#fff;}.cls-2{fill:#472561;}.cls-3{fill:#fab11e;}.cls-4{fill:#0d2038;}.cls-5{fill:#ffd8ae;}</style></defs><title>Paso 4</title><rect class="cls-1" x="84.34" y="419.91" width="58.01" height="35.58" transform="translate(226.68 875.39) rotate(180)"/><polygon class="cls-2" points="64.81 414.44 84.34 419.9 84.34 455.48 64.81 455.48 64.81 414.44"/><polygon class="cls-1" points="127.14 414.44 64.81 414.44 84.34 419.9 142.34 419.9 127.14 414.44"/><rect class="cls-1" x="211.66" y="296.47" width="59.49" height="159.03"/><polygon class="cls-2" points="294.84 314.92 271.16 296.47 271.16 455.5 294.84 455.5 294.84 314.92"/><path class="cls-3" d="M343.53,452h0a1.27,1.27,0,0,1-1.4-.82L294.21,316.6a1.08,1.08,0,0,1,1.16-1.43h0a1.05,1.05,0,0,1,.87.7l48.28,134.45A1.27,1.27,0,0,1,343.53,452Z"/><polygon class="cls-3" points="312.18 362.14 292.11 361.37 291.37 358.87 311.4 359.74 312.18 362.14"/><polygon class="cls-3" points="321.13 388.01 300.78 388.34 299.99 385.67 320.31 385.45 321.13 388.01"/><polygon class="cls-3" points="315.88 374.71 295.62 374.47 294.85 371.88 315.08 372.23 315.88 374.71"/><path class="cls-3" d="M323.09,455.29l-.25,0a1.26,1.26,0,0,1-1.4-.85L274.79,314a1.07,1.07,0,0,1,1.16-1.4l.23,0a1.06,1.06,0,0,1,.87.72l47,140.29A1.27,1.27,0,0,1,323.09,455.29Z"/><polygon class="cls-3" points="299.06 326.03 279.38 323.84 278.71 321.57 298.36 323.84 299.06 326.03"/><polygon class="cls-3" points="302.69 337.75 283.98 336.1 283.3 333.76 301.97 335.49 302.69 337.75"/><polygon class="cls-3" points="307.21 349.62 287.24 348.34 286.52 345.92 306.47 347.29 307.21 349.62"/><polygon class="cls-3" points="325.12 401.45 304.57 402.38 303.75 399.61 324.27 398.8 325.12 401.45"/><polygon class="cls-3" points="330.69 415.61 310.06 417.19 309.21 414.33 329.81 412.87 330.69 415.61"/><polygon class="cls-3" points="336.11 429.89 315.38 432.15 314.5 429.18 335.19 427.05 336.11 429.89"/><polygon class="cls-3" points="342.03 444.95 321.24 447.95 320.32 444.88 341.08 442.02 342.03 444.95"/><path d="M108.8,414.9s5.69,2,6.5,4.88H101.14l1.52-4.88S103.87,415.88,108.8,414.9Z"/><path d="M112.38,411s5.69,2,6.51,4.89H104.73l1.52-4.89S107.45,412,112.38,411Z"/><path class="cls-4" d="M116.05,383.42s-3.56,24.85-1.6,27.26-6.54,4.44-10,3,3-27,2.64-29.33S114.08,383.65,116.05,383.42Z"/><path class="cls-2" d="M118,372.43s-1.56,13.63-4.77,23.85-1.45,16.68-1.92,17.5-4.73,4.51-10.69,1.53c-1.41-.71,4.93-23.85,4.23-28.19s-1.74-12.24-.59-12.24A131.49,131.49,0,0,0,118,372.43Z"/><path class="cls-5" d="M109.84,334.57c1.11-1.64,1.74-2,1.23-2.9a5.32,5.32,0,0,0-1.8-1.19,7.12,7.12,0,0,0-1-1.41c.87-1.05-.25-1.05-.25-1.05s.64.16-.46.35c-2.16-1.89-5.14-2.17-7-.54-2.1,1.82-2,5.33.14,7.84a6.8,6.8,0,0,0,3.37,2.13,11.84,11.84,0,0,0-.94,3.81l5.28,1.88a48.06,48.06,0,0,1,.93-7.7,4.75,4.75,0,0,0,.47-1.2Z"/><path class="cls-4" d="M100.77,344.7c.93-2.52.59-1.76,1.53-2.94s.36-2.71,2.24-2.13,7.08,3.31,9,8.49,3.3,6.6,3.77,11.79,2.71,6.29,2.71,9.21a6.65,6.65,0,0,1-1.29,4.34s-14.51,2-15.67,2,.84-2.15-1.52-3.57S98.65,350.48,100.77,344.7Z"/><path class="cls-5" d="M113,379.28c.11.85.21,1.26.26,1.63.26,1.82.52,2.63.3,3.15s-.43.37-.7-.71-.6-1.77-.78-1.74a10,10,0,0,0,.78,3.23c.33.59-.34.88-1-.41s-1.26-2.41-1.26-2.41a21.52,21.52,0,0,0,1,3c.29.37-.64.52-.86-.07s-1.11-2.52-1.11-2.52.69,1.92.47,2.11-.76-.85-1.14-2.11a9.36,9.36,0,0,1-.7-3.41c.11-1.07,3.59-2.78,4.59-1.81s1.19.81,1.49,1.37.74,1.59,1.18,1.78-.11.89-.7.4S113,379,113,379.28Z"/><path class="cls-2" d="M113.13,375.72c.59,1.35-4.81,5-6,2.47s-5.47-19-5.63-27,3.17-8.92,5.81-7S110.43,369.5,113.13,375.72Z"/><path d="M104,326.76s-.62-3.48-4.31,0-2.25,6.63,0,9,4.4,2.07,4.4,2.07,1.39-2.21,0-2.67c-1.16-.39-2.42-1.74-1.25-3.09s2.31.18,2.31.18-2-2.24-1.86-3.14S104.28,327.49,104,326.76Z"/><rect class="cls-1" x="36.4" y="429.55" width="42.29" height="25.94" transform="translate(115.09 885.03) rotate(180)"/><polygon class="cls-2" points="22.17 425.56 36.4 429.55 36.4 455.48 22.17 455.48 22.17 425.56"/><polygon class="cls-1" points="67.61 425.56 22.17 425.56 36.4 429.55 78.69 429.55 67.61 425.56"/><path d="M52.1,425.43s5.69,2,6.5,4.89H44.44L46,425.43S47.17,426.42,52.1,425.43Z"/><path d="M55.68,421.56s5.69,2,6.51,4.88H48l1.53-4.88S50.75,422.54,55.68,421.56Z"/><path class="cls-4" d="M59.35,394s-3.56,24.84-1.61,27.26-6.53,4.44-10,3,3-27,2.64-29.33S57.38,394.19,59.35,394Z"/><path class="cls-3" d="M61.25,383s-1.56,13.63-4.77,23.85S55,423.5,54.55,424.32s-4.72,4.51-10.69,1.53c-1.4-.71,4.94-23.85,4.23-28.2s-1.73-12.23-.58-12.23A132.42,132.42,0,0,0,61.25,383Z"/><path class="cls-5" d="M53.14,345.11c1.1-1.64,1.73-2,1.23-2.9a5.42,5.42,0,0,0-1.8-1.19,7.12,7.12,0,0,0-1-1.41c.86-1.05-.25-1.05-.25-1.05s.64.16-.46.35c-2.17-1.89-5.15-2.17-7-.54-2.1,1.82-2,5.33.13,7.83a6.78,6.78,0,0,0,3.38,2.14,11.84,11.84,0,0,0-.94,3.81L51.73,354a46.87,46.87,0,0,1,.93-7.7,4.75,4.75,0,0,0,.47-1.2Z"/><path class="cls-4" d="M44.07,355.24c.93-2.52.59-1.77,1.53-2.95s.36-2.71,2.24-2.12,7.07,3.3,9,8.49,3.3,6.6,3.77,11.79,2.71,6.29,2.71,9.21A6.65,6.65,0,0,1,62,384s-14.51,2-15.68,2,.85-2.15-1.51-3.57S42,361,44.07,355.24Z"/><path class="cls-5" d="M56.28,389.82c.11.85.21,1.25.26,1.63.26,1.82.52,2.63.3,3.15s-.43.37-.7-.71-.6-1.78-.79-1.74a10.18,10.18,0,0,0,.79,3.22c.33.6-.34.89-1-.4s-1.26-2.41-1.26-2.41a21.52,21.52,0,0,0,1,3c.29.37-.64.52-.86-.07s-1.11-2.52-1.11-2.52.69,1.92.47,2.11-.77-.85-1.14-2.11a9.36,9.36,0,0,1-.7-3.41c.11-1.07,3.59-2.78,4.59-1.81s1.19.81,1.48,1.37.74,1.59,1.19,1.77-.11.89-.7.41S56.25,389.58,56.28,389.82Z"/><path class="cls-2" d="M56.43,386.26c.59,1.35-4.81,5.05-6,2.47s-5.47-19-5.64-27,3.18-8.92,5.82-7S53.73,380,56.43,386.26Z"/><path d="M47.3,337.3s-.63-3.48-4.31,0-2.25,6.63,0,9,4.4,2.07,4.4,2.07,1.39-2.21,0-2.67c-1.17-.39-2.42-1.74-1.26-3.09s2.32.18,2.32.18-2-2.25-1.87-3.14S47.58,338,47.3,337.3Z"/><path class="cls-5" d="M299.79,327.11c-.33-.86-.52-1.27-.67-1.64a13.3,13.3,0,0,1-1.12-3.13c0-.47.24-.28.75.82a5.46,5.46,0,0,0,1.12,1.84,18.16,18.16,0,0,0-1.54-3.29c-.42-.64,0-.8.95.59s1.68,2.59,1.68,2.59-1.33-2.67-1.67-3.09.36-.38.71.24,1.59,2.66,1.59,2.66a11,11,0,0,1-1-2.14c.13-.14.85,1,1.5,2.27a16.64,16.64,0,0,1,1.52,3.46c.21,1-2.08,2-3.14.91s-1.17-1-1.56-1.62a9.68,9.68,0,0,0-1.45-2c-.4-.26-.16-.85.45-.26A17.11,17.11,0,0,0,299.79,327.11Z"/><path class="cls-4" d="M317.16,345c1.73,1.54-7.88,4.77-11.79-3.26A125,125,0,0,1,300,329.51l4.1-1.63S312.35,340.72,317.16,345Z"/><path d="M312.33,400.35s-4,1.64-4.53,3.72l10.19-.44-1.24-3.47S315.91,400.91,312.33,400.35Z"/><path d="M316.56,410.15s-4,1.63-4.53,3.72l10.2-.45L321,410S320.15,410.7,316.56,410.15Z"/><path class="cls-5" d="M306.82,337.56c-1.36-1.61-2.11-2-1.57-2.88a6.48,6.48,0,0,1,2.06-1.3,7.17,7.17,0,0,1,1.05-1.48c-1.06-1,.24-1.08.24-1.08s-.74.19.56.33c2.44-2,5.91-2.46,8.19-.9,2.53,1.74,2.62,5.3.19,8a8.11,8.11,0,0,1-3.85,2.33,11,11,0,0,1,1.27,3.82l-6.09,2.18a42.39,42.39,0,0,0-1.43-7.77,4.33,4.33,0,0,1-.61-1.19Z"/><path class="cls-4" d="M315,365.55s13.2,2.6,12.88,3.73-8,12.48-7.12,18.4,3.25,21.09,2.37,22.25-9.17,3.57-9.31.4-.93-17.08-1.26-20.24S314.18,375,314.18,375s-1.16,9.29-2.33,12.16,7.49,10.74,5.53,12.87-7.71,2.76-8.73.76-7.11-12.22-4.85-16.44C307,378.36,312.63,366,315,365.55Z"/><path class="cls-3" d="M318.41,367.66s9.83.49,9.51,1.62-8,12.48-7.12,18.4,3.25,21.09,2.37,22.25-9.17,3.57-9.31.4-1.82-17.58-1.59-20.74C313.82,368.36,316.49,368.39,318.41,367.66Z"/><path class="cls-2" d="M315.77,341.77c3.24,1.28,16,12.25,12.15,27.51-.79,3.18-13.61,2.09-14.5-6.45s-3.21-10.41-5.55-12.68S308.94,339.09,315.77,341.77Z"/><path d="M312,329.63s2.25-4.36,6.15-1,2.57,6.63.39,9.1-4.37,2.3-4.37,2.3-1.51-2.18-.12-2.71c1.16-.45,2.38-1.87,1.14-3.19s-2.34.28-2.34.28a13.27,13.27,0,0,0,1.68-2.78C314.76,330.72,315,329.8,312,329.63Z"/><path class="cls-5" d="M298.87,369.23a10.16,10.16,0,0,0-1.88,3c-.64,1.71-.63,3.41-1.33,3.65s-2.91-4-1.24-6.49,2.65-4,3.82-3.5S300.08,367.58,298.87,369.23Z"/><path class="cls-2" d="M308.47,344.24c1.08-2,7.18,2.36,2.75,10.12s-12,14.6-12,14.6l-2.89-3.29S301.64,357.09,308.47,344.24Z"/><rect class="cls-1" x="93.51" y="266.71" width="38.32" height="7.03" transform="translate(-70.41 41.75) rotate(-16.07)"/><path class="cls-1" d="M98.76,281.62A11,11,0,1,1,86.1,265.74a11,11,0,0,1,13.61,7.52h0A10.94,10.94,0,0,1,98.76,281.62Zm-13.09-7.23a4,4,0,1,0,7.28.82,4,4,0,0,0-7.28-.82Z"/><rect class="cls-1" x="59.61" y="251.5" width="7.03" height="38.32" transform="translate(-214.39 255.71) rotate(-73.79)"/><path class="cls-1" d="M45.28,272.86a11,11,0,1,1,5.26-6.56h0A10.91,10.91,0,0,1,45.28,272.86Zm-7.21-13.1a4,4,0,1,0,3-.34A3.94,3.94,0,0,0,38.07,259.76Z"/><rect class="cls-1" x="57.53" y="202.6" width="7.03" height="38.32" transform="translate(-167.18 250.35) rotate(-81.75)"/><path class="cls-1" d="M43.67,226.42a11,11,0,1,1,4.3-7.23h0A10.94,10.94,0,0,1,43.67,226.42Zm-9-12A4,4,0,0,0,33.17,217a4,4,0,0,0,.75,2.94,4,4,0,0,0,5.55.8,4,4,0,0,0-4.75-6.35Z"/><rect class="cls-1" x="116.09" y="245.24" width="38.32" height="7.03" transform="translate(-135.69 330.98) rotate(-78.35)"/><rect class="cls-1" x="106.56" y="167.84" width="38.32" height="7.03" transform="translate(-35.79 33.22) rotate(-13.19)"/><path class="cls-1" d="M111.25,182a11,11,0,1,1,1.36-8.3h0A10.91,10.91,0,0,1,111.25,182Zm-12.71-7.88a4,4,0,1,0,7.23,1.18,4,4,0,0,0-7.23-1.18Z"/><rect class="cls-1" x="84.16" y="147.56" width="5.25" height="28.6" transform="translate(-91.34 117.11) rotate(-47.7)"/><path class="cls-1" d="M74.09,157.48a8.21,8.21,0,1,1,5.68-2.68h0A8.17,8.17,0,0,1,74.09,157.48Zm-.52-11.15a3,3,0,0,0-2.82,3.09,2.93,2.93,0,0,0,1,2.05,3,3,0,0,0,2.12.77,2.93,2.93,0,0,0,2-1,3,3,0,0,0-.19-4.18A2.94,2.94,0,0,0,73.57,146.33Z"/><rect class="cls-1" x="106.84" y="106.72" width="5.08" height="27.7" transform="translate(-43.61 64.92) rotate(-27.8)"/><path class="cls-1" d="M99.26,112.4a8,8,0,1,1,6.06-.56h0A7.89,7.89,0,0,1,99.26,112.4Zm3.2-10.33A2.86,2.86,0,0,0,98.88,104a2.8,2.8,0,0,0,.2,2.18,2.87,2.87,0,1,0,3.38-4.07Z"/><rect class="cls-1" x="55.55" y="195.19" width="5.08" height="27.7" transform="translate(-90.78 51.21) rotate(-27.8)"/><path class="cls-1" d="M48,200.87a7.95,7.95,0,1,1,6.06-.56h0A7.89,7.89,0,0,1,48,200.87Zm3.2-10.33a2.85,2.85,0,0,0-2.18.2,2.88,2.88,0,0,0-1.41,1.69,2.85,2.85,0,0,0,.21,2.18,2.78,2.78,0,0,0,1.68,1.4,2.83,2.83,0,0,0,2.19-.2,2.86,2.86,0,0,0-.49-5.27Z"/><rect class="cls-1" x="217.29" y="251.07" width="7.03" height="38.32" transform="translate(-99.99 407.59) rotate(-73.93)"/><path class="cls-1" d="M233.77,273.26h0a11,11,0,1,1,.94,8.36A11,11,0,0,1,233.77,273.26Zm11.66-.76a4,4,0,0,0-4.9,2.71,3.86,3.86,0,0,0,.34,3,4,4,0,0,0,5.38,1.56,3.94,3.94,0,0,0,1.89-2.38,4,4,0,0,0-2.71-4.9Z"/><rect class="cls-1" x="251.2" y="267.14" width="38.32" height="7.03" transform="matrix(0.96, -0.28, 0.28, 0.96, -64.81, 86.24)"/><path class="cls-1" d="M282.94,266.3h0a11,11,0,0,1,7.49-13.63,11,11,0,1,1-7.49,13.63Zm9.45-6.88a4,4,0,0,0-2.7,4.92,4,4,0,1,0,2.7-4.92Z"/><rect class="cls-1" x="253.28" y="218.24" width="38.32" height="7.03" transform="translate(-29 41.39) rotate(-8.25)"/><path class="cls-1" d="M285.5,219.19h0a11,11,0,1,1,4.31,7.23A11,11,0,0,1,285.5,219.19Zm10.31-5.5a4,4,0,0,0-3.35,4.49,4,4,0,1,0,3.35-4.49Z"/><rect class="cls-1" x="194.71" y="229.59" width="7.03" height="38.32" transform="translate(-46.15 45.16) rotate(-11.65)"/><path class="cls-1" d="M194.88,235.86h0a11,11,0,1,1,7-4.72A11,11,0,0,1,194.88,235.86Zm-6.1-10a4,4,0,0,0,7.19,1.38,3.92,3.92,0,0,0,.58-3,4,4,0,0,0-7.77,1.6Z"/><path class="cls-1" d="M142.94,235.86h0a11,11,0,1,1-4.44-21.53,11,11,0,1,1,4.44,21.53Zm-6.1-10a4,4,0,1,0,.57-3A3.86,3.86,0,0,0,136.84,225.89Z"/><rect class="cls-1" x="204.25" y="152.19" width="7.03" height="38.32" transform="translate(-6.49 334.52) rotate(-76.81)"/><path class="cls-1" d="M220.87,173.74h0a11,11,0,1,1,1.36,8.3A11,11,0,0,1,220.87,173.74Zm11.6-1.35a4,4,0,1,0,1.19,7.22,3.9,3.9,0,0,0,1.77-2.46,4,4,0,0,0-3-4.76Z"/><rect class="cls-1" x="232.4" y="159.23" width="28.6" height="5.25" transform="translate(-44.7 208.16) rotate(-42.3)"/><path class="cls-1" d="M253.7,154.8h0a8.19,8.19,0,1,1,5.69,2.68A8.22,8.22,0,0,1,253.7,154.8Zm4.08-7.71a3,3,0,1,0,4,4.38,2.93,2.93,0,0,0,1-2.05,3,3,0,0,0-2.82-3.09A2.94,2.94,0,0,0,257.78,147.09Z"/><rect class="cls-1" x="210.25" y="118.03" width="27.7" height="5.08" transform="translate(12.93 262.58) rotate(-62.2)"/><path class="cls-1" d="M228.16,111.84h0a8,8,0,0,1-3.33-10.74,7.95,7.95,0,1,1,3.33,10.74Zm1.17-8.37a2.86,2.86,0,1,0,1.68-1.4A2.82,2.82,0,0,0,229.33,103.47Z"/><rect class="cls-1" x="261.53" y="206.5" width="27.7" height="5.08" transform="translate(-37.96 355.16) rotate(-62.2)"/><path class="cls-1" d="M279.44,200.31h0a8,8,0,0,1-3.32-10.74,7.95,7.95,0,1,1,3.32,10.74Zm1.17-8.37a2.86,2.86,0,0,0,1.2,3.87,2.87,2.87,0,0,0,2.67-5.07,2.87,2.87,0,0,0-3.87,1.2Z"/><rect class="cls-1" x="160.49" y="3.73" width="13.72" height="451.09"/><path class="cls-1" d="M92.68,255.71a25.88,25.88,0,1,1,18.3-7.58h0A25.71,25.71,0,0,1,92.68,255.71Zm0-35.21a9.33,9.33,0,1,0,6.6,2.73A9.3,9.3,0,0,0,92.68,220.5Z"/><path class="cls-1" d="M240.8,254.7a25.88,25.88,0,1,1,18.3-7.58h0A25.71,25.71,0,0,1,240.8,254.7Zm0-35.2a9.33,9.33,0,1,0,6.59,15.92h0a9.33,9.33,0,0,0-6.6-15.92Z"/><rect class="cls-1" x="158.58" y="162.62" width="58.43" height="10.72" transform="translate(-63.77 181.99) rotate(-45)"/><rect class="cls-1" x="138.88" y="135.33" width="10.72" height="58.43" transform="translate(-74.1 150.19) rotate(-45)"/><path class="cls-1" d="M118.77,154.39a16.76,16.76,0,1,1,11.85-4.91h0A16.65,16.65,0,0,1,118.77,154.39Zm0-22.81a6,6,0,1,0,4.27,1.77A6,6,0,0,0,118.77,131.58Z"/><path class="cls-1" d="M214.71,157.82a16.76,16.76,0,1,1,11.85-4.91h0A16.62,16.62,0,0,1,214.71,157.82Zm0-22.8a6,6,0,0,0-4.27,1.77,6,6,0,1,0,8.54,8.54h0A6,6,0,0,0,214.71,135Z"/><rect class="cls-1" x="161.15" y="78.66" width="40.04" height="7.35" transform="translate(-5.15 152.22) rotate(-45)"/><rect class="cls-1" x="147.65" y="60.17" width="7.35" height="40.04" transform="translate(-12.38 130.49) rotate(-45)"/><path class="cls-1" d="M133.86,73.23A11.49,11.49,0,1,1,142,69.87h0A11.42,11.42,0,0,1,133.86,73.23Zm0-15.63a4.14,4.14,0,1,0,2.93,1.21A4.15,4.15,0,0,0,133.86,57.6Z"/><path class="cls-1" d="M199.61,75.37A11.47,11.47,0,1,1,207.74,72h0A11.42,11.42,0,0,1,199.61,75.37Zm0-15.63A4.08,4.08,0,0,0,196.69,61a4.13,4.13,0,0,0,0,5.85,4.12,4.12,0,0,0,5.85,0h0a4.15,4.15,0,0,0-2.93-7.07Z"/><rect class="cls-1" x="128.07" y="227.96" width="13.72" height="93.11" transform="translate(-154.59 175.82) rotate(-45)"/><rect class="cls-1" x="155.05" y="266.65" width="93.11" height="13.72" transform="translate(-134.35 222.65) rotate(-45)"/></svg>