<svg id="Layer_1" data-name="Layer 1" xmlns="http://www.w3.org/2000/svg" viewBox="0 0 508 372"><defs><style>.cls-1{fill:#fab11e;}.cls-2{stroke:#fff;stroke-width:5px;}.cls-2,.cls-4{stroke-miterlimit:10;}.cls-3,.cls-4{fill:#fff;}.cls-4{stroke:#000;stroke-width:4px;}.cls-5{fill:#2d302e;}.cls-6{fill:#163659;}.cls-7{fill:#472561;}</style></defs><title>Paso 3</title><rect class="cls-1" x="247.47" y="282.24" width="21.74" height="32.69" rx="10.29" ry="10.29" transform="translate(431.86 -56.08) rotate(66.94)"/><path d="M301.16,114.46A12.42,12.42,0,0,0,282.64,131l-22.23,22.24v-49l15.87-15.87a8.08,8.08,0,0,0,3.57.84,8,8,0,0,0,5.69-2.36h0a8,8,0,1,0-12.89-2.12L260.41,96.91V58.75L270.17,49a5.44,5.44,0,0,0,6.34-1h0a5.52,5.52,0,1,0-8.83-1.47l-7.27,7.28V15.19h-6.58V53.8l-8-8a5.51,5.51,0,0,0-.86-6.64,5.51,5.51,0,1,0-3.9,9.41,5.69,5.69,0,0,0,2.13-.42l10.66,10.66V96.55L240.76,83.48a8.07,8.07,0,0,0-1.27-9.71,8,8,0,1,0-5.69,13.74,7.86,7.86,0,0,0,3.09-.62l16.94,16.93v49l-22.2-22.2a12.42,12.42,0,1,0-19.14,1.92,12.38,12.38,0,0,0,14.15,2.41l27.19,27.18v69.63h6.58V162.5L288,134.88A12.38,12.38,0,0,0,301.16,132h0a12.42,12.42,0,0,0,0-17.57ZM277.8,79.06a2.88,2.88,0,0,1,2.05-.85,2.85,2.85,0,0,1,2,.85,2.9,2.9,0,0,1,0,4.1h0a2.85,2.85,0,0,1-2,.85,2.9,2.9,0,0,1-2.05-5Zm-6.6-36.4a2,2,0,0,1,1.41-.58,2,2,0,0,1,2,2,2,2,0,0,1-.58,1.41h0a2,2,0,0,1-1.4.58,2,2,0,0,1-1.41-3.39Zm-31.56,1.78a2,2,0,0,1,1.4-3.39,2,2,0,0,1,1.41.58,2,2,0,0,1,0,2.81A2,2,0,0,1,241,45,1.93,1.93,0,0,1,239.64,44.44Zm-7.9,37.08a2.93,2.93,0,0,1-.85-2.06,2.89,2.89,0,0,1,.86-2,2.85,2.85,0,0,1,2.05-.85,2.88,2.88,0,0,1,2,.85,2.91,2.91,0,0,1-4.11,4.11Zm-13.63,45.37a4.48,4.48,0,0,1,6.33-6.33,4.49,4.49,0,0,1-3.17,7.65A4.43,4.43,0,0,1,218.11,126.89Zm77.43-.48h0a4.48,4.48,0,0,1-6.33,0,4.49,4.49,0,0,1,3.17-7.65,4.48,4.48,0,0,1,3.16,7.65Z"/><path class="cls-2" d="M352.74,185.08l29.07,101.17s-58.57,39.58-61.89,39.58S173.39,276.93,190.5,240c7.43-16,13.71-26.34,30.51-37.41s39.28-28.28,54.33-27.3,46.34,16.42,50.83,16.42S352.74,185.08,352.74,185.08Z"/><rect class="cls-2" x="173.71" y="302.52" width="22.93" height="32.69" rx="11.1" ry="11.1" transform="translate(184.24 -49.87) rotate(30)"/><rect class="cls-2" x="153.27" y="287.87" width="21.74" height="32.69" rx="10.29" ry="10.29" transform="translate(191.92 -40.34) rotate(32.96)"/><rect class="cls-2" x="130.27" y="270.06" width="21.74" height="32.69" rx="10.29" ry="10.29" transform="translate(84.44 -27.81) rotate(16)"/><path class="cls-3" d="M231.65,347a17,17,0,0,1-4.82-.75c-10.9-3.27-77.86-48.82-95-72-6-8.1-11.12-16-12.8-18.65l34.51-73.49c6.39,1.49,29.77,6.85,36.56,6.85h.28c12.43-.28,45.3-.7,59.78-.88l-34.81,22.2-.25.41c-8.2,13.82-17.94,30.92-17.74,33.93.32,4.71,4,13.62,15.74,13.62a23.06,23.06,0,0,0,2.32-.11c8.79-.81,14.63-9.05,19.33-15.67,2.33-3.28,5-7,6.54-7.26,5.31-.88,31.25-3.24,36.51-3.72,10.46,10.47,9.9,12.33,9,15.39s-2.3,7.59,2.3,18.33c4.22,9.84,17.9,21.83,31.13,33.42,10.31,9,20.08,17.6,22.69,23-1.76,3.68-6.15,10.86-14.59,13.58a21.29,21.29,0,0,1-6.6,1,29.18,29.18,0,0,1-9.16-1.6c-.73-.31-3.23-2.84-5.31-5.4l-1.76-2.16L304,329.43c-.07.11-7.27,11.33-16.74,11.33H287a17.11,17.11,0,0,1-14-7.27l-2.37-3.95L269.36,334c-.12.4-3,9.9-11.66,10.41-.62,0-1.2.05-1.77.05-7.66,0-10.57-3.07-10.69-3.2l-1.83-2L242,341.54A12.37,12.37,0,0,1,231.65,347Z"/><path d="M154.63,184.42c8.25,1.91,28.86,6.53,35.44,6.53h.33c10.68-.24,36.51-.59,52.74-.79l-28.5,18.17-.8.51-.49.82c0,.08-4.49,7.57-8.85,15.34-9.37,16.67-9.26,18.3-9.16,19.74.35,5.36,4.52,15.49,17.73,15.49.81,0,1.65,0,2.5-.12,9.7-.89,16.11-9.91,20.78-16.5,1.68-2.36,4.2-5.92,5.34-6.46,5.19-.84,28.52-3,35.32-3.6,4.37,4.42,6.95,7.56,7.88,9.57.54,1.16.45,1.46-.06,3.15-1.28,4.2-2.14,9.18,2.37,19.71,4.4,10.26,18.25,22.4,31.65,34.14,9.23,8.08,18.74,16.42,21.76,21.53-1.86,3.58-5.86,9.37-13,11.66a19.38,19.38,0,0,1-6,.92,26.89,26.89,0,0,1-8.31-1.43,34.75,34.75,0,0,1-4.61-4.83l-3.51-4.29-3,4.68c-.07.1-6.71,10.4-15,10.4H287a15.11,15.11,0,0,1-12.32-6.3L270,324.69l-2.59,8.71c-.1.35-2.62,8.56-9.86,9-.56,0-1.11.05-1.65.05-6.2,0-8.8-2.17-9.19-2.53l-3.42-4.52-3,5.15a10.49,10.49,0,0,1-8.65,4.49,14.64,14.64,0,0,1-4.24-.67c-4.89-1.47-23.06-12.54-45-28.54-24-17.5-41.85-33.08-49-42.76-5.36-7.25-10-14.37-12.12-17.61l33.35-71m-2.24-4.64-35.67,75.95s6,9.65,13.47,19.7c16.95,22.91,84,69.14,96.07,72.75a18.44,18.44,0,0,0,5.39.84,14.47,14.47,0,0,0,12.1-6.46s3.34,3.87,12.18,3.87q.9,0,1.89-.06c10.25-.6,13.46-11.85,13.46-11.85A19.12,19.12,0,0,0,287,342.76h.26c10.72,0,18.43-12.26,18.43-12.26s4.42,5.42,6.23,6a31.09,31.09,0,0,0,9.79,1.7,23.25,23.25,0,0,0,7.21-1.11c10.73-3.47,15.26-13.4,16.16-15.47-4.7-12.5-46.6-39.6-54.16-57.25-9.86-23,9-13.85-12.36-35,0,0-31.56,2.81-37.59,3.82s-12.66,21.71-25.72,22.91c-.75.07-1.46.1-2.14.1-11.22,0-13.55-8.91-13.74-11.76-.2-3,17.46-32.77,17.46-32.77L257.12,186s-50.56.61-66.81,1h-.24c-7.58,0-37.68-7.17-37.68-7.17Z"/><polygon class="cls-4" points="411.57 286.89 383.34 294.67 349.11 173.88 374.38 166.09 411.57 286.89"/><polygon class="cls-5" points="106.06 284.5 79.96 271.23 136.06 158.91 159.98 170.19 106.06 284.5"/><path class="cls-6" d="M485.61,277.64,416,299.43,373.27,159l63.19-18.31C447,154.18,455.85,173,466.19,197.23A251.34,251.34,0,0,1,485.61,277.64Z"/><path class="cls-7" d="M16.32,248.71l71,35.79,63-127.34L89.61,126.88A220.45,220.45,0,0,0,47,174.72,216.86,216.86,0,0,0,16.32,248.71Z"/><polygon class="cls-3" points="124.13 144.55 113.62 138.81 124.13 133.06 129.87 122.56 135.62 133.06 146.12 138.81 135.62 144.55 129.87 155.05 124.13 144.55"/><path d="M129.87,126.73l4.27,7.81,7.81,4.27-7.81,4.27-4.27,7.81-4.27-7.81-7.81-4.27,7.81-4.27,4.27-7.81m0-8.34-3.51,6.42-3.71,6.78-6.78,3.71-6.42,3.51,6.42,3.51,6.78,3.7,3.71,6.79,3.51,6.41,3.51-6.41,3.71-6.79,6.78-3.7,6.42-3.51-6.42-3.51-6.78-3.71-3.71-6.78-3.51-6.42Z"/><polygon class="cls-3" points="146.37 162.83 139.19 158.91 146.37 154.98 150.29 147.81 154.21 154.98 161.39 158.91 154.21 162.83 150.29 170 146.37 162.83"/><path d="M150.29,152l2.45,4.48,4.48,2.46-4.48,2.45-2.45,4.48-2.45-4.48-4.48-2.45,4.48-2.46,2.45-4.48m0-8.33-3.51,6.42-1.89,3.45-3.45,1.89L135,158.91l6.42,3.5,3.45,1.89,1.89,3.46,3.51,6.41,3.51-6.41,1.89-3.46,3.45-1.89,6.42-3.5-6.42-3.51-3.45-1.89-1.89-3.45-3.51-6.42Z"/><polygon class="cls-3" points="412.64 295.49 402.14 289.75 412.64 284 418.39 273.5 424.13 284 434.64 289.75 424.13 295.49 418.39 306 412.64 295.49"/><path d="M418.39,277.67l4.27,7.81,7.81,4.27L422.66,294l-4.27,7.81L414.12,294l-7.81-4.27,7.81-4.27,4.27-7.81m0-8.34-3.51,6.42-3.71,6.78-6.78,3.71L398,289.75l6.42,3.51,6.78,3.71,3.71,6.78,3.51,6.41,3.51-6.41,3.71-6.78,6.78-3.71,6.41-3.51-6.41-3.51-6.78-3.71-3.71-6.78-3.51-6.42Z"/><polygon class="cls-3" points="439.48 307.6 432.31 303.67 439.48 299.75 443.41 292.57 447.33 299.75 454.51 303.67 447.33 307.6 443.41 314.77 439.48 307.6"/><path d="M443.41,296.74l2.45,4.48,4.48,2.45-4.48,2.45-2.45,4.48L441,306.12l-4.48-2.45,4.48-2.45,2.45-4.48m0-8.34-3.51,6.42L438,298.27l-3.45,1.89-6.42,3.51,6.42,3.51,3.45,1.89,1.89,3.45,3.51,6.42,3.51-6.42,1.88-3.45,3.46-1.89,6.41-3.51-6.41-3.51-3.46-1.89-1.88-3.45-3.51-6.42Z"/></svg>