<svg id="Layer_1" data-name="Layer 1" xmlns="http://www.w3.org/2000/svg" viewBox="0 0 495 352"><defs><style>.cls-1{fill:#1dc5f2;}.cls-2,.cls-3,.cls-4,.cls-5,.cls-6,.cls-7,.cls-8,.cls-9{fill:#1d4478;}.cls-3{opacity:0.48;}.cls-4{opacity:0.34;}.cls-5{opacity:0.72;}.cls-6{opacity:0.58;}.cls-7{opacity:0.26;}.cls-8{opacity:0.36;}.cls-9{opacity:0.61;}.cls-10{fill:#fff;}.cls-11{fill:#101111;}.cls-12,.cls-16,.cls-18{fill:none;stroke-miterlimit:10;}.cls-12{stroke:#fff;stroke-width:4px;}.cls-13{fill:#fecf39;}.cls-14{fill:#9e9e9e;}.cls-15{fill:#0d2038;}.cls-16{stroke:#c62020;stroke-width:3px;}.cls-17{fill:#1cf445;}.cls-18{stroke:#000;stroke-width:6px;}.cls-19{fill:#fd434e;}</style></defs><title>Paso 2</title><rect class="cls-1" x="76.99" y="58.32" width="21.72" height="21.72"/><rect class="cls-2" x="120.43" y="58.32" width="21.72" height="21.72"/><rect class="cls-2" x="194.23" y="258.78" width="21.72" height="21.72"/><rect class="cls-2" x="215.95" y="280.5" width="21.72" height="21.72"/><rect class="cls-3" x="401.2" y="47.46" width="21.72" height="21.72"/><rect class="cls-4" x="259.39" y="323.94" width="21.72" height="21.72"/><rect class="cls-5" x="237.67" y="302.22" width="21.72" height="21.72"/><rect class="cls-2" x="259.39" y="280.5" width="21.72" height="21.72"/><rect class="cls-2" x="38.18" y="219.28" width="21.72" height="21.72"/><rect class="cls-6" x="16.46" y="197.56" width="21.72" height="21.72"/><rect class="cls-2" x="38.18" y="175.84" width="21.72" height="21.72"/><rect class="cls-6" x="16.46" y="154.12" width="21.72" height="21.72"/><rect class="cls-3" x="422.92" y="69.18" width="21.72" height="21.72"/><rect class="cls-7" x="120.43" y="14.88" width="21.72" height="21.72"/><rect class="cls-2" x="163.87" y="58.32" width="21.72" height="21.72"/><rect class="cls-6" x="141.72" y="36.6" width="21.72" height="21.72"/><rect class="cls-8" x="455.5" y="164.98" width="21.72" height="21.72"/><rect class="cls-2" x="412.06" y="164.98" width="21.72" height="21.72"/><rect class="cls-9" x="433.78" y="186.7" width="21.72" height="21.72"/><rect class="cls-2" x="412.06" y="208.42" width="21.72" height="21.72"/><rect class="cls-10" x="57.19" y="72.49" width="359.72" height="218.87" rx="19.41" ry="19.41"/><rect class="cls-11" x="86.52" y="90.32" width="301.08" height="183.19"/><circle class="cls-1" cx="158.06" cy="212.65" r="46.08"/><line class="cls-12" x1="237.05" y1="110.75" x2="368.62" y2="110.75"/><line class="cls-12" x1="237.05" y1="129.36" x2="368.62" y2="129.36"/><line class="cls-12" x1="237.05" y1="147.96" x2="368.62" y2="147.96"/><line class="cls-12" x1="237.05" y1="166.57" x2="368.62" y2="166.57"/><path class="cls-13" d="M146.77,92.1a47.72,47.72,0,1,0-73.68,40.05,13.54,13.54,0,0,1,5,5.74l5.79,12.64h30.43l5.78-12.64a13.4,13.4,0,0,1,4.89-5.7A47.67,47.67,0,0,0,146.77,92.1Z"/><rect class="cls-14" x="80.04" y="154.72" width="37.23" height="10.23"/><rect class="cls-14" x="84.9" y="166.89" width="27.5" height="10.23"/><path class="cls-15" d="M101.06,150.62l-4-.07c-.07-11.73-2-40-9.5-53.09-8.79-.77-16.11-2.45-17.28-4.93-.6-1.25-.38-3,4-4.51a12.08,12.08,0,0,1,10.13.74,16.82,16.82,0,0,1,5.6,5.5,122.78,122.78,0,0,0,15.11.26c1.41-3.34,2.61-4,3.35-4.4,6.38-3.49,12.9-3.86,15.81-2.42a2.81,2.81,0,0,1,1.85,2.75c-.21,2-2.87,3.82-8.12,5.49a48.51,48.51,0,0,1-9.9,1.66C105,107.22,102.22,129.63,101.06,150.62ZM92,97.77c3.71,7.42,5.89,17.74,7.19,27.29l.3-2.66c1.47-12.4,3-19.93,4.42-24.55C100.08,98,96,98,92,97.77Zm28.08-7.53a20.25,20.25,0,0,0-9.42,2.66,3.25,3.25,0,0,0-1.14,1.28,36.43,36.43,0,0,0,7-1.36c3.39-1.07,4.75-2,5.27-2.41A7.4,7.4,0,0,0,120.09,90.24ZM74.5,91.61C76,92.4,80,93.19,84.91,93.77a11.24,11.24,0,0,0-2.76-2.25,7.45,7.45,0,0,0-6.39-.41A9.3,9.3,0,0,0,74.5,91.61Z"/><path class="cls-13" d="M214.45,209.51a56.53,56.53,0,0,0-56.39-52.68v52.68Z"/><polyline class="cls-16" points="185.59 186.7 237.06 186.7 237.06 230.14 269.83 230.14"/><rect class="cls-17" x="269.83" y="197.56" width="98.79" height="54.32" rx="16.47" ry="16.47"/><polyline class="cls-18" points="288.86 224.72 302.83 241 345.24 209.51"/><path class="cls-19" d="M119,188.27l39.1,21.24V166.57A46,46,0,0,0,119,188.27Z"/></svg>