<svg id="Layer_1" data-name="Layer 1" xmlns="http://www.w3.org/2000/svg" viewBox="0 0 368 291"><defs><style>.cls-1{fill:#fff;}.cls-2{stroke:#fff;stroke-miterlimit:10;stroke-width:5px;}.cls-3{fill:#2d302e;}.cls-4{fill:#163659;}.cls-5{fill:#472561;}</style></defs><title>Paso 3</title><rect class="cls-1" x="185.35" y="13.16" width="5.05" height="165.97"/><path class="cls-1" d="M160.4,105.87a9.52,9.52,0,1,1,6.74-2.79h0A9.42,9.42,0,0,1,160.4,105.87Zm0-13a3.36,3.36,0,0,0-2.42,1,3.44,3.44,0,1,0,2.42-1Z"/><path class="cls-1" d="M214.9,105.5a9.53,9.53,0,1,1,6.73-2.79h0A9.46,9.46,0,0,1,214.9,105.5Zm0-13a3.4,3.4,0,0,0-2.43,1,3.43,3.43,0,0,0,4.85,4.86h0a3.43,3.43,0,0,0-2.43-5.86Z"/><rect class="cls-1" x="184.65" y="71.62" width="21.5" height="3.94" transform="translate(5.19 159.72) rotate(-45)"/><rect class="cls-1" x="177.4" y="61.58" width="3.94" height="21.5" transform="translate(1.39 148.02) rotate(-45)"/><path class="cls-1" d="M170,68.59a6.17,6.17,0,1,1,4.36-1.8h0A6.13,6.13,0,0,1,170,68.59Zm0-8.39a2.23,2.23,0,1,0,1.57.65A2.21,2.21,0,0,0,170,60.2Z"/><path class="cls-1" d="M205.3,69.86a6.18,6.18,0,1,1,4.36-1.81h0A6.14,6.14,0,0,1,205.3,69.86Zm0-8.4a2.23,2.23,0,1,0,1.57,3.8h0a2.23,2.23,0,0,0-1.57-3.8Z"/><rect class="cls-1" x="185.59" y="40.73" width="14.73" height="2.7" transform="translate(26.76 148.77) rotate(-45)"/><rect class="cls-1" x="180.63" y="33.93" width="2.7" height="14.73" transform="translate(24.1 140.77) rotate(-45)"/><path class="cls-1" d="M175.55,38.73a4.23,4.23,0,1,1,3-7.21,4.22,4.22,0,0,1,0,6h0A4.2,4.2,0,0,1,175.55,38.73Zm0-5.75a1.49,1.49,0,0,0-1.07.45,1.51,1.51,0,0,0-.45,1.08A1.54,1.54,0,0,0,175.55,36a1.53,1.53,0,0,0,0-3.05Z"/><path class="cls-1" d="M199.75,39.52a4.23,4.23,0,1,1,3-1.24h0A4.18,4.18,0,0,1,199.75,39.52Zm0-5.75a1.53,1.53,0,0,0,0,3,1.49,1.49,0,0,0,1.07-.45h0a1.51,1.51,0,0,0,.45-1.08,1.54,1.54,0,0,0-1.52-1.52Z"/><rect class="cls-1" x="173.42" y="95.66" width="5.05" height="34.26" transform="translate(-28.22 157.45) rotate(-45)"/><rect class="cls-1" x="183.35" y="109.89" width="34.26" height="5.05" transform="translate(-20.78 174.67) rotate(-45)"/><path class="cls-2" d="M261.16,143.37l22.28,77.54S238.55,251.25,236,251.25s-112.31-37.48-99.19-65.78c5.69-12.28,10.51-20.19,23.38-28.67s30.11-21.67,41.64-20.92,35.51,12.58,39,12.58S261.16,143.37,261.16,143.37Z"/><rect class="cls-2" x="123.95" y="233.38" width="17.57" height="25.05" rx="8.51" ry="8.51" transform="translate(140.74 -33.42) rotate(30)"/><rect class="cls-2" x="108.29" y="222.16" width="16.66" height="25.05" rx="7.88" ry="7.88" transform="translate(146.44 -25.67) rotate(32.96)"/><rect class="cls-2" x="90.65" y="208.5" width="16.66" height="25.05" rx="7.88" ry="7.88" transform="matrix(0.96, 0.28, -0.28, 0.96, 64.78, -18.72)"/><path class="cls-1" d="M107.61,139.31s23.57,5.61,29.06,5.49c12.46-.27,43.58-1.19,43.58-1.19L155,160.24s-11.55,26.34-11.4,28.65,2.16,9.86,12.17,8.94,15.1-16.79,19.72-17.56,28.81-2.93,28.81-2.93c16.36,16.21,1.91,9.2,9.47,26.83,5.79,13.52,37.91,34.29,41.51,43.88-.69,1.58-4.16,9.19-12.38,11.85-3.49,1.13-7.8,1.29-13-.45-1.39-.47-4.78-4.63-4.78-4.63s-6,9.55-14.32,9.4a14.64,14.64,0,0,1-12-6.32s-2.46,8.63-10.32,9.09-10.78-2.92-10.78-2.92-4.16,7.08-13.41,4.31-60.63-38.2-73.63-55.76c-5.7-7.71-10.32-15.1-10.32-15.1Z"/><polygon class="cls-1" points="306.25 221.4 284.62 227.37 258.38 134.78 277.75 128.82 306.25 221.4"/><polygon class="cls-3" points="72.1 219.57 52.1 209.4 95.1 123.31 113.43 131.96 72.1 219.57"/><path class="cls-4" d="M363,214.32,309.67,231,276.89,123.4l48.43-14c8.1,10.32,14.87,24.73,22.79,43.32A192.51,192.51,0,0,1,363,214.32Z"/><path class="cls-5" d="M3.32,192.14l54.4,27.43L106,122,59.49,98.76a169.49,169.49,0,0,0-32.63,36.67A166.3,166.3,0,0,0,3.32,192.14Z"/><polygon class="cls-1" points="90.35 103.53 93.62 109.52 99.61 112.79 93.62 116.06 90.35 122.05 87.08 116.06 81.09 112.79 87.08 109.52 90.35 103.53"/><polygon class="cls-1" points="106 118 107.88 121.43 111.31 123.31 107.88 125.19 106 128.62 104.12 125.19 100.69 123.31 104.12 121.43 106 118"/><polygon class="cls-1" points="311.48 214.34 314.75 220.32 320.74 223.59 314.75 226.87 311.48 232.85 308.2 226.87 302.22 223.59 308.2 220.32 311.48 214.34"/><polygon class="cls-1" points="322.33 224.06 324.2 227.5 327.64 229.37 324.2 231.25 322.33 234.69 320.45 231.25 317.01 229.37 320.45 227.5 322.33 224.06"/></svg>