<svg id="Layer_1" data-name="Layer 1" xmlns="http://www.w3.org/2000/svg" xmlns:xlink="http://www.w3.org/1999/xlink" viewBox="0 0 486 337"><defs><style>.cls-1,.cls-11{fill:none;}.cls-2{clip-path:url(#clip-path);}.cls-3,.cls-8{fill:#fff;}.cls-11,.cls-3{stroke:#101111;stroke-miterlimit:10;}.cls-3{stroke-width:5px;}.cls-4{fill:#101111;}.cls-5{fill:#471a0e;}.cls-6{fill:#c62020;}.cls-7{fill:#ffd8ae;}.cls-9{fill:#30120c;}.cls-10{fill:#472561;}.cls-11{stroke-width:4px;}</style><clipPath id="clip-path"><rect class="cls-1" x="-533.16" y="237.08" width="445.13" height="487.47"/></clipPath></defs><title>Paso 1</title><g class="cls-2"><image width="905" height="678" transform="translate(-676.29 232.38) scale(0.76)" xlink:href="../Greenhouse.jpg"/></g><polygon class="cls-3" points="393.01 223.07 393.01 67.28 136.96 67.28 136.96 223.07 243.71 223.07 243.71 238.78 201.14 238.78 201.14 251.23 328.84 251.23 328.84 238.78 286.27 238.78 286.27 223.07 393.01 223.07"/><rect class="cls-4" x="148.31" y="74.18" width="233.35" height="141.98"/><path class="cls-5" d="M317.91,200.19c-1.23-8-12.22-21.41-24-25a89.37,89.37,0,0,1-20.39-9.11c-1.68,5.89-10.21,7.9-10.83,8-.62-.14-9.16-2.15-10.83-8a89.63,89.63,0,0,1-20.39,9.11c-11.74,3.55-22.74,17-24,25S205,216.31,205,216.31H320.45S319.15,208.16,317.91,200.19Z"/><polygon class="cls-6" points="270.8 192.81 263.08 184.61 255.37 192.81 261.38 197.91 255.37 216.31 270.8 216.31 264.79 197.91 270.8 192.81"/><path class="cls-4" d="M263.4,184.3l-10.85,11.58-9.16-23.31s8.83-6.68,10.83-8.68A25.8,25.8,0,0,0,263.4,184.3Z"/><path class="cls-4" d="M262.73,184.3l10.54,11.58,9.27-22.9s-9-7.09-11-9.09A24.94,24.94,0,0,1,262.73,184.3Z"/><ellipse class="cls-7" cx="262.76" cy="170.36" rx="10.54" ry="14.47"/><ellipse class="cls-7" cx="262.76" cy="138.44" rx="24.46" ry="33.59"/><ellipse class="cls-7" cx="238" cy="140.55" rx="4.33" ry="9.26" transform="translate(-22.48 48.09) rotate(-11.02)"/><ellipse class="cls-7" cx="288.28" cy="140.55" rx="9.26" ry="4.33" transform="translate(84.8 388.45) rotate(-76.61)"/><path class="cls-4" d="M239.27,141.2v0Z"/><path class="cls-4" d="M286.25,141.2v0Z"/><path class="cls-4" d="M293,107.27c-3.39-10.19-2.5-17.15-31.14-17.15-25.55,0-24.28,8-27.43,18.4-2.13,7-2.27,19.68-.11,23.61a25.7,25.7,0,0,0,2.4,3.24c2.21,3,2.57,10.83,2.6,11.14-.06-.56-.94-14.11,0-15.06a20.15,20.15,0,0,0,3.91-9.46c.65-4.56,2.61-7.5,8.48-6.52s11.09,1.3,11.09,1.3,5.22-.32,11.09-1.3,7.83,2,8.48,6.52a20,20,0,0,0,3.91,9.46c.95,1,.07,14.5,0,15.06a29,29,0,0,1,5.57-14.89C295.28,127.87,294.92,113.19,293,107.27Z"/><rect class="cls-3" x="22.31" y="10.75" width="192.99" height="117.43" rx="10.41" ry="10.41"/><rect class="cls-4" x="38.04" y="20.32" width="161.53" height="98.28"/><path class="cls-5" d="M155.44,107.55c-.85-5.52-8.46-14.82-16.59-17.28A62.28,62.28,0,0,1,124.73,84c-1.15,4.07-7.06,5.47-7.49,5.56-.43-.09-6.34-1.49-7.5-5.56a62.07,62.07,0,0,1-14.11,6.3C87.5,92.73,79.89,102,79,107.55s-1.76,11.16-1.76,11.16H157.2S156.29,113.07,155.44,107.55Z"/><polygon class="cls-6" points="122.83 102.44 117.49 96.77 112.14 102.44 116.31 105.97 112.14 118.71 122.83 118.71 118.67 105.97 122.83 102.44"/><path class="cls-4" d="M117.7,96.55l-7.51,8-6.33-16.14s6.11-4.62,7.49-6A17.86,17.86,0,0,0,117.7,96.55Z"/><path class="cls-4" d="M117.24,96.55l7.29,8L131,88.72s-6.19-4.91-7.58-6.3A17.27,17.27,0,0,1,117.24,96.55Z"/><ellipse class="cls-7" cx="117.26" cy="86.9" rx="7.29" ry="10.02"/><ellipse class="cls-7" cx="117.26" cy="64.8" rx="16.93" ry="23.25"/><ellipse class="cls-7" cx="100.12" cy="66.27" rx="3" ry="6.41" transform="translate(-10.82 20.36) rotate(-11.02)"/><ellipse class="cls-7" cx="134.93" cy="66.27" rx="6.41" ry="3" transform="translate(39.22 182.18) rotate(-76.61)"/><path class="cls-4" d="M101,66.72v0Z"/><path class="cls-4" d="M133.52,66.72v0Z"/><path class="cls-4" d="M138.16,43.23c-2.35-7-1.73-11.88-21.55-11.88-17.69,0-16.81,5.58-19,12.75C96.14,49,96,57.71,97.54,60.44a19.44,19.44,0,0,0,1.66,2.24c1.53,2.07,1.78,7.5,1.8,7.71,0-.39-.65-9.77,0-10.42a14,14,0,0,0,2.7-6.55c.46-3.16,1.81-5.19,5.87-4.52s7.68.91,7.68.91,3.61-.23,7.68-.91,5.42,1.36,5.87,4.52A13.89,13.89,0,0,0,133.52,60c.65.65,0,10,0,10.42a20,20,0,0,1,3.86-10.31C139.77,57.49,139.52,47.33,138.16,43.23Z"/><rect class="cls-3" x="58.38" y="158.32" width="137.46" height="83.64" rx="7.42" ry="7.42" transform="translate(327.25 73.03) rotate(90)"/><rect class="cls-4" x="69.59" y="165.14" width="115.05" height="70" transform="translate(327.25 73.03) rotate(90)"/><path class="cls-5" d="M154.32,249.72c-.61-3.94-6-10.56-11.82-12.31a44,44,0,0,1-10.05-4.49c-.83,2.9-5,3.89-5.34,4s-4.51-1.06-5.34-4a44,44,0,0,1-10,4.49c-5.79,1.75-11.21,8.37-11.82,12.31s-1.25,7.94-1.25,7.94h56.92S154.93,253.65,154.32,249.72Z"/><polygon class="cls-6" points="131.09 246.08 127.29 242.03 123.48 246.08 126.45 248.59 123.48 257.66 131.09 257.66 128.13 248.59 131.09 246.08"/><path class="cls-4" d="M127.44,241.88l-5.35,5.71-4.51-11.49s4.35-3.3,5.34-4.28A12.7,12.7,0,0,0,127.44,241.88Z"/><path class="cls-4" d="M127.11,241.88l5.2,5.71,4.57-11.29s-4.41-3.5-5.4-4.48A12.3,12.3,0,0,1,127.11,241.88Z"/><ellipse class="cls-7" cx="127.13" cy="235.01" rx="5.2" ry="7.14"/><ellipse class="cls-7" cx="127.13" cy="219.27" rx="12.06" ry="16.56"/><ellipse class="cls-7" cx="114.92" cy="220.31" rx="2.13" ry="4.56" transform="translate(-39.99 26.03) rotate(-11.02)"/><ellipse class="cls-7" cx="139.71" cy="220.31" rx="4.56" ry="2.13" transform="translate(-106.96 305.21) rotate(-76.61)"/><path class="cls-4" d="M115.55,220.63v0Z"/><path class="cls-4" d="M138.71,220.63v0Z"/><path class="cls-4" d="M142,203.9c-1.67-5-1.23-8.45-15.35-8.45-12.6,0-12,4-13.52,9.07-1.06,3.46-1.13,9.7-.06,11.64a13,13,0,0,0,1.18,1.6c1.09,1.47,1.27,5.34,1.29,5.49,0-.28-.47-7,0-7.42a10,10,0,0,0,1.93-4.67c.32-2.25,1.29-3.7,4.18-3.21s5.47.64,5.47.64,2.57-.16,5.46-.64,3.86,1,4.19,3.21a9.88,9.88,0,0,0,1.93,4.67c.46.46,0,7.14,0,7.42a14.17,14.17,0,0,1,2.75-7.34C143.16,214.06,143,206.82,142,203.9Z"/><path class="cls-8" d="M397.18,128.09c-17.74,0-34.83-4.26-48.21-12-16.91,5.19-35.59,5.25-36.38,5.25h-6.92l6.3-2.87c4.7-2.14,11.55-7.6,20.37-16.23-5.78-7.15-8.83-15.23-8.83-23.44,0-27.17,33.05-49.27,73.67-49.27s73.67,22.1,73.67,49.27S437.8,128.09,397.18,128.09Z"/><path class="cls-4" d="M397.18,31c39.86,0,72.17,21.39,72.17,47.77S437,126.59,397.18,126.59c-18.44,0-35.26-4.58-48-12.12-17.06,5.38-36.57,5.38-36.57,5.38,5.78-2.64,13.89-9.69,21.78-17.49-6-7-9.36-15-9.36-23.55C325,52.43,357.32,31,397.18,31m0-3c-19.86,0-38.57,5.14-52.69,14.49C330,52.13,322,65,322,78.81a38.35,38.35,0,0,0,8.31,23.31c-10.19,9.86-15.92,13.61-19,15l-12.59,5.73h13.83c.79,0,19.24-.06,36.2-5.13,13.51,7.66,30.63,11.87,48.39,11.87,19.86,0,38.57-5.15,52.69-14.49,14.5-9.6,22.48-22.49,22.48-36.29s-8-26.68-22.48-36.28C435.75,33.18,417,28,397.18,28Z"/><ellipse class="cls-7" cx="150.29" cy="184.77" rx="7.67" ry="16.4" transform="translate(-32.55 32.14) rotate(-11.02)"/><ellipse class="cls-7" cx="194.16" cy="237.59" rx="18.67" ry="25.64"/><ellipse class="cls-7" cx="194.16" cy="181.02" rx="43.35" ry="59.53"/><ellipse class="cls-7" cx="239.38" cy="184.77" rx="16.4" ry="7.67" transform="translate(4.21 374.86) rotate(-76.61)"/><path class="cls-9" d="M152.54,185.92v0Z"/><path class="cls-9" d="M235.78,185.92v0Z"/><path class="cls-9" d="M247.65,125.8c-6-18.06-17.6-19.58-61-32.11s-37.19,16-42.77,34.33c-3.79,12.43-4,34.86-.21,41.82,1.31,2.37,2.85,3.83,4.25,5.74,3.93,5.32,4.56,19.19,4.62,19.74-.11-1-1.67-25,0-26.68s5.78-8.67,6.93-16.76,4.63-13.29,15-11.56,19.65,2.32,19.65,2.32,9.25-.58,19.65-2.32,13.87,3.47,15,11.56,5.21,15,6.94,16.76.11,25.68,0,26.68c.06-.55.69-14.42,9.88-26.38C251.78,162.3,251.14,136.29,247.65,125.8Z"/><path class="cls-10" d="M291.89,301c-2.19-14.13-21.67-37.94-42.47-44.22a158.37,158.37,0,0,1-36.13-16.15c-17.69-6.3-25-4.42-38.37,0a158.32,158.32,0,0,1-36.14,16.15C118,263,98.5,286.83,96.32,301s-4.5,28.56-4.5,28.56H296.38S294.07,315.09,291.89,301Z"/><path class="cls-9" d="M239.38,174.9c0,28.23-20.24,47.92-45.22,47.92s-45.22-19.69-45.22-47.92,20.25-51.13,45.22-51.13S239.38,146.66,239.38,174.9Z"/><line class="cls-11" x1="350.67" y1="58.65" x2="445" y2="58.65"/><line class="cls-11" x1="350.67" y1="71.99" x2="445" y2="71.99"/><line class="cls-11" x1="350.67" y1="85.33" x2="445" y2="85.33"/><line class="cls-11" x1="350.67" y1="98.67" x2="445" y2="98.67"/></svg>