<svg id="Layer_1" data-name="Layer 1" xmlns="http://www.w3.org/2000/svg" xmlns:xlink="http://www.w3.org/1999/xlink" viewBox="0 0 356 471"><defs><style>.cls-1{fill:none;}.cls-2{clip-path:url(#clip-path);}.cls-3{fill:#fff;}.cls-4{fill:#fab11e;}.cls-5{fill:#0d2038;}.cls-6{fill:#472561;}.cls-7{fill:#ffd8ae;}</style><clipPath id="clip-path"><rect class="cls-1" x="-584.83" y="84.6" width="445.13" height="413.61"/></clipPath></defs><title>Paso 4</title><g class="cls-2"><image width="1040" height="690" transform="translate(-633.13 84.21) scale(0.61 0.61)" xlink:href="../../Científicos con Hervana.jpg"/></g><rect class="cls-3" x="86.84" y="426.41" width="57.01" height="34.58"/><path d="M143.34,426.91v33.57h-56V426.91h56m1-1h-58v35.57h58V425.91Z"/><polygon points="66.81 420.44 86.34 425.9 86.34 461.48 66.81 461.48 66.81 420.44"/><polygon class="cls-3" points="86.41 425.4 70.45 420.94 129.06 420.94 141.48 425.4 86.41 425.4"/><path d="M129,421.44l9.64,3.47H86.47l-12.38-3.47H129m.17-1H66.82l19.52,5.47h58l-15.2-5.47Z"/><rect class="cls-3" x="214.16" y="302.97" width="58.49" height="158.03"/><path d="M272.16,303.47v157h-57.5v-157h57.5m1-1h-59.5v159h59.5v-159Z"/><polygon points="296.84 320.92 273.16 302.47 273.16 461.5 296.84 461.5 296.84 320.92"/><path class="cls-4" d="M345.53,458h0a1.27,1.27,0,0,1-1.4-.82L296.21,322.6a1.08,1.08,0,0,1,1.16-1.43h0a1.05,1.05,0,0,1,.87.7l48.28,134.45A1.27,1.27,0,0,1,345.53,458Z"/><polygon class="cls-4" points="314.18 368.14 294.11 367.37 293.37 364.87 313.4 365.74 314.18 368.14"/><polygon class="cls-4" points="323.13 394.01 302.78 394.34 301.99 391.67 322.31 391.45 323.13 394.01"/><polygon class="cls-4" points="317.88 380.71 297.62 380.47 296.85 377.88 317.08 378.23 317.88 380.71"/><path class="cls-4" d="M325.09,461.29l-.25,0a1.26,1.26,0,0,1-1.4-.85L276.79,320a1.07,1.07,0,0,1,1.16-1.4l.23,0a1.06,1.06,0,0,1,.87.72l47,140.29A1.27,1.27,0,0,1,325.09,461.29Z"/><polygon class="cls-4" points="301.06 332.03 281.38 329.84 280.71 327.57 300.36 329.84 301.06 332.03"/><polygon class="cls-4" points="304.69 343.75 285.98 342.1 285.3 339.76 303.97 341.49 304.69 343.75"/><polygon class="cls-4" points="309.21 355.62 289.24 354.34 288.52 351.92 308.47 353.29 309.21 355.62"/><polygon class="cls-4" points="327.12 407.45 306.57 408.38 305.75 405.61 326.27 404.8 327.12 407.45"/><polygon class="cls-4" points="332.69 421.61 312.06 423.19 311.21 420.33 331.81 418.87 332.69 421.61"/><polygon class="cls-4" points="338.11 435.89 317.38 438.15 316.5 435.18 337.19 433.05 338.11 435.89"/><polygon class="cls-4" points="344.03 450.95 323.24 453.95 322.32 450.88 343.08 448.02 344.03 450.95"/><path d="M110.8,420.9s5.69,2,6.5,4.88H103.14l1.52-4.88S105.87,421.88,110.8,420.9Z"/><path d="M114.38,417s5.69,2,6.51,4.89H106.73l1.52-4.89S109.45,418,114.38,417Z"/><path class="cls-5" d="M118.05,389.42s-3.56,24.85-1.6,27.26-6.54,4.44-10,3,3-27,2.64-29.33S116.08,389.65,118.05,389.42Z"/><path class="cls-6" d="M120,378.43s-1.56,13.63-4.77,23.85-1.45,16.68-1.92,17.5-4.73,4.51-10.69,1.53c-1.41-.71,4.93-23.85,4.23-28.19s-1.74-12.24-.59-12.24A131.49,131.49,0,0,0,120,378.43Z"/><path class="cls-7" d="M111.84,340.57c1.11-1.64,1.74-2,1.23-2.9a5.32,5.32,0,0,0-1.8-1.19,7.12,7.12,0,0,0-1-1.41c.87-1.05-.25-1.05-.25-1.05s.64.16-.46.35c-2.16-1.89-5.14-2.17-7-.54-2.1,1.82-2,5.33.14,7.84a6.8,6.8,0,0,0,3.37,2.13,11.84,11.84,0,0,0-.94,3.81l5.28,1.88a48.06,48.06,0,0,1,.93-7.7,4.75,4.75,0,0,0,.47-1.2Z"/><path class="cls-5" d="M102.77,350.7c.93-2.52.59-1.76,1.53-2.94s.36-2.71,2.24-2.13,7.08,3.31,9,8.49,3.3,6.6,3.77,11.79,2.71,6.29,2.71,9.21a6.65,6.65,0,0,1-1.29,4.34s-14.51,2-15.67,2,.84-2.15-1.52-3.57S100.65,356.48,102.77,350.7Z"/><path class="cls-7" d="M115,385.28c.11.85.21,1.26.26,1.63.26,1.82.52,2.63.3,3.15s-.43.37-.7-.71-.6-1.77-.78-1.74a10,10,0,0,0,.78,3.23c.33.59-.34.88-1-.41s-1.26-2.41-1.26-2.41a21.52,21.52,0,0,0,1,3c.29.37-.64.52-.86-.07s-1.11-2.52-1.11-2.52.69,1.92.47,2.11-.76-.85-1.14-2.11a9.36,9.36,0,0,1-.7-3.41c.11-1.07,3.59-2.78,4.59-1.81s1.19.81,1.49,1.37.74,1.59,1.18,1.78-.11.89-.7.4S115,385,115,385.28Z"/><path class="cls-6" d="M115.13,381.72c.59,1.35-4.81,5-6,2.47s-5.47-19-5.63-27,3.17-8.92,5.81-7S112.43,375.5,115.13,381.72Z"/><path d="M106,332.76s-.62-3.48-4.31,0-2.25,6.63,0,9,4.4,2.07,4.4,2.07,1.39-2.21,0-2.67c-1.16-.39-2.42-1.74-1.25-3.09s2.31.18,2.31.18-2-2.24-1.86-3.14S106.28,333.49,106,332.76Z"/><rect class="cls-3" x="38.9" y="436.05" width="41.29" height="24.94"/><path d="M79.69,436.55v23.93H39.4V436.55H79.69m1-1H38.4v25.93H80.69V435.55Z"/><polygon points="24.17 431.56 38.4 435.55 38.4 461.48 24.17 461.48 24.17 431.56"/><polygon class="cls-3" points="38.47 435.05 27.81 432.06 69.52 432.06 77.82 435.05 38.47 435.05"/><path d="M69.43,432.56l5.53,2H38.54l-7.1-2h38m.18-1H24.17l14.23,4H80.69l-11.08-4Z"/><path d="M54.1,431.43s5.69,2,6.5,4.89H46.44L48,431.43S49.17,432.42,54.1,431.43Z"/><path d="M57.68,427.56s5.69,2,6.51,4.88H50l1.53-4.88S52.75,428.54,57.68,427.56Z"/><path class="cls-5" d="M61.35,400s-3.56,24.84-1.61,27.26-6.53,4.44-10,3,3-27,2.64-29.33S59.38,400.19,61.35,400Z"/><path class="cls-4" d="M63.25,389s-1.56,13.63-4.77,23.85S57,429.5,56.55,430.32s-4.72,4.51-10.69,1.53c-1.4-.71,4.94-23.85,4.23-28.2s-1.73-12.23-.58-12.23A132.42,132.42,0,0,0,63.25,389Z"/><path class="cls-7" d="M55.14,351.11c1.1-1.64,1.73-2,1.23-2.9a5.42,5.42,0,0,0-1.8-1.19,7.12,7.12,0,0,0-1-1.41c.86-1.05-.25-1.05-.25-1.05s.64.16-.46.35c-2.17-1.89-5.15-2.17-7-.54-2.1,1.82-2,5.33.13,7.83a6.78,6.78,0,0,0,3.38,2.14,11.84,11.84,0,0,0-.94,3.81L53.73,360a46.87,46.87,0,0,1,.93-7.7,4.75,4.75,0,0,0,.47-1.2Z"/><path class="cls-5" d="M46.07,361.24c.93-2.52.59-1.77,1.53-2.95s.36-2.71,2.24-2.12,7.07,3.3,9,8.49,3.3,6.6,3.77,11.79,2.71,6.29,2.71,9.21A6.65,6.65,0,0,1,64,390s-14.51,2-15.68,2,.85-2.15-1.51-3.57S44,367,46.07,361.24Z"/><path class="cls-7" d="M58.28,395.82c.11.85.21,1.25.26,1.63.26,1.82.52,2.63.3,3.15s-.43.37-.7-.71-.6-1.78-.79-1.74a10.18,10.18,0,0,0,.79,3.22c.33.6-.34.89-1-.4s-1.26-2.41-1.26-2.41a21.52,21.52,0,0,0,1,3c.29.37-.64.52-.86-.07s-1.11-2.52-1.11-2.52.69,1.92.47,2.11-.77-.85-1.14-2.11a9.36,9.36,0,0,1-.7-3.41c.11-1.07,3.59-2.78,4.59-1.81s1.19.81,1.48,1.37.74,1.59,1.19,1.77-.11.89-.7.41S58.25,395.58,58.28,395.82Z"/><path class="cls-6" d="M58.43,392.26c.59,1.35-4.81,5.05-6,2.47s-5.47-19-5.64-27,3.18-8.92,5.82-7S55.73,386,58.43,392.26Z"/><path d="M49.3,343.3s-.63-3.48-4.31,0-2.25,6.63,0,9,4.4,2.07,4.4,2.07,1.39-2.21,0-2.67c-1.17-.39-2.42-1.74-1.26-3.09s2.32.18,2.32.18-2-2.25-1.87-3.14S49.58,344,49.3,343.3Z"/><path class="cls-7" d="M301.79,333.11c-.33-.86-.52-1.27-.67-1.64a13.3,13.3,0,0,1-1.12-3.13c0-.47.24-.28.75.82a5.46,5.46,0,0,0,1.12,1.84,18.16,18.16,0,0,0-1.54-3.29c-.42-.64,0-.8.95.59s1.68,2.59,1.68,2.59-1.33-2.67-1.67-3.09.36-.38.71.24,1.59,2.66,1.59,2.66a11,11,0,0,1-1-2.14c.13-.14.85,1,1.5,2.27a16.64,16.64,0,0,1,1.52,3.46c.21,1-2.08,2-3.14.91s-1.17-1-1.56-1.62a9.68,9.68,0,0,0-1.45-2c-.4-.26-.16-.85.45-.26A17.11,17.11,0,0,0,301.79,333.11Z"/><path class="cls-5" d="M319.16,351c1.73,1.54-7.88,4.77-11.79-3.26A125,125,0,0,1,302,335.51l4.1-1.63S314.35,346.72,319.16,351Z"/><path d="M314.33,406.35s-4,1.64-4.53,3.72l10.19-.44-1.24-3.47S317.91,406.91,314.33,406.35Z"/><path d="M318.56,416.15s-4,1.63-4.53,3.72l10.2-.45L323,416S322.15,416.7,318.56,416.15Z"/><path class="cls-7" d="M308.82,343.56c-1.36-1.61-2.11-2-1.57-2.88a6.48,6.48,0,0,1,2.06-1.3,7.17,7.17,0,0,1,1.05-1.48c-1.06-1,.24-1.08.24-1.08s-.74.19.56.33c2.44-2,5.91-2.46,8.19-.9,2.53,1.74,2.62,5.3.19,8a8.11,8.11,0,0,1-3.85,2.33,11,11,0,0,1,1.27,3.82l-6.09,2.18a42.39,42.39,0,0,0-1.43-7.77,4.33,4.33,0,0,1-.61-1.19Z"/><path class="cls-5" d="M317,371.55s13.2,2.6,12.88,3.73-8,12.48-7.12,18.4,3.25,21.09,2.37,22.25-9.17,3.57-9.31.4-.93-17.08-1.26-20.24S316.18,381,316.18,381s-1.16,9.29-2.33,12.16,7.49,10.74,5.53,12.87-7.71,2.76-8.73.76-7.11-12.22-4.85-16.44C309,384.36,314.63,372,317,371.55Z"/><path class="cls-4" d="M320.41,373.66s9.83.49,9.51,1.62-8,12.48-7.12,18.4,3.25,21.09,2.37,22.25-9.17,3.57-9.31.4-1.82-17.58-1.59-20.74C315.82,374.36,318.49,374.39,320.41,373.66Z"/><path class="cls-6" d="M317.77,347.77c3.24,1.28,16,12.25,12.15,27.51-.79,3.18-13.61,2.09-14.5-6.45s-3.21-10.41-5.55-12.68S310.94,345.09,317.77,347.77Z"/><path d="M314,335.63s2.25-4.36,6.15-1,2.57,6.63.39,9.1-4.37,2.3-4.37,2.3-1.51-2.18-.12-2.71c1.16-.45,2.38-1.87,1.14-3.19s-2.34.28-2.34.28a13.27,13.27,0,0,0,1.68-2.78C316.76,336.72,317,335.8,314,335.63Z"/><path class="cls-7" d="M300.87,375.23a10.16,10.16,0,0,0-1.88,3c-.64,1.71-.63,3.41-1.33,3.65s-2.91-4-1.24-6.49,2.65-4,3.82-3.5S302.08,373.58,300.87,375.23Z"/><path class="cls-6" d="M310.47,350.24c1.08-2,7.18,2.36,2.75,10.12s-12,14.6-12,14.6l-2.89-3.29S303.64,363.09,310.47,350.24Z"/><rect class="cls-3" x="95.51" y="272.71" width="38.32" height="7.03" transform="translate(-71.99 42.54) rotate(-16.07)"/><path class="cls-3" d="M100.76,287.62A11,11,0,1,1,88.1,271.74a11,11,0,0,1,13.61,7.52h0A10.94,10.94,0,0,1,100.76,287.62Zm-13.09-7.23a4,4,0,1,0,7.28.82,4,4,0,0,0-7.28-.82Z"/><rect class="cls-3" x="61.61" y="257.5" width="7.03" height="38.32" transform="translate(-218.71 261.95) rotate(-73.79)"/><path d="M47.28,278.86a11,11,0,1,1,5.26-6.56h0A10.91,10.91,0,0,1,47.28,278.86Zm-7.21-13.1a4,4,0,1,0,3-.34A3.94,3.94,0,0,0,40.07,265.76Z"/><rect x="59.53" y="208.6" width="7.03" height="38.32" transform="translate(-171.41 257.47) rotate(-81.75)"/><path d="M45.67,232.42a11,11,0,1,1,4.3-7.23h0A10.94,10.94,0,0,1,45.67,232.42Zm-9-12A4,4,0,0,0,35.17,223a4,4,0,0,0,.75,2.94,4,4,0,0,0,5.55.8,4,4,0,0,0-4.75-6.35Z"/><rect x="118.09" y="251.24" width="38.32" height="7.03" transform="translate(-139.97 337.73) rotate(-78.35)"/><rect x="108.56" y="173.84" width="38.32" height="7.03" transform="translate(-37.11 33.83) rotate(-13.19)"/><path d="M113.25,188a11,11,0,1,1,1.36-8.3h0A10.91,10.91,0,0,1,113.25,188Zm-12.71-7.88a4,4,0,1,0,7.23,1.18,4,4,0,0,0-7.23-1.18Z"/><rect x="86.16" y="153.56" width="5.25" height="28.6" transform="translate(-95.12 120.56) rotate(-47.7)"/><path d="M76.09,163.48a8.21,8.21,0,1,1,5.68-2.68h0A8.17,8.17,0,0,1,76.09,163.48Zm-.52-11.15a3,3,0,0,0-2.82,3.09,2.93,2.93,0,0,0,1,2.05,3,3,0,0,0,2.12.77,2.93,2.93,0,0,0,2-1,3,3,0,0,0-.19-4.18A2.94,2.94,0,0,0,75.57,152.33Z"/><rect x="108.84" y="112.72" width="5.08" height="27.7" transform="translate(-46.17 66.55) rotate(-27.8)"/><path d="M101.26,118.4a8,8,0,1,1,6.06-.56h0A7.89,7.89,0,0,1,101.26,118.4Zm3.2-10.33a2.86,2.86,0,0,0-3.58,1.89,2.8,2.8,0,0,0,.2,2.18,2.87,2.87,0,1,0,3.38-4.07Z"/><rect x="57.55" y="201.19" width="5.08" height="27.7" transform="translate(-93.35 52.84) rotate(-27.8)"/><path d="M50,206.87a7.95,7.95,0,1,1,6.06-.56h0A7.89,7.89,0,0,1,50,206.87Zm3.2-10.33a2.85,2.85,0,0,0-2.18.2,2.88,2.88,0,0,0-1.41,1.69,2.85,2.85,0,0,0,.21,2.18,2.78,2.78,0,0,0,1.68,1.4,2.83,2.83,0,0,0,2.19-.2,2.86,2.86,0,0,0-.49-5.27Z"/><rect class="cls-3" x="219.29" y="257.07" width="7.03" height="38.32" transform="translate(-104.31 413.85) rotate(-73.93)"/><path class="cls-3" d="M235.77,279.26h0a11,11,0,1,1,.94,8.36A11,11,0,0,1,235.77,279.26Zm11.66-.76a4,4,0,0,0-4.9,2.71,3.86,3.86,0,0,0,.34,3,4,4,0,0,0,5.38,1.56,3.94,3.94,0,0,0,1.89-2.38,4,4,0,0,0-2.71-4.9Z"/><rect class="cls-3" x="253.2" y="273.14" width="38.32" height="7.03" transform="translate(-66.41 87.03) rotate(-16.21)"/><path d="M284.94,272.3h0a11,11,0,0,1,7.49-13.63,11,11,0,1,1-7.49,13.63Zm9.45-6.88a4,4,0,0,0-2.7,4.92,4,4,0,1,0,2.7-4.92Z"/><rect x="255.28" y="224.24" width="38.32" height="7.03" transform="translate(-29.84 41.74) rotate(-8.25)"/><path d="M287.5,225.19h0a11,11,0,1,1,4.31,7.23A11,11,0,0,1,287.5,225.19Zm10.31-5.5a4,4,0,0,0-3.35,4.49,4,4,0,1,0,3.35-4.49Z"/><rect x="196.71" y="235.59" width="7.03" height="38.32" transform="translate(-47.32 45.69) rotate(-11.65)"/><path d="M196.88,241.86h0a11,11,0,1,1,7-4.72A11,11,0,0,1,196.88,241.86Zm-6.1-10a4,4,0,0,0,7.19,1.38,3.92,3.92,0,0,0,.58-3,4,4,0,0,0-7.77,1.6Z"/><path d="M144.94,241.86h0a11,11,0,1,1-4.44-21.53,11,11,0,1,1,4.44,21.53Zm-6.1-10a4,4,0,1,0,.57-3A3.86,3.86,0,0,0,138.84,231.89Z"/><rect x="206.25" y="158.19" width="7.03" height="38.32" transform="translate(-10.79 341.1) rotate(-76.81)"/><path d="M222.87,179.74h0a11,11,0,1,1,1.36,8.3A11,11,0,0,1,222.87,179.74Zm11.6-1.35a4,4,0,1,0,1.19,7.22,3.9,3.9,0,0,0,1.77-2.46,4,4,0,0,0-3-4.76Z"/><rect x="234.4" y="165.23" width="28.6" height="5.25" transform="translate(-48.22 211.07) rotate(-42.3)"/><path d="M255.7,160.8h0a8.19,8.19,0,1,1,5.69,2.68A8.22,8.22,0,0,1,255.7,160.8Zm4.08-7.71a3,3,0,1,0,4,4.38,2.93,2.93,0,0,0,1-2.05,3,3,0,0,0-2.82-3.09A2.94,2.94,0,0,0,259.78,153.09Z"/><rect x="212.25" y="124.03" width="27.7" height="5.08" transform="translate(8.69 267.55) rotate(-62.2)"/><path d="M230.16,117.84h0a8,8,0,0,1-3.33-10.74,7.95,7.95,0,1,1,3.33,10.74Zm1.17-8.37a2.86,2.86,0,1,0,1.68-1.4A2.82,2.82,0,0,0,231.33,109.47Z"/><rect x="263.53" y="212.5" width="27.7" height="5.08" transform="translate(-42.2 360.13) rotate(-62.2)"/><path d="M281.44,206.31h0a8,8,0,0,1-3.32-10.74,7.95,7.95,0,1,1,3.32,10.74Zm1.17-8.37a2.86,2.86,0,0,0,1.2,3.87,2.87,2.87,0,0,0,2.67-5.07,2.87,2.87,0,0,0-3.87,1.2Z"/><rect x="162.49" y="9.73" width="13.72" height="451.09"/><path d="M94.68,261.71a25.88,25.88,0,1,1,18.3-7.58h0A25.71,25.71,0,0,1,94.68,261.71Zm0-35.21a9.33,9.33,0,1,0,6.6,2.73A9.3,9.3,0,0,0,94.68,226.5Z"/><path d="M242.8,260.7a25.88,25.88,0,1,1,18.3-7.58h0A25.71,25.71,0,0,1,242.8,260.7Zm0-35.2a9.33,9.33,0,1,0,6.59,15.92h0a9.33,9.33,0,0,0-6.6-15.92Z"/><rect x="160.58" y="168.62" width="58.43" height="10.72" transform="translate(-67.43 185.16) rotate(-45)"/><rect x="140.88" y="141.33" width="10.72" height="58.43" transform="translate(-77.76 153.36) rotate(-45)"/><path d="M120.77,160.39a16.76,16.76,0,1,1,11.85-4.91h0A16.65,16.65,0,0,1,120.77,160.39Zm0-22.81a6,6,0,1,0,4.27,1.77A6,6,0,0,0,120.77,137.58Z"/><path d="M216.71,163.82a16.76,16.76,0,1,1,11.85-4.91h0A16.62,16.62,0,0,1,216.71,163.82Zm0-22.8a6,6,0,0,0-4.27,1.77,6,6,0,1,0,8.54,8.54h0A6,6,0,0,0,216.71,141Z"/><rect x="163.15" y="84.66" width="40.04" height="7.35" transform="translate(-8.81 155.39) rotate(-45)"/><rect x="149.65" y="66.17" width="7.35" height="40.04" transform="translate(-16.04 133.66) rotate(-45)"/><path d="M135.86,79.23A11.49,11.49,0,1,1,144,75.87h0A11.42,11.42,0,0,1,135.86,79.23Zm0-15.63a4.14,4.14,0,1,0,2.93,1.21A4.15,4.15,0,0,0,135.86,63.6Z"/><path d="M201.61,81.37A11.47,11.47,0,1,1,209.74,78h0A11.42,11.42,0,0,1,201.61,81.37Zm0-15.63A4.08,4.08,0,0,0,198.69,67a4.13,4.13,0,0,0,0,5.85,4.12,4.12,0,0,0,5.85,0h0a4.15,4.15,0,0,0-2.93-7.07Z"/><rect x="130.07" y="233.96" width="13.72" height="93.11" transform="translate(-158.25 178.99) rotate(-45)"/><rect x="157.05" y="272.65" width="93.11" height="13.72" transform="translate(-138 225.82) rotate(-45)"/></svg>