<svg id="Layer_1" data-name="Layer 1" xmlns="http://www.w3.org/2000/svg" viewBox="0 0 486 337"><defs><style>.cls-1,.cls-3{fill:#fff;}.cls-1{stroke:#101111;stroke-width:3px;}.cls-1,.cls-9{stroke-miterlimit:10;}.cls-2{fill:#101111;}.cls-4{fill:#1cf445;}.cls-5{fill:#196844;}.cls-6{fill:#ffd8ae;}.cls-7{fill:#6d3f20;}.cls-8{fill:#30120c;}.cls-9{fill:none;stroke:#000;stroke-width:4px;}</style></defs><title>Paso 1</title><polygon class="cls-1" points="390.01 221.07 390.01 65.28 133.96 65.28 133.96 221.07 240.71 221.07 240.71 236.78 198.14 236.78 198.14 249.23 325.84 249.23 325.84 236.78 283.27 236.78 283.27 221.07 390.01 221.07"/><rect class="cls-2" x="145.31" y="72.18" width="233.35" height="141.98"/><path class="cls-3" d="M314.91,198.19c-1.23-8-12.22-21.41-24-25a89.37,89.37,0,0,1-20.39-9.11c-1.68,5.89-10.21,7.9-10.83,8-.62-.14-9.16-2.15-10.83-8a89.63,89.63,0,0,1-20.39,9.11c-11.74,3.55-22.74,17-24,25S202,214.31,202,214.31H317.45S316.15,206.16,314.91,198.19Z"/><polygon class="cls-4" points="267.8 190.81 260.08 182.61 252.37 190.81 258.38 195.91 252.37 214.31 267.8 214.31 261.79 195.91 267.8 190.81"/><path class="cls-5" d="M260.4,182.3l-10.85,11.58-9.16-23.31s8.83-6.68,10.83-8.68A25.8,25.8,0,0,0,260.4,182.3Z"/><path class="cls-5" d="M259.73,182.3l10.54,11.58,9.27-22.9s-9-7.09-11-9.09A24.94,24.94,0,0,1,259.73,182.3Z"/><ellipse class="cls-6" cx="259.76" cy="168.36" rx="10.54" ry="14.47"/><ellipse class="cls-6" cx="259.76" cy="136.44" rx="24.46" ry="33.59"/><ellipse class="cls-6" cx="235" cy="138.55" rx="4.33" ry="9.26" transform="translate(-22.15 47.48) rotate(-11.02)"/><ellipse class="cls-6" cx="285.28" cy="138.55" rx="9.26" ry="4.33" transform="translate(84.44 384) rotate(-76.61)"/><path class="cls-2" d="M236.27,139.2v0Z"/><path class="cls-2" d="M283.25,139.2v0Z"/><path class="cls-7" d="M290,105.27c-3.39-10.19-2.5-17.15-31.14-17.15-25.55,0-24.28,8-27.43,18.4-2.13,7-2.27,19.68-.11,23.61a25.7,25.7,0,0,0,2.4,3.24c2.21,3,2.57,10.83,2.6,11.14-.06-.56-.94-14.11,0-15.06a20.15,20.15,0,0,0,3.91-9.46c.65-4.56,2.61-7.5,8.48-6.52s11.09,1.3,11.09,1.3,5.22-.32,11.09-1.3,7.83,2,8.48,6.52a20,20,0,0,0,3.91,9.46c.95,1,.07,14.5,0,15.06a29,29,0,0,1,5.57-14.89C292.28,125.87,291.92,111.19,290,105.27Z"/><rect class="cls-1" x="19.31" y="8.75" width="192.99" height="117.43" rx="10.41" ry="10.41"/><rect class="cls-2" x="35.04" y="18.32" width="161.53" height="98.28"/><path class="cls-3" d="M152.44,105.55c-.85-5.52-8.46-14.82-16.59-17.28A62.28,62.28,0,0,1,121.73,82c-1.15,4.07-7.06,5.47-7.49,5.56-.43-.09-6.34-1.49-7.5-5.56a62.07,62.07,0,0,1-14.11,6.3C84.5,90.73,76.89,100,76,105.55s-1.76,11.16-1.76,11.16H154.2S153.29,111.07,152.44,105.55Z"/><polygon class="cls-4" points="119.83 100.44 114.49 94.77 109.14 100.44 113.31 103.97 109.14 116.71 119.83 116.71 115.67 103.97 119.83 100.44"/><path class="cls-5" d="M114.7,94.55l-7.51,8-6.33-16.14s6.11-4.62,7.49-6A17.86,17.86,0,0,0,114.7,94.55Z"/><path class="cls-5" d="M114.24,94.55l7.29,8L128,86.72s-6.19-4.91-7.58-6.3A17.27,17.27,0,0,1,114.24,94.55Z"/><ellipse class="cls-6" cx="114.26" cy="84.9" rx="7.29" ry="10.02"/><ellipse class="cls-6" cx="114.26" cy="62.8" rx="16.93" ry="23.25"/><ellipse class="cls-6" cx="97.12" cy="64.27" rx="3" ry="6.41" transform="matrix(0.98, -0.19, 0.19, 0.98, -10.49, 19.75)"/><ellipse class="cls-6" cx="131.93" cy="64.27" rx="6.41" ry="3" transform="translate(38.86 177.73) rotate(-76.61)"/><path class="cls-2" d="M98,64.72v0Z"/><path class="cls-2" d="M130.52,64.72v0Z"/><path class="cls-7" d="M135.16,41.23c-2.35-7-1.73-11.88-21.55-11.88-17.69,0-16.81,5.58-19,12.75C93.14,47,93,55.71,94.54,58.44a19.44,19.44,0,0,0,1.66,2.24c1.53,2.07,1.78,7.5,1.8,7.71,0-.39-.65-9.77,0-10.42a14,14,0,0,0,2.7-6.55c.46-3.16,1.81-5.19,5.87-4.52s7.68.91,7.68.91,3.61-.23,7.68-.91,5.42,1.36,5.87,4.52A13.89,13.89,0,0,0,130.52,58c.65.65,0,10,0,10.42a20,20,0,0,1,3.86-10.31C136.77,55.49,136.52,45.33,135.16,41.23Z"/><rect class="cls-1" x="55.38" y="156.32" width="137.46" height="83.64" rx="7.42" ry="7.42" transform="translate(322.25 74.03) rotate(90)"/><rect class="cls-2" x="66.59" y="163.14" width="115.05" height="70" transform="translate(322.25 74.03) rotate(90)"/><path class="cls-3" d="M151.32,247.72c-.61-3.94-6-10.56-11.82-12.31a44,44,0,0,1-10.05-4.49c-.83,2.9-5,3.89-5.34,4s-4.51-1.06-5.34-4a44,44,0,0,1-10,4.49c-5.79,1.75-11.21,8.37-11.82,12.31s-1.25,7.94-1.25,7.94h56.92S151.93,251.65,151.32,247.72Z"/><polygon class="cls-4" points="128.09 244.08 124.29 240.03 120.48 244.08 123.45 246.59 120.48 255.66 128.09 255.66 125.13 246.59 128.09 244.08"/><path class="cls-5" d="M124.44,239.88l-5.35,5.71-4.51-11.49s4.35-3.3,5.34-4.28A12.7,12.7,0,0,0,124.44,239.88Z"/><path class="cls-5" d="M124.11,239.88l5.2,5.71,4.57-11.29s-4.41-3.5-5.4-4.48A12.3,12.3,0,0,1,124.11,239.88Z"/><ellipse class="cls-6" cx="124.13" cy="233.01" rx="5.2" ry="7.14"/><ellipse class="cls-6" cx="124.13" cy="217.27" rx="12.06" ry="16.56"/><ellipse class="cls-6" cx="111.92" cy="218.31" rx="2.13" ry="4.56" transform="translate(-39.67 25.42) rotate(-11.02)"/><ellipse class="cls-6" cx="136.71" cy="218.31" rx="4.56" ry="2.13" transform="translate(-107.32 300.76) rotate(-76.61)"/><path class="cls-2" d="M112.55,218.63v0Z"/><path class="cls-2" d="M135.71,218.63v0Z"/><path class="cls-7" d="M139,201.9c-1.67-5-1.23-8.45-15.35-8.45-12.6,0-12,4-13.52,9.07-1.06,3.46-1.13,9.7-.06,11.64a13,13,0,0,0,1.18,1.6c1.09,1.47,1.27,5.34,1.29,5.49,0-.28-.47-7,0-7.42a10,10,0,0,0,1.93-4.67c.32-2.25,1.29-3.7,4.18-3.21s5.47.64,5.47.64,2.57-.16,5.46-.64,3.86,1,4.19,3.21a9.88,9.88,0,0,0,1.93,4.67c.46.46,0,7.14,0,7.42a14.17,14.17,0,0,1,2.75-7.34C140.16,212.06,140,204.82,139,201.9Z"/><path class="cls-3" d="M394.18,126.09c-17.74,0-34.83-4.26-48.21-12-16.91,5.19-35.59,5.25-36.38,5.25h-6.92l6.3-2.87c4.7-2.14,11.55-7.6,20.37-16.23-5.78-7.15-8.83-15.23-8.83-23.44,0-27.17,33.05-49.27,73.67-49.27s73.67,22.1,73.67,49.27S434.8,126.09,394.18,126.09Z"/><path class="cls-2" d="M394.18,29c39.86,0,72.17,21.39,72.17,47.77S434,124.59,394.18,124.59c-18.44,0-35.26-4.58-48-12.12-17.06,5.38-36.57,5.38-36.57,5.38,5.78-2.64,13.89-9.69,21.78-17.49-6-7-9.36-15-9.36-23.55C322,50.43,354.32,29,394.18,29m0-3c-19.86,0-38.57,5.14-52.69,14.49C327,50.13,319,63,319,76.81a38.35,38.35,0,0,0,8.31,23.31c-10.19,9.86-15.92,13.61-19,15l-12.59,5.73h13.83c.79,0,19.24-.06,36.2-5.13,13.51,7.66,30.63,11.87,48.39,11.87,19.86,0,38.57-5.15,52.69-14.49,14.5-9.6,22.48-22.49,22.48-36.29s-8-26.68-22.48-36.28C432.75,31.18,414,26,394.18,26Z"/><ellipse class="cls-6" cx="147.29" cy="182.77" rx="7.67" ry="16.4" transform="translate(-32.22 31.53) rotate(-11.02)"/><ellipse class="cls-6" cx="191.16" cy="235.59" rx="18.67" ry="25.64"/><ellipse class="cls-6" cx="191.16" cy="179.02" rx="43.35" ry="59.53"/><ellipse class="cls-6" cx="236.38" cy="182.77" rx="16.4" ry="7.67" transform="translate(3.85 370.41) rotate(-76.61)"/><path class="cls-8" d="M149.54,183.92v0Z"/><path class="cls-8" d="M232.78,183.92v0Z"/><path class="cls-8" d="M244.65,123.8c-6-18.06-17.6-19.58-61-32.11s-37.19,16-42.77,34.33c-3.79,12.43-4,34.86-.21,41.82,1.31,2.37,2.85,3.83,4.25,5.74,3.93,5.32,4.56,19.19,4.62,19.74-.11-1-1.67-25,0-26.68s5.78-8.67,6.93-16.76,4.63-13.29,15-11.56,19.65,2.32,19.65,2.32,9.25-.58,19.65-2.32,13.87,3.47,15,11.56,5.21,15,6.94,16.76.11,25.68,0,26.68c.06-.55.69-14.42,9.88-26.38C248.78,160.3,248.14,134.29,244.65,123.8Z"/><path class="cls-2" d="M288.89,299c-2.19-14.13-21.67-37.94-42.47-44.22a158.37,158.37,0,0,1-36.13-16.15c-17.69-6.3-25-4.42-38.37,0a158.32,158.32,0,0,1-36.14,16.15C115,261,95.5,284.83,93.32,299s-4.5,28.56-4.5,28.56H293.38S291.07,313.09,288.89,299Z"/><path class="cls-8" d="M236.38,172.9c0,28.23-20.24,47.92-45.22,47.92s-45.22-19.69-45.22-47.92,20.25-51.13,45.22-51.13S236.38,144.66,236.38,172.9Z"/><line class="cls-9" x1="346.15" y1="55.96" x2="443.09" y2="55.96"/><line class="cls-9" x1="346.15" y1="69.67" x2="443.09" y2="69.67"/><line class="cls-9" x1="346.15" y1="83.38" x2="443.09" y2="83.38"/><line class="cls-9" x1="346.15" y1="97.09" x2="443.09" y2="97.09"/></svg>