<svg id="Layer_1" data-name="Layer 1" xmlns="http://www.w3.org/2000/svg" viewBox="0 0 391 444"><defs><style>.cls-1{fill:#1cf445;}.cls-2{fill:#fff;}.cls-3{fill:#101111;}</style></defs><title>Transformación digital</title><rect class="cls-1" x="36.97" y="209.58" width="31.89" height="31.89"/><rect class="cls-2" x="68.86" y="241.47" width="31.89" height="31.89"/><rect class="cls-1" x="100.57" y="273.37" width="31.89" height="31.89"/><rect class="cls-2" x="132.46" y="241.47" width="31.89" height="31.89"/><rect class="cls-2" x="164.36" y="209.58" width="31.89" height="31.89"/><rect class="cls-1" x="132.28" y="369.05" width="31.89" height="31.89"/><rect class="cls-1" x="227.96" y="305.26" width="31.89" height="31.89"/><rect class="cls-1" x="100.75" y="337.16" width="31.89" height="31.89"/><rect class="cls-1" x="164.17" y="273.37" width="31.89" height="31.89"/><rect class="cls-2" x="164.17" y="305.26" width="31.89" height="31.89"/><rect class="cls-1" x="196.06" y="337.16" width="31.89" height="31.89"/><rect class="cls-2" x="227.96" y="241.47" width="31.89" height="31.89"/><rect class="cls-1" x="323.62" y="209.58" width="31.89" height="31.89"/><rect class="cls-1" x="259.85" y="209.58" width="31.89" height="31.89"/><rect class="cls-2" x="291.75" y="241.47" width="31.89" height="31.89"/><rect class="cls-2" x="291.75" y="273.37" width="31.89" height="31.89"/><rect class="cls-1" x="291.75" y="305.26" width="31.89" height="31.89"/><rect class="cls-1" x="259.85" y="337.16" width="31.89" height="31.89"/><rect class="cls-1" x="291.75" y="369.05" width="31.89" height="31.89"/><rect class="cls-1" x="68.86" y="305.26" width="31.89" height="31.89"/><rect class="cls-1" x="259.85" y="273.37" width="31.89" height="31.89"/><rect class="cls-1" x="36.97" y="273.37" width="31.89" height="31.89"/><path class="cls-3" d="M30.27,206.08l.13-20.88,20.21-4.95.47-2.13A147.75,147.75,0,0,1,72.45,128l1.22-1.82L62.56,107.29,96.93,73.36,116.14,85,118,83.87a148.2,148.2,0,0,1,48.7-19.38l2.14-.44,6-23,48.29.3L228.85,65l2.08.49a147.61,147.61,0,0,1,46.35,19.74l1.82,1.17L301,73.47l33.94,34.36-13.15,21.69,1.15,1.83a148.07,148.07,0,0,1,19,45.8l.48,2.07,24.92,6.44-.13,20.42Z"/><path class="cls-1" d="M177.46,44.52l42.84.27,4.64,18.91,1,4.16,4.17,1a144.08,144.08,0,0,1,45.26,19.27L279,90.46l3.72-2.19,17.65-10.4,30.1,30.48-10.61,17.51-2.24,3.69,2.29,3.66a144.56,144.56,0,0,1,18.51,44.72l.95,4.15,4.12,1.06,20.22,5.23-.09,14.21H33.79l.1-14.63,15.44-3.79,4.23-1,.94-4.25a143.89,143.89,0,0,1,20.87-49l2.43-3.66-2.23-3.78L67,107.87,97.45,77.76l15,9.12,3.67,2.23,3.65-2.27a144.51,144.51,0,0,1,47.55-18.92l4.28-.88,1.1-4.23,4.72-18.29m-5.41-7L166,61.06A151.77,151.77,0,0,0,116.12,80.9L96.41,69,58.16,106.72,69.54,126a151.6,151.6,0,0,0-21.88,51.33l-20.74,5.09-.17,27.13H370.6l.16-26.62-25.5-6.59a151.69,151.69,0,0,0-19.4-46.88l13.44-22.17L301.53,69.07,279.18,82.24A151.6,151.6,0,0,0,231.74,62l-5.94-24.2-53.75-.34Z"/><path class="cls-1" d="M256.83,209.58a60.28,60.28,0,0,0-120.54,0Z"/><path class="cls-1" d="M83.41,209.58a113.15,113.15,0,0,1,188.81-83.25c1.71,1.53,3.36,3.11,4.95,4.72a113,113,0,0,1,32.55,78.53h10.73a123.9,123.9,0,0,0-247.79,0Z"/></svg>