<svg id="Layer_1" data-name="Layer 1" xmlns="http://www.w3.org/2000/svg" viewBox="0 0 1176 942"><defs><style>.cls-1{font-size:29px;fill:#101111;font-family:Poppins-ExtraBold, Poppins;font-weight:700;}.cls-2{fill:none;stroke:#000;stroke-miterlimit:10;stroke-width:7px;}</style></defs><title>Transformación digital (Nuestro enfoque)</title><text class="cls-1" transform="translate(979.5 563.4)">Blockchain</text><text class="cls-1" transform="translate(800.46 915.5)">Internet</text><text class="cls-1" transform="translate(948.91 84.19)">Cloud <tspan x="0" y="34.8">Computer</tspan></text><text class="cls-1" transform="translate(16.39 557.95)">Digital services</text><text class="cls-1" transform="translate(254.83 912.28)">Competitividad</text><text class="cls-1" transform="translate(334 172.22)">Token</text><line class="cls-2" x1="676.5" y1="527.5" x2="808.15" y2="696.8"/><line class="cls-2" x1="418.64" y1="197.33" x2="532.5" y2="343.5"/><line class="cls-2" x1="550.5" y1="527.5" x2="418.64" y2="696.8"/><line class="cls-2" x1="808.15" y1="197.33" x2="694.5" y2="342.5"/><line class="cls-2" x1="737" y1="447.06" x2="955.6" y2="447.06"/><line class="cls-2" x1="271.19" y1="447.06" x2="493" y2="447.06"/><path d="M569.3,441.21a6.36,6.36,0,0,0-9.2,0,7,7,0,0,0-.5,9L548,462.27V435.63l8.31-8.63a4,4,0,0,0,1.87.46,4.15,4.15,0,0,0,3-1.28h0a4.51,4.51,0,0,0,0-6.19,4.11,4.11,0,0,0-6,0,4.5,4.5,0,0,0-.79,5L548,431.67V410.92l5.11-5.3a2.78,2.78,0,0,0,1.27.32,2.85,2.85,0,0,0,2-.88h0a3.1,3.1,0,0,0,0-4.24,2.82,2.82,0,0,0-4.09,0,3.09,3.09,0,0,0-.53,3.44L548,408.21v-21h-3.45v21l-4.2-4.36a3.09,3.09,0,0,0-.45-3.61,2.8,2.8,0,0,0-4.08,0,3.07,3.07,0,0,0,0,4.24,2.83,2.83,0,0,0,2,.88,2.79,2.79,0,0,0,1.11-.23l5.58,5.79v20.54l-6.84-7.11a4.5,4.5,0,0,0-.67-5.28,4.11,4.11,0,0,0-6,0,4.51,4.51,0,0,0,0,6.19,4.14,4.14,0,0,0,4.61,1l8.86,9.2v26.63L532.89,450a7,7,0,0,0-.82-8.51,6.33,6.33,0,0,0-9.2,0,6.92,6.92,0,0,0,0,9.55,6.3,6.3,0,0,0,7.41,1.31l14.23,14.78v33.67H548V467.34l14.46-15a6.5,6.5,0,0,0,2.28.43,6.38,6.38,0,0,0,4.6-2h0a7,7,0,0,0,0-9.56ZM557.06,422a1.49,1.49,0,0,1,1.08-.47,1.47,1.47,0,0,1,1.07.47,1.57,1.57,0,0,1,.45,1.11,1.61,1.61,0,0,1-.45,1.12h0a1.46,1.46,0,0,1-1.07.46,1.48,1.48,0,0,1-1.08-.46A1.63,1.63,0,0,1,557.06,422Zm-3.45-19.8a1,1,0,0,1,1.47,0,1.11,1.11,0,0,1,.31.77,1.07,1.07,0,0,1-.31.76h0a1,1,0,0,1-1.47,0A1.11,1.11,0,0,1,553.61,402.17Zm-16.53,1a1.1,1.1,0,0,1-.3-.76,1.14,1.14,0,0,1,.3-.77,1,1,0,0,1,.74-.31,1,1,0,0,1,.73.31,1.11,1.11,0,0,1,0,1.53,1,1,0,0,1-.73.32A1,1,0,0,1,537.08,403.14ZM533,423.3a1.61,1.61,0,0,1,0-2.23,1.49,1.49,0,0,1,2.15,0,1.63,1.63,0,0,1,0,2.23,1.49,1.49,0,0,1-2.15,0ZM525.81,448a2.5,2.5,0,0,1,0-3.45,2.28,2.28,0,0,1,3.31,0,2.51,2.51,0,0,1,0,3.45,2.31,2.31,0,0,1-1.66.71A2.28,2.28,0,0,1,525.81,448Zm40.54-.27h0a2.26,2.26,0,0,1-3.31,0,2.49,2.49,0,0,1,0-3.44,2.28,2.28,0,0,1,3.31,0,2.49,2.49,0,0,1,0,3.44Z"/><path d="M636.11,441.21a6.36,6.36,0,0,0-9.2,0,7,7,0,0,0-.5,9l-11.64,12.09V435.63l8.31-8.63a4,4,0,0,0,1.87.46,4.15,4.15,0,0,0,3-1.28h0a4.51,4.51,0,0,0,0-6.19,4.11,4.11,0,0,0-6,0,4.5,4.5,0,0,0-.79,5l-6.41,6.65V410.92l5.11-5.3a2.78,2.78,0,0,0,1.27.32,2.85,2.85,0,0,0,2.05-.88h0a3.1,3.1,0,0,0,0-4.24,2.82,2.82,0,0,0-4.09,0,3.09,3.09,0,0,0-.53,3.44l-3.81,3.95v-21h-3.45v21l-4.2-4.36a3.09,3.09,0,0,0-.45-3.61,2.8,2.8,0,0,0-4.08,0,3.07,3.07,0,0,0,0,4.24,2.83,2.83,0,0,0,2,.88,2.79,2.79,0,0,0,1.11-.23l5.58,5.79v20.54l-6.84-7.11a4.5,4.5,0,0,0-.67-5.28,4.1,4.1,0,0,0-5.95,0,4.5,4.5,0,0,0,0,6.19,4.14,4.14,0,0,0,4.61,1l8.86,9.2v26.63L599.7,450a7,7,0,0,0-.82-8.51,6.33,6.33,0,0,0-9.2,0,6.92,6.92,0,0,0,0,9.55,6.3,6.3,0,0,0,7.41,1.31l14.23,14.78v33.67h3.45V467.34l14.46-15a6.5,6.5,0,0,0,2.28.43,6.38,6.38,0,0,0,4.6-2h0a7,7,0,0,0,0-9.56ZM623.88,422a1.45,1.45,0,0,1,1.07-.47A1.47,1.47,0,0,1,626,422a1.57,1.57,0,0,1,.45,1.11,1.61,1.61,0,0,1-.45,1.12h0a1.46,1.46,0,0,1-1.07.46,1.44,1.44,0,0,1-1.07-.46A1.61,1.61,0,0,1,623.88,422Zm-3.46-19.8a1,1,0,0,1,1.47,0,1.11,1.11,0,0,1,.31.77,1.07,1.07,0,0,1-.31.76h0a1,1,0,0,1-1.47,0A1.11,1.11,0,0,1,620.42,402.17Zm-16.53,1a1.1,1.1,0,0,1-.3-.76,1.14,1.14,0,0,1,.3-.77,1,1,0,0,1,.74-.31,1,1,0,0,1,.73.31,1.11,1.11,0,0,1,0,1.53,1,1,0,0,1-.73.32A1,1,0,0,1,603.89,403.14Zm-4.13,20.16a1.61,1.61,0,0,1,0-2.23,1.49,1.49,0,0,1,2.15,0,1.63,1.63,0,0,1,0,2.23,1.49,1.49,0,0,1-2.15,0ZM592.62,448a2.5,2.5,0,0,1,0-3.45,2.28,2.28,0,0,1,1.66-.71,2.31,2.31,0,0,1,1.66.71,2.52,2.52,0,0,1,0,3.45,2.31,2.31,0,0,1-1.66.71A2.28,2.28,0,0,1,592.62,448Zm40.54-.27h0a2.26,2.26,0,0,1-3.31,0,2.49,2.49,0,0,1,0-3.44,2.28,2.28,0,0,1,3.31,0,2.49,2.49,0,0,1,0,3.44Z"/><path d="M702.92,441.21a6.36,6.36,0,0,0-9.2,0,7,7,0,0,0-.5,9l-11.64,12.09V435.63l8.31-8.63a4,4,0,0,0,1.87.46,4.15,4.15,0,0,0,3-1.28h0a4.51,4.51,0,0,0,0-6.19,4.11,4.11,0,0,0-6,0,4.5,4.5,0,0,0-.79,5l-6.41,6.65V410.92l5.11-5.3a2.79,2.79,0,0,0,1.28.32,2.85,2.85,0,0,0,2-.88h0a3.1,3.1,0,0,0,0-4.24,2.82,2.82,0,0,0-4.09,0,3.09,3.09,0,0,0-.53,3.44l-3.81,3.95v-21h-3.45v21l-4.2-4.36a3.09,3.09,0,0,0-.45-3.61,2.8,2.8,0,0,0-4.08,0,3.07,3.07,0,0,0,0,4.24,2.83,2.83,0,0,0,2,.88,2.79,2.79,0,0,0,1.11-.23l5.58,5.79v20.54l-6.84-7.11a4.5,4.5,0,0,0-.67-5.28,4.1,4.1,0,0,0-6,0,4.48,4.48,0,0,0,0,6.19,4.12,4.12,0,0,0,4.6,1l8.86,9.2v26.63L666.51,450a7,7,0,0,0-.82-8.51,6.33,6.33,0,0,0-9.2,0,6.92,6.92,0,0,0,0,9.55,6.3,6.3,0,0,0,7.41,1.31l14.23,14.78v33.67h3.45V467.34l14.46-15a6.5,6.5,0,0,0,2.28.43,6.38,6.38,0,0,0,4.6-2h0a7,7,0,0,0,0-9.56ZM690.69,422a1.45,1.45,0,0,1,2.14,0,1.57,1.57,0,0,1,.45,1.11,1.61,1.61,0,0,1-.45,1.12h0a1.47,1.47,0,0,1-2.14,0A1.61,1.61,0,0,1,690.69,422Zm-3.46-19.8a1,1,0,0,1,1.47,0,1.11,1.11,0,0,1,.31.77,1.07,1.07,0,0,1-.31.76h0a1,1,0,0,1-1.47,0A1.11,1.11,0,0,1,687.23,402.17Zm-16.53,1a1.1,1.1,0,0,1-.3-.76,1.14,1.14,0,0,1,.3-.77,1,1,0,0,1,.74-.31,1,1,0,0,1,.73.31,1.11,1.11,0,0,1,0,1.53,1,1,0,0,1-.73.32A1,1,0,0,1,670.7,403.14Zm-4.13,20.16a1.63,1.63,0,0,1,0-2.23,1.49,1.49,0,0,1,2.15,0,1.63,1.63,0,0,1,0,2.23,1.49,1.49,0,0,1-2.15,0ZM659.43,448a2.5,2.5,0,0,1,0-3.45,2.28,2.28,0,0,1,1.66-.71,2.31,2.31,0,0,1,1.66.71,2.52,2.52,0,0,1,0,3.45,2.31,2.31,0,0,1-1.66.71A2.28,2.28,0,0,1,659.43,448Zm40.55-.27h0a2.26,2.26,0,0,1-3.31,0,2.49,2.49,0,0,1,0-3.44,2.28,2.28,0,0,1,1.66-.71,2.31,2.31,0,0,1,1.66.71,2.52,2.52,0,0,1,0,3.44Z"/><path d="M320.91,32.34v4.33a170.74,170.74,0,0,1,31.71,3c11.32,2.15,25.87,5.8,38,15.07,7.44,5.69,10.73,14.54,7.47,20.15-4,6.88-10.18,12.08-18.4,15.43C362.06,97.53,345.36,101,328.64,101c-1.44,0-2.9,0-4.34-.08h-.23l-.22,0c-2.73.18-5.52.28-8.3.28a144.59,144.59,0,0,1-46.18-8c-10.07-3.39-16.83-7.31-21.92-12.7-3.74-4-5.63-8.16-5.46-12.18s2.43-8.13,6.55-11.81c7.26-6.48,16.4-11,28.77-14.21a173.77,173.77,0,0,1,43.6-5.66V32.34m0,0a177.07,177.07,0,0,0-44.69,5.8c-11.19,2.91-21.76,7.31-30.57,15.17-10.18,9.1-10.67,20.35-1.35,30.2,6.56,6.93,14.94,10.88,23.68,13.83a149,149,0,0,0,47.57,8.24q4.31,0,8.6-.29c1.5,0,3,.08,4.49.08,18.72,0,36-4.22,52.7-11,8.54-3.49,15.81-9.17,20.51-17.27,4.53-7.81.24-19-8.59-25.76-11.85-9-25.64-13.2-39.83-15.88a174.05,174.05,0,0,0-32.52-3.08Z"/><path d="M400.24,77.73a137.77,137.77,0,0,1-.77,20.41c-1.5,11.78-9.2,17.82-21.14,23.77C362,130,343.65,134,322.28,134c-5.9,0-12-.29-18.55-.89-20.61-1.87-36.29-6.94-49.33-16-9.18-6.35-13.25-14.14-12.82-24.51.15-3.58.13-7.16.11-10.63,0-1.11,0-2.25,0-3.38l.29.25C255,90.41,271.3,97.3,291.68,100a252.41,252.41,0,0,0,33.13,2.51c2.46,0,4.91,0,7.26-.16,23.66-1.1,43.32-6.9,60.09-17.74a51.27,51.27,0,0,0,7.14-5.94l.94-.89m-38.42,31-.45-.4c-.13-.11-.46-.49-.71-.76-1.37-1.54-3.43-3.86-6.36-4.55a7.75,7.75,0,0,0-1.79-.21,10.31,10.31,0,0,0-7.73,4,15.25,15.25,0,0,0-3.29,6.68c-1.52-4.58-5.53-8.09-10-8.16h-.18a10.44,10.44,0,0,0-7.81,3.5,12.23,12.23,0,0,0-2.69,5c-1.06-3.26-3.74-5.72-7.73-6.91a21.65,21.65,0,0,0-4.92-.7h-.3c-11.11-.67-22.9-1.66-34.13-5.89a13.65,13.65,0,0,0-4.85-1c-3.88,0-6.81,2.4-8,6.59-1.77,6.11.71,11.4,6.62,14.15,12.35,5.74,25.79,7.22,36.59,8.41l.22,0h.21l2,0,1.9,0c.84,0,1.53,0,2.16.06l.71,0c4.62,0,8.11-2.8,9.46-7.44,1.2,5.13,5,8.56,9.84,8.56h.27c5.21-.13,9.75-4.23,11-9.42a10.06,10.06,0,0,0,9.63,7.26h.37a9.64,9.64,0,0,0,7.12-3.55,16.3,16.3,0,0,0,3.5-6.91,8.73,8.73,0,0,0,8.44,5.73H371c2.66,0,5.39-1.48,7.68-4.08a18.55,18.55,0,0,0,4.52-12.2l0-2.53-1.92-1.4c-.16-.11-.54-.46-.84-.74-1.44-1.31-3.62-3.3-6.45-3.82a7.57,7.57,0,0,0-1.26-.11,9.87,9.87,0,0,0-7.17,3.69,16.47,16.47,0,0,0-3.7,7.12M238.06,69c-.33,2.86-.66,4.54-.68,6.23-.09,5.74.11,11.49-.13,17.23-.54,13.11,5.22,22.11,14.85,28.78,15.68,10.85,33.38,15.06,51.27,16.69,6.32.57,12.63.9,18.91.9,19.76,0,39.24-3.27,57.83-12.52,11.16-5.55,21.74-12.46,23.65-27.46,1.11-8.63,1-17.52.66-26.27-.07-1.86-.63-2.49-1.38-2.49-.94,0-2.18,1-3.12,1.8-3.34,2.83-6.35,6.25-9.95,8.57C372.07,92,352.23,96.57,331.89,97.51q-3.54.17-7.08.16a254.69,254.69,0,0,1-32.62-2.47C275,93,258.57,87.4,244.67,75.13c-2-1.74-3.85-3.59-6.61-6.17Zm132.82,49c-3.62,0-5-2.61-5.08-6.27,0-4,3.58-9,6.89-9a2.71,2.71,0,0,1,.56,0c2.31.42,4.31,2.89,5.62,3.84C379,112.5,374.52,118,371,118Zm-66.38,5.73c-12-1.32-24-2.8-35.34-8.06-3.56-1.65-5.32-4.3-4.17-8.26.72-2.49,2.21-3.27,3.9-3.27a10.22,10.22,0,0,1,3.45.76c11.46,4.32,23.34,5.43,35.3,6.14a18.4,18.4,0,0,1,4.32.56c3.06.91,5.52,2.78,5,6.73-.49,3.39-2.36,5.44-5.62,5.44h-.48c-.8-.05-1.6-.07-2.39-.07-1.31,0-2.61,0-3.92,0Zm47.32-1h-.18c-3.38-.16-5.85-2-6.09-6.16s3.37-9,7-9a3.77,3.77,0,0,1,.88.1c2.28.54,4.12,3.36,5.28,4.38.12,6-3.37,10.67-6.85,10.67Zm-21.23,2.16c-3.51,0-5.91-3-5.92-7.37,0-4.22,2.86-7.38,6.65-7.38h.11c3.29,0,6.4,3.66,6.38,7.4a7.52,7.52,0,0,1-7.06,7.34Z"/><path d="M1051.91,415.82c-.6-1-1.62-1.11-2.82-.37q-9.91,6.23-19.81,12.47a1.31,1.31,0,0,1-1.59.06c-3.25-1.89-6.52-3.71-9.77-5.6a2,2,0,0,0-2.19-.07l-3.38,1.94c-6.91,3.95-13.8,7.91-20.72,11.82a2.45,2.45,0,0,0-1.42,2.4q0,13.59,0,27.2a2.43,2.43,0,0,0,1.41,2.41c3.13,1.69,6.23,3.44,9.31,5.21,5,2.85,9.89,5.76,14.88,8.57a2.37,2.37,0,0,0,2,0c5.61-3.14,11.18-6.35,16.75-9.55a1.82,1.82,0,0,0,.93-2.6c-.53-.95-1.54-1.14-2.71-.47-4.12,2.37-8.23,4.76-12.36,7.13-.53.31-1.1.56-1.77.89,0-.4-.08-.64-.08-.89,0-7.48,0-14.95,0-22.43a1.27,1.27,0,0,1,.85-1.25l17.41-10c1-.55,1.91-1.07,3-1.68v1.57q0,7.94,0,15.85a1.79,1.79,0,0,0,1.74,1.91,1.76,1.76,0,0,0,1.79-1.87c0-6.81,0-13.62,0-20.43a2.34,2.34,0,0,0-1-1.69c-2.08-1.29-4.25-2.43-6.38-3.65-1.25-.71-2.48-1.45-3.82-2.25.33-.24.52-.4.72-.53l5.1-3.21q6.49-4.11,13-8.22C1052.07,417.74,1052.48,416.75,1051.91,415.82Zm-37,43.82c0,4.6,0,9.21,0,13.81v2.76a8.43,8.43,0,0,1-.12.87h0l-1.67-.95c-.71-.4-1.4-.79-2.08-1.19-1.07-.6-2.13-1.21-3.19-1.82l-6.43-3.67c-2-1.13-4-2.26-6-3.37a2.74,2.74,0,0,1-1.62-2.79c0-1.8,0-3.61,0-5.41,0-5.4,0-10.8-.05-16.2v0h0a1.68,1.68,0,0,1,.14-.44h0l8.62,4.92,11.33,6.47a2.75,2.75,0,0,1,.57.4l0,0a1.82,1.82,0,0,1,.31.45,1.67,1.67,0,0,1,.13.67C1014.9,456,1014.89,457.8,1014.89,459.64Zm23-21.72c-2.32,1.34-4.43,2.57-6.55,3.78-4.52,2.58-9,5.13-13.53,7.75a1.73,1.73,0,0,1-2,0c-6.28-3.61-12.57-7.17-18.86-10.76-.35-.2-.67-.45-1.14-.77.83-.52,1.56-1,2.32-1.43l17.78-10.13a1.43,1.43,0,0,1,1.63-.13c4.59,2.66,9.21,5.28,13.82,7.92C1033.42,435.36,1035.54,436.59,1037.85,437.92Z"/><path d="M1089.32,396a2.37,2.37,0,0,0-1.35-2.33c-3-1.67-6-3.39-9-5.1l-15.18-8.7a2.11,2.11,0,0,0-2.31.12c-2.13,1.27-4.29,2.51-6.46,3.74q-8.74,5-17.52,10a2.41,2.41,0,0,0-1.32,2.36c0,6.55,0,13.09,0,19.64a2.84,2.84,0,0,0,.07.88,1.67,1.67,0,0,0,1.83,1.32,1.69,1.69,0,0,0,1.61-1.58,6.58,6.58,0,0,0,0-.89V398.5l7.08,4c4.42,2.52,8.83,5.06,13.27,7.54a1.55,1.55,0,0,1,.94,1.54c0,7.4,0,14.8,0,22.21,0,.27-.06.55-.1,1-1.48-.82-2.84-1.56-4.19-2.33l-10-5.76a1.83,1.83,0,0,0-2.64.51,1.8,1.8,0,0,0,.75,2.48c.67.41,1.37.75,2,1.13l14.79,8.48a2.14,2.14,0,0,0,2.32,0q2-1.18,4.06-2.34c4.23-2.4,8.46-4.79,12.69-7.21a1.83,1.83,0,0,0,.75-2.57,1.77,1.77,0,0,0-2.45-.53c-3,1.72-6.06,3.47-9.1,5.2l-5.3,3a6.58,6.58,0,0,1-.1-.69c0-7.59,0-15.18,0-22.77a1.65,1.65,0,0,1,.75-1.15c4.56-2.65,9.15-5.25,13.73-7.86,2.19-1.25,4.38-2.48,6.75-3.82v9.8c0,2.57,0,5.14,0,7.7a1.79,1.79,0,0,0,1.79,1.88,1.83,1.83,0,0,0,1.73-1.83c0-.22,0-.44,0-.66C1089.31,408.93,1089.29,402.46,1089.32,396Zm-12.4,3.44q-6.42,3.69-12.83,7.4a2.18,2.18,0,0,1-2.46.11c-6.46-3.75-12.94-7.45-19.41-11.17a3.09,3.09,0,0,1-.41-.35c1-.63,2-1.23,3-1.8q8.31-4.77,16.62-9.52a2.2,2.2,0,0,1,2.47-.12c6.32,3.68,12.68,7.3,19,10.95.25.14.48.32.85.58Z"/><path d="M1135.3,438.33a2.16,2.16,0,0,0-1.25-2.15c-2-1.07-3.89-2.19-5.82-3.3q-9.13-5.24-18.26-10.5a2.14,2.14,0,0,0-2.39,0c-3,1.75-6,3.37-9,5.19a2.27,2.27,0,0,1-3.06-.1,17.35,17.35,0,0,0-2-1.24l-17.17-10.8c-1.17-.73-2.23-.56-2.82.41a1.85,1.85,0,0,0,.9,2.53l14.73,9.24c1.39.88,2.76,1.8,4.3,2.8-3.34,1.94-6.49,3.83-9.71,5.58a2.62,2.62,0,0,0-1.61,2.61c0,6.47,0,12.94,0,19.42,0,1.46.68,2.31,1.82,2.3s1.73-.86,1.73-2.26v-17c.44.21.67.32.89.44,6.32,3.61,12.63,7.25,19,10.8a2.44,2.44,0,0,1,1.42,2.52c-.06,7,0,13.91,0,20.87v1.66l-7.87-4.48c-2.19-1.25-4.37-2.53-6.57-3.78a1.73,1.73,0,0,0-2.45.51,1.78,1.78,0,0,0,.72,2.57c.5.32,1,.61,1.54.9,4.94,2.82,9.9,5.59,14.8,8.48a2.81,2.81,0,0,0,3.26,0q11.71-6.78,23.49-13.45a2.34,2.34,0,0,0,1.37-2.3Q1135.27,452,1135.3,438.33Zm-25.79,11.21a1.76,1.76,0,0,1-1.49,0c-6.44-3.63-12.85-7.31-19.27-11-.32-.18-.62-.39-1.06-.66l7.64-4.4c4.13-2.35,8.28-4.67,12.38-7.07a1.83,1.83,0,0,1,2.12,0q8,4.62,15.94,9.16c1.31.75,2.64,1.45,4.16,2.28-1.85,1.08-3.47,2-5.11,3C1119.73,443.76,1114.63,446.68,1109.51,449.54Zm21.5,16.33c-4.92,2.76-9.81,5.59-14.71,8.39-1.63.93-3.28,1.83-5.15,2.87v-1.65c0-6.87,0-13.75,0-20.63a2.46,2.46,0,0,1,1.44-2.53c4.46-2.46,8.85-5,13.27-7.55,2.05-1.17,4.12-2.32,6.44-3.63v1.71c0,7,0,13.91,0,20.86A2.14,2.14,0,0,1,1131,465.87Z"/><path d="M1097.25,457.64a2,2,0,0,0-2.19.26c-6.52,4.14-13.06,8.25-19.56,12.41a1.71,1.71,0,0,1-2.09,0c-3.07-1.82-6.19-3.55-9.27-5.36a2.43,2.43,0,0,0-2.7,0c-3.11,1.82-6.26,3.58-9.36,5.41a1.62,1.62,0,0,1-2,0c-5.53-3.56-11.09-7.07-16.64-10.59-1.13-.71-2.26-1.44-3.42-2.09a1.7,1.7,0,0,0-2.42.62,1.78,1.78,0,0,0,.61,2.35c.15.11.31.2.47.3q8.63,5.43,17.24,10.87c.51.32,1,.7,1.55,1.1-.5.32-.84.55-1.19.75q-4.46,2.55-8.92,5.07a2.16,2.16,0,0,0-1.16,2.1q0,13.67,0,27.34a2.4,2.4,0,0,0,1.36,2.33c3.36,1.89,6.7,3.83,10,5.75q7,4,14,8a2.18,2.18,0,0,0,2.41-.08c2.14-1.26,4.3-2.51,6.46-3.74q8.7-5,17.43-9.93a2.57,2.57,0,0,0,1.41-2.53c0-8.3,0-16.59,0-24.89,0-4.25.69-3.3-3.31-5.64-2.59-1.52-5.22-3-8-4.56.56-.38.91-.65,1.28-.88,3.65-2.3,7.3-4.58,10.94-6.88,2.3-1.44,4.6-2.88,6.87-4.35C1098.44,459.91,1098.51,458.35,1097.25,457.64ZM1060.94,518v1.65c-.93-.53-1.81-1-2.66-1.48l-2.49-1.4c-4.9-2.79-9.78-5.62-14.71-8.38a2.09,2.09,0,0,1-1.28-1.95,1.48,1.48,0,0,1,0-.21c0-4.35,0-8.69,0-13v-9.53l.1.05,6.34,3.58,2.09,1.2c3.49,2,7,4,10.48,6l.7.39,0,0,.21.13a3.32,3.32,0,0,1,.36.26,2.16,2.16,0,0,1,.76,1.28l0,.19a6.4,6.4,0,0,1,0,.64q0,5.16,0,10.32C1060.93,511.09,1060.94,514.53,1060.94,518Zm25-11.77a2.13,2.13,0,0,1-1.29,2.16c-4.92,2.76-9.81,5.59-14.71,8.38-1.63.93-3.28,1.83-5.15,2.88V518c0-6.88,0-13.75,0-20.63a2.45,2.45,0,0,1,1.44-2.53c4.46-2.46,8.85-5,13.27-7.55l6.44-3.63v1.71C1085.86,492.29,1085.84,499.25,1085.89,506.2Zm-3-26.41.45.28.52.33c-2,1.17-4,2.29-5.89,3.39l-11.38,6.5c-1,.58-2,1.15-3,1.74a2.26,2.26,0,0,1-.39.18h0l-.33.06h0a1.44,1.44,0,0,1-.74-.23q-6.35-3.66-12.71-7.3l-3-1.74-1.24-.7-3.36-1.9h0c2.1-1.22,4-2.35,5.92-3.45,3.06-1.75,6.13-3.48,9.18-5.24l2.2-1.26c.85-.49,1.7-1,2.54-1.48a4.07,4.07,0,0,1,.65-.3,1.88,1.88,0,0,1,1.43.1,4.33,4.33,0,0,1,.42.22l4.71,2.71C1073.43,474.42,1078.16,477.1,1082.88,479.79Z"/><path d="M842.75,165.08V135.65h24v40.44c0,1.93.29,2.22,2.21,2.22h41.93c2.21,5.09,5.36,7.19,9.39,6.33a7.76,7.76,0,0,0-.14-15.28c-4.22-.7-7.31,1.4-9.18,6.23H869.51v-40h1.17c11.24,0,22.48,0,33.72,0a25.61,25.61,0,0,0,16.48-6.24,28.35,28.35,0,0,0,9.74-15.76,30.22,30.22,0,0,0-1.85-20,28.06,28.06,0,0,0-14-14.25,25.19,25.19,0,0,0-9.6-2.38c0-.34-.07-.65-.07-1a44,44,0,0,0-9.2-27.67c-10-13-27.06-19-42.94-13.84-10.16,3.28-17.63,9.74-23,18.76-.3.5-.58,1-.93,1.6-9.12-4.17-18.22-4.29-27.18.47S788,67.57,785.59,76.94c-1.58,0-3.08-.08-4.57,0a26.72,26.72,0,0,0-22.45,13.73c-5.27,8.88-5.68,18.25-1.75,27.76a27.08,27.08,0,0,0,12.76,14,24.5,24.5,0,0,0,11.82,3.18c10.87-.12,21.75,0,32.62,0h1.78v4.52c0,1.05,0,2.1,0,3.15s.47,1.8,1.28,1.83,1.42-.63,1.42-1.81c0-2.18,0-4.35,0-6.53,0-.35,0-.71,0-1.11H840v29.46c-4.87,1.74-7.05,4.88-6.26,9.19a7.61,7.61,0,0,0,7.68,6.31,7.8,7.8,0,0,0,7.66-6.11C849.73,170.62,848,166.56,842.75,165.08Zm-2.7-32.17c-.46,0-.78.05-1.1.05q-29.44,0-58.88,0a9.93,9.93,0,0,1-2.5-.27c-7.31-1.89-13.14-5.82-16.86-12.42a27.34,27.34,0,0,1-1.41-25.19c4.3-10.19,14.87-16.95,26.29-15.21,1.92.29,2.15.1,2.54-1.72,1.81-8.41,6.17-15.12,13.58-19.71a26,26,0,0,1,16.56-3.89,27.72,27.72,0,0,1,10.5,3.25c1,.54,1.59.35,2.16-.65l.47-.87C836.85,46,845,39,856.58,36.27c10.83-2.54,20.77-.18,29.68,6.32a38.63,38.63,0,0,1,12.89,16.6,41.82,41.82,0,0,1,3.2,18.38c-.08,1.55.3,2,1.92,2a23.81,23.81,0,0,1,18.81,9.69,27.63,27.63,0,0,1-1.1,35.22A23.84,23.84,0,0,1,903.43,133c-10.91,0-21.82,0-32.73,0h-1.25v-25.5c0-.33.11-.75-.05-1a2.78,2.78,0,0,0-1.25-1.12c-.73-.19-1.22.37-1.38,1.09a4.48,4.48,0,0,0,0,1q0,12.08,0,24.15c0,.42,0,.84-.05,1.29h-24v-1.24q0-9,0-18.06c0-1.58-.36-2.2-1.3-2.21s-1.35.6-1.35,2.16v19.37ZM913.61,177a5.13,5.13,0,0,1,10.26-.12,5.13,5.13,0,1,1-10.26.12Zm-72.28-9.3a5.15,5.15,0,0,1,5.2,5.07,5.09,5.09,0,0,1-5.15,5.1,5,5,0,0,1-5.11-5.1A5.06,5.06,0,0,1,841.33,167.74Z"/><path d="M918.53,185.5a8.79,8.79,0,0,0,1.87-.21,8.42,8.42,0,0,0-.17-16.59c-3.08-.51-7.23.17-9.75,6.22H870.19V136.26h10.45c7.79,0,15.85,0,23.77,0a26.4,26.4,0,0,0,16.91-6.39,29.07,29.07,0,0,0,10-16.13,31,31,0,0,0-1.9-20.39,28.83,28.83,0,0,0-14.33-14.59,25.73,25.73,0,0,0-9.27-2.4c0-.11,0-.22,0-.33a44.77,44.77,0,0,0-9.34-28.07c-10.4-13.52-28-19.18-43.69-14.08-9.89,3.2-17.76,9.61-23.38,19.06-.2.34-.4.68-.61,1.06v0c-9.4-4.12-18.55-3.87-27.22.74-8.3,4.42-13.84,11.66-16.47,21.53h-1c-1.07,0-2.09,0-3.13,0-10.09.63-17.83,5.35-23,14.06-5.28,8.91-5.88,18.46-1.79,28.36A27.79,27.79,0,0,0,769.26,133a25.09,25.09,0,0,0,12.15,3.25c7.75-.09,15.65-.07,23.28,0h10.43v5c0,.66,0,1.33,0,2,0,2.25,1.49,2.48,1.94,2.5a1.92,1.92,0,0,0,1.41-.51,2.66,2.66,0,0,0,.71-2c0-1.27,0-2.54,0-3.81v-2.72c0-.14,0-.29,0-.44h20.09v28.33c-4.91,1.9-7.07,5.27-6.25,9.77a8.32,8.32,0,0,0,8.34,6.87h.11a8.54,8.54,0,0,0,8.23-6.67c.66-3.7-.67-8.22-6.29-10V136.33h22.63v39.76c0,2.3.6,2.89,2.89,2.89h41.48C912.42,183.32,915.14,185.5,918.53,185.5Zm0-15.6A8.9,8.9,0,0,1,920,170a7.09,7.09,0,0,1,.12,14c-3.72.79-6.54-1.15-8.63-5.94l-.18-.4H868.94c-1.53,0-1.53,0-1.53-1.54V135H842.07v30.61l.49.14c5.16,1.44,6.39,5.41,5.81,8.64a7.13,7.13,0,0,1-6.89,5.55h-.09a6.91,6.91,0,0,1-7-5.76c-.72-4,1.24-6.8,5.82-8.43l.45-.16V135H817.9l0,1c0,.27,0,.52,0,.77v2.72c0,1.27,0,2.54,0,3.81a1.48,1.48,0,0,1-.29,1,.54.54,0,0,1-.42.13c-.41,0-.62-.41-.63-1.16V134.9H804.69c-7.64,0-15.53,0-23.3.06a24,24,0,0,1-11.5-3.1,26.44,26.44,0,0,1-12.44-13.66c-3.93-9.5-3.35-18.64,1.71-27.17a26.06,26.06,0,0,1,21.9-13.4c1-.06,2,0,3,0h2l.12-.51c2.51-9.89,7.72-16.82,15.93-21.19,8.45-4.49,17.39-4.64,26.58-.45l.57.26.62-1.09c.21-.37.4-.71.6-1,5.53-9.28,12.93-15.32,22.63-18.46,15.18-4.92,32.14.56,42.19,13.61A43.46,43.46,0,0,1,904.42,76c0,.23,0,.46,0,.71l.08.9.6,0a24.55,24.55,0,0,1,9.34,2.3,27.62,27.62,0,0,1,13.67,13.93A29.73,29.73,0,0,1,930,113.41a27.73,27.73,0,0,1-9.51,15.39,25,25,0,0,1-16.05,6.08c-7.92.05-16,.05-23.76,0H868.83v41.36h42.58l.17-.44C913.12,171.85,915.41,169.9,918.57,169.9Zm.18,12.92h.06a5.86,5.86,0,0,0,5.74-5.91,5.68,5.68,0,0,0-5.85-5.65h-.09a5.69,5.69,0,0,0-5.68,5.79h0a5.89,5.89,0,0,0,5.82,5.77Zm0-10.21a4.31,4.31,0,0,1,4.49,4.33,4.45,4.45,0,0,1-8.9.09,4.35,4.35,0,0,1,4.34-4.42Zm-77.34,6h0a5.86,5.86,0,0,0,4.14-1.7,5.66,5.66,0,0,0,1.69-4.08,5.84,5.84,0,0,0-5.88-5.74h0a5.76,5.76,0,1,0,0,11.52Zm0-10.17a4.48,4.48,0,0,1,4.52,4.39,4.35,4.35,0,0,1-1.29,3.13,4.46,4.46,0,0,1-3.18,1.3h0a4.41,4.41,0,0,1,0-8.82Zm48.54-34.78h13.57a24.49,24.49,0,0,0,19-8.67,28.4,28.4,0,0,0,1.13-36.07,24.46,24.46,0,0,0-19.32-10,1.88,1.88,0,0,1-1.13-.25c-.13-.13-.17-.5-.15-1.09a42.46,42.46,0,0,0-3.24-18.66,39.41,39.41,0,0,0-13.12-16.89c-9.3-6.79-19.47-9-30.24-6.44-11.24,2.63-19.87,9.48-25.63,20.35l-.1.2c-.12.22-.23.44-.35.65-.39.69-.57.74-1.25.39a28.31,28.31,0,0,0-10.76-3.33,26.78,26.78,0,0,0-17,4c-7.31,4.53-12,11.31-13.88,20.14-.31,1.42-.31,1.42-1.77,1.2a25.38,25.38,0,0,0-27,15.61,28,28,0,0,0,1.45,25.78c3.62,6.43,9.43,10.72,17.27,12.74a10.59,10.59,0,0,0,2.68.3h58.87l.73,0,1.06-.06v-20c0-1,.16-1.28.26-1.38s.12-.11.4-.1.63,0,.63,1.54v20h25.3l0-1.07c0-.31,0-.61,0-.9V107.2a2.64,2.64,0,0,1,0-.58.89.89,0,0,1,.31-.56.26.26,0,0,1,.23,0c.26.07.63.54.83.81a2.5,2.5,0,0,1,0,.25c0,.13,0,.25,0,.37v26.17h21.1ZM865,36a34.89,34.89,0,0,1,20.88,7.18,38.06,38.06,0,0,1,12.67,16.32,41.35,41.35,0,0,1,3.15,18.08,2.76,2.76,0,0,0,.5,2.08,2.82,2.82,0,0,0,2.08.67,23.21,23.21,0,0,1,18.29,9.43,27.07,27.07,0,0,1-1.07,34.37,23.18,23.18,0,0,1-18,8.2q-11.56,0-23.14,0H870.13V107.47a1.94,1.94,0,0,1,0-.24,1.55,1.55,0,0,0-.2-1.12,3.33,3.33,0,0,0-1.63-1.37,1.61,1.61,0,0,0-1.29.18,2.15,2.15,0,0,0-.92,1.42,4,4,0,0,0-.06.89V131.6c0,.2,0,.41,0,.62H843.38V113.59c0-.78,0-2.85-2-2.88a1.89,1.89,0,0,0-1.37.48,3.12,3.12,0,0,0-.67,2.35v18.74h-59.3a9.23,9.23,0,0,1-2.33-.25c-7.47-1.93-13-6-16.44-12.1a26.75,26.75,0,0,1-1.37-24.6,24,24,0,0,1,25.56-14.8c2.25.34,2.83-.06,3.31-2.25A28.93,28.93,0,0,1,802.07,59a25.46,25.46,0,0,1,16.14-3.79,27,27,0,0,1,10.24,3.17,2,2,0,0,0,3.08-.91l.36-.68.11-.21c5.57-10.51,13.89-17.12,24.73-19.66A36.25,36.25,0,0,1,865,36Zm3.84,70.86Z"/><path d="M796,157.35a9.75,9.75,0,0,0,1.21,0,1.3,1.3,0,0,0,1.26-1.39,1.15,1.15,0,0,0-1.29-1.2c-2,.32-2.93-.48-3.75-2.36a7.42,7.42,0,0,0-8.43-4,7.78,7.78,0,1,0,8.93,10.4C794.46,157.36,794.46,157.36,796,157.35ZM791.72,156a5.15,5.15,0,0,1-10.3,0,5.15,5.15,0,1,1,10.3,0Z"/><path d="M786.56,164.38a8.47,8.47,0,0,0,8-5.34,3.9,3.9,0,0,1,.44-.95,3.84,3.84,0,0,1,1-.06h.35a5.83,5.83,0,0,0,.93,0,2,2,0,0,0,1.85-2.08,1.94,1.94,0,0,0-.69-1.48,1.72,1.72,0,0,0-1.37-.36c-1.55.24-2.26-.22-3-2a8.08,8.08,0,0,0-9.19-4.37,8.39,8.39,0,0,0-1.14,16.16A9,9,0,0,0,786.56,164.38Zm9.41-7.7h0c-1.8,0-2.05.19-2.71,1.87a7.15,7.15,0,1,1-8.15-9.49,6.73,6.73,0,0,1,7.66,3.59c.74,1.69,1.79,3.2,4.49,2.77a.32.32,0,0,1,.29.07.65.65,0,0,1,.21.48c0,.27,0,.63-.67.71a5.62,5.62,0,0,1-.72,0Zm-9.42,5.08a5.84,5.84,0,0,0,4.13-1.67A5.7,5.7,0,0,0,792.4,156h0a5.85,5.85,0,0,0-5.81-5.82h-.06a5.73,5.73,0,0,0-4,1.67,5.91,5.91,0,0,0-1.78,4.14,5.78,5.78,0,0,0,5.77,5.74ZM791,156a4.34,4.34,0,0,1-1.31,3.1,4.5,4.5,0,0,1-3.18,1.28h0A4.42,4.42,0,0,1,782.1,156a4.55,4.55,0,0,1,1.38-3.19A4.43,4.43,0,0,1,791,156Z"/><path d="M815.8,154.76c-1,0-1.77,0-2.57,0s-1.43.26-1.42,1.14a1.33,1.33,0,0,0,1.43,1.44c1.27,0,2.55,0,3.83,0a1.33,1.33,0,0,0,1.41-1.36c0-1.29,0-2.6,0-3.9a1.3,1.3,0,0,0-1.45-1.41c-.86,0-1.22.69-1.23,1.51S815.8,153.76,815.8,154.76Z"/><path d="M815.07,158.05l2,0a2,2,0,0,0,2.08-2c.05-1.15.05-2.37,0-4a2.17,2.17,0,0,0-.66-1.57A2.07,2.07,0,0,0,817,150a2,2,0,0,0-1.87,2.18c0,.53,0,1.06,0,1.66v.25h-1.91c-1.89.06-2.09,1.3-2.08,1.83a2,2,0,0,0,2.1,2.11Zm2.06-6.7a.67.67,0,0,1,.45.14.82.82,0,0,1,.22.62c.05,1.55.05,2.74,0,3.85,0,.49-.25.71-.75.72-1.26,0-2.54,0-3.79,0-.54,0-.77-.24-.77-.77,0-.21,0-.45.76-.47.54,0,1.07,0,1.66,0h1.57v-1.61c0-.58,0-1.11,0-1.63,0-.82.41-.84.58-.85Z"/><path d="M805,157.36c.87,0,1.75,0,2.63,0s1.46-.47,1.44-1.4-.64-1.23-1.47-1.24h-5.14a1.18,1.18,0,0,0-1.33,1.26,1.26,1.26,0,0,0,1.35,1.38C803.33,157.38,804.17,157.36,805,157.36Z"/><path d="M803.48,158h4.17a2,2,0,0,0,2.11-2.09,1.88,1.88,0,0,0-2.14-1.89q-2.58,0-5.16,0a1.84,1.84,0,0,0-2,1.92,1.93,1.93,0,0,0,2,2.06Zm1.53-1.35h-.75c-.58,0-1.16,0-1.75,0s-.7-.21-.69-.7.11-.58.65-.59h5.14c.78,0,.79.31.79.58s0,.69-.78.71-1.21,0-1.81,0Z"/><path d="M889.87,133.64h13.57a24.49,24.49,0,0,0,19-8.67,28.4,28.4,0,0,0,1.13-36.07,24.46,24.46,0,0,0-19.32-10,1.88,1.88,0,0,1-1.13-.25c-.13-.13-.17-.5-.15-1.09a42.46,42.46,0,0,0-3.24-18.66,39.41,39.41,0,0,0-13.12-16.89c-9.3-6.79-19.47-9-30.24-6.44-11.24,2.63-19.87,9.48-25.63,20.35l-.1.2c-.12.22-.23.44-.35.65-.39.69-.57.74-1.25.39a28.31,28.31,0,0,0-10.76-3.33,26.78,26.78,0,0,0-17,4c-7.31,4.53-12,11.31-13.88,20.14-.31,1.42-.31,1.42-1.77,1.2a25.38,25.38,0,0,0-27,15.61,28,28,0,0,0,1.45,25.78c3.62,6.43,9.43,10.72,17.27,12.74a10.59,10.59,0,0,0,2.68.3h58.87l.73,0,1.06-.06v-20c0-1,.16-1.28.26-1.38s.12-.11.4-.1.63,0,.63,1.54v20h25.3l0-1.07c0-.31,0-.61,0-.9V107.2a2.64,2.64,0,0,1,0-.58.89.89,0,0,1,.31-.56.26.26,0,0,1,.23,0c.26.07.63.54.83.81a2.5,2.5,0,0,1,0,.25c0,.13,0,.25,0,.37v26.17h21.1ZM865,36a34.89,34.89,0,0,1,20.88,7.18,38.06,38.06,0,0,1,12.67,16.32,41.35,41.35,0,0,1,3.15,18.08,2.76,2.76,0,0,0,.5,2.08,2.82,2.82,0,0,0,2.08.67,23.21,23.21,0,0,1,18.29,9.43,27.07,27.07,0,0,1-1.07,34.37,23.18,23.18,0,0,1-18,8.2q-11.56,0-23.14,0H870.13V107.47a1.94,1.94,0,0,1,0-.24,1.55,1.55,0,0,0-.2-1.12,3.33,3.33,0,0,0-1.63-1.37,1.61,1.61,0,0,0-1.29.18,2.15,2.15,0,0,0-.92,1.42,4,4,0,0,0-.06.89V131.6c0,.2,0,.41,0,.62H843.38V113.59c0-.78,0-2.85-2-2.88a1.82,1.82,0,0,0-1.37.48,3.12,3.12,0,0,0-.67,2.35v18.74h-59.3a9.23,9.23,0,0,1-2.33-.25c-7.47-1.93-13-6-16.44-12.1a26.75,26.75,0,0,1-1.37-24.6,24,24,0,0,1,25.56-14.8c2.25.34,2.83-.06,3.31-2.25A28.93,28.93,0,0,1,802.07,59a25.46,25.46,0,0,1,16.14-3.79,27,27,0,0,1,10.24,3.17,2,2,0,0,0,3.08-.91l.36-.68.11-.21c5.57-10.51,13.89-17.12,24.73-19.66A36.25,36.25,0,0,1,865,36Zm3.84,70.86Zm-51.65,22.32a2,2,0,0,0,1.41-.52,2,2,0,0,0,.59-1.5c0-2.76,0-5.51,0-8.17a2,2,0,0,0-.6-1.46,2.07,2.07,0,0,0-1.53-.54,1.92,1.92,0,0,0-1.9,2.06c0,1,0,1.92,0,2.88v2.45c0,.9,0,1.8,0,2.7a1.89,1.89,0,0,0,2,2.09Zm0-10.84a.6.6,0,0,1,.68.67c0,2.65,0,5.38,0,8.13a.77.77,0,0,1-.17.55.71.71,0,0,1-.51.14c-.36,0-.63-.07-.63-.74V119c0-.68.43-.7.59-.7Zm103.14.57a1.54,1.54,0,0,0,.86-.25,2,2,0,0,0,.88-1.4c.41-2.42.79-4.84,1.12-7.2a14.83,14.83,0,0,0,.11-1.86l0-.81v0a27.08,27.08,0,0,0-2.67-12.61,18.52,18.52,0,0,0-8.88-8.55,10.78,10.78,0,0,0-1.5-.54l-.34-.1a2.16,2.16,0,0,0-1.69.07,1.92,1.92,0,0,0-.91,1.18,2,2,0,0,0,.12,1.58,2.18,2.18,0,0,0,1.38,1A12.42,12.42,0,0,1,914,92.54c3.13,3,4.76,7,5.11,12.41a38.39,38.39,0,0,1-1,10.92l0,.15a1.78,1.78,0,0,0,0,1.41,3.16,3.16,0,0,0,1.56,1.35A1.88,1.88,0,0,0,920.26,118.86Zm1.64-11.56c0,.27,0,.54,0,.82a15.5,15.5,0,0,1-.11,1.7c-.32,2.35-.7,4.76-1.11,7.17a.72.72,0,0,1-.26.48.29.29,0,0,1-.28,0,1.75,1.75,0,0,1-.75-.72,2.47,2.47,0,0,1,.08-.43l0-.18a38.86,38.86,0,0,0,1-11.3c-.37-5.7-2.17-10-5.51-13.29A13.71,13.71,0,0,0,909.14,88a1,1,0,0,1-.56-.35.73.73,0,0,1,0-.55.55.55,0,0,1,.24-.37.92.92,0,0,1,.65,0l.34.1a9.89,9.89,0,0,1,1.33.47,17.16,17.16,0,0,1,8.24,7.94A25.41,25.41,0,0,1,921.9,107.3Zm-104.74,5.29a1.87,1.87,0,0,0,2-1.79,38.73,38.73,0,0,0,0-4.31,1.89,1.89,0,0,0-2-1.81h0a1.85,1.85,0,0,0-2,1.84,14.85,14.85,0,0,0,0,1.49c0,.2,0,.41,0,.62s0,.4,0,.6c0,.49,0,1,0,1.5a1.88,1.88,0,0,0,1.92,1.86Zm0-6.57a.56.56,0,0,1,.65.54,38.46,38.46,0,0,1,0,4.16c0,.36-.23.55-.64.52s-.59-.17-.62-.59,0-.91,0-1.39c0-.21,0-.42,0-.63h0c0-.22,0-.43,0-.65,0-.47,0-.92,0-1.36s.27-.59.61-.6Zm24.26,3.89a1.9,1.9,0,0,0,1.39-.52,2.21,2.21,0,0,0,.6-1.63V94.49a2,2,0,0,0-1.91-2.12,1.73,1.73,0,0,0-1.37.44,2.27,2.27,0,0,0-.73,1.73c0,1.59,0,3.18,0,4.78v3.51c0,1.62,0,3.24,0,4.86a2,2,0,0,0,2,2.22Zm-.12-16.21h.05c.51.05.71.26.7.78v13.27a.93.93,0,0,1-.19.67.62.62,0,0,1-.47.13c-.27,0-.64,0-.64-.86,0-1.62,0-3.25,0-4.87V99.31c0-1.58,0-3.17,0-4.76a1,1,0,0,1,.27-.74A.4.4,0,0,1,841.27,93.7Zm-24.1,10.38a2,2,0,0,0,1.37-.5,2.07,2.07,0,0,0,.61-1.51c.05-2.14.05-4.42,0-6.76a2,2,0,0,0-.62-1.5,2,2,0,0,0-1.48-.5,1.92,1.92,0,0,0-1.91,2.13c0,.79,0,1.57,0,2.35v2c0,.73,0,1.45,0,2.18a1.9,1.9,0,0,0,1.92,2.11Zm0-9.42a.6.6,0,0,1,.43.13.77.77,0,0,1,.19.55c.05,2.32.05,4.58,0,6.7a.76.76,0,0,1-.19.56.66.66,0,0,1-.49.13c-.34,0-.6-.08-.61-.78s0-1.45,0-2.17V98.14h0V95.45c0-.71.3-.78.62-.79Zm50.94,9.42h.06c.72,0,1.92-.32,2-2.22,0-2.12,0-4.28,0-6.37v-.92a2,2,0,0,0-2-2.19h0a2,2,0,0,0-2,2.19v3.7c0,.36,0,.72,0,1.08,0,.84,0,1.68,0,2.52A2,2,0,0,0,868.11,104.08Zm0-10.37c.22,0,.66,0,.66.86v.92c0,2.08,0,4.23,0,6.35,0,.87-.31.88-.62.89s-.69,0-.72-.9,0-1.66,0-2.49v-.41h0V97.15c0-.86,0-1.72,0-2.58S867.91,93.71,868.11,93.71Zm27.38-14.62c1.24,0,1.88-.82,1.91-2.43v-.15h0v0h0A39.09,39.09,0,0,0,892.65,59a45.87,45.87,0,0,0-16.48-17c-1-.61-2-1.13-3-1.65a2.43,2.43,0,0,0-1.92-.25,1.82,1.82,0,0,0-1.08,1c-.3.67-.56,1.91,1.18,2.8A43.26,43.26,0,0,1,884.8,54.6,35.67,35.67,0,0,1,893,72.32a41.26,41.26,0,0,1,.37,4.15l0,.32a2.08,2.08,0,0,0,2.08,2.3Zm.55-2.56v.1c0,1.12-.29,1.11-.57,1.11-.45,0-.69,0-.74-1l0-.32a41.69,41.69,0,0,0-.39-4.29,37.12,37.12,0,0,0-8.47-18.38,44.93,44.93,0,0,0-13.91-11c-.78-.4-.73-.68-.56-1a.51.51,0,0,1,.28-.31,1.27,1.27,0,0,1,.86.18c1,.51,2,1,2.93,1.59a44.62,44.62,0,0,1,16,16.49A38,38,0,0,1,896,76.53Z"/><path d="M918.75,182.82h.06a5.86,5.86,0,0,0,5.74-5.91,5.68,5.68,0,0,0-5.85-5.65h-.09a5.69,5.69,0,0,0-5.68,5.79h0a5.89,5.89,0,0,0,5.82,5.77Zm0-10.21a4.31,4.31,0,0,1,4.49,4.33,4.45,4.45,0,0,1-8.9.09,4.35,4.35,0,0,1,4.34-4.42Z"/><path d="M841.36,178.59h0a5.86,5.86,0,0,0,4.14-1.7,5.66,5.66,0,0,0,1.69-4.08,5.84,5.84,0,0,0-5.88-5.74h0a5.76,5.76,0,1,0,0,11.52Zm0-10.17a4.48,4.48,0,0,1,4.52,4.39,4.35,4.35,0,0,1-1.29,3.13,4.46,4.46,0,0,1-3.18,1.3h0a4.41,4.41,0,0,1,0-8.82Z"/><path d="M786.55,161.76a5.84,5.84,0,0,0,4.13-1.67A5.7,5.7,0,0,0,792.4,156h0a5.85,5.85,0,0,0-5.81-5.82h-.06a5.73,5.73,0,0,0-4,1.67,5.91,5.91,0,0,0-1.78,4.14,5.78,5.78,0,0,0,5.77,5.74ZM791,156a4.34,4.34,0,0,1-1.31,3.1,4.5,4.5,0,0,1-3.18,1.28h0A4.42,4.42,0,0,1,782.1,156a4.55,4.55,0,0,1,1.38-3.19A4.43,4.43,0,0,1,791,156Z"/><path d="M896.72,76.51a38.59,38.59,0,0,0-4.67-17.23,45.58,45.58,0,0,0-16.24-16.74c-1-.6-2-1.12-3-1.62s-1.72-.32-2.07.44c-.44,1,.06,1.51.87,1.92a44.19,44.19,0,0,1,13.7,10.88,36.31,36.31,0,0,1,8.32,18c.24,1.5.31,3,.4,4.54.05,1,.3,1.65,1.41,1.67.87,0,1.24-.52,1.26-1.78Z"/><path d="M895.49,79.09c1.24,0,1.88-.82,1.91-2.43v-.15h0v0h0A39.09,39.09,0,0,0,892.65,59a45.87,45.87,0,0,0-16.48-17c-1-.61-2-1.13-3-1.65a2.43,2.43,0,0,0-1.92-.25,1.82,1.82,0,0,0-1.08,1c-.3.67-.56,1.91,1.18,2.8A43.26,43.26,0,0,1,884.8,54.6,35.67,35.67,0,0,1,893,72.32a41.26,41.26,0,0,1,.37,4.15l0,.32a2.08,2.08,0,0,0,2.08,2.3Zm.55-2.56v.1c0,1.12-.29,1.11-.57,1.11-.45,0-.69,0-.74-1l0-.32a41.69,41.69,0,0,0-.39-4.29,37.12,37.12,0,0,0-8.47-18.38,44.93,44.93,0,0,0-13.91-11c-.78-.4-.73-.68-.56-1a.51.51,0,0,1,.28-.31,1.27,1.27,0,0,1,.86.18c1,.51,2,1,2.93,1.59a44.62,44.62,0,0,1,16,16.49A38,38,0,0,1,896,76.53Z"/><path d="M922.58,107.31A26.28,26.28,0,0,0,920,95a17.73,17.73,0,0,0-8.56-8.25,14.46,14.46,0,0,0-1.75-.61c-.82-.25-1.49-.06-1.75.8a1.28,1.28,0,0,0,1,1.73,13.16,13.16,0,0,1,5.56,3.37c3.62,3.53,5,8,5.31,12.86a38.85,38.85,0,0,1-1,11.11c-.08.35-.23.81-.08,1a2.48,2.48,0,0,0,1.18,1.07,1.11,1.11,0,0,0,1.4-1q.61-3.59,1.12-7.18C922.57,109.06,922.54,108.18,922.58,107.31Z"/><path d="M920.26,118.86a1.54,1.54,0,0,0,.86-.25,2,2,0,0,0,.88-1.4c.41-2.42.79-4.84,1.12-7.2a14.83,14.83,0,0,0,.11-1.86l0-.81v0a27.08,27.08,0,0,0-2.67-12.61,18.52,18.52,0,0,0-8.88-8.55,10.78,10.78,0,0,0-1.5-.54l-.34-.1a2.16,2.16,0,0,0-1.69.07,1.92,1.92,0,0,0-.91,1.18,2,2,0,0,0,.12,1.58,2.18,2.18,0,0,0,1.38,1A12.42,12.42,0,0,1,914,92.54c3.13,3,4.76,7,5.11,12.41a38.39,38.39,0,0,1-1,10.92l0,.15a1.78,1.78,0,0,0,0,1.41,3.16,3.16,0,0,0,1.56,1.35A1.88,1.88,0,0,0,920.26,118.86Zm1.64-11.56c0,.27,0,.54,0,.82a15.5,15.5,0,0,1-.11,1.7c-.32,2.35-.7,4.76-1.11,7.17a.72.72,0,0,1-.26.48.29.29,0,0,1-.28,0,1.75,1.75,0,0,1-.75-.72,2.47,2.47,0,0,1,.08-.43l0-.18a38.86,38.86,0,0,0,1-11.3c-.37-5.7-2.17-10-5.51-13.29A13.71,13.71,0,0,0,909.14,88a.92.92,0,0,1-.56-.35.73.73,0,0,1,0-.55.55.55,0,0,1,.24-.37.92.92,0,0,1,.65,0l.34.1a9.89,9.89,0,0,1,1.33.47,17.16,17.16,0,0,1,8.24,7.94A25.41,25.41,0,0,1,921.9,107.3Zm-2.53,9.51Z"/><path d="M840.05,101.28c0,2.14,0,4.28,0,6.42,0,.9.37,1.52,1.31,1.54s1.35-.57,1.35-1.48V94.49A1.31,1.31,0,0,0,841.4,93c-.76-.08-1.34.59-1.35,1.5C840,96.79,840.05,99,840.05,101.28Z"/><path d="M841.39,109.91a1.9,1.9,0,0,0,1.39-.52,2.21,2.21,0,0,0,.6-1.63V94.49a2,2,0,0,0-1.91-2.12,1.73,1.73,0,0,0-1.37.44,2.27,2.27,0,0,0-.73,1.73q0,2.49,0,5V103c0,1.57,0,3.14,0,4.7a2,2,0,0,0,2,2.22Zm-.12-16.21h.05c.51.05.71.26.7.78v13.27a.93.93,0,0,1-.19.67.57.57,0,0,1-.47.13c-.27,0-.64,0-.64-.86,0-1.57,0-3.14,0-4.71V99.52c0-1.66,0-3.32,0-5a1,1,0,0,1,.27-.74A.4.4,0,0,1,841.27,93.7Z"/><path d="M866.74,98.26c0,1.19,0,2.39,0,3.58s.52,1.58,1.42,1.56,1.27-.74,1.28-1.56c0-2.42,0-4.85,0-7.28,0-.88-.43-1.52-1.35-1.52s-1.35.64-1.36,1.52c0,1.23,0,2.47,0,3.7Z"/><path d="M868.11,104.08h.06c.72,0,1.92-.32,2-2.22,0-2.12,0-4.28,0-6.37v-.92a2,2,0,0,0-2-2.19h0a2,2,0,0,0-2,2.19v3.7c0,.36,0,.72,0,1.08,0,.84,0,1.68,0,2.52A2,2,0,0,0,868.11,104.08Zm0-10.37c.22,0,.66,0,.66.86v.92c0,2.08,0,4.23,0,6.35,0,.87-.31.88-.62.89s-.69,0-.72-.9,0-1.66,0-2.49v-.41h0V97.15c0-.86,0-1.72,0-2.58S867.91,93.71,868.11,93.71Z"/><path d="M815.81,123.12c0,1.31,0,2.61,0,3.92a1.34,1.34,0,1,0,2.67.06c0-2.72,0-5.43,0-8.15a1.28,1.28,0,0,0-1.43-1.33,1.23,1.23,0,0,0-1.24,1.38C815.82,120.37,815.81,121.75,815.81,123.12Z"/><path d="M817.16,129.13a2,2,0,0,0,1.41-.52,2,2,0,0,0,.59-1.5c0-2.76,0-5.51,0-8.17a2,2,0,0,0-.6-1.46,2.07,2.07,0,0,0-1.53-.54,1.92,1.92,0,0,0-1.9,2.06c0,1,0,1.92,0,2.88v2.45c0,.9,0,1.8,0,2.7a1.89,1.89,0,0,0,2,2.09Zm0-10.84a.6.6,0,0,1,.68.67c0,2.65,0,5.38,0,8.13a.77.77,0,0,1-.17.55.72.72,0,0,1-.51.14c-.36,0-.63-.07-.63-.74V119c0-.68.43-.7.59-.7Z"/><path d="M815.82,98.81c0,1,0,2.1,0,3.15,0,.83.35,1.4,1.27,1.44a1.24,1.24,0,0,0,1.38-1.35c0-2.24,0-4.48,0-6.72A1.24,1.24,0,0,0,817.08,94c-.9,0-1.26.62-1.26,1.46,0,1.12,0,2.24,0,3.36Z"/><path d="M817.17,104.08a2,2,0,0,0,1.37-.5,2.07,2.07,0,0,0,.61-1.51c.05-2.14.05-4.42,0-6.76a2,2,0,0,0-.62-1.5,2,2,0,0,0-1.48-.5,1.92,1.92,0,0,0-1.91,2.13c0,.79,0,1.57,0,2.35v2c0,.73,0,1.45,0,2.18a1.9,1.9,0,0,0,1.92,2.11Zm0-9.42a.6.6,0,0,1,.43.13.77.77,0,0,1,.19.55c.05,2.32.05,4.58,0,6.7a.76.76,0,0,1-.19.56.66.66,0,0,1-.49.13c-.34,0-.6-.08-.61-.78s0-1.45,0-2.17V98.14h0V95.45c0-.71.3-.78.62-.79Z"/><path d="M815.83,108.63c0,.69,0,1.38,0,2.06a1.32,1.32,0,0,0,2.62.07,37.48,37.48,0,0,0,0-4.24,1.21,1.21,0,0,0-1.33-1.17,1.2,1.2,0,0,0-1.28,1.22C815.79,107.25,815.83,107.94,815.83,108.63Z"/><path d="M817.16,112.59a1.87,1.87,0,0,0,2-1.79,38.73,38.73,0,0,0,0-4.31,1.89,1.89,0,0,0-2-1.81h0a1.85,1.85,0,0,0-2,1.84,14.69,14.69,0,0,0,0,1.48c0,.21,0,.42,0,.63s0,.41,0,.61a14.85,14.85,0,0,0,0,1.49,1.88,1.88,0,0,0,1.92,1.86Zm0-6.57a.56.56,0,0,1,.65.54,38.46,38.46,0,0,1,0,4.16c0,.36-.23.55-.64.52s-.59-.17-.62-.59,0-.91,0-1.39c0-.21,0-.42,0-.63s0-.44,0-.65c0-.48,0-.92,0-1.36s.27-.59.61-.6Z"/><rect class="cls-2" x="53.94" y="387.34" width="155.68" height="102.01"/><path d="M197.26,400.09v64.68H66.3V400.09h131m2.56-2.56H63.74v69.8H199.82v-69.8Z"/><path d="M176.25,515.42H87.32V506h7.16a2.65,2.65,0,0,0,2.58-2l3.44-13.71h62.57L166.51,504a2.65,2.65,0,0,0,2.58,2h7.16Zm-84.33-4.61h79.72v-.18h-2.55a7.26,7.26,0,0,1-7.05-5.49l-2.57-10.23H104.09l-2.57,10.23a7.25,7.25,0,0,1-7,5.49H91.92Z"/><path d="M131.78,473.44a3.3,3.3,0,1,1-3.3,3.3,3.3,3.3,0,0,1,3.3-3.3m0-2.05a5.35,5.35,0,1,0,5.35,5.35,5.36,5.36,0,0,0-5.35-5.35Z"/><path d="M90.54,461.36,85.16,460v-1.88A12.8,12.8,0,0,1,82,455.93l-1.79.55-2.87-4.73,1.27-1.28a13.16,13.16,0,0,1-.6-3.84l-1.63-.87,1.32-5.37h1.85a13.15,13.15,0,0,1,2.27-3.06l-.57-1.85L86,432.61l1.42,1.4a12.83,12.83,0,0,1,3.59-.52l1-1.85L97.39,433v2.14a12.77,12.77,0,0,1,2.78,2.06l2.12-.65,2.87,4.74-1.56,1.57a13.09,13.09,0,0,1,.53,3.35l2,1.06-1.32,5.38h-2.18a12.7,12.7,0,0,1-2,2.82l.64,2.08-4.74,2.86L95.08,459a12.89,12.89,0,0,1-3.6.62Zm-3.83-2.55,3,.75.82-1.54H91a11.34,11.34,0,0,0,4-.69l.46-.17,1.28,1.26,2.66-1.6L98.86,455l.34-.33a11.47,11.47,0,0,0,2.25-3.18l.21-.43h1.93l.74-3-1.75-.93v-.48a11.26,11.26,0,0,0-.59-3.77l-.16-.46,1.38-1.39-1.61-2.66-1.87.58-.33-.35a11.55,11.55,0,0,0-3.12-2.31l-.43-.22v-1.87l-3-.74L92,435.07l-.49,0a11.53,11.53,0,0,0-4,.58l-.46.15-1.22-1.21-2.66,1.61.49,1.61-.36.33a11.51,11.51,0,0,0-2.5,3.37l-.21.44H79l-.75,3,1.41.74,0,.49a11.45,11.45,0,0,0,.67,4.22l.16.46L79.34,452,81,454.64l1.54-.47.34.34A11.15,11.15,0,0,0,86.26,457l.44.21Z"/><path d="M82.56,451.69a10,10,0,1,1,14.19,3.05h0a10,10,0,0,1-13.86-2.54Q82.71,451.94,82.56,451.69Zm16.33-9.86-.3-.46A9.11,9.11,0,1,0,96.26,454h0A9.11,9.11,0,0,0,98.89,441.83Z"/><path d="M131,461.81l-10.22-2.52,0-3.58a24.41,24.41,0,0,1-5.91-4.22l-3.41,1.05-5.45-9,2.41-2.43a24.47,24.47,0,0,1-1.15-7.3l-3.1-1.65,2.52-10.22,3.52,0a24.36,24.36,0,0,1,4.31-5.81l-1.08-3.52,9-5.44,2.69,2.66a24.69,24.69,0,0,1,6.83-1l1.86-3.51L144,407.82l0,4.08a24.64,24.64,0,0,1,5.29,3.91l4-1.24,5.45,9-3,3a24.48,24.48,0,0,1,1,6.36l3.8,2-2.52,10.22-4.14,0a24.48,24.48,0,0,1-3.82,5.37l1.21,4-9,5.45-2.74-2.72a24.34,24.34,0,0,1-6.84,1.16ZM123.68,457l5.74,1.41,1.55-2.92h.9a21.54,21.54,0,0,0,7.6-1.3l.88-.32,2.43,2.4,5.05-3.06-1.05-3.44.64-.63a21.7,21.7,0,0,0,4.28-6l.41-.84,3.66,0,1.41-5.74-3.33-1.77v-.9a21.83,21.83,0,0,0-1.14-7.17l-.29-.87,2.62-2.64L152,418.08l-3.56,1.09-.64-.66a21.54,21.54,0,0,0-5.93-4.4l-.81-.4v-3.57l-5.75-1.41-1.63,3.08-.93,0a22.06,22.06,0,0,0-7.6,1.1l-.86.29-2.33-2.31-5.06,3.06.94,3.07-.68.63a21.56,21.56,0,0,0-4.76,6.41l-.41.83-3,0-1.41,5.74L110.2,432l0,.92a21.7,21.7,0,0,0,1.27,8l.31.88-2.09,2.1,3.06,5.06,2.93-.89.63.65a21.69,21.69,0,0,0,6.53,4.65l.85.4Z"/><path d="M115.78,443.43a19,19,0,1,1,27,5.8h0a19,19,0,0,1-26.37-4.84C116.18,444.07,116,443.75,115.78,443.43Zm31.05-18.76c-.18-.29-.37-.59-.57-.87a17.31,17.31,0,1,0-4.42,24.08h0A17.34,17.34,0,0,0,146.83,424.67Z"/><path d="M174.63,438.16l-6.12-1.51v-2.14A14.75,14.75,0,0,1,165,432l-2.05.63-3.26-5.4,1.44-1.46a15,15,0,0,1-.68-4.37l-1.86-1,1.51-6.12h2.11a14.48,14.48,0,0,1,2.58-3.49l-.65-2.1,5.4-3.26,1.61,1.59a15.26,15.26,0,0,1,4.09-.59l1.11-2.1,6.12,1.51,0,2.44a15,15,0,0,1,3.16,2.34l2.42-.74,3.26,5.4-1.78,1.79a14.93,14.93,0,0,1,.61,3.81l2.27,1.21-1.51,6.12H188.4a14.28,14.28,0,0,1-2.29,3.22l.73,2.37-5.39,3.26-1.65-1.63a14.5,14.5,0,0,1-4.09.7Zm-4.36-2.9,3.44.85.93-1.75h.54a12.81,12.81,0,0,0,4.55-.78l.53-.19,1.45,1.44,3-1.83-.63-2.06.38-.38a13.13,13.13,0,0,0,2.57-3.61l.24-.5h2.19l.85-3.44-2-1.06v-.54a13.34,13.34,0,0,0-.68-4.3l-.18-.51,1.57-1.59-1.83-3-2.14.65-.37-.39a13,13,0,0,0-3.56-2.63l-.48-.25v-2.13l-3.44-.85-1,1.85-.55,0a13.1,13.1,0,0,0-4.56.66l-.51.17-1.4-1.38-3,1.83.56,1.84-.4.38a12.69,12.69,0,0,0-2.85,3.84l-.24.49h-1.82l-.85,3.44,1.6.85v.55a13.07,13.07,0,0,0,.75,4.81l.19.53-1.25,1.26,1.84,3,1.75-.54.38.39a12.84,12.84,0,0,0,3.9,2.79l.51.23Z"/><path d="M165.55,427.15a11.35,11.35,0,1,1,16.16,3.48h0a11.37,11.37,0,0,1-15.79-2.9C165.79,427.54,165.66,427.34,165.55,427.15Zm18.59-11.23-.34-.53a10.37,10.37,0,1,0-2.65,14.43h0A10.4,10.4,0,0,0,184.14,415.92Z"/><path d="M415.38,833l-12-12,22.44-22.44-5.37-5.37L450,786.29l-6.81,29.51-5.32-5.33Zm-8.2-12,8.2,8.19,22.49-22.48,3.78,3.78,4.73-20.51-20.58,4.76,3.82,3.82Z"/><path d="M382.12,813.54H365.5v-1.35c0-9.7,0-28.82,0-42.78v-6.25h-7.6l15.92-25.49,15.94,25.49h-4.11c-1.21,0-2.36,0-3.52,0v0c0,6.68,0,24.07,0,39.42Zm-13.91-2.71H379.4V802.6c0-15.35,0-32.74,0-39.41a2.83,2.83,0,0,1,.74-2.14,2.76,2.76,0,0,1,2.12-.63c.84.05,1.7.05,2.59,0l-11-17.67-11,17.65H365c2.55,0,3.17.63,3.17,3.18v5.79C368.18,782.75,368.18,800.79,368.21,810.83Z"/><path d="M332.06,834.75l-22.42-22.43-5.38,5.38-6.84-29.59L327,794.93l-5.34,5.34,22.46,22.46Zm-22.42-26.26,22.42,22.43,8.19-8.19-22.47-22.46,3.8-3.8L301,791.73l4.76,20.6Z"/><path d="M465.74,879.7l.05-7.53C448,872.05,421,872,420.67,872h-1.35l-.05-14-6.62-1.58L412,854a39,39,0,0,0-5.25-12l-1.39-2.13,3.38-5.82-6.4-6.22-5.73,3.53L394.49,830a39.08,39.08,0,0,0-12.35-5l-2.47-.53L378,818.33l-8.92.12-1.46,6.14-2.51.56a39.24,39.24,0,0,0-12.77,5.38l-2.12,1.38-5.1-3-6.22,6.39,3,4.92-1.39,2.17a39.35,39.35,0,0,0-5.39,13.37l-.5,2.51-5.27,1.4,0,12.32h-1.36c-.22,0-21.3,0-38.78-.16l0,7.62-25.69-16.3,25.79-15.87-.05,7.53c8.06.06,12.11.12,16,.18s7.89.11,15.78.17v-1.8l6.59-1.75a47.18,47.18,0,0,1,4.59-11.4l-3.73-6,15.18-15.6,6.35,3.68a47.59,47.59,0,0,1,10.74-4.52l1.77-7.46,21.76-.29,2,7.61a47.29,47.29,0,0,1,10.24,4.12l6.94-4.27,15.59,15.18L415,839.7a46.68,46.68,0,0,1,4.31,9.88l8.06,1.91.1,3.3c8.17.06,13.64.12,19.11.18s11,.12,19.17.18l0-7.63,25.69,16.3ZM422,869.32c5.88,0,29.64,0,45.15.15h1.35l0,5.34,17.92-11-17.89-11.36,0,5.45h-1.35c-9-.06-14.76-.13-20.54-.19s-11.51-.12-20.4-.19h-1.31l-.12-3.84-7.56-1.8-.22-.76a45.23,45.23,0,0,0-4.67-10.69l-.42-.68,3.83-6.61-12.57-12.23-6.5,4-.69-.4a44.66,44.66,0,0,0-11-4.45l-.77-.19-1.89-7.1-17.53.23-1.66,7-.78.2A44.76,44.76,0,0,0,350.76,825l-.68.41-5.9-3.42L332,834.57l3.47,5.64-.41.7a44.76,44.76,0,0,0-4.9,12.16l-.19.78-6.11,1.63v2.45h-1.37c-8.83-.06-13.07-.12-17.18-.18s-8.42-.13-17.37-.19h-1.36l0-5.34-17.93,11,17.89,11.35,0-5.44h1.36c15.18.11,33.65.15,38.75.16l0-11.68,5.66-1.51.17-.85A41.63,41.63,0,0,1,338.27,841l.47-.75L335.5,835l9.17-9.43,5.49,3.19.72-.48a42.06,42.06,0,0,1,13.65-5.74l.86-.2,1.56-6.54,13.15-.18,1.76,6.65.85.18a41.48,41.48,0,0,1,13.2,5.32l.74.45,6.11-3.76,9.42,9.17-3.59,6.21.47.72a42.09,42.09,0,0,1,5.62,12.84l.2.83,7.09,1.68Z"/><path d="M347.66,870.66a27.42,27.42,0,0,1-1.54-9.1,27.68,27.68,0,1,1,53.82,9.1h4a31.47,31.47,0,1,0-61.59-9.1,31.74,31.74,0,0,0,1.34,9.1Z"/><path d="M362.6,869.64a11.86,11.86,0,1,1,22.4,0h1.7a13.19,13.19,0,0,0,.58-3.9,13.48,13.48,0,1,0-27,0,13.19,13.19,0,0,0,.58,3.9Z"/><path d="M852.12,752.68a58.93,58.93,0,1,0,59,58.71A58.86,58.86,0,0,0,852.12,752.68Zm-2,4.28v21.22a80.2,80.2,0,0,1-8.09-.64,70.18,70.18,0,0,1-11.33-2.44C833,766.91,843.85,756.75,850.12,757ZM837,758.77c-.49.61-1,1.2-1.48,1.79-1.49,1.77-3,3.5-4.24,5.35-.64.91-1.24,1.87-1.82,2.85-1,1.63-1.9,3.32-3,5.08l-3.44-1.62-6-2.83A54.85,54.85,0,0,1,837,758.77ZM797.6,805c0-.11,0-.23,0-.34q.08-.66.18-1.32A54.66,54.66,0,0,1,808,778.92a59.92,59.92,0,0,1,5.07-6,2.61,2.61,0,0,1,.25-.23l.11-.09.15-.11c.5-.3.94-.2,1.63.16,2.87,1.5,5.82,2.86,8.75,4.26l.27.13.91.4c-.51,1.29-1,2.6-1.42,3.9s-.86,2.62-1.23,3.94c-.19.66-.37,1.32-.53,2-.5,2-.91,4-1.21,6-.58,3.88-1,7.78-1.43,11.7l-.51,4.54H797.17C797.33,808,797.43,806.53,797.6,805Zm15.69,45.35a53.83,53.83,0,0,1-10.14-13.94A54.81,54.81,0,0,1,797.29,815c0-.4,0-.8,0-1.32h21.55c.63,5.44,1.14,10.89,1.94,16.3a71.6,71.6,0,0,0,4.31,15.58c-3.62,1.84-7.05,3.6-10.51,5.29A1.55,1.55,0,0,1,813.29,850.39Zm3.73,3.44h0l2.45-1.16,3.65-1.73,3.53-1.67h0c.42.87.86,1.72,1.31,2.56a47.17,47.17,0,0,0,9.1,12.47h0A52.51,52.51,0,0,1,817,853.83Zm33.11,12.49c-.5-.06-1-.07-1.41-.17a18.24,18.24,0,0,1-4.7-1.83,21.18,21.18,0,0,1-2.75-1.83c-.45-.35-.88-.71-1.31-1.09-.82-.74-1.6-1.52-2.36-2.35a38.9,38.9,0,0,1-3.32-4.28,50,50,0,0,1-2.77-4.68c-.24-.46-.47-.93-.7-1.39a.56.56,0,0,1,0-.12,1.71,1.71,0,0,1-.08-.29l-.05-.17c1.59-.49,3.19-.91,4.79-1.28s3.22-.68,4.84-.93a80.27,80.27,0,0,1,9.86-.89Zm.11-26.56c0,.94-.17,1.36-1.25,1.39a74.38,74.38,0,0,0-19.08,3.05c-.73.21-1.08.12-1.36-.63a88.81,88.81,0,0,1-5.43-29.34,5.56,5.56,0,0,1,.1-.7h8.83c5.65,0,11.3,0,16.94,0,.94,0,1.25.22,1.25,1.21Q850.18,827.27,850.24,839.76Zm0-31.22a2.16,2.16,0,0,1-.08.67.58.58,0,0,1-.21.28,1.1,1.1,0,0,1-.69.17c-4.25,0-8.5,0-12.74,0l-12.75,0a4,4,0,0,1-.45,0l-.31-.05c.22-3,.35-5.92.65-8.81.1-.89.2-1.78.32-2.66s.25-1.76.39-2.63a82.23,82.23,0,0,1,4-15.44c.38-1,.8-1.22,1.84-.91a72.58,72.58,0,0,0,14,2.69q1.18.12,2.37.18c.79,0,1.58.09,2.38.11s1.06.14,1.2.62a1.81,1.81,0,0,1,.06.27c0,.11,0,.22,0,.35Q850.18,795.92,850.23,808.54Zm40.89-35.73a54.94,54.94,0,0,1,15.94,35.33c0,.44,0,.88,0,1.43H885.22a93.81,93.81,0,0,0-6-32.06l.85-.45c3.1-1.5,6.23-3,9.3-4.53A1.23,1.23,0,0,1,891.12,772.81Zm-3.81-3.45-9.45,4.48c-1.71-2.87-3.12-5.58-4.85-8.06s-3.73-4.64-5.67-7A54.74,54.74,0,0,1,887.31,769.36Zm-33.1-12.5a14,14,0,0,1,5.49,1.7,26.38,26.38,0,0,1,9.6,8.81c1.65,2.38,3.06,4.93,4.7,7.61a74.87,74.87,0,0,1-19.79,3.22Zm-.1,26.65c0-1.12.31-1.43,1.43-1.46a73.85,73.85,0,0,0,18.83-3c.79-.23,1.16-.13,1.46.67a89.51,89.51,0,0,1,5.41,29.1,7.2,7.2,0,0,1-.09.92h-12.3c-4.43,0-8.85-.07-13.28,0-1.07,0-1.47-.22-1.47-1.4Q854.19,795.9,854.11,783.51Zm0,31.28c0-.68,0-1.28,1-1.27,8.53,0,17.06,0,25.59,0a6.22,6.22,0,0,1,.65.11c-.21,2.89-.33,5.73-.62,8.55a85,85,0,0,1-4.78,21c-.37,1-.76,1.25-1.83.93a73.44,73.44,0,0,0-18.85-3c-.93,0-1.15-.35-1.15-1.23C854.15,831.54,854.13,823.16,854.13,814.79Zm12.06,44.86a23,23,0,0,1-12,6.87V845a73.47,73.47,0,0,1,19.64,3.14,51.75,51.75,0,0,1-7.57,11.35Zm18.41-3.72c-1.25.92-2.53,1.77-3.82,2.56s-2.83,1.64-4.29,2.36c-1,.5-2.07,1-3.13,1.4a49,49,0,0,1-6.06,2,50.26,50.26,0,0,0,10.37-15l9.65,4.53C886.43,854.56,885.52,855.26,884.6,855.93Zm6.44-5.47c-.44.44-.75.68-1.45.33-3.26-1.64-6.56-3.19-9.85-4.78-.14-.07-.27-.16-.52-.31a93.44,93.44,0,0,0,6-32.1h21.91c-.1,1.41-.13,2.77-.29,4.12A55,55,0,0,1,891,850.46Z"/><path d="M692.56,336.88c-24.29-13.3-48.59-26.6-73-39.48a11.38,11.38,0,0,0-9.79,0c-38.19,20.38-76.24,41.14-114.31,61.84-1.83,1-3.53,2.32-5.29,3.48V527.46c2.61,1.1,5.22,3.13,7.84,3.16,22.66.25,45.33.15,68,.15,54.73,0,109.46.05,164.19-.15,3,0,6-2.06,9-3.16V362.71C723.6,354.09,708.11,345.39,692.56,336.88ZM611,307.51a8.68,8.68,0,0,1,7.48.08c33.33,17.76,66.58,35.74,99.85,53.65H510.89C544.26,343.37,577.56,325.3,611,307.51ZM714.41,518.24a13.74,13.74,0,0,1-.45,2.19H515.19V511.1H714.43C714.43,514.24,714.46,516.24,714.41,518.24ZM731,515.76c0,1.51-.26,3-.42,4.77h-8.05c0-3.71-.19-7.44,0-11.13.39-6.31-1.75-9-7-8.8-7.14.28-193.88,0-200.82.07-7.24,0-7.93.87-8,9.56,0,3.3,0,6.6,0,10.23h-8.2c-.11-2.28-.28-4.25-.28-6.21,0-46.65,0-93.3-.09-139.95a14.29,14.29,0,0,1,.48-4.19H730.74a10.13,10.13,0,0,1,.37,3C730.93,420.67,731,468.22,731,515.76Z"/></svg>