<svg id="Layer_1" data-name="Layer 1" xmlns="http://www.w3.org/2000/svg" viewBox="0 0 391 444"><defs><style>.cls-1{fill:#1cf445;}.cls-2{fill:#fff;}.cls-3{fill:#2d302e;}</style></defs><title>Transformación digital</title><rect class="cls-1" x="32.97" y="215.58" width="31.89" height="31.89"/><rect class="cls-2" x="64.86" y="247.47" width="31.89" height="31.89"/><rect class="cls-1" x="96.57" y="279.37" width="31.89" height="31.89"/><rect class="cls-2" x="128.46" y="247.47" width="31.89" height="31.89"/><rect class="cls-2" x="160.36" y="215.58" width="31.89" height="31.89"/><rect class="cls-1" x="128.28" y="375.05" width="31.89" height="31.89"/><rect class="cls-1" x="223.96" y="311.26" width="31.89" height="31.89"/><rect class="cls-1" x="96.75" y="343.16" width="31.89" height="31.89"/><rect class="cls-1" x="160.17" y="279.37" width="31.89" height="31.89"/><rect class="cls-2" x="160.17" y="311.26" width="31.89" height="31.89"/><rect class="cls-1" x="192.06" y="343.16" width="31.89" height="31.89"/><rect class="cls-2" x="223.96" y="247.47" width="31.89" height="31.89"/><rect class="cls-1" x="319.62" y="215.58" width="31.89" height="31.89"/><rect class="cls-1" x="255.85" y="215.58" width="31.89" height="31.89"/><rect class="cls-2" x="287.75" y="247.47" width="31.89" height="31.89"/><rect class="cls-2" x="287.75" y="279.37" width="31.89" height="31.89"/><rect class="cls-1" x="287.75" y="311.26" width="31.89" height="31.89"/><rect class="cls-1" x="255.85" y="343.16" width="31.89" height="31.89"/><rect class="cls-1" x="287.75" y="375.05" width="31.89" height="31.89"/><rect class="cls-1" x="64.86" y="311.26" width="31.89" height="31.89"/><rect class="cls-1" x="255.85" y="279.37" width="31.89" height="31.89"/><rect class="cls-1" x="32.97" y="279.37" width="31.89" height="31.89"/><path class="cls-3" d="M26.27,212.08l.13-20.88,20.21-4.95.47-2.13A147.75,147.75,0,0,1,68.45,134l1.22-1.82L58.56,113.29,92.93,79.36,112.14,91,114,89.87a148.2,148.2,0,0,1,48.7-19.38l2.14-.44,6-23,48.29.3L224.85,71l2.08.49a147.61,147.61,0,0,1,46.35,19.74l1.82,1.17L297,79.47l33.94,34.36-13.15,21.69,1.15,1.83a148.07,148.07,0,0,1,19,45.8l.48,2.07,24.92,6.44-.13,20.42Z"/><path class="cls-1" d="M173.46,50.52l42.84.27,4.64,18.91,1,4.16,4.17,1a144.08,144.08,0,0,1,45.26,19.27L275,96.46l3.72-2.19,17.65-10.4,30.1,30.48-10.61,17.51-2.24,3.69,2.29,3.66a144.56,144.56,0,0,1,18.51,44.72l.95,4.15,4.12,1.06,20.22,5.23-.09,14.21H29.79l.1-14.63,15.44-3.79,4.23-1,.94-4.25a143.89,143.89,0,0,1,20.87-49l2.43-3.66-2.23-3.78L63,113.87,93.45,83.76l15,9.12,3.67,2.23,3.65-2.27a144.51,144.51,0,0,1,47.55-18.92l4.28-.88,1.1-4.23,4.72-18.29m-5.41-7L162,67.06A151.77,151.77,0,0,0,112.12,86.9L92.41,75,54.16,112.72,65.54,132a151.6,151.6,0,0,0-21.88,51.33l-20.74,5.09-.17,27.13H366.6l.16-26.62-25.5-6.59a151.69,151.69,0,0,0-19.4-46.88l13.44-22.17L297.53,75.07,275.18,88.24A151.6,151.6,0,0,0,227.74,68l-5.94-24.2-53.75-.34Z"/><path class="cls-1" d="M252.83,215.58a60.28,60.28,0,0,0-120.54,0Z"/><path class="cls-1" d="M79.41,215.58a113.15,113.15,0,0,1,188.81-83.25c1.71,1.53,3.36,3.11,4.95,4.72a113,113,0,0,1,32.55,78.53h10.73a123.9,123.9,0,0,0-247.79,0Z"/></svg>