<svg id="Layer_1" data-name="Layer 1" xmlns="http://www.w3.org/2000/svg" viewBox="0 0 786 903"><defs><style>.cls-1{fill:#1cf445;}.cls-2{fill:none;stroke:#fff;stroke-miterlimit:10;stroke-width:5px;}.cls-3{fill:#2d302e;}.cls-4{font-size:18.63px;fill:#fff;font-family:Roboto-Regular, Roboto;}.cls-5{letter-spacing:-0.01em;}.cls-6{letter-spacing:-0.01em;}.cls-7{letter-spacing:-0.04em;}.cls-8{letter-spacing:-0.01em;}.cls-9{letter-spacing:-0.01em;}.cls-10{letter-spacing:-0.01em;}</style></defs><title>Átomo (servicios)</title><path class="cls-1" d="M525.33,430a2.77,2.77,0,0,0-1.66-1.41,2.82,2.82,0,0,0-3.5,3.7l-6.4,3.31,3.4-10.67,4.57-2.36a1.94,1.94,0,0,0,.62.4,1.52,1.52,0,0,0,.87,0l.63-.12a1.84,1.84,0,0,0-.29-3.39,1.8,1.8,0,0,0-1.4.12,1.83,1.83,0,0,0-1,1.9l-3.52,1.82,2.65-8.31,2.81-1.45a1.23,1.23,0,0,0,.49.3,1.28,1.28,0,0,0,1-.08h0a1.26,1.26,0,0,0,.62-.74,1.28,1.28,0,0,0-.08-1,1.23,1.23,0,0,0-.74-.62,1.19,1.19,0,0,0-1,.08,1.25,1.25,0,0,0-.66,1.3L520.68,414l2.68-8.4-1.43-.46-2.69,8.41-1.19-2.3a1.28,1.28,0,0,0,.28-1.51,1.26,1.26,0,0,0-.74-.62,1.25,1.25,0,0,0-1.58.82,1.19,1.19,0,0,0,.08,1,1.21,1.21,0,0,0,.73.62,1.38,1.38,0,0,0,.49.06l1.59,3.06-2.63,8.22-1.94-3.76a1.83,1.83,0,0,0-.67-3.1,1.83,1.83,0,0,0-2.32,1.19,1.84,1.84,0,0,0,1.2,2.31,1.71,1.71,0,0,0,.71.08l2.51,4.87-3.4,10.66-3.29-6.38a2.83,2.83,0,0,0,.74-3.51,2.77,2.77,0,0,0-1.66-1.41A2.8,2.8,0,0,0,506,424a2.84,2.84,0,0,0-1.22,3.82,2.77,2.77,0,0,0,2.91,1.5l4,7.82-1.83,5.73a2.3,2.3,0,0,1-2.2,1.61h-5v6.64a10.38,10.38,0,0,0-4.1-5.14,12.27,12.27,0,0,0-6.93-1.9,13.77,13.77,0,0,0-7.28,2,13.31,13.31,0,0,0-5.05,5.69,21.94,21.94,0,0,0,0,17.5,13.31,13.31,0,0,0,5.05,5.69,13.77,13.77,0,0,0,7.28,2,12.13,12.13,0,0,0,6.93-1.93,10.5,10.5,0,0,0,4.1-5.17v6.7h8.09V444.9l2.31-7.24,7.94-4.09a2.91,2.91,0,0,0,.94.49,1.28,1.28,0,0,0,.55,0l1.56-.22a2.82,2.82,0,0,0,1.22-3.82Zm-2.62-9.34a.63.63,0,0,1,.5,0,.64.64,0,0,1,.39.33.62.62,0,0,1,0,.5.66.66,0,0,1-.32.39h0a.65.65,0,0,1-.51,0,.64.64,0,0,1-.39-.33A.67.67,0,0,1,522.71,420.7Zm1.09-8.39a.53.53,0,0,1,.35,0,.45.45,0,0,1,.26.23.43.43,0,0,1,0,.35.41.41,0,0,1-.22.26h0a.43.43,0,0,1-.35,0,.47.47,0,0,1-.26-.22A.46.46,0,0,1,523.8,412.31Zm-7-1.8a.53.53,0,0,1,0-.35.45.45,0,0,1,.23-.26.41.41,0,0,1,.34,0,.42.42,0,0,1,.27.22.45.45,0,0,1-.19.61.43.43,0,0,1-.35,0A.42.42,0,0,1,516.8,410.51ZM512.51,418a.67.67,0,0,1,0-.5.67.67,0,0,1,.33-.39.65.65,0,0,1,.51,0,.67.67,0,0,1,.39.33.68.68,0,0,1-.29.89.66.66,0,0,1-.89-.29ZM506.38,427a1,1,0,0,1-.06-.78,1,1,0,0,1,.5-.6,1,1,0,0,1,.78-.07,1,1,0,0,1,.6.51,1,1,0,0,1-.44,1.38,1,1,0,0,1-.78.06A1,1,0,0,1,506.38,427Zm-6.05,40.22a8.77,8.77,0,0,1-12.22.06,11.16,11.16,0,0,1,0-13.6,8,8,0,0,1,6.12-2.49,8.08,8.08,0,0,1,6.1,2.51,10.76,10.76,0,0,1,0,13.52Zm23.46-35.54a1.08,1.08,0,0,1-.51.6h0a1,1,0,0,1-.78.06,1,1,0,0,1-.16-1.88,1,1,0,0,1,1.45,1.22Z"/><path class="cls-1" d="M303.26,444.72a12.47,12.47,0,0,0-9.58,4V429.94h-8v46.52h8V454.3a11.84,11.84,0,0,1,7.62-3.11c3.48,0,5.23,1.75,5.23,5.26v20h8v-20Q314.54,444.72,303.26,444.72Z"/><path class="cls-1" d="M334.11,444.72q-14.89,0-14.9,15.51,0,16.23,17.26,16.23a48.87,48.87,0,0,0,10.22-.91V469.2a51.36,51.36,0,0,1-9.62.91q-9.85,0-9.85-6.71h21.07a28.84,28.84,0,0,0,.27-3.93Q348.56,444.73,334.11,444.72Zm6.65,13.12H327.22q.54-6.84,6.89-6.83,6.66,0,6.65,6.59Z"/><path class="cls-1" d="M359.7,444.72h-6.2v31.74h8V454.91a10.81,10.81,0,0,1,8-3.72v-6.47q-4.65,0-8.83,4Z"/><polygon class="cls-1" points="387.43 466.91 379.72 444.72 371.26 444.72 383.38 476.46 391 476.46 403.9 444.72 395.44 444.72 387.43 466.91"/><path class="cls-1" d="M429.29,451.1a10.44,10.44,0,0,0-4.1-5.14,12.32,12.32,0,0,0-6.93-1.9,13.74,13.74,0,0,0-7.28,2,13.24,13.24,0,0,0-5.05,5.69,21.94,21.94,0,0,0,0,17.5A13.24,13.24,0,0,0,411,474.9a13.74,13.74,0,0,0,7.28,2,12.18,12.18,0,0,0,6.93-1.93,10.56,10.56,0,0,0,4.1-5.17v6.7h8.08v-32h-8.08Zm-2.4,16.09a8.75,8.75,0,0,1-12.21.06,11.16,11.16,0,0,1,0-13.6,8,8,0,0,1,6.12-2.49,8.08,8.08,0,0,1,6.09,2.51,10.72,10.72,0,0,1,0,13.52Z"/><path class="cls-1" d="M461.38,444.72a14.2,14.2,0,0,0-10.4,4.65l-1-4.65h-6.19v31.74h8V454.3a11.84,11.84,0,0,1,7.62-3.11c3.48,0,5.23,1.75,5.23,5.26v20h8v-20Q472.66,444.72,461.38,444.72Z"/><ellipse class="cls-2" cx="401.66" cy="457.52" rx="135.71" ry="371.33"/><ellipse class="cls-2" cx="401.66" cy="457.52" rx="371.33" ry="135.71" transform="translate(-184.36 292.5) rotate(-32.99)"/><ellipse class="cls-2" cx="401.66" cy="457.52" rx="135.71" ry="371.33" transform="translate(-203.12 527.52) rotate(-55.32)"/><circle class="cls-3" cx="110.79" cy="242.55" r="80.21" transform="translate(-146.38 313.06) rotate(-80.78)"/><path class="cls-1" d="M110.79,164.35a78.21,78.21,0,1,1-78.21,78.2,78.2,78.2,0,0,1,78.21-78.2m0-4a82.21,82.21,0,1,0,82.2,82.2,82.3,82.3,0,0,0-82.2-82.2Z"/><text class="cls-4" transform="translate(52.69 228.24)">Conocimiento<tspan x="-1.14" y="22.36">de la industria</tspan><tspan x="7.39" y="44.72">de cannabis</tspan></text><circle class="cls-3" cx="696.36" cy="298.05" r="78.68"/><path class="cls-1" d="M696.36,221.37a76.68,76.68,0,1,1-76.69,76.68,76.68,76.68,0,0,1,76.69-76.68m0-4A80.68,80.68,0,1,0,777,298.05a80.78,80.78,0,0,0-80.68-80.68Z"/><text class="cls-4" transform="translate(647.91 289.74)">Inteligencia<tspan x="-2.19" y="22.36">de negocios</tspan></text><circle class="cls-3" cx="668.06" cy="679.52" r="81.42"/><path class="cls-1" d="M668.06,600.1a79.42,79.42,0,1,1-79.42,79.42,79.42,79.42,0,0,1,79.42-79.42m0-4a83.42,83.42,0,1,0,83.42,83.42,83.51,83.51,0,0,0-83.42-83.42Z"/><text class="cls-4" transform="translate(619.61 671.21)">Inteligencia<tspan x="3.17" y="22.36">de culti</tspan><tspan class="cls-5" x="64.16" y="22.36">v</tspan><tspan x="73.39" y="22.36">os</tspan></text><circle class="cls-3" cx="92.76" cy="610.32" r="79.54"/><path class="cls-1" d="M92.76,532.78a77.54,77.54,0,1,1-77.54,77.54,77.55,77.55,0,0,1,77.54-77.54m0-4a81.54,81.54,0,1,0,81.54,81.54,81.63,81.63,0,0,0-81.54-81.54Z"/><text class="cls-4" transform="translate(55.48 602.01)">Sou<tspan class="cls-6" x="32.57" y="0">r</tspan><tspan x="38.92" y="0">cing</tspan><tspan x="-9.83" y="22.36">estratégico</tspan></text><circle class="cls-3" cx="379.21" cy="802.27" r="80.84" transform="translate(-456.22 503.12) rotate(-45)"/><path class="cls-1" d="M379.21,723.42a78.85,78.85,0,1,1-78.84,78.85,78.84,78.84,0,0,1,78.84-78.85m0-4a82.85,82.85,0,1,0,82.84,82.85,82.94,82.94,0,0,0-82.84-82.85Z"/><text class="cls-4" transform="translate(312.73 799.91)"><tspan class="cls-7">T</tspan><tspan x="10.46" y="0">ransformación</tspan><tspan x="40.59" y="22.36">digital</tspan></text><circle class="cls-3" cx="431.58" cy="93.86" r="79.84"/><path class="cls-1" d="M431.58,16a77.84,77.84,0,1,1-77.84,77.84A77.83,77.83,0,0,1,431.58,16m0-4a81.84,81.84,0,1,0,81.83,81.84A81.93,81.93,0,0,0,431.58,12Z"/><text class="cls-4" transform="translate(378.68 88.5)">Ejecución de<tspan x="11.52" y="22.36">p</tspan><tspan class="cls-8" x="22.11" y="22.36">r</tspan><tspan class="cls-9" x="28.45" y="22.36">o</tspan><tspan class="cls-10" x="38.91" y="22.36">y</tspan><tspan x="48.16" y="22.36">ectos</tspan></text></svg>