<svg id="Layer_1" data-name="Layer 1" xmlns="http://www.w3.org/2000/svg" viewBox="0 0 786 903"><defs><style>.cls-1{fill:none;stroke:#2d302e;stroke-miterlimit:10;stroke-width:5px;}.cls-2{font-size:18.63px;fill:#fff;font-family:Roboto-Regular, Roboto;}.cls-3{letter-spacing:-0.01em;}.cls-4{letter-spacing:-0.01em;}.cls-5{letter-spacing:-0.04em;}.cls-6{letter-spacing:-0.01em;}.cls-7{letter-spacing:-0.01em;}.cls-8{letter-spacing:-0.01em;}</style></defs><title>Átomo (servicios)</title><path d="M524.33,431a2.77,2.77,0,0,0-1.66-1.41,2.82,2.82,0,0,0-3.5,3.7l-6.4,3.31,3.4-10.67,4.57-2.36a1.94,1.94,0,0,0,.62.4,1.52,1.52,0,0,0,.87,0l.63-.12a1.84,1.84,0,0,0-.29-3.39,1.8,1.8,0,0,0-1.4.12,1.83,1.83,0,0,0-1,1.9l-3.52,1.82,2.65-8.31,2.81-1.45a1.23,1.23,0,0,0,.49.3,1.28,1.28,0,0,0,1-.08h0a1.26,1.26,0,0,0,.62-.74,1.28,1.28,0,0,0-.08-1,1.23,1.23,0,0,0-.74-.62,1.19,1.19,0,0,0-1,.08,1.25,1.25,0,0,0-.66,1.3L519.68,415l2.68-8.4-1.43-.46-2.69,8.41-1.19-2.3a1.28,1.28,0,0,0,.28-1.51,1.26,1.26,0,0,0-.74-.62,1.25,1.25,0,0,0-1.58.82,1.19,1.19,0,0,0,.08,1,1.21,1.21,0,0,0,.73.62,1.38,1.38,0,0,0,.49.06l1.59,3.06-2.63,8.22-1.94-3.76a1.83,1.83,0,0,0-.67-3.1,1.83,1.83,0,0,0-2.32,1.19,1.84,1.84,0,0,0,1.2,2.31,1.71,1.71,0,0,0,.71.08l2.51,4.87-3.4,10.66-3.29-6.38a2.83,2.83,0,0,0,.74-3.51,2.77,2.77,0,0,0-1.66-1.41A2.8,2.8,0,0,0,505,425a2.84,2.84,0,0,0-1.22,3.82,2.77,2.77,0,0,0,2.91,1.5l4,7.82-1.83,5.73a2.3,2.3,0,0,1-2.2,1.61h-5v6.64a10.38,10.38,0,0,0-4.1-5.14,12.27,12.27,0,0,0-6.93-1.9,13.77,13.77,0,0,0-7.28,2,13.31,13.31,0,0,0-5.05,5.69,21.94,21.94,0,0,0,0,17.5,13.31,13.31,0,0,0,5.05,5.69,13.77,13.77,0,0,0,7.28,2,12.13,12.13,0,0,0,6.93-1.93,10.5,10.5,0,0,0,4.1-5.17v6.7h8.09V445.9l2.31-7.24,7.94-4.09a2.91,2.91,0,0,0,.94.49,1.28,1.28,0,0,0,.55,0l1.56-.22a2.82,2.82,0,0,0,1.22-3.82Zm-2.62-9.34a.63.63,0,0,1,.5,0,.64.64,0,0,1,.39.33.62.62,0,0,1,0,.5.66.66,0,0,1-.32.39h0a.65.65,0,0,1-.51,0,.64.64,0,0,1-.39-.33A.67.67,0,0,1,521.71,421.7Zm1.09-8.39a.53.53,0,0,1,.35,0,.45.45,0,0,1,.26.23.43.43,0,0,1,0,.35.41.41,0,0,1-.22.26h0a.43.43,0,0,1-.35,0,.47.47,0,0,1-.26-.22A.46.46,0,0,1,522.8,413.31Zm-7-1.8a.53.53,0,0,1,0-.35.45.45,0,0,1,.23-.26.41.41,0,0,1,.34,0,.42.42,0,0,1,.27.22.45.45,0,0,1-.19.61.43.43,0,0,1-.35,0A.42.42,0,0,1,515.8,411.51ZM511.51,419a.67.67,0,0,1-.05-.5.67.67,0,0,1,.33-.39.65.65,0,0,1,.51,0,.67.67,0,0,1,.39.33.68.68,0,0,1-.29.89.66.66,0,0,1-.89-.29ZM505.38,428a1,1,0,0,1-.06-.78,1,1,0,0,1,.5-.6,1,1,0,0,1,.78-.07,1,1,0,0,1,.6.51,1,1,0,0,1-.44,1.38,1,1,0,0,1-.78.06A1,1,0,0,1,505.38,428Zm-6.05,40.22a8.77,8.77,0,0,1-12.22.06,11.16,11.16,0,0,1,0-13.6,8,8,0,0,1,6.12-2.49,8.08,8.08,0,0,1,6.1,2.51,10.76,10.76,0,0,1,0,13.52Zm23.46-35.54a1.08,1.08,0,0,1-.51.6h0a1,1,0,0,1-.78.06,1,1,0,0,1-.16-1.88,1,1,0,0,1,1.45,1.22Z"/><path d="M302.26,445.72a12.47,12.47,0,0,0-9.58,4V430.94h-8v46.52h8V455.3a11.84,11.84,0,0,1,7.62-3.11c3.48,0,5.23,1.75,5.23,5.26v20h8v-20Q313.54,445.72,302.26,445.72Z"/><path d="M333.11,445.72q-14.89,0-14.9,15.51,0,16.23,17.26,16.23a48.87,48.87,0,0,0,10.22-.91V470.2a51.36,51.36,0,0,1-9.62.91q-9.85,0-9.85-6.71h21.07a28.84,28.84,0,0,0,.27-3.93Q347.56,445.73,333.11,445.72Zm6.65,13.12H326.22q.54-6.84,6.89-6.83,6.66,0,6.65,6.59Z"/><path d="M358.7,445.72h-6.2v31.74h8V455.91a10.81,10.81,0,0,1,8-3.72v-6.47q-4.65,0-8.83,4Z"/><polygon points="386.43 467.91 378.72 445.72 370.26 445.72 382.38 477.46 390 477.46 402.9 445.72 394.44 445.72 386.43 467.91"/><path d="M428.29,452.1a10.44,10.44,0,0,0-4.1-5.14,12.32,12.32,0,0,0-6.93-1.9,13.74,13.74,0,0,0-7.28,2,13.24,13.24,0,0,0-5.05,5.69,21.94,21.94,0,0,0,0,17.5A13.24,13.24,0,0,0,410,475.9a13.74,13.74,0,0,0,7.28,2,12.18,12.18,0,0,0,6.93-1.93,10.56,10.56,0,0,0,4.1-5.17v6.7h8.08v-32h-8.08Zm-2.4,16.09a8.75,8.75,0,0,1-12.21.06,11.16,11.16,0,0,1,0-13.6,8,8,0,0,1,6.12-2.49,8.08,8.08,0,0,1,6.09,2.51,10.72,10.72,0,0,1,0,13.52Z"/><path d="M460.38,445.72a14.2,14.2,0,0,0-10.4,4.65l-1-4.65h-6.19v31.74h8V455.3a11.84,11.84,0,0,1,7.62-3.11c3.48,0,5.23,1.75,5.23,5.26v20h8v-20Q471.66,445.72,460.38,445.72Z"/><ellipse class="cls-1" cx="400.66" cy="458.52" rx="135.71" ry="371.33"/><ellipse class="cls-1" cx="400.66" cy="458.52" rx="371.33" ry="135.71" transform="translate(-185.07 292.12) rotate(-32.99)"/><ellipse class="cls-1" cx="400.66" cy="458.52" rx="135.71" ry="371.33" transform="translate(-204.37 527.13) rotate(-55.32)"/><circle cx="109.79" cy="243.55" r="78.21"/><text class="cls-2" transform="translate(51.69 229.24)">Conocimiento<tspan x="-1.14" y="22.36">de la industria</tspan><tspan x="7.39" y="44.72">de cannabis</tspan></text><circle cx="695.36" cy="299.05" r="76.68"/><text class="cls-2" transform="translate(646.91 290.74)">Inteligencia<tspan x="-2.19" y="22.36">de negocios</tspan></text><circle cx="667.06" cy="680.52" r="79.42"/><text class="cls-2" transform="translate(618.61 672.21)">Inteligencia<tspan x="3.17" y="22.36">de culti</tspan><tspan class="cls-3" x="64.16" y="22.36">v</tspan><tspan x="73.39" y="22.36">os</tspan></text><circle cx="91.76" cy="611.32" r="77.54"/><text class="cls-2" transform="translate(54.48 603.01)">Sou<tspan class="cls-4" x="32.57" y="0">r</tspan><tspan x="38.92" y="0">cing</tspan><tspan x="-9.83" y="22.36">estratégico</tspan></text><circle cx="378.21" cy="803.27" r="78.84"/><text class="cls-2" transform="translate(311.73 800.91)"><tspan class="cls-5">T</tspan><tspan x="10.46" y="0">ransformación</tspan><tspan x="40.59" y="22.36">digital</tspan></text><circle cx="430.58" cy="94.86" r="77.84"/><text class="cls-2" transform="translate(377.68 89.5)">Ejecución de<tspan x="11.52" y="22.36">p</tspan><tspan class="cls-6" x="22.11" y="22.36">r</tspan><tspan class="cls-7" x="28.45" y="22.36">o</tspan><tspan class="cls-8" x="38.91" y="22.36">y</tspan><tspan x="48.16" y="22.36">ectos</tspan></text></svg>