<svg id="Layer_1" data-name="Layer 1" xmlns="http://www.w3.org/2000/svg" xmlns:xlink="http://www.w3.org/1999/xlink" viewBox="0 0 310 294"><defs><style>.cls-1,.cls-3{fill:none;}.cls-2{clip-path:url(#clip-path);}.cls-3{stroke:#101111;stroke-miterlimit:10;stroke-width:5px;}.cls-4{fill:#101111;}</style><clipPath id="clip-path"><rect class="cls-1" x="-792.76" y="63" width="576.76" height="727.36"/></clipPath></defs><title>Artboard 63</title><g class="cls-2"><image width="4743" height="3162" transform="translate(-1033.61 63) scale(0.22 0.23)" xlink:href="../../AdobeStock_232566476.jpeg"/></g><polygon class="cls-3" points="230.03 17.71 82.65 17.71 8.96 145.35 82.65 272.98 230.03 272.98 303.72 145.35 230.03 17.71"/><path d="M225.65,130.64c7.35,1.93,14.13,2.69,19.95,5.45a29.79,29.79,0,0,1,16,34.32,30.92,30.92,0,0,1-30.48,24q-57.27.1-114.53,0c-9.55,0-19.1.16-28.64,0-16.13-.33-28.24-7.68-35.1-22.27-6.78-14.42-4.87-28.46,5-40.89C63.9,123.5,72,118.45,82.12,117.72c2.42-.18,3.62-.8,4-3.66C88.66,96,101.8,81,119.38,76.84c18.72-4.39,34.67.84,47,15.86,2.16,2.64,3.69,3.6,7.29,2.55a40.87,40.87,0,0,1,51.88,34.53C225.59,130.47,225.73,131.15,225.65,130.64ZM89.21,121.78l-4,.25c-15.65.86-28.31,11.09-31.82,25.71C48,170,64.16,190.12,87.57,190.17q58.58.11,117.17,0c9.14,0,18.29.13,27.44,0,11.13-.21,19.61-5.14,24.38-15.32,4.6-9.85,3.33-19.4-3.61-27.72-7.19-8.6-16.56-11.28-27.46-8.53-1.08.27-2.2.41-3.74.7.83-14.74-4.08-26.65-16.21-34.8s-25-8.22-38.1-1.86c-10.39-17.42-25.27-26.29-45.29-22C100.79,85.27,90.68,100.31,89.21,121.78Z"/><path class="cls-4" d="M98.84,196c-3.65,0-7.32,0-11-.1-16.92-.35-29.54-8.37-36.51-23.19s-5.15-29.51,5.21-42.55C63.4,121.59,72,116.86,82,116.13c1.87-.13,2.3-.34,2.57-2.29C87.19,95,101,79.51,119,75.29c19.57-4.58,35.9.94,48.55,16.41,1.9,2.33,2.81,2.84,5.62,2a42.23,42.23,0,0,1,35,5.26,42.89,42.89,0,0,1,18.9,30.37c2,.5,3.95.93,5.85,1.34,4.77,1,9.27,2,13.38,4a31.26,31.26,0,0,1,16.81,36.13,32.59,32.59,0,0,1-32,25.16c-27.2,0-54.85,0-81.59,0h-33c-2.94,0-5.89,0-8.83,0S101.81,196,98.84,196ZM56.4,175.47c6.73,11.18,17.32,17,31.54,17.29,6.56.13,13.24.1,19.7.07l8.9,0h32.94c26.74,0,54.39,0,81.59,0A29.47,29.47,0,0,0,260,170q.17-.67.3-1.35A31.6,31.6,0,0,1,258,175.5c-4.86,10.39-13.78,16-25.78,16.23-6.38.12-12.86.1-19.12.07-14.31-.07-28.62,0-42.93,0-27.07,0-55.07,0-82.6,0-11.79,0-22.49-5.05-29.37-13.78C57.55,177.16,57,176.32,56.4,175.47ZM204.74,188.6l8.37,0c6.24,0,12.7.05,19-.07,10.86-.2,18.59-5.05,23-14.41,4.31-9.2,3.13-18.2-3.39-26-6.65-8-15.35-10.66-25.85-8-.78.2-1.55.32-2.44.47l-1.4.25-2,.36.12-2c.83-14.9-4.24-25.82-15.52-33.4s-23.46-8.1-36.52-1.75l-1.31.64-.74-1.25c-10.75-18-25.42-25.16-43.59-21.22C103,86.43,92.31,99.78,90.79,121.89l-.09,1.39-2.8.18-2.64.16c-14.84.81-27.05,10.65-30.37,24.49A32.5,32.5,0,0,0,60.68,176c6.28,8,16.07,12.56,26.89,12.58,27.53,0,55.52,0,82.59,0Zm-73-111.68a52.84,52.84,0,0,0-12,1.46c-16.71,3.92-29.58,18.35-32,35.9-.54,3.88-2.58,4.81-5.48,5-9.12.66-16.92,5-23.18,12.86-8.17,10.29-10.57,21.7-7.1,33.31a36.81,36.81,0,0,1-.15-18.1c3.66-15.22,17-26,33.29-26.92l2.61-.16h0c2-22.56,13.73-36.78,34.08-41.18,19.23-4.16,34.78,3.06,46.23,21.46,13.67-6.21,26.57-5.34,38.37,2.59,11.61,7.8,17.32,19.3,17,34.22.62-.1,1.17-.21,1.69-.34,11.62-2.93,21.67.2,29.06,9.05,4.55,5.46,6.8,11.42,6.71,17.63a27.9,27.9,0,0,0-16-26.19c-3.78-1.8-8.11-2.74-12.69-3.73-1.95-.43-4-.86-6-1.38l-.27.22-.86-.35c-.87-.36-1-1-1.13-2.24l-.25-1.56h0a39.68,39.68,0,0,0-17.32-26.85,39,39,0,0,0-32.32-4.86c-4.39,1.27-6.54-.1-9-3.08C156,82.54,144.79,76.92,131.74,76.92Z"/><polygon class="cls-4" points="203.35 180.96 152.16 180.96 124.78 153.29 96.32 153.29 96.32 149.06 126.54 149.06 153.93 176.73 203.35 176.73 203.35 180.96"/><polygon class="cls-4" points="187.98 125.63 148.31 125.63 127.8 101.41 131.03 98.67 150.27 121.4 187.98 121.4 187.98 125.63"/><rect class="cls-4" x="159.87" y="157.45" width="31.02" height="4.23"/><circle class="cls-4" cx="159.87" cy="159.56" r="4.92"/><circle class="cls-4" cx="128.21" cy="97.84" r="4.92"/><circle class="cls-4" cx="189.76" cy="123.51" r="4.92"/><circle class="cls-4" cx="190.89" cy="159.56" r="4.92"/><circle class="cls-4" cx="208.27" cy="123.51" r="4.92"/><circle class="cls-4" cx="224.99" cy="177.61" r="4.92"/><rect class="cls-4" x="115.73" y="100.6" width="4.23" height="31.02" transform="translate(-46.42 96.48) rotate(-37.76)"/><circle class="cls-4" cx="108.34" cy="103.84" r="4.92"/><circle class="cls-4" cx="127.34" cy="128.37" r="4.92"/><rect class="cls-4" x="153.82" y="137.71" width="31.02" height="4.23"/><circle class="cls-4" cx="153.82" cy="139.82" r="4.92"/><circle class="cls-4" cx="203.35" cy="178.84" r="4.92"/><circle class="cls-4" cx="99.63" cy="151.18" r="4.92"/><circle class="cls-4" cx="117.18" cy="180.72" r="4.92"/><circle class="cls-4" cx="82.08" cy="133.35" r="4.92"/><circle class="cls-4" cx="184.84" cy="139.82" r="4.92"/><polygon class="cls-4" points="119.29 177.61 115.06 177.61 115.06 171.94 79.96 158.85 79.96 132.1 84.19 132.1 84.19 155.92 119.29 169 119.29 177.61"/><polygon class="cls-4" points="227.11 175.8 222.88 175.8 222.88 162.18 206.67 147.18 206.67 123.44 210.9 123.44 210.9 145.33 227.11 160.33 227.11 175.8"/></svg>