<svg id="Layer_1" data-name="Layer 1" xmlns="http://www.w3.org/2000/svg" viewBox="0 0 304 294"><defs><style>.cls-1{fill:none;stroke:#101111;stroke-miterlimit:10;stroke-width:5px;}.cls-2{fill:#101111;}</style></defs><title>Artboard 65</title><polygon class="cls-1" points="225 18.64 78.9 18.64 5.86 145.16 78.9 271.69 225 271.69 298.05 145.16 225 18.64"/><path class="cls-2" d="M148.72,216.13l-1.88-.62c-2.74-.9-6.06-5.46-10.83-12.32-1.93-2.79-4.54-6.55-5.58-7.32a9.91,9.91,0,0,0-1.12.65c-3,1.87-9.3,5.77-24.39.41s-17.43-16.71-17.2-23.65l-1.4.25c-4.06.78-10.85,2.07-16.24-.3C61.82,169.6,53.34,140.81,54.55,126c1.23-15,18.57-31.15,24.63-31.86,1.46-.17,2.26-1,3.94-2.77,2.5-2.68,6.27-6.74,16.06-10.62,10.58-4.19,19.08-3.23,25.28-2.53,3.21.36,5.74.65,7.47.1,5.83-1.84,15-1.86,15.36-1.86h1.43ZM130.56,193c1.69,0,3.3,2.1,7.81,8.6a87.79,87.79,0,0,0,7.48,9.81v-132c-2.77.08-8.95.41-13.06,1.7-2.31.73-5.11.42-8.65,0-5.91-.67-14-1.58-23.9,2.34-9.19,3.65-12.56,7.26-15,9.91-1.75,1.88-3.13,3.36-5.71,3.66-4.45.53-21,15.37-22.09,29.24-1.19,14.52,7.21,41.49,13.82,44.39,4.57,2,10.81.82,14.54.11,2.57-.49,3.52-.67,4.31,0a1.58,1.58,0,0,1,.58,1.23c0,.09,0,.26,0,.49-.42,6,1,16.76,15.24,21.82,13.79,4.89,19.08,1.61,21.92-.16A5.38,5.38,0,0,1,130.56,193Z"/><path class="cls-2" d="M96.18,124.07c-.19-3.81-7.39-9.55-11.89-12.28l1.49-2.46c1.33.81,12.94,8,13.27,14.6Z"/><path class="cls-2" d="M118.94,135.46c-.69-12.11-3.47-16.65-10.26-16.74-5.42-.08-7.25,2.43-9.8,5.9a31.9,31.9,0,0,1-4.5,5.24c-6.68,6-10.26,2.15-10.41,2l1.07-1,1-1c.08.08,2,1.8,6.4-2.17a29.47,29.47,0,0,0,4.1-4.8c2.71-3.69,5.28-7.18,12.15-7.08,10.54.16,12.52,9.44,13.09,19.46Z"/><path class="cls-2" d="M118.44,130c-.26-13.26.78-31.26,12.65-34.42,4-1.06,7.3-.71,9.88,1,3.9,2.64,4.51,7.5,4.54,7.7l-2.86.34s-.5-3.78-3.31-5.68c-1.86-1.25-4.38-1.47-7.51-.63-11.07,2.94-10.66,24.5-10.52,31.59Z"/><path class="cls-2" d="M87.8,172.09a17.17,17.17,0,0,1,2.32-10.23c3.33-5.19,13.4-14.74,27.65-13.84,2.57.17,4.67.35,6.52.51,8,.68,9.07.77,13-3.49,5.07-5.49,6.31-8.38,6.32-8.41l2.66,1.08c-.05.13-1.36,3.31-6.87,9.28-4.89,5.29-7.1,5.1-15.35,4.4-1.84-.16-3.92-.34-6.46-.5-13.4-.86-22.63,8.75-25.06,12.52a14.24,14.24,0,0,0-1.87,8.34Z"/><path class="cls-2" d="M88.21,164.89c-1-.9-9.75-8.92-11.32-11.74-1.18-2.14,0-6.05,1.61-8.79,2.33-4,5.7-6.22,9.23-6.22,7.69,0,12.18,8.8,12.37,9.18l-2.57,1.28c0-.07-3.89-7.59-9.8-7.59-3.54,0-5.9,3.36-6.75,4.81-1.67,2.84-1.91,5.33-1.58,5.93,1,1.82,7.12,7.72,10.74,11Z"/><path class="cls-2" d="M75.29,157.16a9.69,9.69,0,0,1-4.3-.89,6.72,6.72,0,0,1-3.49-4.12c-1.68-5.15,2.07-12.73,4.33-16.61a10.75,10.75,0,0,1-7-2.19c-1.86-1.63-2.71-4-2.52-7.11a7.3,7.3,0,0,1,3.18-6c3.37-2.18,8.48-1.2,11.13-.47a86,86,0,0,1,2.13-10.29c2.4-8.51,5.65-12.66,9.67-12.35,2.13.18,2.22,0,2.51-.77,1-2.49,2.72-4.78,12.84-5.49l4.33-.28c6.38-.4,10.23-.65,12.21-2,1.71-1.17,2.3-3.5,2.27-8.94l2.87,0c.08,12.73-3.92,13-17.17,13.81l-4.3.28c-9.17.65-9.9,2.48-10.38,3.69-.75,1.89-1.84,2.86-5.41,2.58H88c-4.34,0-7.73,12.68-8.77,21.83l-.21,1.83L77.34,123c-1.9-.72-7.45-2.17-10.26-.34a4.49,4.49,0,0,0-1.87,3.81c-.14,2.18.37,3.74,1.54,4.76,2.13,1.86,6.15,1.57,7.52,1.29l3.45-.68-2,2.9c-2,3-7,11.85-5.51,16.57a3.89,3.89,0,0,0,2,2.44c2.39,1.18,6.12.31,7.36-.12l1,2.71A17.92,17.92,0,0,1,75.29,157.16Z"/><path class="cls-2" d="M120.57,109.92c-.08-.1-7.65-10-17.86-10V97.08c11.66,0,19.81,10.66,20.15,11.11Z"/><path class="cls-2" d="M115.58,173.86a6.46,6.46,0,0,1-4.34-2.09c-4.45-4.12-8-3.29-8.17-3.25l-.75-2.78c.21-.05,5.18-1.35,10.87,3.93,2.27,2.1,3,1.52,5.4-.39a17.93,17.93,0,0,1,6.49-3.67,59.14,59.14,0,0,1,9.39-1.42c4.35-.44,10.92-1.1,11.44-2.86l2.75.81c-1.07,3.62-7,4.22-13.9,4.91a58,58,0,0,0-8.9,1.32,15.39,15.39,0,0,0-5.49,3.16C119,172.65,117.44,173.86,115.58,173.86Z"/><path class="cls-2" d="M118.42,198.4c-.17-1.14-1.56-11.26,2.34-14.73,2.55-2.26,6.12-2.24,10.24-2.21a47.53,47.53,0,0,0,7.43-.36c6.23-.94,7.73-2.35,7.75-2.36l-.06.06,2.23,1.81c-.41.51-2.31,2.24-9.49,3.33a50.93,50.93,0,0,1-7.88.39c-3.68,0-6.59,0-8.31,1.49-2.08,1.84-2,8.43-1.41,12.15Z"/><path class="cls-2" d="M113.62,190.57c-20.1,0-25-9.8-25.16-10.25l2.6-1.22-1.3.61,1.3-.63c0,.11,5.2,10.08,27.42,8.43l.21,2.87C116.9,190.51,115.21,190.57,113.62,190.57Z"/><path class="cls-2" d="M134,126.91c-.15-.34-3.6-8.34,1.71-14.63.82-1,1.66-1.9,2.47-2.8,4-4.48,7.54-8.35,7.58-15.49l2.87,0c0,8.23-4.25,12.89-8.32,17.4-.8.88-1.62,1.79-2.4,2.72-4.17,4.93-1.31,11.55-1.28,11.62Z"/><path class="cls-2" d="M88.83,98.55c-.14-4.91-2.78-7.13-2.9-7.23l1.8-2.24c.15.12,3.8,3.08,4,9.39Z"/><circle class="cls-2" cx="160.89" cy="85.03" r="5.07"/><circle class="cls-2" cx="193.43" cy="85.03" r="5.07"/><circle class="cls-2" cx="160.89" cy="117.39" r="5.07"/><circle class="cls-2" cx="193.43" cy="117.39" r="5.07"/><path class="cls-2" d="M220.38,113.41a6.22,6.22,0,1,1,6.22-6.22A6.23,6.23,0,0,1,220.38,113.41Zm0-10.15a3.93,3.93,0,1,0,3.93,3.93A3.93,3.93,0,0,0,220.38,103.26Z"/><path class="cls-2" d="M220.38,81.05a6.22,6.22,0,1,1,6.22-6.22A6.23,6.23,0,0,1,220.38,81.05Zm0-10.15a3.93,3.93,0,1,0,3.93,3.93A3.93,3.93,0,0,0,220.38,70.9Z"/><circle class="cls-2" cx="160.89" cy="149.75" r="5.07"/><circle class="cls-2" cx="193.43" cy="149.75" r="5.07"/><path class="cls-2" d="M220.36,145.79a6.22,6.22,0,1,1,6.22-6.22A6.23,6.23,0,0,1,220.36,145.79Zm0-10.14a3.93,3.93,0,1,0,3.92,3.92A3.93,3.93,0,0,0,220.36,135.65Z"/><path class="cls-2" d="M225.45,201.93a6.22,6.22,0,1,1,6.22-6.22A6.23,6.23,0,0,1,225.45,201.93Zm0-10.15a3.93,3.93,0,1,0,3.93,3.93A3.93,3.93,0,0,0,225.45,191.78Z"/><path class="cls-2" d="M221,181.07a6.22,6.22,0,1,1,6.22-6.22A6.23,6.23,0,0,1,221,181.07Zm0-10.14a3.92,3.92,0,1,0,3.92,3.92A3.93,3.93,0,0,0,221,170.93Z"/><circle class="cls-2" cx="160.89" cy="185.01" r="5.07"/><circle class="cls-2" cx="194" cy="185.01" r="5.07"/><circle class="cls-2" cx="160.89" cy="209.08" r="5.07"/><path class="cls-2" d="M193.43,215.3a6.22,6.22,0,1,1,6.22-6.22A6.23,6.23,0,0,1,193.43,215.3Zm0-10.15a3.93,3.93,0,1,0,3.92,3.93A3.93,3.93,0,0,0,193.43,205.15Z"/><polygon class="cls-2" points="193.34 186.16 160.89 186.16 160.89 183.86 192.37 183.86 202.16 173.7 215.86 173.7 215.86 176 203.14 176 193.34 186.16"/><polygon class="cls-2" points="193.34 150.91 160.89 150.91 160.89 148.61 192.37 148.61 202.16 138.46 215.86 138.46 215.86 140.75 203.14 140.75 193.34 150.91"/><polygon class="cls-2" points="193.34 118.55 160.89 118.55 160.89 116.25 192.37 116.25 202.16 106.09 215.86 106.09 215.86 108.39 203.14 108.39 193.34 118.55"/><polygon class="cls-2" points="193.34 85.83 160.89 85.83 160.89 83.53 192.37 83.53 202.16 73.37 215.86 73.37 215.86 75.67 203.14 75.67 193.34 85.83"/><rect class="cls-2" x="160.89" y="83.89" width="31.97" height="2.3"/><circle class="cls-2" cx="160.89" cy="100.52" r="5.07"/><path class="cls-2" d="M193.43,106.74a6.22,6.22,0,1,1,6.22-6.22A6.23,6.23,0,0,1,193.43,106.74Zm0-10.14a3.93,3.93,0,1,0,3.92,3.92A3.93,3.93,0,0,0,193.43,96.6Z"/><rect class="cls-2" x="160.89" y="99.38" width="27.95" height="2.3"/><circle class="cls-2" cx="211.29" cy="121.53" r="5.07"/><path class="cls-2" d="M248.33,127.75a6.22,6.22,0,1,1,6.22-6.22A6.23,6.23,0,0,1,248.33,127.75Zm0-10.14a3.92,3.92,0,1,0,3.92,3.92A3.93,3.93,0,0,0,248.33,117.61Z"/><rect class="cls-2" x="211.29" y="120.38" width="31.97" height="2.3"/><circle class="cls-2" cx="211.29" cy="157.16" r="5.07"/><path class="cls-2" d="M248.33,163.38a6.22,6.22,0,1,1,6.22-6.22A6.23,6.23,0,0,1,248.33,163.38Zm0-10.14a3.93,3.93,0,1,0,3.92,3.92A3.93,3.93,0,0,0,248.33,153.24Z"/><rect class="cls-2" x="211.29" y="156.01" width="31.97" height="2.3"/><rect class="cls-2" x="160.89" y="207.93" width="27.95" height="2.3"/><circle class="cls-2" cx="160.89" cy="133.57" r="5.07"/><path class="cls-2" d="M193.43,139.79a6.22,6.22,0,1,1,6.22-6.22A6.23,6.23,0,0,1,193.43,139.79Zm0-10.14a3.93,3.93,0,1,0,3.92,3.92A3.93,3.93,0,0,0,193.43,129.65Z"/><rect class="cls-2" x="160.89" y="132.42" width="27.95" height="2.3"/><circle class="cls-2" cx="160.89" cy="167.09" r="5.07"/><path class="cls-2" d="M193.43,173.31a6.22,6.22,0,1,1,6.22-6.22A6.23,6.23,0,0,1,193.43,173.31Zm0-10.15a3.93,3.93,0,1,0,3.92,3.93A3.93,3.93,0,0,0,193.43,163.16Z"/><rect class="cls-2" x="160.89" y="165.94" width="27.95" height="2.3"/><polygon class="cls-2" points="220.93 196.85 199.69 196.85 191.91 185.66 193.8 184.35 200.89 194.56 220.93 194.56 220.93 196.85"/></svg>