<svg id="Layer_1" data-name="Layer 1" xmlns="http://www.w3.org/2000/svg" viewBox="0 0 307 294"><defs><style>.cls-1,.cls-2{fill:none;stroke:#101111;stroke-miterlimit:10;}.cls-1{stroke-width:5px;}.cls-2{stroke-width:3px;}</style></defs><title>Artboard 64</title><polyline class="cls-1" points="50.88 162.28 80.65 162.28 80.65 200.05 117.67 200.05 117.67 230.8"/><polyline class="cls-1" points="50.88 133.34 80.65 133.34 80.65 95.56 117.67 95.56 117.67 64.81"/><line class="cls-1" x1="50.88" y1="147.46" x2="83.71" y2="147.46"/><line class="cls-1" x1="129.84" y1="64.81" x2="129.84" y2="97.64"/><line class="cls-1" x1="140.78" y1="64.81" x2="140.78" y2="97.64"/><line class="cls-1" x1="151.11" y1="64.81" x2="151.11" y2="97.64"/><line class="cls-1" x1="129.84" y1="197.97" x2="129.84" y2="230.8"/><line class="cls-1" x1="140.78" y1="197.97" x2="140.78" y2="230.8"/><line class="cls-1" x1="151.11" y1="197.97" x2="151.11" y2="230.8"/><polyline class="cls-1" points="261.5 162.28 231.73 162.28 231.73 200.05 194.71 200.05 194.71 230.8"/><polyline class="cls-1" points="261.5 133.34 231.73 133.34 231.73 95.56 194.71 95.56 194.71 64.81"/><line class="cls-1" x1="261.5" y1="147.46" x2="228.67" y2="147.46"/><line class="cls-1" x1="182.54" y1="64.81" x2="182.54" y2="97.64"/><line class="cls-1" x1="171.6" y1="64.81" x2="171.6" y2="97.64"/><line class="cls-1" x1="182.54" y1="197.97" x2="182.54" y2="230.8"/><line class="cls-1" x1="171.6" y1="197.97" x2="171.6" y2="230.8"/><line class="cls-1" x1="161.27" y1="197.97" x2="161.27" y2="230.8"/><line class="cls-1" x1="161.27" y1="64.81" x2="161.27" y2="97.64"/><circle class="cls-1" cx="117.67" cy="120.72" r="10.35"/><circle class="cls-1" cx="100.05" cy="155.7" r="10.35"/><circle class="cls-1" cx="146.84" cy="168.29" r="14.43"/><circle class="cls-1" cx="196.96" cy="166.05" r="14.43"/><circle class="cls-1" cx="177.83" cy="120.72" r="10.39"/><polyline class="cls-2" points="105.84 135.71 177.83 135.71 177.83 130"/><polyline class="cls-2" points="117.67 131.07 117.67 170.12 132.42 170.12"/><line class="cls-2" x1="152.8" y1="135.7" x2="152.8" y2="153.87"/><line class="cls-2" x1="161.27" y1="168.29" x2="180.28" y2="168.29"/><polygon class="cls-1" points="226.49 17.71 79.11 17.71 5.41 145.35 79.11 272.98 226.49 272.98 300.18 145.35 226.49 17.71"/></svg>