<svg id="Layer_1" data-name="Layer 1" xmlns="http://www.w3.org/2000/svg" viewBox="0 0 403 528"><defs><style>.cls-1,.cls-4,.cls-7{fill:#101111;}.cls-2{fill:#1cf445;}.cls-3,.cls-6{fill:#2d302e;}.cls-4,.cls-6,.cls-7{stroke:#fff;stroke-miterlimit:10;}.cls-4{stroke-width:3px;}.cls-5{fill:#fff;}.cls-6,.cls-7{stroke-width:6px;}</style></defs><title>Ejecución de proyectos</title><path class="cls-1" d="M116.85,199l-2.61-10.64-2.18-.44a75.67,75.67,0,0,1-26-10.5l-1.82-1.16L75,181.73l-16-16.15,5.39-8.9-1.21-1.84a75.68,75.68,0,0,1-10.84-26.29l-.45-2.13-10.26-2.66.14-22.7,10.33-2.53.47-2.12a75.59,75.59,0,0,1,11-25.71l1.21-1.83L59.1,59.21l16.16-16,9.82,6,1.83-1.14a76,76,0,0,1,25-9.93l2.14-.44,3.06-11.82,22.7.14,3,12.12,2.09.49a75.78,75.78,0,0,1,23.76,10.11l1.81,1.18,11.22-6.61,15.95,16.15L190.82,70.6,192,72.43a75.84,75.84,0,0,1,9.72,23.48l.48,2.07,12.77,3.3L214.8,124l-12.43,3-.46,2.14a75.65,75.65,0,0,1-9.68,24l-1.11,1.8,6.4,10.85-16.16,16-10.19-6.18-1.85,1.22a75.74,75.74,0,0,1-24.8,10.62l-2.07.48-2.9,11.23Z"/><path class="cls-2" d="M119.77,29.41l17.25.11,1.81,7.38,1,4.16L144,42a72.19,72.19,0,0,1,22.67,9.66L170.32,54,174,51.85l7-4.13L193.17,60,189,66.94l-2.24,3.69,2.3,3.66a72.31,72.31,0,0,1,9.27,22.4l.95,4.15,4.12,1.06,8.07,2.09-.1,17.25-7.65,1.87-4.26,1-.92,4.29a72.43,72.43,0,0,1-9.23,22.9L187,154.93l2.15,3.65,3.94,6.68-12.28,12.12-6-3.62-3.79-2.3-3.7,2.45A72.14,72.14,0,0,1,143.73,184l-4.14,1-1.06,4.11-1.69,6.53-17.24-.11-1.43-5.84-1.06-4.31-4.36-.88a72.12,72.12,0,0,1-24.79-10l-3.62-2.32-3.71,2.19-5.06,3L63.45,165.06l2.84-4.68,2.28-3.77-2.41-3.69a72.33,72.33,0,0,1-10.35-25.08l-.88-4.27-4.22-1.09-5.52-1.42.11-17.25,5.57-1.36,4.22-1L56,97.16A72.16,72.16,0,0,1,66.49,72.64L68.92,69,66.69,65.2,63.5,59.79,75.77,47.67l5.66,3.43,3.68,2.23,3.65-2.27a72.29,72.29,0,0,1,23.81-9.48l4.28-.88,1.1-4.23,1.82-7.06m-5.41-7-3.19,12.35A79.85,79.85,0,0,0,85.06,45.11L74.74,38.85l-20,19.79,6,10.12A79.53,79.53,0,0,0,49.2,95.65L38.34,98.31l-.18,28.16L49,129.26a79.62,79.62,0,0,0,11.34,27.5l-5.66,9.33,19.79,20,9.76-5.75a79.36,79.36,0,0,0,27.18,11l2.73,11.14,28.16.17,3.05-11.81a79.68,79.68,0,0,0,25.94-11.11l10.63,6.44,20-19.78L195.21,155a79.42,79.42,0,0,0,10.12-25.11l12.95-3.17.18-28.16L205.1,95.12a79.67,79.67,0,0,0-10.16-24.55L202,59l-19.79-20-11.71,6.89a79.52,79.52,0,0,0-24.85-10.58l-3.11-12.68-28.16-.18Z"/><path class="cls-3" d="M81,158.64a64.94,64.94,0,1,1,94.54-2.21h0a65,65,0,0,1-91.7,4.92C82.83,160.47,81.88,159.56,81,158.64Zm88.46-87.26c-.83-.84-1.7-1.66-2.59-2.47a59.31,59.31,0,1,0,4.49,83.76h0A59.4,59.4,0,0,0,169.43,71.38Z"/><path class="cls-2" d="M127.24,48.13A64.91,64.91,0,0,0,81,158.64c.91.92,1.86,1.83,2.84,2.71a65,65,0,0,0,91.7-4.92h0a64.9,64.9,0,0,0-48.27-108.3Zm-.07,124.19A59.29,59.29,0,1,1,166.84,68.91c.89.81,1.76,1.63,2.59,2.48a59.38,59.38,0,0,1,1.9,81.28h0a59.2,59.2,0,0,1-44.16,19.65Z"/><path d="M127.2,141.12A28.09,28.09,0,1,1,155.29,113,28.11,28.11,0,0,1,127.2,141.12Z"/><path class="cls-2" d="M127.2,88.45A24.59,24.59,0,1,1,102.62,113,24.61,24.61,0,0,1,127.2,88.45m0-7A31.59,31.59,0,1,0,158.79,113,31.58,31.58,0,0,0,127.2,81.45Z"/><path class="cls-1" d="M277.81,224.89l-2.29-9.35-2.18-.44a66.53,66.53,0,0,1-22.83-9.22l-1.81-1.16-8.13,4.79-13.66-13.83,4.74-7.81L230.44,186a66.67,66.67,0,0,1-9.53-23.1l-.44-2.13-9-2.33.12-19.44,9.07-2.22.47-2.13a66.32,66.32,0,0,1,9.62-22.58l1.22-1.83-5-8.48,13.83-13.66,8.63,5.23,1.83-1.13a66.71,66.71,0,0,1,21.93-8.73l2.14-.44L278,72.67l19.44.12,2.61,10.65,2.08.49A66.52,66.52,0,0,1,323,92.82L324.82,94l9.86-5.81L348.34,102l-5.93,9.78,1.15,1.83a66.84,66.84,0,0,1,8.54,20.63l.47,2.07,11.23,2.9-.12,19.44-10.93,2.67-.46,2.15a66.59,66.59,0,0,1-8.5,21.09l-1.12,1.8,5.62,9.53-13.83,13.66-9-5.43-1.85,1.22a66.6,66.6,0,0,1-21.79,9.33l-2.06.48L297.25,225Z"/><path class="cls-2" d="M280.71,76.19l14,.09,1.45,5.91,1,4.16,4.17,1a63.09,63.09,0,0,1,19.78,8.43l3.63,2.34,3.72-2.19,5.65-3.33,9.82,10-3.39,5.6-2.24,3.69,2.29,3.66A63.16,63.16,0,0,1,348.68,135l.95,4.15,4.13,1.06,6.52,1.69-.09,14-6.14,1.5-4.26,1.05-.92,4.28a63.21,63.21,0,0,1-8.06,20l-2.22,3.59,2.14,3.65,3.16,5.36-9.95,9.82-4.73-2.87-3.79-2.3-3.7,2.45a63,63,0,0,1-20.65,8.84l-4.13,1-1.06,4.11-1.34,5.16-14-.09-1.11-4.54-1.06-4.32-4.36-.88a63.25,63.25,0,0,1-21.63-8.74l-3.62-2.32-3.71,2.18-3.93,2.32-9.82-10,2.18-3.59,2.28-3.77-2.41-3.69a63.1,63.1,0,0,1-9-21.89l-.88-4.27-4.22-1.09-4.27-1.1.09-14,4.31-1.05,4.22-1,.94-4.25a63.12,63.12,0,0,1,9.13-21.4l2.43-3.65-2.23-3.79-2.5-4.24,9.95-9.82,4.46,2.7,3.67,2.23,3.65-2.27a63.16,63.16,0,0,1,20.79-8.27l4.28-.88,1.09-4.23,1.46-5.63m-5.41-7-2.82,10.91a70.43,70.43,0,0,0-23.08,9.19l-9.13-5.54-17.71,17.49,5.27,9a70.29,70.29,0,0,0-10.13,23.77l-9.61,2.35-.15,24.89,9.54,2.47a70.44,70.44,0,0,0,10,24.3l-5,8.26L240,213.91l8.63-5.09a70,70,0,0,0,24,9.71l2.41,9.85,24.9.15,2.69-10.44a70.29,70.29,0,0,0,22.93-9.82L335,214l17.71-17.49-5.93-10.06a70.07,70.07,0,0,0,8.95-22.2l11.45-2.8.15-24.89-11.8-3.06a70.24,70.24,0,0,0-9-21.7l6.23-10.27L335.26,83.78l-10.35,6.1a70.06,70.06,0,0,0-22-9.36l-2.75-11.21-24.89-.15Z"/><path class="cls-3" d="M245.78,189.61a57.41,57.41,0,1,1,83.57-2h0A57.47,57.47,0,0,1,248.29,192C247.42,191.22,246.59,190.42,245.78,189.61ZM324,112.48c-.74-.75-1.5-1.48-2.29-2.19a52.43,52.43,0,1,0,4,74h0A52.5,52.5,0,0,0,324,112.48Z"/><path class="cls-2" d="M286.68,91.92a57.38,57.38,0,0,0-40.9,97.69c.81.81,1.64,1.61,2.51,2.39a57.47,57.47,0,0,0,81.06-4.34h0a57.37,57.37,0,0,0-42.67-95.74Zm-.06,109.78a52.41,52.41,0,1,1,35.07-91.41c.79.71,1.55,1.44,2.29,2.19a52.5,52.5,0,0,1,1.67,71.85h0a52.3,52.3,0,0,1-39,17.37Z"/><circle cx="286.65" cy="149.3" r="24.42"/><path class="cls-2" d="M286.65,128.38a20.92,20.92,0,1,1-20.92,20.92,20.94,20.94,0,0,1,20.92-20.92m0-7a27.92,27.92,0,1,0,27.92,27.92,27.92,27.92,0,0,0-27.92-27.92Z"/><path class="cls-1" d="M180.34,282l.41-5-1.09-.63a36.86,36.86,0,0,1-10.37-9l-.77-1-5,1.07-4.68-9.51,3.91-3.32-.31-1.21a36.65,36.65,0,0,1-.82-13.48l.16-1.24-4.55-2.94,3.41-10,5.53.45.64-1.05a36.86,36.86,0,0,1,8.64-9.69l1-.77-1.24-5.77,9.51-4.69,3.9,4.59,1.19-.28a36.87,36.87,0,0,1,8.44-1,36,36,0,0,1,4,.22l1.23.13,3.42-5.28,10,3.41-.51,6.27,1.06.64a36.77,36.77,0,0,1,9.28,8l.77.94,6.24-1.33,4.68,9.51-4.71,4,.31,1.22a36.63,36.63,0,0,1,1,12.47l-.11,1.2,5.11,3.3-3.41,10-5.75-.46-.63,1.09a36.86,36.86,0,0,1-8.42,10l-.94.77,1.18,5.47-9.51,4.69-3.43-4-1.23.34a36.86,36.86,0,0,1-9.63,1.28,35.7,35.7,0,0,1-3.87-.2L193.2,281l-2.82,4.36Z"/><path class="cls-2" d="M207.73,204.93l7.09,2.41-.29,3.49-.2,2.46,2.11,1.28a34.69,34.69,0,0,1,8.77,7.61l1.55,1.87,2.38-.51,3.52-.75L236,229.5l-2.57,2.19-1.91,1.62.62,2.42a34.46,34.46,0,0,1,1,11.79l-.22,2.41,2,1.31,2.78,1.81-2.4,7.08-2.93-.24-2.53-.2-1.26,2.19a34.75,34.75,0,0,1-8,9.42l-1.87,1.55.51,2.37.59,2.76-6.71,3.31-1.6-1.88-1.64-1.94-2.45.67a35.13,35.13,0,0,1-9.11,1.21,34.51,34.51,0,0,1-3.66-.19l-2.44-.26L190.85,281l-1.3,2-7.09-2.41.18-2.19.2-2.52-2.17-1.26a34.7,34.7,0,0,1-9.81-8.53l-1.55-2-2.43.53-2.27.48-3.3-6.71,1.78-1.51,1.89-1.61-.61-2.41a34.68,34.68,0,0,1-.78-12.75l.32-2.49-2.11-1.36-2.19-1.42,2.41-7.08,2.76.22,2.44.2,1.29-2.09a34.91,34.91,0,0,1,8.17-9.17l2-1.54-.52-2.44-.65-3,6.71-3.31,2.1,2.48,1.59,1.86,2.38-.56a34.66,34.66,0,0,1,8-.93,37.05,37.05,0,0,1,3.8.2l2.46.27,1.34-2.07,1.9-2.94m-1.66-4.79-3.6,5.56a37.78,37.78,0,0,0-4.24-.23,38.34,38.34,0,0,0-8.9,1l-4.12-4.85-12.3,6.06,1.3,6.08A38.65,38.65,0,0,0,165.1,224l-5.86-.48-4.42,13,4.81,3.11a38.62,38.62,0,0,0,.86,14.21l-4.15,3.53,6.06,12.31,5.32-1.14a38.61,38.61,0,0,0,10.93,9.5l-.43,5.31,13,4.41,3-4.63a40.11,40.11,0,0,0,4.08.21A38.76,38.76,0,0,0,208.45,282l3.61,4.25,12.31-6.06-1.25-5.81a38.66,38.66,0,0,0,8.88-10.5l6,.49,4.41-13-5.4-3.49A38.76,38.76,0,0,0,236,234.74l4.95-4.21-6.07-12.31-6.57,1.41a38.91,38.91,0,0,0-9.78-8.48l.53-6.6-13-4.41Z"/><path class="cls-3" d="M188.07,274.37a31.64,31.64,0,1,1,40.71-21.58h0a31.67,31.67,0,0,1-38.89,22.14C189.28,274.76,188.67,274.57,188.07,274.37Zm19.51-57.3c-.54-.19-1.1-.36-1.66-.51a28.89,28.89,0,1,0,20.21,35.51h0A28.93,28.93,0,0,0,207.58,217.07Z"/><path class="cls-2" d="M198.28,212.78a31.64,31.64,0,0,0-10.21,61.59c.6.2,1.21.39,1.82.56a31.64,31.64,0,0,0,38.89-22.14h0a31.65,31.65,0,0,0-30.5-40Zm0,60.54a28.9,28.9,0,1,1,7.66-56.76c.56.15,1.12.32,1.66.51a28.93,28.93,0,0,1,18.55,35h0a29,29,0,0,1-27.87,21.25Z"/><path d="M198.28,257.31A12.87,12.87,0,1,1,204,256a12.84,12.84,0,0,1-5.75,1.36Z"/><path class="cls-2" d="M198.26,234a10.4,10.4,0,1,1-4.64,1.1,10.36,10.36,0,0,1,4.64-1.1m0-5a15.39,15.39,0,1,0,13.77,8.5,15.28,15.28,0,0,0-13.77-8.5Z"/><path class="cls-4" d="M349.86,486.29s-2.57,12-9.42,12.87-3.5,9.4-3.5,9.4h27.48V486.29Z"/><path class="cls-5" d="M270.29,171.62c-1.84-1.67-4.58.47-7.15,3.54-3.36-7.94-11.16-13.46-16-12.1-4.67,1.32-4,8.95-3.33,12.79-.76,6.27,5.28,22.22,10.68,23.64l13.37.23a117.14,117.14,0,0,1-2.51-12.34C269.39,182.72,273.45,174.5,270.29,171.62Z"/><path class="cls-5" d="M292,178.76c.28-1.84,2.87-1.9,5.81-1.33-1.8-6.18.1-13.05,3.54-14.55s6.53,3.29,8,5.83c3.4,3.26,7.43,15.34,5,18.71l-7.63,6.44a88.33,88.33,0,0,0-4.36-8.32C297.75,184.75,291.52,181.91,292,178.76Z"/><path class="cls-6" d="M356.58,239.09c.4,3.79-8.43,23.93-14.41,23.27s-11.91-19.67-21.62-34.59S303.17,194,303.26,189.24s7.57-4.09,12.8-3.69,13.46,26.88,20.18,30.45S356,233.44,356.58,239.09Z"/><path class="cls-4" d="M291.16,486.29s-2.57,12-9.42,12.87-3.49,9.4-3.49,9.4h27.48V486.29Z"/><path class="cls-5" d="M336.06,363.22s6.26,50.18,16,71.69,15.27,51.38,15.27,51.38h-25s-30.54-104-29.15-123.07S336.06,363.22,336.06,363.22Z"/><path class="cls-5" d="M317.31,365.41s-13.14,38.07-13.14,67.94a242.48,242.48,0,0,0,6.57,55s-18.52,6-24.49,0c0,0-9.56-127.86,0-132.64S317.31,365.41,317.31,365.41Z"/><path class="cls-1" d="M341.48,210c-3,14.29-14.58,24-25.93,21.6s-19.94-20-17-34.33,16.37-19.77,27.73-17.41S344.44,195.72,341.48,210Z"/><path class="cls-5" d="M300.35,191.92s-1,.68-1.78,5.36a7,7,0,0,1-6.11,6.15s4.83,6.57,5.06,11.77,6.56,11.54,10.91,13.08c2.42.85,10.25.1,9.85-5.5-.32-4.48-9-13.41-6.77-17.13C313.9,201.73,301.2,192.24,300.35,191.92Z"/><path class="cls-7" d="M343.92,366.33c-2.4-15-3.6-31-.6-90s-5.7-56.09-10.09-55.5c-12.53,1.69-22.49,2-29.76,15.4a23.27,23.27,0,0,1-8.41-2.45c-9-4.79-20-40.27-27-40.81s-17-1.46-17.14,5S261,229.57,274,249.55c9.63,14.78,14.87,19.22,20.19,20.89-.33,2.36-.65,4.83-1,7.43-5.28,45.53-26,77.45-16,99.8S346.33,381.35,343.92,366.33Z"/><path class="cls-1" d="M302.5,192.6s1.9,7.6,1.9,10.8v5.67l1.8,2s-.62-11.5,6.35-11.37S302.5,192.6,302.5,192.6Z"/><path class="cls-4" d="M56.19,486.29s2.82,12,10.32,12.87,3.82,9.4,3.82,9.4H40.26V486.29Z"/><path class="cls-5" d="M143.27,171.62c2-1.67,5,.47,7.83,3.54,3.68-7.94,12.21-13.46,17.5-12.1,5.11,1.32,4.37,8.95,3.65,12.79.83,6.27-5.78,22.22-11.69,23.64l-14.63.23a109.29,109.29,0,0,0,2.75-12.34C144.26,182.72,139.81,174.5,143.27,171.62Z"/><path class="cls-5" d="M119.52,178.76c-.3-1.84-3.14-1.9-6.35-1.33,2-6.18-.12-13.05-3.88-14.55s-7.14,3.29-8.71,5.83c-3.72,3.26-8.13,15.34-5.45,18.71l8.35,6.44a85.25,85.25,0,0,1,4.78-8.32C113.22,184.75,120,181.91,119.52,178.76Z"/><path class="cls-6" d="M48.84,239.09c-.44,3.79,9.22,23.93,15.77,23.27s13-19.67,23.66-34.59,19-33.75,18.92-38.53-8.29-4.09-14-3.69S78.46,212.43,71.1,216,49.51,233.44,48.84,239.09Z"/><path class="cls-4" d="M120.43,486.29s2.81,12,10.31,12.87,3.82,9.4,3.82,9.4H104.49V486.29Z"/><path class="cls-5" d="M71.29,363.22s-6.85,50.18-17.48,71.69-16.72,51.38-16.72,51.38H64.44s33.43-104,31.91-123.07S71.29,363.22,71.29,363.22Z"/><path class="cls-5" d="M91.81,365.41s14.38,38.07,14.38,67.94a222.89,222.89,0,0,1-7.19,55s20.27,6,26.81,0c0,0,10.46-127.86,0-132.64S91.81,365.41,91.81,365.41Z"/><path class="cls-1" d="M65.37,210c3.25,14.29,15.95,24,28.37,21.6s21.83-20,18.58-34.33S94.4,177.51,82,179.87,62.12,195.72,65.37,210Z"/><path class="cls-5" d="M110.38,191.92s1.12.68,1.94,5.36c1,5.71,6.69,6.15,6.69,6.15s-5.29,6.57-5.54,11.77-7.18,11.54-11.94,13.08c-2.65.85-11.21.1-10.78-5.5.35-4.48,9.88-13.41,7.41-17.13C95.55,201.73,109.44,192.24,110.38,191.92Z"/><path class="cls-7" d="M139.18,249.55c14.24-20,25.48-45.21,25.34-51.62s-11.1-5.48-18.77-5S126,229,116.16,233.79a27.3,27.3,0,0,1-9.2,2.45c-8-13.37-18.86-13.71-32.57-15.4-4.8-.59-14.33-3.46-11,55.5s2,75-.66,90,62,33.68,73,11.34-11.77-54.27-17.54-99.8c-.33-2.6-.68-5.07-1-7.43C122.9,268.77,128.64,264.33,139.18,249.55Z"/><path class="cls-1" d="M108,192.6s-2.08,7.6-2.08,10.8v5.67l-2,2s.68-11.5-6.94-11.37S108,192.6,108,192.6Z"/></svg>