<svg id="Layer_1" data-name="Layer 1" xmlns="http://www.w3.org/2000/svg" viewBox="0 0 1384 424"><defs><style>.cls-1{fill:#b2ce84;}</style></defs><title>HERVANA LOGO</title><path class="cls-1" d="M1381.18,151.19a16.27,16.27,0,0,0-29.68,13.2l-36.75,19,19.56-61.28,26.22-13.53a10.54,10.54,0,0,0,3.59,2.31,9,9,0,0,0,5,.23l3.62-.72a10.57,10.57,0,1,0-15.25-7.82L1337.22,113l15.23-47.72,16.11-8.32a7.06,7.06,0,0,0,2.81,1.71,7.21,7.21,0,0,0,5.52-.46h0a7.24,7.24,0,0,0-6.64-12.87,7.23,7.23,0,0,0-3.81,7.51l-12,6.19,15.4-48.25-8.23-2.63-15.42,48.29-6.83-13.23a7.22,7.22,0,1,0-11.29-2,7.26,7.26,0,0,0,7.06,3.89l9.07,17.59-15.07,47.23L1318,88.31a10.53,10.53,0,0,0-3.88-17.84,10.57,10.57,0,0,0-12.6,14.91,10.57,10.57,0,0,0,10.3,5.68L1326.22,119l-19.54,61.23-18.91-36.62a16.32,16.32,0,1,0-15.16,2.81,16.09,16.09,0,0,0,7.18.57L1303,191.88l-10.51,32.92a13.27,13.27,0,0,1-12.64,9.23h-28.47v38.14a59.63,59.63,0,0,0-23.54-29.52q-16.59-11-39.8-10.94T1146.21,243q-18.57,11.28-29,32.67t-10.45,50.24q0,28.86,10.45,50.25t29,32.67q18.57,11.28,41.79,11.27T1227.8,409a60.45,60.45,0,0,0,23.54-29.68v38.47h46.43V236.54L1311,195l45.6-23.53a16.39,16.39,0,0,0,5.41,2.84,7.63,7.63,0,0,0,3.12.14l9-1.29a16.31,16.31,0,0,0,7-22Zm-15.09-53.6a3.81,3.81,0,0,1,5.38,4.55,3.76,3.76,0,0,1-1.88,2.22h0a3.79,3.79,0,0,1-5.13-1.63A3.82,3.82,0,0,1,1366.09,97.59Zm6.28-48.16a2.65,2.65,0,0,1,2-.16,2.58,2.58,0,0,1,1.53,1.29,2.55,2.55,0,0,1,.16,2,2.61,2.61,0,0,1-1.28,1.52h0a2.61,2.61,0,0,1-2.39-4.64Zm-40.19-10.36a2.67,2.67,0,0,1-.16-2,2.61,2.61,0,0,1,4.8-.4,2.62,2.62,0,0,1-1.12,3.52,2.56,2.56,0,0,1-2,.16A2.63,2.63,0,0,1,1332.18,39.07Zm-24.67,43.21a3.82,3.82,0,0,1,4.55-5.38,3.75,3.75,0,0,1,2.22,1.89,3.81,3.81,0,0,1-6.77,3.49Zm-35.17,51.3a5.88,5.88,0,0,1,10.45-5.39,5.88,5.88,0,0,1-2.53,7.92,5.87,5.87,0,0,1-7.92-2.53Zm-34.76,230.95q-13.77,14.43-35,14.43-21.88,0-35.15-14.1t-13.27-39q0-24.87,13.27-39.13t35.15-14.26q21.23,0,35,14.43t13.76,39Q1251.34,350.12,1237.58,364.53Zm134.71-204.07a5.85,5.85,0,0,1-2.91,3.43h0a5.86,5.86,0,1,1,2.91-3.43Z"/><path class="cls-1" d="M106,235.51q-33.51,0-55,23.25V150.62H5V417.76H51V290.53q21.35-17.88,43.74-17.88,30,0,30,30.2V417.76h46V302.85Q170.77,235.51,106,235.51Z"/><path class="cls-1" d="M283.17,235.51q-85.58,0-85.58,89,0,93.21,99.11,93.21,34.55,0,58.67-5.2V376.1a297.18,297.18,0,0,1-55.2,5.21q-56.58,0-56.58-38.53h121a163.07,163.07,0,0,0,1.56-22.57Q366.13,235.51,283.17,235.51Zm38.18,75.33H243.59q3.12-39.22,39.58-39.23,38.18,0,38.18,37.84Z"/><path class="cls-1" d="M430.08,235.51H394.49V417.76h46V294q20.31-21.35,46-21.35V235.51q-26.73,0-50.69,23.25Z"/><polygon class="cls-1" points="589.31 362.91 545.04 235.51 496.44 235.51 566.05 417.76 609.79 417.76 683.91 235.51 635.3 235.51 589.31 362.91"/><path class="cls-1" d="M829.67,272.17a59.63,59.63,0,0,0-23.54-29.52q-16.59-11-39.8-10.94T724.54,243q-18.57,11.28-29,32.67t-10.44,50.24q0,28.86,10.44,50.25t29,32.67q18.57,11.28,41.79,11.27T806.13,409a60.45,60.45,0,0,0,23.54-29.68v38.47h46.44V234H829.67Zm-13.76,92.36Q802.14,379,780.92,379q-21.88,0-35.15-14.1t-13.27-39q0-24.87,13.27-39.13t35.15-14.26q21.23,0,35,14.43t13.76,39Q829.67,350.12,815.91,364.53Z"/><path class="cls-1" d="M1014,235.51q-33.51,0-59.72,26.73l-5.72-26.73H912.92V417.76h46V290.53q21.35-17.88,43.74-17.88,30,0,30,30.2V417.76h46V302.85Q1078.69,235.51,1014,235.51Z"/></svg>